<?xml version="1.0" encoding="UTF-8" standalone="no"?><svg xmlns="http://www.w3.org/2000/svg" xmlns:xlink="http://www.w3.org/1999/xlink" clip-rule="evenodd" stroke-miterlimit="10" viewBox="0 0 429 21"><desc>SVG generated by Keynote</desc><defs></defs><g transform="matrix(1.00, 0.00, -0.00, -1.00, 0.0, 21.0)"><text xml:space="preserve" font-family="Helvetica-Light,Helvetica" font-size="18.0" fill="#FEFFFF" transform="matrix(1.00, 0.00, -0.00, -1.00, 1.8, 6.1)">C</text><text xml:space="preserve" font-family="Helvetica-Light,Helvetica" font-size="18.0" fill="#FEFFFF" transform="matrix(1.00, 0.00, -0.00, -1.00, 14.8, 6.1)">o</text><text xml:space="preserve" font-family="Helvetica-Light,Helvetica" font-size="18.0" fill="#FEFFFF" transform="matrix(1.00, 0.00, -0.00, -1.00, 24.8, 6.1)">p</text><text xml:space="preserve" font-family="Helvetica-Light,Helvetica" font-size="18.0" fill="#FEFFFF" transform="matrix(1.00, 0.00, -0.00, -1.00, 35.8, 6.1)">y</text><text xml:space="preserve" font-family="Helvetica-Light,Helvetica" font-size="18.0" fill="#FEFFFF" transform="matrix(1.00, 0.00, -0.00, -1.00, 44.8, 6.1)">r</text><text xml:space="preserve" font-family="Helvetica-Light,Helvetica" font-size="18.0" fill="#FEFFFF" transform="matrix(1.00, 0.00, -0.00, -1.00, 50.8, 6.1)">i</text><text xml:space="preserve" font-family="Helvetica-Light,Helvetica" font-size="18.0" fill="#FEFFFF" transform="matrix(1.00, 0.00, -0.00, -1.00, 54.8, 6.1)">g</text><text xml:space="preserve" font-family="Helvetica-Light,Helvetica" font-size="18.0" fill="#FEFFFF" transform="matrix(1.00, 0.00, -0.00, -1.00, 65.8, 6.1)">h</text><text xml:space="preserve" font-family="Helvetica-Light,Helvetica" font-size="18.0" fill="#FEFFFF" transform="matrix(1.00, 0.00, -0.00, -1.00, 75.8, 6.1)">t</text><text xml:space="preserve" font-family="Helvetica-Light,Helvetica" font-size="18.0" fill="#FEFFFF" transform="matrix(1.00, 0.00, -0.00, -1.00, 80.8, 6.1)"> </text><text xml:space="preserve" font-family="Helvetica-Light,Helvetica" font-size="18.0" fill="#FEFFFF" transform="matrix(1.00, 0.00, -0.00, -1.00, 85.8, 6.1)">2</text><text xml:space="preserve" font-family="Helvetica-Light,Helvetica" font-size="18.0" fill="#FEFFFF" transform="matrix(1.00, 0.00, -0.00, -1.00, 95.8, 6.1)">0</text><text xml:space="preserve" font-family="Helvetica-Light,Helvetica" font-size="18.0" fill="#FEFFFF" transform="matrix(1.00, 0.00, -0.00, -1.00, 105.8, 6.1)">1</text><text xml:space="preserve" font-family="Helvetica-Light,Helvetica" font-size="18.0" fill="#FEFFFF" transform="matrix(1.00, 0.00, -0.00, -1.00, 115.8, 6.1)">3</text><text xml:space="preserve" font-family="Helvetica-Light,Helvetica" font-size="18.0" fill="#FEFFFF" transform="matrix(1.00, 0.00, -0.00, -1.00, 125.8, 6.1)">-</text><text xml:space="preserve" font-family="Helvetica-Light,Helvetica" font-size="18.0" fill="#FEFFFF" transform="matrix(1.00, 0.00, -0.00, -1.00, 131.8, 6.1)">2</text><text xml:space="preserve" font-family="Helvetica-Light,Helvetica" font-size="18.0" fill="#FEFFFF" transform="matrix(1.00, 0.00, -0.00, -1.00, 141.8, 6.1)">0</text><text xml:space="preserve" font-family="Helvetica-Light,Helvetica" font-size="18.0" fill="#FEFFFF" transform="matrix(1.00, 0.00, -0.00, -1.00, 151.8, 6.1)">1</text><text xml:space="preserve" font-family="Helvetica-Light,Helvetica" font-size="18.0" fill="#FEFFFF" transform="matrix(1.00, 0.00, -0.00, -1.00, 161.8, 6.1)">5</text><text xml:space="preserve" font-family="Helvetica-Light,Helvetica" font-size="18.0" fill="#FEFFFF" transform="matrix(1.00, 0.00, -0.00, -1.00, 171.8, 6.1)"> </text><text xml:space="preserve" font-family="Helvetica-Light,Helvetica" font-size="18.0" fill="#FEFFFF" transform="matrix(1.00, 0.00, -0.00, -1.00, 176.8, 6.1)">P</text><text xml:space="preserve" font-family="Helvetica-Light,Helvetica" font-size="18.0" fill="#FEFFFF" transform="matrix(1.00, 0.00, -0.00, -1.00, 187.8, 6.1)">o</text><text xml:space="preserve" font-family="Helvetica-Light,Helvetica" font-size="18.0" fill="#FEFFFF" transform="matrix(1.00, 0.00, -0.00, -1.00, 197.8, 6.1)">u</text><text xml:space="preserve" font-family="Helvetica-Light,Helvetica" font-size="18.0" fill="#FEFFFF" transform="matrix(1.00, 0.00, -0.00, -1.00, 207.8, 6.1)">y</text><text xml:space="preserve" font-family="Helvetica-Light,Helvetica" font-size="18.0" fill="#FEFFFF" transform="matrix(1.00, 0.00, -0.00, -1.00, 216.8, 6.1)">a</text><text xml:space="preserve" font-family="Helvetica-Light,Helvetica" font-size="18.0" fill="#FEFFFF" transform="matrix(1.00, 0.00, -0.00, -1.00, 226.9, 6.1)"> </text><text xml:space="preserve" font-family="Helvetica-Light,Helvetica" font-size="18.0" fill="#FEFFFF" transform="matrix(1.00, 0.00, -0.00, -1.00, 231.9, 6.1)">K</text><text xml:space="preserve" font-family="Helvetica-Light,Helvetica" font-size="18.0" fill="#FEFFFF" transform="matrix(1.00, 0.00, -0.00, -1.00, 243.9, 6.1)">a</text><text xml:space="preserve" font-family="Helvetica-Light,Helvetica" font-size="18.0" fill="#FEFFFF" transform="matrix(1.00, 0.00, -0.00, -1.00, 253.9, 6.1)">r</text><text xml:space="preserve" font-family="Helvetica-Light,Helvetica" font-size="18.0" fill="#FEFFFF" transform="matrix(1.00, 0.00, -0.00, -1.00, 260.2, 6.1)">y</text><text xml:space="preserve" font-family="Helvetica-Light,Helvetica" font-size="18.0" fill="#FEFFFF" transform="matrix(1.00, 0.00, -0.00, -1.00, 267.5, 6.1)">,</text><text xml:space="preserve" font-family="Helvetica-Light,Helvetica" font-size="18.0" fill="#FEFFFF" transform="matrix(1.00, 0.00, -0.00, -1.00, 272.5, 6.1)"> </text><text xml:space="preserve" font-family="Helvetica-Light,Helvetica" font-size="18.0" fill="#FEFFFF" transform="matrix(1.00, 0.00, -0.00, -1.00, 277.5, 6.1)">A</text><text xml:space="preserve" font-family="Helvetica-Light,Helvetica" font-size="18.0" fill="#FEFFFF" transform="matrix(1.00, 0.00, -0.00, -1.00, 289.5, 6.1)">l</text><text xml:space="preserve" font-family="Helvetica-Light,Helvetica" font-size="18.0" fill="#FEFFFF" transform="matrix(1.00, 0.00, -0.00, -1.00, 293.5, 6.1)">l</text><text xml:space="preserve" font-family="Helvetica-Light,Helvetica" font-size="18.0" fill="#FEFFFF" transform="matrix(1.00, 0.00, -0.00, -1.00, 297.5, 6.1)"> </text><text xml:space="preserve" font-family="Helvetica-Light,Helvetica" font-size="18.0" fill="#FEFFFF" transform="matrix(1.00, 0.00, -0.00, -1.00, 302.5, 6.1)">r</text><text xml:space="preserve" font-family="Helvetica-Light,Helvetica" font-size="18.0" fill="#FEFFFF" transform="matrix(1.00, 0.00, -0.00, -1.00, 308.5, 6.1)">i</text><text xml:space="preserve" font-family="Helvetica-Light,Helvetica" font-size="18.0" fill="#FEFFFF" transform="matrix(1.00, 0.00, -0.00, -1.00, 312.5, 6.1)">g</text><text xml:space="preserve" font-family="Helvetica-Light,Helvetica" font-size="18.0" fill="#FEFFFF" transform="matrix(1.00, 0.00, -0.00, -1.00, 323.5, 6.1)">h</text><text xml:space="preserve" font-family="Helvetica-Light,Helvetica" font-size="18.0" fill="#FEFFFF" transform="matrix(1.00, 0.00, -0.00, -1.00, 333.5, 6.1)">t</text><text xml:space="preserve" font-family="Helvetica-Light,Helvetica" font-size="18.0" fill="#FEFFFF" transform="matrix(1.00, 0.00, -0.00, -1.00, 338.5, 6.1)">s</text><text xml:space="preserve" font-family="Helvetica-Light,Helvetica" font-size="18.0" fill="#FEFFFF" transform="matrix(1.00, 0.00, -0.00, -1.00, 347.5, 6.1)"> </text><text xml:space="preserve" font-family="Helvetica-Light,Helvetica" font-size="18.0" fill="#FEFFFF" transform="matrix(1.00, 0.00, -0.00, -1.00, 352.5, 6.1)">r</text><text xml:space="preserve" font-family="Helvetica-Light,Helvetica" font-size="18.0" fill="#FEFFFF" transform="matrix(1.00, 0.00, -0.00, -1.00, 358.2, 6.1)">e</text><text xml:space="preserve" font-family="Helvetica-Light,Helvetica" font-size="18.0" fill="#FEFFFF" transform="matrix(1.00, 0.00, -0.00, -1.00, 368.2, 6.1)">s</text><text xml:space="preserve" font-family="Helvetica-Light,Helvetica" font-size="18.0" fill="#FEFFFF" transform="matrix(1.00, 0.00, -0.00, -1.00, 377.2, 6.1)">e</text><text xml:space="preserve" font-family="Helvetica-Light,Helvetica" font-size="18.0" fill="#FEFFFF" transform="matrix(1.00, 0.00, -0.00, -1.00, 387.2, 6.1)">r</text><text xml:space="preserve" font-family="Helvetica-Light,Helvetica" font-size="18.0" fill="#FEFFFF" transform="matrix(1.00, 0.00, -0.00, -1.00, 393.2, 6.1)">v</text><text xml:space="preserve" font-family="Helvetica-Light,Helvetica" font-size="18.0" fill="#FEFFFF" transform="matrix(1.00, 0.00, -0.00, -1.00, 402.2, 6.1)">e</text><text xml:space="preserve" font-family="Helvetica-Light,Helvetica" font-size="18.0" fill="#FEFFFF" transform="matrix(1.00, 0.00, -0.00, -1.00, 412.2, 6.1)">d</text><text xml:space="preserve" font-family="Helvetica-Light,Helvetica" font-size="18.0" fill="#FEFFFF" transform="matrix(1.00, 0.00, -0.00, -1.00, 423.2, 6.1)">.</text></g></svg>