<?xml version="1.0" encoding="iso-8859-1"?>
<!-- Generator: Adobe Illustrator 19.0.0, SVG Export Plug-In . SVG Version: 6.00 Build 0)  -->
<svg version="1.1" id="Layer_1" xmlns="http://www.w3.org/2000/svg" xmlns:xlink="http://www.w3.org/1999/xlink" x="0px" y="0px"
	 viewBox="0 0 488.8 488.8" style="enable-background:new 0 0 488.8 488.8;" xml:space="preserve">
<path style="fill:#FF7300;" d="M488,220.8c0-7.2-4.8-13.6-12-15.2l-44.8-11.2l33.6-32c4.8-4.8,6.4-12.8,2.4-19.2l-24-40.8
	c-3.2-6.4-11.2-8.8-17.6-7.2L380.8,108l12.8-44.8c1.6-7.2-0.8-14.4-7.2-17.6l-40.8-24c-6.4-3.2-14.4-2.4-19.2,2.4l-32,33.6
	l-11.2-44.8c-1.6-7.2-8-12-15.2-12h-48c-7.2,0-13.6,4.8-15.2,12l-11.2,44.8l-32-33.6c-4.8-4.8-12.8-6.4-19.2-2.4l-40.8,24
	c-6.4,3.2-8.8,11.2-7.2,17.6l12.8,44.8L62.4,95.2c-7.2-1.6-14.4,0.8-17.6,7.2l-24,40.8c-3.2,6.4-2.4,14.4,2.4,19.2l33.6,32L12,205.6
	c-7.2,1.6-12,8-12,15.2V268c0,7.2,4.8,13.6,12,15.2l44.8,11.2l-33.6,32c-4.8,4.8-6.4,12.8-2.4,19.2l24,40.8
	c3.2,6.4,11.2,8.8,17.6,7.2l44.8-12.8l-12.8,44.8c-1.6,7.2,0.8,14.4,7.2,17.6l40.8,24c6.4,3.2,14.4,2.4,19.2-2.4l32-33.6l11.2,44.8
	c1.6,7.2,8,12,15.2,12h48c7.2,0,13.6-4.8,15.2-12l11.2-44.8l32,33.6c4.8,4.8,12.8,6.4,19.2,2.4l40.8-24c6.4-3.2,8.8-11.2,7.2-17.6
	l-12.8-44.8l44.8,12.8c7.2,1.6,14.4-0.8,17.6-7.2l24-40.8c3.2-6.4,2.4-14.4-2.4-19.2l-33.6-32l44.8-11.2c7.2-1.6,12-8,12-15.2
	L488,220.8z"/>
<g>
	<path style="fill:#FF3C00;" d="M107.2,108L107.2,108l274.4,274.4l0,0l44.8,12.8c7.2,1.6,14.4-0.8,17.6-7.2l24-40.8
		c3.2-6.4,2.4-14.4-2.4-19.2L432,296l44.8-11.2c7.2-1.6,12-8,12-15.2v-47.2c0-7.2-4.8-13.6-12-15.2L432,196l33.6-32
		c4.8-4.8,6.4-12.8,2.4-19.2L444,104c-3.2-6.4-11.2-8.8-17.6-7.2l-44.8,12.8l12.8-44.8c1.6-7.2-0.8-14.4-7.2-17.6l-40.8-24
		c-6.4-3.2-14.4-2.4-19.2,2.4l-32,33.6l-12-46.4c-1.6-7.2-8-12-15.2-12h-48c-7.2,0-13.6,4.8-15.2,12l-11.2,44.8l-32-33.6
		c-4.8-4.8-12.8-6.4-19.2-2.4l-40.8,24c-6.4,3.2-8.8,11.2-7.2,17.6L107.2,108z"/>
	<path style="fill:#FF3C00;" d="M180,296l-53.6-94.4l-17.6,103.2l173.6,173.6c0-0.8,0-0.8,0.8-1.6l11.2-44.8l32,33.6
		c4.8,4.8,12.8,6.4,19.2,2.4l40.8-24c6.4-3.2,8.8-11.2,7.2-17.6l-12.8-44.8l44.8,12.8c6.4,1.6,13.6-0.8,17.6-7.2L224.8,198.4
		L180,296z"/>
</g>
<g>
	<path style="fill:#FFFFFF;" d="M179.2,197.6h-12c-1.6,0-3.2,1.6-3.2,3.2v40c0,8.8,0,16.8,0.8,24.8c-3.2-5.6-6.4-12-10.4-18.4
		l-31.2-48.8c-0.8-0.8-1.6-1.6-2.4-1.6h-13.6c-1.6,0-3.2,1.6-3.2,3.2v96.8c0,1.6,1.6,3.2,3.2,3.2h12c1.6,0,3.2-1.6,3.2-3.2v-41.6
		c0-10.4,0-18.4,0-25.6c3.2,6.4,7.2,12.8,12,20l30.4,48.8c0.8,0.8,1.6,1.6,2.4,1.6H180c1.6,0,3.2-1.6,3.2-3.2v-96
		C182.4,199.2,180.8,197.6,179.2,197.6z"/>
	<path style="fill:#FFFFFF;" d="M255.2,283.2h-38.4v-28h34.4c1.6,0,3.2-1.6,3.2-3.2v-10.4c0-1.6-1.6-3.2-3.2-3.2h-34.4v-24h36
		c1.6,0,3.2-1.6,3.2-3.2v-10.4c0-1.6-1.6-3.2-3.2-3.2h-52c-1.6,0-3.2,1.6-3.2,3.2v96.8c0,1.6,1.6,3.2,3.2,3.2h54.4
		c1.6,0,3.2-1.6,3.2-3.2v-10.4C258.4,284.8,256.8,283.2,255.2,283.2z"/>
	<path style="fill:#FFFFFF;" d="M384,198.4c-0.8-0.8-1.6-1.6-2.4-1.6h-12.8c-1.6,0-2.4,0.8-3.2,2.4L352.8,248v1.6
		c-1.6,5.6-3.2,11.2-4,16.8c-0.8-5.6-2.4-11.2-4-17.6l-12-48.8c0-1.6-1.6-2.4-3.2-2.4h-12.8c-1.6,0-2.4,0.8-3.2,2.4l-12.8,48.8
		c-1.6,6.4-3.2,12.8-4.8,18.4c-1.6-5.6-2.4-12-4-18.4L280.8,200c0-1.6-1.6-2.4-3.2-2.4h-12.8c-0.8,0-1.6,0.8-2.4,1.6
		s-0.8,1.6-0.8,2.4l24.8,96.8c0,1.6,1.6,2.4,3.2,2.4h12.8c1.6,0,2.4-0.8,3.2-2.4l13.6-50.4c1.6-5.6,3.2-10.4,4-16
		c0.8,4.8,2.4,9.6,3.2,16l12,50.4c0,1.6,1.6,2.4,3.2,2.4h12.8c1.6,0,2.4-0.8,3.2-2.4l27.2-96.8C384.8,200.8,384.8,199.2,384,198.4z"
		/>
</g>
<g>
</g>
<g>
</g>
<g>
</g>
<g>
</g>
<g>
</g>
<g>
</g>
<g>
</g>
<g>
</g>
<g>
</g>
<g>
</g>
<g>
</g>
<g>
</g>
<g>
</g>
<g>
</g>
<g>
</g>
</svg>
