<svg height="512pt" viewBox="-28 0 511 512" width="512pt" xmlns="http://www.w3.org/2000/svg"><path d="m8 7.5h366.1875v497h-366.1875zm0 0" fill="#fff"/><path d="m350.265625 7.5h23.921875v497h-23.921875zm0 0" fill="#e1eaf8"/><path d="m8 7.5h23.921875v497h-23.921875zm0 0" fill="#e1eaf8"/><path d="m322.21875 387.058594c0 24.078125-19.519531 43.597656-43.601562 43.597656-24.078126 0-43.597657-19.519531-43.597657-43.597656s19.519531-43.597656 43.597657-43.597656c24.082031 0 43.601562 19.519531 43.601562 43.597656zm0 0" fill="#ffb400"/><path d="m303.351562 387.058594c0 13.660156-11.074218 24.730468-24.734374 24.730468-13.65625 0-24.730469-11.070312-24.730469-24.730468 0-13.65625 11.074219-24.730469 24.730469-24.730469 13.660156 0 24.734374 11.074219 24.734374 24.730469zm0 0" fill="#ffc843"/><path d="m408.25 148.808594h40.222656v312.039062h-40.222656zm0 0" fill="#76ffd9"/><path d="m431.902344 148.808594h16.570312v312.039062h-16.570312zm0 0" fill="#5de0bf"/><path d="m408.25 460.847656 20.113281 41.109375 20.109375-41.109375zm0 0" fill="#fff"/><path d="m408.25 364.453125h40.222656v96.394531h-40.222656zm0 0" fill="#76ffd9"/><path d="m431.902344 364.453125h16.570312v96.394531h-16.570312zm0 0" fill="#5de0bf"/><path d="m374.1875 0h-366.1875c-4.140625 0-7.5 3.359375-7.5 7.5v497c0 4.140625 3.359375 7.5 7.5 7.5h100.460938c4.140624 0 7.5-3.359375 7.5-7.5s-3.359376-7.5-7.5-7.5h-92.960938v-482h351.1875v76.558594c0 4.140625 3.355469 7.5 7.5 7.5 4.140625 0 7.5-3.359375 7.5-7.5v-84.058594c0-4.140625-3.359375-7.5-7.5-7.5zm0 0" fill="#434c54"/><path d="m374.1875 117.609375c-4.144531 0-7.5 3.355469-7.5 7.5v371.890625h-224.675781c-4.144531 0-7.5 3.359375-7.5 7.5s3.355469 7.5 7.5 7.5h232.175781c4.140625 0 7.5-3.359375 7.5-7.5v-379.390625c0-4.144531-3.359375-7.5-7.5-7.5zm0 0" fill="#434c54"/><g fill="#c1c8d2"><path d="m56.539062 108.976562h45.523438c4.140625 0 7.5-3.355468 7.5-7.5 0-4.140624-3.359375-7.5-7.5-7.5h-45.523438c-4.144531 0-7.5 3.359376-7.5 7.5 0 4.144532 3.355469 7.5 7.5 7.5zm0 0"/><path d="m56.539062 135.011719h45.523438c4.140625 0 7.5-3.359375 7.5-7.5 0-4.144531-3.359375-7.5-7.5-7.5h-45.523438c-4.144531 0-7.5 3.355469-7.5 7.5 0 4.140625 3.355469 7.5 7.5 7.5zm0 0"/><path d="m56.539062 410.003906h45.523438c4.140625 0 7.5-3.355468 7.5-7.5 0-4.140625-3.359375-7.5-7.5-7.5h-45.523438c-4.144531 0-7.5 3.359375-7.5 7.5 0 4.144532 3.355469 7.5 7.5 7.5zm0 0"/><path d="m56.539062 436.039062h104.40625c4.144532 0 7.5-3.359374 7.5-7.5 0-4.144531-3.355468-7.5-7.5-7.5h-104.40625c-4.144531 0-7.5 3.355469-7.5 7.5 0 4.140626 3.355469 7.5 7.5 7.5zm0 0"/><path d="m56.539062 208.542969h264.820313c4.144531 0 7.5-3.355469 7.5-7.5 0-4.140625-3.355469-7.5-7.5-7.5h-264.820313c-4.144531 0-7.5 3.359375-7.5 7.5 0 4.144531 3.355469 7.5 7.5 7.5zm0 0"/><path d="m56.539062 247.714844h264.820313c4.144531 0 7.5-3.359375 7.5-7.5 0-4.144532-3.355469-7.5-7.5-7.5h-264.820313c-4.144531 0-7.5 3.355468-7.5 7.5 0 4.140625 3.355469 7.5 7.5 7.5zm0 0"/><path d="m56.539062 286.882812h264.820313c4.144531 0 7.5-3.355468 7.5-7.5 0-4.140624-3.355469-7.5-7.5-7.5h-264.820313c-4.144531 0-7.5 3.359376-7.5 7.5 0 4.144532 3.355469 7.5 7.5 7.5zm0 0"/><path d="m304.171875 58.023438h16.695313c4.144531 0 7.5-3.359376 7.5-7.5 0-4.144532-3.355469-7.5-7.5-7.5h-16.695313c-4.144531 0-7.5 3.355468-7.5 7.5 0 4.140624 3.355469 7.5 7.5 7.5zm0 0"/><path d="m304.171875 82.351562h16.695313c4.144531 0 7.5-3.359374 7.5-7.5 0-4.144531-3.355469-7.5-7.5-7.5h-16.695313c-4.144531 0-7.5 3.355469-7.5 7.5 0 4.140626 3.355469 7.5 7.5 7.5zm0 0"/><path d="m304.171875 106.679688h16.695313c4.144531 0 7.5-3.359376 7.5-7.5 0-4.144532-3.355469-7.5-7.5-7.5h-16.695313c-4.144531 0-7.5 3.355468-7.5 7.5 0 4.140624 3.355469 7.5 7.5 7.5zm0 0"/></g><path d="m448.472656 301.886719c4.140625 0 7.5-3.355469 7.5-7.5v-145.578125c0-4.144532-3.359375-7.5-7.5-7.5h-40.222656c-4.140625 0-7.5 3.355468-7.5 7.5v312.039062c0 1.132813.265625 2.28125.761719 3.296875l20.113281 41.109375c1.257812 2.574219 3.871094 4.203125 6.734375 4.203125 2.867187 0 5.480469-1.628906 6.738281-4.203125l20.113282-41.109375c.492187-1.015625.761718-2.164062.761718-3.296875v-133.21875c0-4.140625-3.359375-7.5-7.5-7.5-4.144531 0-7.5 3.359375-7.5 7.5v29.328125h-25.222656v-200.648437h25.222656v138.078125c0 4.144531 3.355469 7.5 7.5 7.5zm-20.113281 183.003906-8.089844-16.542969h16.183594zm12.613281-31.542969h-25.222656v-59.8125h25.222656zm0-81.390625v6.578125h-25.222656v-6.578125zm0 0" fill="#434c54"/></svg>