<svg height="512pt" viewBox="0 -52 512.144 512" width="512pt" xmlns="http://www.w3.org/2000/svg"><path d="m392.3125 80.070312c-4.425781 0-8.039062-3.582031-8.039062-8 0-4.414062 3.535156-8 7.949218-8h.089844c4.414062 0 8 3.585938 8 8 0 4.417969-3.585938 8-8 8zm0 0"/><path d="m392.3125 120.070312c-4.425781 0-8.039062-3.582031-8.039062-8 0-4.414062 3.535156-8 7.949218-8h.089844c4.414062 0 8 3.585938 8 8 0 4.417969-3.585938 8-8 8zm0 0"/><path d="m392.3125 160.070312c-4.425781 0-8.039062-3.582031-8.039062-8 0-4.414062 3.535156-8 7.949218-8h.089844c4.414062 0 8 3.585938 8 8 0 4.417969-3.585938 8-8 8zm0 0"/><path d="m392.3125 200.070312c-4.425781 0-8.039062-3.582031-8.039062-8 0-4.414062 3.535156-8 7.949218-8h.089844c4.414062 0 8 3.585938 8 8 0 4.417969-3.585938 8-8 8zm0 0"/><path d="m392.3125 240.070312c-4.425781 0-8.039062-3.574218-8.039062-8 0-4.421874 3.535156-8 7.949218-8h.089844c4.414062 0 8 3.578126 8 8 0 4.425782-3.585938 8-8 8zm0 0"/><path d="m32.238281 32.070312c-4.421875 0-8.039062-3.582031-8.039062-8 0-4.414062 3.535156-8 7.953125-8h.085937c4.417969 0 8 3.585938 8 8 0 4.417969-3.582031 8-8 8zm0 0"/><path d="m56.238281 32.070312c-4.421875 0-8.039062-3.582031-8.039062-8 0-4.414062 3.535156-8 7.953125-8h.085937c4.417969 0 8 3.585938 8 8 0 4.417969-3.582031 8-8 8zm0 0"/><path d="m80.238281 32.070312c-4.421875 0-8.039062-3.582031-8.039062-8 0-4.414062 3.535156-8 7.953125-8h.085937c4.417969 0 8 3.585938 8 8 0 4.417969-3.582031 8-8 8zm0 0"/><path d="m504.144531 408.070312h-496c-4.425781 0-8-3.574218-8-8v-360c0-4.414062 3.574219-8 8-8h496c4.421875 0 8 3.585938 8 8v360c0 4.425782-3.578125 8-8 8zm-488-16h480v-344h-480zm0 0"/><path d="m8 32.070312c-4.425781 0-8-3.582031-8-8 0-13.230468 10.769531-23.9999995 24-23.9999995 4.425781 0 8 3.5859375 8 7.9999995 0 4.417969-3.574219 8-8 8-4.414062 0-8 3.59375-8 8 0 4.417969-3.574219 8-8 8zm0 0"/><path d="m8 48.070312c-4.425781 0-8-3.582031-8-8v-16c0-4.414062 3.574219-8 8-8s8 3.585938 8 8v16c0 4.417969-3.574219 8-8 8zm0 0"/><path d="m504 32.070312c-4.425781 0-8-3.582031-8-8 0-4.40625-3.585938-8-8-8-4.425781 0-8-3.582031-8-8 0-4.414062 3.574219-7.9999995 8-7.9999995 13.230469 0 24 10.7695315 24 23.9999995 0 4.417969-3.574219 8-8 8zm0 0"/><path d="m504 48.070312c-4.425781 0-8-3.582031-8-8v-16c0-4.414062 3.574219-8 8-8s8 3.585938 8 8v16c0 4.417969-3.574219 8-8 8zm0 0"/><path d="m488 16.070312h-464c-4.425781 0-8-3.582031-8-8 0-4.414062 3.574219-7.9999995 8-7.9999995h464c4.425781 0 8 3.5859375 8 7.9999995 0 4.417969-3.574219 8-8 8zm0 0"/><path d="m360.070312 376.070312h-320c-4.421874 0-8-3.574218-8-8v-296c0-4.414062 3.578126-8 8-8h320c4.425782 0 8 3.585938 8 8v296c0 4.425782-3.574218 8-8 8zm-312-16h304v-280h-304zm0 0"/><path d="m456.070312 80.070312h-40c-4.421874 0-8-3.582031-8-8 0-4.414062 3.578126-8 8-8h40c4.425782 0 8 3.585938 8 8 0 4.417969-3.574218 8-8 8zm0 0"/><path d="m472.070312 120.070312h-56c-4.421874 0-8-3.582031-8-8 0-4.414062 3.578126-8 8-8h56c4.425782 0 8 3.585938 8 8 0 4.417969-3.574218 8-8 8zm0 0"/><path d="m464.070312 160.070312h-48c-4.421874 0-8-3.582031-8-8 0-4.414062 3.578126-8 8-8h48c4.425782 0 8 3.585938 8 8 0 4.417969-3.574218 8-8 8zm0 0"/><path d="m440.070312 200.070312h-24c-4.421874 0-8-3.582031-8-8 0-4.414062 3.578126-8 8-8h24c4.425782 0 8 3.585938 8 8 0 4.417969-3.574218 8-8 8zm0 0"/><path d="m472.070312 240.070312h-56c-4.421874 0-8-3.574218-8-8 0-4.421874 3.578126-8 8-8h56c4.425782 0 8 3.578126 8 8 0 4.425782-3.574218 8-8 8zm0 0"/><path d="m392.3125 280.070312c-4.425781 0-8.039062-3.574218-8.039062-8 0-4.421874 3.535156-8 7.949218-8h.089844c4.414062 0 8 3.578126 8 8 0 4.425782-3.585938 8-8 8zm0 0"/><path d="m456.070312 280.070312h-40c-4.421874 0-8-3.574218-8-8 0-4.421874 3.578126-8 8-8h40c4.425782 0 8 3.578126 8 8 0 4.425782-3.574218 8-8 8zm0 0"/><path d="m472.070312 352.070312h-80c-4.421874 0-8-3.574218-8-8v-32c0-4.421874 3.578126-8 8-8h80c4.425782 0 8 3.578126 8 8v32c0 4.425782-3.574218 8-8 8zm-72-16h64v-16h-64zm0 0"/><path d="m472.070312 376.070312h-24c-4.421874 0-8-3.574218-8-8 0-4.421874 3.578126-8 8-8h24c4.425782 0 8 3.578126 8 8 0 4.425782-3.574218 8-8 8zm0 0"/><path d="m360.070312 344.070312h-320c-4.421874 0-8-3.574218-8-8 0-4.421874 3.578126-8 8-8h320c4.425782 0 8 3.578126 8 8 0 4.425782-3.574218 8-8 8zm0 0"/><path d="m328.070312 376.070312c-4.421874 0-8-3.574218-8-8v-32c0-4.421874 3.578126-8 8-8 4.425782 0 8 3.578126 8 8v32c0 4.425782-3.574218 8-8 8zm0 0"/><path d="m296.070312 376.070312c-4.421874 0-8-3.574218-8-8v-32c0-4.421874 3.578126-8 8-8 4.425782 0 8 3.578126 8 8v32c0 4.425782-3.574218 8-8 8zm0 0"/><path d="m104.070312 376.070312c-4.421874 0-8-3.574218-8-8v-32c0-4.421874 3.578126-8 8-8 4.425782 0 8 3.578126 8 8v32c0 4.425782-3.574218 8-8 8zm0 0"/><path d="m72.070312 376.070312c-4.421874 0-8-3.574218-8-8v-32c0-4.421874 3.578126-8 8-8 4.425782 0 8 3.578126 8 8v32c0 4.425782-3.574218 8-8 8zm0 0"/><path d="m144.070312 216.070312c-4.421874 0-8-3.574218-8-8v-30.933593c0-4.417969 3.578126-8 8-8 4.425782 0 8 3.582031 8 8v30.933593c0 4.425782-3.574218 8-8 8zm0 0"/><path d="m256.070312 216.070312c-4.421874 0-8-3.574218-8-8v-36c0-4.414062 3.578126-8 8-8 4.425782 0 8 3.585938 8 8v36c0 4.425782-3.574218 8-8 8zm0 0"/><path d="m256.070312 180.070312c-4.421874 0-8-3.582031-8-8 0-28.671874-23.328124-52-52.007812-52-28.671875 0-51.992188 23.328126-51.992188 52 0 4.417969-3.574218 8-8 8-4.421874 0-8-3.582031-8-8 0-37.496093 30.503907-68 67.992188-68 37.503906 0 68.007812 30.503907 68.007812 68 0 4.417969-3.574218 8-8 8zm0 0"/><path d="m256.078125 191.039062c-2.40625 0-4.78125-1.078124-6.359375-3.136718-15.445312-20.175782-19.65625-18.503906-35.3125-12.300782-15.023438 5.941407-37.726562 14.957032-79.582031 8.335938-4.359375-.691406-7.34375-4.785156-6.648438-9.152344.679688-4.359375 4.785157-7.34375 9.152344-6.65625 37.535156 5.925782 56.984375-1.785156 71.191406-7.410156 19.265625-7.640625 32.191407-10.902344 53.90625 17.449219 2.6875 3.503906 2.023438 8.527343-1.488281 11.214843-1.449219 1.121094-3.160156 1.65625-4.859375 1.65625zm0 0"/><path d="m224.0625 171.886719c-1.175781 0-2.382812-.261719-3.511719-.824219-3.964843-1.941406-5.597656-6.742188-3.65625-10.703125l16-32.574219c1.945313-3.96875 6.722657-5.609375 10.707031-3.65625 3.964844 1.941406 5.597657 6.742188 3.65625 10.703125l-16 32.574219c-1.394531 2.832031-4.242187 4.480469-7.195312 4.480469zm0 0"/><path d="m128.070312 320.039062c-4.421874 0-8-3.574218-8-8 0-17.648437 14.355469-32 32-32 4.425782 0 8 3.578126 8 8 0 4.425782-3.574218 8-8 8-8.824218 0-16 7.175782-16 16 0 4.425782-3.574218 8-8 8zm0 0"/><path d="m176.070312 296.089844h-24c-4.421874 0-8-3.578125-8-8 0-4.425782 3.578126-8 8-8h24c4.425782 0 8 3.574218 8 8 0 4.421875-3.574218 8-8 8zm0 0"/><path d="m128.070312 344.070312c-4.421874 0-8-3.574218-8-8v-24.03125c0-4.421874 3.578126-8 8-8 4.425782 0 8 3.578126 8 8v24.03125c0 4.425782-3.574218 8-8 8zm0 0"/><path d="m272.070312 320.039062c-4.421874 0-8-3.574218-8-8 0-8.824218-7.175781-16-16-16-4.421874 0-8-3.574218-8-8 0-4.421874 3.578126-8 8-8 17.648438 0 32 14.351563 32 32 0 4.425782-3.574218 8-8 8zm0 0"/><path d="m248.070312 296.089844h-24c-4.421874 0-8-3.578125-8-8 0-4.425782 3.578126-8 8-8h24c4.425782 0 8 3.574218 8 8 0 4.421875-3.574218 8-8 8zm0 0"/><path d="m272.070312 344.070312c-4.421874 0-8-3.574218-8-8v-24.03125c0-4.421874 3.578126-8 8-8 4.425782 0 8 3.578126 8 8v24.03125c0 4.425782-3.574218 8-8 8zm0 0"/><path d="m176.070312 296.089844c-4.421874 0-8-3.578125-8-8v-29.472656c0-4.425782 3.578126-8 8-8 4.425782 0 8 3.574218 8 8v29.472656c0 4.421875-3.574218 8-8 8zm0 0"/><path d="m224.070312 296.039062c-4.421874 0-8-3.574218-8-8v-29.421874c0-4.425782 3.578126-8 8-8 4.425782 0 8 3.574218 8 8v29.421874c0 4.425782-3.574218 8-8 8zm0 0"/><path d="m200.070312 272.007812c-35.285156 0-64-28.695312-64-63.96875 0-4.414062 3.578126-8 8-8 4.425782 0 8 3.585938 8 8 0 26.457032 21.53125 47.96875 48 47.96875 26.472657 0 48-21.511718 48-47.96875 0-4.414062 3.578126-8 8-8 4.425782 0 8 3.585938 8 8 0 35.273438-28.710937 63.96875-64 63.96875zm0 0"/><path d="m184.078125 304.039062c-2.933594 0-5.757813-1.613281-7.167969-4.421874-1.972656-3.953126-.375-8.761719 3.578125-10.738282l16-8c3.945313-1.957031 8.75-.375 10.734375 3.578125 1.976563 3.949219.378906 8.757813-3.574218 10.734375l-16 8c-1.144532.578125-2.367188.847656-3.570313.847656zm0 0"/><path d="m216.070312 304.039062c-2.046874 0-4.09375-.78125-5.65625-2.34375-3.125-3.128906-3.125-8.183593 0-11.3125l8-8c3.128907-3.125 8.1875-3.125 11.3125 0 3.128907 3.128907 3.128907 8.183594 0 11.3125l-8 8c-1.558593 1.5625-3.605468 2.34375-5.65625 2.34375zm0 0"/><path d="m184.070312 304.039062c-2.046874 0-4.09375-.78125-5.65625-2.34375l-8-8c-3.125-3.128906-3.125-8.183593 0-11.3125 3.128907-3.125 8.1875-3.125 11.3125 0l8 8c3.128907 3.128907 3.128907 8.183594 0 11.3125-1.558593 1.5625-3.605468 2.34375-5.65625 2.34375zm0 0"/><path d="m216.0625 304.039062c-1.199219 0-2.421875-.269531-3.566406-.839843l-16-8c-3.953125-1.976563-5.550782-6.785157-3.574219-10.734375 1.980469-3.953125 6.789063-5.535156 10.734375-3.578125l16 8c3.953125 1.976562 5.550781 6.785156 3.574219 10.738281-1.40625 2.800781-4.230469 4.414062-7.167969 4.414062zm0 0"/><path d="m136.070312 184.039062c-4.421874 0-8-3.582031-8-8v-3.96875c0-4.414062 3.578126-8 8-8 4.425782 0 8 3.585938 8 8v3.96875c0 4.417969-3.574218 8-8 8zm0 0"/></svg>