<svg height="512pt" viewBox="0 -40 512 512" width="512pt" xmlns="http://www.w3.org/2000/svg"><path d="m264.070312 16h-80c-4.421874 0-8-3.585938-8-8s3.578126-8 8-8h80c4.425782 0 8 3.585938 8 8s-3.574218 8-8 8zm0 0"/><path d="m344.070312 384c-4.421874 0-8-3.574219-8-8 0-26.472656-21.527343-48-48-48-4.421874 0-8-3.574219-8-8s3.578126-8 8-8c35.289063 0 64 28.710938 64 64 0 4.425781-3.574218 8-8 8zm0 0"/><path d="m288.070312 328h-40c-4.421874 0-8-3.574219-8-8s3.578126-8 8-8h40c4.425782 0 8 3.574219 8 8s-3.574218 8-8 8zm0 0"/><path d="m344.070312 432c-4.421874 0-8-3.574219-8-8v-46.839844c0-4.425781 3.578126-8 8-8 4.425782 0 8 3.574219 8 8v46.839844c0 4.425781-3.574218 8-8 8zm0 0"/><path d="m56.070312 384c-4.421874 0-8-3.574219-8-8 0-35.289062 28.714844-64 64-64 4.425782 0 8 3.574219 8 8s-3.574218 8-8 8c-26.46875 0-48 21.527344-48 48 0 4.425781-3.574218 8-8 8zm0 0"/><path d="m152.070312 328h-40c-4.421874 0-8-3.574219-8-8s3.578126-8 8-8h40c4.425782 0 8 3.574219 8 8s-3.574218 8-8 8zm0 0"/><path d="m56.070312 432c-4.421874 0-8-3.574219-8-8v-46.839844c0-4.425781 3.578126-8 8-8 4.425782 0 8 3.574219 8 8v46.839844c0 4.425781-3.574218 8-8 8zm0 0"/><path d="m152.070312 328c-4.421874 0-8-3.574219-8-8v-34.785156c0-4.421875 3.578126-8 8-8 4.425782 0 8 3.578125 8 8v34.785156c0 4.425781-3.574218 8-8 8zm0 0"/><path d="m248.070312 328c-4.421874 0-8-3.574219-8-8v-34.785156c0-4.421875 3.578126-8 8-8 4.425782 0 8 3.578125 8 8v34.785156c0 4.425781-3.574218 8-8 8zm0 0"/><path d="m200.070312 304c-66.167968 0-120-53.832031-120-120 0-4.414062 3.578126-8 8-8 4.425782 0 8 3.585938 8 8 0 57.34375 46.65625 104 104 104s104-46.65625 104-104c0-4.414062 3.578126-8 8-8 4.425782 0 8 3.585938 8 8 0 66.167969-53.832031 120-120 120zm0 0"/><path d="m88.070312 191.816406c-4.421874 0-8-3.585937-8-8v-79.816406c0-4.414062 3.578126-8 8-8 4.425782 0 8 3.585938 8 8v79.816406c0 4.414063-3.574218 8-8 8zm0 0"/><path d="m312.070312 192.007812c-4.421874 0-8-3.582031-8-8v-88c0-4.414062 3.578126-8 8-8 4.425782 0 8 3.585938 8 8v88c0 4.417969-3.574218 8-8 8zm0 0"/><path d="m312.070312 104c-4.421874 0-8-3.585938-8-8 0-22.054688-17.941406-40-40-40-4.421874 0-8-3.585938-8-8s3.578126-8 8-8c30.875 0 56 25.121094 56 56 0 4.414062-3.574218 8-8 8zm0 0"/><path d="m264.070312 56c-4.421874 0-8-3.585938-8-8v-40c0-4.414062 3.578126-8 8-8 4.425782 0 8 3.585938 8 8v40c0 4.414062-3.574218 8-8 8zm0 0"/><path d="m88.070312 112c-4.421874 0-8-3.585938-8-8 0-57.34375 46.65625-104 104-104 4.425782 0 8 3.585938 8 8s-3.574218 8-8 8c-48.519531 0-88 39.480469-88 88 0 4.414062-3.574218 8-8 8zm0 0"/><path d="m312.070312 152c-2.046874 0-4.09375-.785156-5.65625-2.34375l-32-32c-3.125-3.128906-3.125-8.183594 0-11.3125 3.128907-3.128906 8.1875-3.128906 11.3125 0l32 32c3.128907 3.128906 3.128907 8.183594 0 11.3125-1.558593 1.558594-3.605468 2.34375-5.65625 2.34375zm0 0"/><path d="m200.070312 136c-44.589843 0-81.644531-15.992188-83.199218-16.671875-4.046875-1.769531-5.886719-6.480469-4.128906-10.527344 1.761718-4.058593 6.457031-5.90625 10.53125-4.136719.351562.152344 35.671874 15.335938 76.796874 15.335938 41.28125 0 76.449219-15.175781 76.800782-15.328125 4.050781-1.777344 8.769531.070313 10.527344 4.121094 1.777343 4.046875-.070313 8.765625-4.125 10.535156-1.554688.679687-38.609376 16.671875-83.203126 16.671875zm0 0"/><path d="m88.070312 151.902344c-2.054687 0-4.101562-.78125-5.664062-2.351563-3.117188-3.125-3.117188-8.191406.019531-11.3125l32-31.902343c3.132813-3.121094 8.191407-3.105469 11.308594.015624 3.121094 3.128907 3.121094 8.191407-.015625 11.3125l-32 31.902344c-1.558594 1.5625-3.597656 2.335938-5.648438 2.335938zm0 0"/><path d="m176.0625 344c-1.519531 0-3.0625-.441406-4.429688-1.34375l-24-16c-3.679687-2.457031-4.671874-7.417969-2.21875-11.097656 2.441407-3.679688 7.410157-4.671875 11.097657-2.214844l24 16c3.679687 2.457031 4.671875 7.417969 2.214843 11.097656-1.542968 2.3125-4.078124 3.558594-6.664062 3.558594zm0 0"/><path d="m176.070312 344c-3.351562 0-6.46875-2.121094-7.582031-5.472656-1.398437-4.191406.863281-8.726563 5.054688-10.121094l24-8c4.226562-1.414062 8.722656.867188 10.121093 5.058594 1.398438 4.191406-.863281 8.726562-5.054687 10.121094l-24 8c-.847656.277343-1.707031.414062-2.539063.414062zm0 0"/><path d="m224.078125 344c-2.582031 0-5.125-1.246094-6.664063-3.558594-2.453124-3.679687-1.460937-8.640625 2.21875-11.097656l24-16c3.679688-2.457031 8.640626-1.464844 11.09375 2.214844 2.457032 3.679687 1.464844 8.640625-2.214843 11.097656l-24 16c-1.367188.902344-2.910157 1.34375-4.433594 1.34375zm0 0"/><path d="m224.070312 344c-.832031 0-1.6875-.136719-2.527343-.414062l-24-8c-4.183594-1.394532-6.453125-5.921876-5.054688-10.121094 1.398438-4.183594 5.894531-6.472656 10.121094-5.058594l24 8c4.183594 1.394531 6.453125 5.921875 5.054687 10.121094-1.128906 3.351562-4.238281 5.472656-7.59375 5.472656zm0 0"/><path d="m200.3125 376c-4.425781 0-8.039062-3.574219-8.039062-8s3.535156-8 7.949218-8h.089844c4.414062 0 8 3.574219 8 8s-3.585938 8-8 8zm0 0"/><path d="m200.3125 408c-4.425781 0-8.039062-3.574219-8.039062-8s3.535156-8 7.949218-8h.089844c4.414062 0 8 3.574219 8 8s-3.585938 8-8 8zm0 0"/><path d="m392.144531 432h-384c-4.425781 0-8-3.574219-8-8v-272c0-4.414062 3.574219-8 8-8h79.925781c4.425782 0 8 3.585938 8 8s-3.574218 8-8 8h-71.925781v256h376c4.421875 0 8 3.574219 8 8s-3.585937 8-8 8zm0 0"/><path d="m8 144c-4.425781 0-8-3.585938-8-8 0-13.230469 10.769531-24 24-24 4.425781 0 8 3.585938 8 8s-3.574219 8-8 8c-4.414062 0-8 3.59375-8 8 0 4.414062-3.574219 8-8 8zm0 0"/><path d="m8 160c-4.425781 0-8-3.585938-8-8v-16c0-4.414062 3.574219-8 8-8s8 3.585938 8 8v16c0 4.414062-3.574219 8-8 8zm0 0"/><path d="m88.070312 128h-63.964843c-4.425781 0-8-3.585938-8-8s3.574219-8 8-8h63.964843c4.425782 0 8 3.585938 8 8s-3.574218 8-8 8zm0 0"/><path d="m344 128h-31.984375c-4.421875 0-8-3.585938-8-8s3.578125-8 8-8h31.984375c4.425781 0 8 3.585938 8 8s-3.574219 8-8 8zm0 0"/><path d="m344 160h-31.984375c-4.421875 0-8-3.585938-8-8s3.578125-8 8-8h31.984375c4.425781 0 8 3.585938 8 8s-3.574219 8-8 8zm0 0"/><path d="m344 216.007812c-1.464844 0-2.910156-.398437-4.191406-1.183593-2.367188-1.464844-3.808594-4.039063-3.808594-6.816407v-200.007812c0-4.414062 3.574219-8 8-8h160c4.425781 0 8 3.585938 8 8v176.007812c0 2.128907-.839844 4.160157-2.351562 5.664063-1.503907 1.503906-3.527344 2.335937-5.648438 2.335937-.007812 0-.007812 0-.015625 0l-110.089844-.191406-46.292969 23.335938c-1.128906.566406-2.371093.855468-3.601562.855468zm8-200.007812v179.015625l36.398438-18.34375c1.128906-.566406 2.503906-1.167969 3.617187-.855469l103.984375.175782v-159.992188zm0 0"/><path d="m392.144531 432c-4.417969 0-8-3.574219-8-7.992188l-.144531-240.191406c0-4.417968 3.574219-8 7.992188-8h.007812c4.414062 0 8 3.574219 8 8l.144531 240.183594c0 4.414062-3.585937 8-8 8zm0 0"/><path d="m464 88h-48c-4.425781 0-8-3.585938-8-8s3.574219-8 8-8h48c4.425781 0 8 3.585938 8 8s-3.574219 8-8 8zm0 0"/><path d="m464 56h-80c-4.425781 0-8-3.585938-8-8s3.574219-8 8-8h80c4.425781 0 8 3.585938 8 8s-3.574219 8-8 8zm0 0"/><path d="m464 120h-72c-4.425781 0-8-3.585938-8-8s3.574219-8 8-8h72c4.425781 0 8 3.585938 8 8s-3.574219 8-8 8zm0 0"/><path d="m464 152.007812h-40c-4.425781 0-8-3.582031-8-8 0-4.414062 3.574219-8 8-8h40c4.425781 0 8 3.585938 8 8 0 4.417969-3.574219 8-8 8zm0 0"/></svg>