<svg height="512pt" viewBox="0 -88 512 512" width="512pt" xmlns="http://www.w3.org/2000/svg"><path d="m504 264h-496c-4.425781 0-8-3.574219-8-8v-176c0-4.425781 3.574219-8 8-8h496c4.425781 0 8 3.574219 8 8v176c0 4.425781-3.574219 8-8 8zm-488-16h480v-160h-480zm0 0"/><path d="m96 224c-30.871094 0-56-25.128906-56-56s25.128906-56 56-56 56 25.128906 56 56-25.128906 56-56 56zm0-96c-22.054688 0-40 17.945312-40 40s17.945312 40 40 40 40-17.945312 40-40-17.945312-40-40-40zm0 0"/><path d="m240 128h-56c-4.425781 0-8-3.574219-8-8s3.574219-8 8-8h56c4.425781 0 8 3.574219 8 8s-3.574219 8-8 8zm0 0"/><path d="m464 160h-280c-4.425781 0-8-3.574219-8-8s3.574219-8 8-8h280c4.425781 0 8 3.574219 8 8s-3.574219 8-8 8zm0 0"/><path d="m464 192h-280c-4.425781 0-8-3.574219-8-8s3.574219-8 8-8h280c4.425781 0 8 3.574219 8 8s-3.574219 8-8 8zm0 0"/><path d="m312 224h-128c-4.425781 0-8-3.574219-8-8s3.574219-8 8-8h128c4.425781 0 8 3.574219 8 8s-3.574219 8-8 8zm0 0"/><path d="m127.742188 211.984375c-3.972657 0-7.421876-2.960937-7.925782-7.007813-1.503906-11.960937-11.738281-20.976562-23.816406-20.976562s-22.3125 9.015625-23.816406 20.976562c-.542969 4.382813-4.503906 7.464844-8.925782 6.945313-4.386718-.546875-7.496093-4.546875-6.945312-8.929687 2.503906-19.953126 19.558594-34.992188 39.6875-34.992188s37.183594 15.039062 39.6875 34.992188c.542969 4.382812-2.558594 8.382812-6.945312 8.929687-.335938.039063-.671876.0625-1 .0625zm0 0"/><path d="m96 184c-13.230469 0-24-10.769531-24-24s10.769531-24 24-24 24 10.769531 24 24-10.769531 24-24 24zm0-32c-4.414062 0-8 3.585938-8 8s3.585938 8 8 8 8-3.585938 8-8-3.585938-8-8-8zm0 0"/><path d="m40 88c-4.425781 0-8-3.574219-8-8v-40c0-4.425781 3.574219-8 8-8s8 3.574219 8 8v40c0 4.425781-3.574219 8-8 8zm0 0"/><path d="m472 48h-432c-4.425781 0-8-3.574219-8-8s3.574219-8 8-8h432c4.425781 0 8 3.574219 8 8s-3.574219 8-8 8zm0 0"/><path d="m472 88c-4.425781 0-8-3.574219-8-8v-40c0-4.425781 3.574219-8 8-8s8 3.574219 8 8v40c0 4.425781-3.574219 8-8 8zm0 0"/><path d="m72 48c-4.425781 0-8-3.574219-8-8v-32c0-4.425781 3.574219-8 8-8s8 3.574219 8 8v32c0 4.425781-3.574219 8-8 8zm0 0"/><path d="m440 16h-368c-4.425781 0-8-3.574219-8-8s3.574219-8 8-8h368c4.425781 0 8 3.574219 8 8s-3.574219 8-8 8zm0 0"/><path d="m440 48c-4.425781 0-8-3.574219-8-8v-32c0-4.425781 3.574219-8 8-8s8 3.574219 8 8v32c0 4.425781-3.574219 8-8 8zm0 0"/><path d="m440 336c-4.425781 0-8-3.574219-8-8v-32c0-4.425781 3.574219-8 8-8s8 3.574219 8 8v32c0 4.425781-3.574219 8-8 8zm0 0"/><path d="m440 336h-368c-4.425781 0-8-3.574219-8-8s3.574219-8 8-8h368c4.425781 0 8 3.574219 8 8s-3.574219 8-8 8zm0 0"/><path d="m72 336c-4.425781 0-8-3.574219-8-8v-32c0-4.425781 3.574219-8 8-8s8 3.574219 8 8v32c0 4.425781-3.574219 8-8 8zm0 0"/><path d="m472 304c-4.425781 0-8-3.574219-8-8v-40c0-4.425781 3.574219-8 8-8s8 3.574219 8 8v40c0 4.425781-3.574219 8-8 8zm0 0"/><path d="m472 304h-432c-4.425781 0-8-3.574219-8-8s3.574219-8 8-8h432c4.425781 0 8 3.574219 8 8s-3.574219 8-8 8zm0 0"/><path d="m40 304c-4.425781 0-8-3.574219-8-8v-40c0-4.425781 3.574219-8 8-8s8 3.574219 8 8v40c0 4.425781-3.574219 8-8 8zm0 0"/></svg>