<svg height="512pt" viewBox="-8 0 512 512" width="512pt" xmlns="http://www.w3.org/2000/svg"><path d="m80.167969 32c-4.425781 0-8.039063-3.574219-8.039063-8s3.535156-8 7.949219-8h.089844c4.417969 0 8 3.574219 8 8s-3.582031 8-8 8zm0 0"/><path d="m104.167969 32c-4.425781 0-8.039063-3.574219-8.039063-8s3.535156-8 7.949219-8h.089844c4.417969 0 8 3.574219 8 8s-3.582031 8-8 8zm0 0"/><path d="m128.167969 32c-4.425781 0-8.039063-3.574219-8.039063-8s3.535156-8 7.949219-8h.089844c4.417969 0 8 3.574219 8 8s-3.582031 8-8 8zm0 0"/><path d="m440.070312 400c-4.421874 0-8-3.574219-8-8v-344h-368v216c0 4.425781-3.574218 8-8 8-4.421874 0-8-3.574219-8-8v-224c0-4.425781 3.578126-8 8-8h384c4.425782 0 8 3.574219 8 8v352c0 4.425781-3.574218 8-8 8zm0 0"/><path d="m55.929688 32c-4.425782 0-8-3.574219-8-8 0-13.230469 10.765624-24 24-24 4.421874 0 8 3.574219 8 8s-3.578126 8-8 8c-4.417969 0-8 3.585938-8 8 0 4.425781-3.578126 8-8 8zm0 0"/><path d="m55.929688 48c-4.425782 0-8-3.574219-8-8v-16c0-4.425781 3.574218-8 8-8 4.421874 0 8 3.574219 8 8v16c0 4.425781-3.578126 8-8 8zm0 0"/><path d="m439.929688 32c-4.425782 0-8-3.574219-8-8 0-4.414062-3.585938-8-8-8-4.425782 0-8-3.574219-8-8s3.574218-8 8-8c13.230468 0 24 10.769531 24 24 0 4.425781-3.578126 8-8 8zm0 0"/><path d="m439.929688 48c-4.425782 0-8-3.574219-8-8v-16c0-4.425781 3.574218-8 8-8 4.421874 0 8 3.574219 8 8v16c0 4.425781-3.578126 8-8 8zm0 0"/><path d="m423.929688 16h-352c-4.425782 0-8-3.574219-8-8s3.574218-8 8-8h352c4.421874 0 8 3.574219 8 8s-3.578126 8-8 8zm0 0"/><path d="m255.863281 192h-152c-4.421875 0-8-3.574219-8-8s3.578125-8 8-8h152c4.425781 0 8 3.574219 8 8s-3.574219 8-8 8zm0 0"/><path d="m175.863281 224h-72c-4.421875 0-8-3.574219-8-8s3.578125-8 8-8h72c4.425781 0 8 3.574219 8 8s-3.574219 8-8 8zm0 0"/><path d="m391.863281 224h-184c-4.421875 0-8-3.574219-8-8s3.578125-8 8-8h184c4.425781 0 8 3.574219 8 8s-3.574219 8-8 8zm0 0"/><path d="m391.863281 192h-104c-4.421875 0-8-3.574219-8-8s3.578125-8 8-8h104c4.425781 0 8 3.574219 8 8s-3.574219 8-8 8zm0 0"/><path d="m255.863281 96h-152c-4.421875 0-8-3.574219-8-8s3.578125-8 8-8h152c4.425781 0 8 3.574219 8 8s-3.574219 8-8 8zm0 0"/><path d="m175.863281 128h-72c-4.421875 0-8-3.574219-8-8s3.578125-8 8-8h72c4.425781 0 8 3.574219 8 8s-3.574219 8-8 8zm0 0"/><path d="m391.863281 128h-184c-4.421875 0-8-3.574219-8-8s3.578125-8 8-8h184c4.425781 0 8 3.574219 8 8s-3.574219 8-8 8zm0 0"/><path d="m311.863281 160h-208c-4.421875 0-8-3.574219-8-8s3.578125-8 8-8h208c4.425781 0 8 3.574219 8 8s-3.574219 8-8 8zm0 0"/><path d="m391.863281 160h-48c-4.421875 0-8-3.574219-8-8s3.578125-8 8-8h48c4.425781 0 8 3.574219 8 8s-3.574219 8-8 8zm0 0"/><path d="m391.863281 96h-104c-4.421875 0-8-3.574219-8-8s3.578125-8 8-8h104c4.425781 0 8 3.574219 8 8s-3.574219 8-8 8zm0 0"/><path d="m392 360h-384c-4.425781 0-8-3.574219-8-8v-88c0-4.425781 3.574219-8 8-8h384c4.425781 0 8 3.574219 8 8v88c0 4.425781-3.574219 8-8 8zm-376-16h368v-72h-368zm0 0"/><path d="m56.070312 512c-4.421874 0-8-3.574219-8-8v-152c0-4.425781 3.578126-8 8-8 4.425782 0 8 3.574219 8 8v152c0 4.425781-3.574218 8-8 8zm0 0"/><path d="m68 336c-15.441406 0-28-12.558594-28-28s12.558594-28 28-28 28 12.558594 28 28-12.558594 28-28 28zm0-40c-6.617188 0-12 5.382812-12 12s5.382812 12 12 12 12-5.382812 12-12-5.382812-12-12-12zm0 0"/><path d="m352 304h-232c-4.425781 0-8-3.574219-8-8s3.574219-8 8-8h232c4.425781 0 8 3.574219 8 8s-3.574219 8-8 8zm0 0"/><path d="m232 328h-112c-4.425781 0-8-3.574219-8-8s3.574219-8 8-8h112c4.425781 0 8 3.574219 8 8s-3.574219 8-8 8zm0 0"/><path d="m488 488h-384c-4.425781 0-8-3.574219-8-8v-88c0-4.425781 3.574219-8 8-8h384c4.425781 0 8 3.574219 8 8v88c0 4.425781-3.574219 8-8 8zm-376-16h368v-72h-368zm0 0"/><path d="m164 464c-15.441406 0-28-12.558594-28-28s12.558594-28 28-28 28 12.558594 28 28-12.558594 28-28 28zm0-40c-6.617188 0-12 5.382812-12 12s5.382812 12 12 12 12-5.382812 12-12-5.382812-12-12-12zm0 0"/><path d="m448 432h-232c-4.425781 0-8-3.574219-8-8s3.574219-8 8-8h232c4.425781 0 8 3.574219 8 8s-3.574219 8-8 8zm0 0"/><path d="m328 456h-112c-4.425781 0-8-3.574219-8-8s3.574219-8 8-8h112c4.425781 0 8 3.574219 8 8s-3.574219 8-8 8zm0 0"/><path d="m440.070312 512c-4.421874 0-8-3.574219-8-8v-24c0-4.425781 3.578126-8 8-8 4.425782 0 8 3.574219 8 8v24c0 4.425781-3.574218 8-8 8zm0 0"/></svg>