<svg height="512pt" viewBox="0 -16 512 512" width="512pt" xmlns="http://www.w3.org/2000/svg"><path d="m32.238281 96c-4.421875 0-8.039062-3.574219-8.039062-8s3.535156-8 7.953125-8h.085937c4.417969 0 8 3.574219 8 8s-3.582031 8-8 8zm0 0"/><path d="m56.238281 96c-4.421875 0-8.039062-3.574219-8.039062-8s3.535156-8 7.953125-8h.085937c4.417969 0 8 3.574219 8 8s-3.582031 8-8 8zm0 0"/><path d="m80.238281 96c-4.421875 0-8.039062-3.574219-8.039062-8s3.535156-8 7.953125-8h.085937c4.417969 0 8 3.574219 8 8s-3.582031 8-8 8zm0 0"/><path d="m392.144531 480h-384c-4.425781 0-8-3.574219-8-8v-368c0-4.425781 3.574219-8 8-8h215.847657c4.421874 0 8 3.574219 8 8s-3.578126 8-8 8h-207.847657v352h368v-296c0-4.425781 3.574219-8 8-8 4.421875 0 8 3.574219 8 8v304c0 4.425781-3.585937 8-8 8zm0 0"/><path d="m8 96c-4.425781 0-8-3.574219-8-8 0-13.230469 10.769531-24 24-24 4.425781 0 8 3.574219 8 8s-3.574219 8-8 8c-4.414062 0-8 3.585938-8 8 0 4.425781-3.574219 8-8 8zm0 0"/><path d="m8 112c-4.425781 0-8-3.574219-8-8v-16c0-4.425781 3.574219-8 8-8s8 3.574219 8 8v16c0 4.425781-3.574219 8-8 8zm0 0"/><path d="m224 80h-200c-4.425781 0-8-3.574219-8-8s3.574219-8 8-8h200c4.425781 0 8 3.574219 8 8s-3.574219 8-8 8zm0 0"/><path d="m343.9375 264h-288c-4.425781 0-8-3.574219-8-8v-104c0-4.425781 3.574219-8 8-8 4.421875 0 8 3.574219 8 8v96h272v-80c0-4.425781 3.574219-8 8-8 4.421875 0 8 3.574219 8 8v88c0 4.425781-3.578125 8-8 8zm0 0"/><path d="m343.9375 328h-288c-4.425781 0-8-3.574219-8-8v-24c0-4.425781 3.574219-8 8-8h288c4.421875 0 8 3.574219 8 8v24c0 4.425781-3.578125 8-8 8zm-280-16h272v-8h-272zm0 0"/><path d="m207.9375 368h-152c-4.425781 0-8-3.574219-8-8s3.574219-8 8-8h152c4.421875 0 8 3.574219 8 8s-3.578125 8-8 8zm0 0"/><path d="m127.9375 400h-72c-4.425781 0-8-3.574219-8-8s3.574219-8 8-8h72c4.421875 0 8 3.574219 8 8s-3.578125 8-8 8zm0 0"/><path d="m343.9375 400h-184c-4.425781 0-8-3.574219-8-8s3.574219-8 8-8h184c4.421875 0 8 3.574219 8 8s-3.578125 8-8 8zm0 0"/><path d="m263.9375 432h-208c-4.425781 0-8-3.574219-8-8s3.574219-8 8-8h208c4.421875 0 8 3.574219 8 8s-3.578125 8-8 8zm0 0"/><path d="m343.9375 432h-48c-4.425781 0-8-3.574219-8-8s3.574219-8 8-8h48c4.421875 0 8 3.574219 8 8s-3.578125 8-8 8zm0 0"/><path d="m343.9375 368h-104c-4.425781 0-8-3.574219-8-8s3.574219-8 8-8h104c4.421875 0 8 3.574219 8 8s-3.578125 8-8 8zm0 0"/><path d="m167.929688 264c-1.671876 0-3.355469-.519531-4.792969-1.601562-3.535157-2.644532-4.257813-7.664063-1.601563-11.191407l48-64c2.65625-3.535156 7.664063-4.238281 11.191406-1.597656 3.539063 2.648437 4.257813 7.664063 1.601563 11.191406l-48 64c-1.558594 2.09375-3.960937 3.199219-6.398437 3.199219zm0 0"/><path d="m263.945312 264c-2.441406 0-4.832031-1.105469-6.410156-3.199219l-48-64c-2.65625-3.527343-1.933594-8.542969 1.601563-11.191406 3.527343-2.65625 8.535156-1.945313 11.191406 1.597656l48 64c2.65625 3.527344 1.9375 8.546875-1.601563 11.191407-1.429687 1.082031-3.109374 1.601562-4.78125 1.601562zm0 0"/><path d="m119.929688 264c-1.753907 0-3.515626-.566406-4.992188-1.753906-3.449219-2.765625-4.007812-7.796875-1.25-11.246094l32-40c2.769531-3.433594 7.792969-4.015625 11.25-1.246094 3.445312 2.765625 4.007812 7.796875 1.246094 11.246094l-32 40c-1.582032 1.96875-3.902344 3-6.253906 3zm0 0"/><path d="m175.679688 253.671875c-2.351563 0-4.671876-1.03125-6.253907-3l-23.738281-29.671875c-2.757812-3.457031-2.191406-8.488281 1.25-11.246094 3.460938-2.769531 8.488281-2.1875 11.246094 1.246094l23.738281 29.671875c2.757813 3.457031 2.191406 8.488281-1.25 11.25-1.480469 1.183594-3.238281 1.75-4.992187 1.75zm0 0"/><path d="m104.175781 192c-4.421875 0-8.039062-3.574219-8.039062-8s3.535156-8 7.953125-8h.085937c4.417969 0 8 3.574219 8 8s-3.582031 8-8 8zm0 0"/><path d="m280 192c-1.464844 0-2.921875-.398438-4.199219-1.191406-2.359375-1.464844-3.800781-4.03125-3.800781-6.808594v-8h-48c-4.425781 0-8-3.574219-8-8v-160c0-4.425781 3.574219-8 8-8h280c4.425781 0 8 3.574219 8 8v160c0 4.425781-3.574219 8-8 8h-190.113281l-30.3125 15.160156c-1.125.558594-2.351563.839844-3.574219.839844zm-48-32h48c4.425781 0 8 3.574219 8 8v3.054688l20.425781-10.207032c1.101563-.558594 2.335938-.847656 3.574219-.847656h184v-144h-264zm0 0"/><path d="m224 160h-168.0625c-4.425781 0-8-3.574219-8-8s3.574219-8 8-8h168.0625c4.425781 0 8 3.574219 8 8s-3.574219 8-8 8zm0 0"/><path d="m302.832031 120c-1.273437 0-2.550781-.304688-3.726562-.921875l-11.105469-5.847656-11.113281 5.839843c-2.6875 1.433594-5.949219 1.195313-8.429688-.605468-2.464843-1.792969-3.695312-4.824219-3.175781-7.824219l2.125-12.375-8.980469-8.753906c-2.1875-2.128907-2.96875-5.304688-2.035156-8.199219.9375-2.898438 3.449219-5.007812 6.457031-5.449219l12.425782-1.816406 5.558593-11.253906c2.6875-5.472657 11.65625-5.472657 14.34375 0l5.558594 11.253906 12.425781 1.816406c3.007813.441407 5.511719 2.542969 6.457032 5.449219.941406 2.902344.160156 6.078125-2.03125 8.199219l-8.984376 8.753906 2.125 12.375c.511719 3-.71875 6.03125-3.175781 7.824219-1.40625 1.023437-3.054687 1.535156-4.71875 1.535156zm-14.832031-23.808594c1.28125 0 2.558594.304688 3.726562.921875l.488282.246094-.09375-.535156c-.449219-2.59375.414062-5.238281 2.304687-7.089844l.382813-.375-.535156-.078125c-2.601563-.378906-4.847657-2.015625-6.015626-4.378906l-.257812-.488282-.246094.507813c-1.167968 2.359375-3.417968 4-6.019531 4.375l-.535156.078125.386719.378906c1.886718 1.839844 2.75 4.492188 2.300781 7.085938l-.09375.535156.488281-.246094c1.160156-.625 2.4375-.9375 3.71875-.9375zm0 0"/><path d="m382.832031 120c-1.273437 0-2.550781-.304688-3.726562-.921875l-11.105469-5.847656-11.113281 5.839843c-2.6875 1.433594-5.949219 1.195313-8.429688-.605468-2.464843-1.792969-3.695312-4.824219-3.175781-7.824219l2.125-12.375-8.980469-8.753906c-2.1875-2.128907-2.96875-5.304688-2.035156-8.199219.9375-2.898438 3.449219-5.007812 6.457031-5.449219l12.425782-1.816406 5.558593-11.253906c2.6875-5.472657 11.65625-5.472657 14.34375 0l5.558594 11.253906 12.425781 1.816406c3.007813.441407 5.511719 2.542969 6.457032 5.449219.941406 2.902344.160156 6.078125-2.03125 8.199219l-8.984376 8.753906 2.125 12.375c.511719 3-.71875 6.03125-3.175781 7.824219-1.40625 1.023437-3.054687 1.535156-4.71875 1.535156zm-14.832031-23.808594c1.28125 0 2.558594.304688 3.726562.921875l.488282.246094-.09375-.535156c-.449219-2.59375.414062-5.238281 2.304687-7.089844l.382813-.375-.535156-.078125c-2.601563-.378906-4.847657-2.015625-6.015626-4.378906l-.257812-.488282-.246094.507813c-1.167968 2.359375-3.417968 4-6.019531 4.375l-.535156.078125.386719.378906c1.886718 1.839844 2.75 4.492188 2.300781 7.085938l-.09375.535156.488281-.246094c1.160156-.625 2.4375-.9375 3.71875-.9375zm0 0"/><path d="m462.832031 120c-1.273437 0-2.550781-.304688-3.726562-.921875l-11.105469-5.847656-11.113281 5.839843c-2.6875 1.433594-5.949219 1.195313-8.429688-.605468-2.464843-1.792969-3.695312-4.824219-3.175781-7.824219l2.125-12.375-8.980469-8.753906c-2.1875-2.128907-2.96875-5.304688-2.035156-8.199219.9375-2.898438 3.449219-5.007812 6.457031-5.449219l12.425782-1.816406 5.558593-11.253906c2.6875-5.472657 11.65625-5.472657 14.34375 0l5.558594 11.253906 12.425781 1.816406c3.007813.441407 5.511719 2.542969 6.457032 5.449219.941406 2.902344.160156 6.078125-2.03125 8.199219l-8.984376 8.753906 2.125 12.375c.511719 3-.71875 6.03125-3.175781 7.824219-1.40625 1.023437-3.054687 1.535156-4.71875 1.535156zm-14.832031-23.808594c1.28125 0 2.558594.304688 3.726562.921875l.488282.246094-.09375-.535156c-.449219-2.59375.414062-5.238281 2.304687-7.089844l.382813-.375-.535156-.078125c-2.601563-.378906-4.847657-2.015625-6.015626-4.378906l-.257812-.488282-.246094.507813c-1.167968 2.359375-3.417968 4-6.019531 4.375l-.535156.078125.386719.378906c1.886718 1.839844 2.75 4.492188 2.300781 7.085938l-.09375.535156.488281-.246094c1.160156-.625 2.4375-.9375 3.71875-.9375zm0 0"/></svg>