<svg height="512pt" viewBox="0 -21 512 512" width="512pt" xmlns="http://www.w3.org/2000/svg"><path d="m256 469.449219c-2.128906 0-4.160156-.839844-5.65625-2.34375l-205.441406-205.457031c-28.957032-28.953126-44.902344-67.441407-44.902344-108.382813 0-40.945313 15.945312-79.425781 44.902344-108.378906 28.9375-28.949219 67.433594-44.886719 108.371094-44.886719 38.328124 0 74.503906 13.96875 102.726562 39.503906 28.222656-25.535156 64.40625-39.503906 102.734375-39.503906 40.929687 0 79.425781 15.9375 108.363281 44.886719 28.957032 28.953125 44.902344 67.433593 44.902344 108.378906 0 40.933594-15.945312 79.429687-44.902344 108.382813l-205.441406 205.457031c-1.496094 1.496093-3.527344 2.34375-5.65625 2.34375zm-102.726562-453.449219c-36.664063 0-71.136719 14.273438-97.058594 40.199219-25.933594 25.9375-40.214844 60.402343-40.214844 97.066406s14.28125 71.140625 40.214844 97.070313l199.785156 199.800781 199.785156-199.800781c25.933594-25.929688 40.214844-60.40625 40.214844-97.070313s-14.28125-71.136719-40.214844-97.066406c-25.921875-25.925781-60.394531-40.199219-97.050781-40.199219-36.664063 0-71.140625 14.273438-97.078125 40.199219-3.128906 3.128906-8.183594 3.128906-11.3125 0-25.929688-25.925781-60.398438-40.199219-97.070312-40.199219zm0 0"/><path d="m88 301.449219c-4.425781 0-8-3.578125-8-8v-176c0-4.425781 3.574219-8 8-8s8 3.574219 8 8v176c0 4.421875-3.574219 8-8 8zm0 0"/><path d="m424 301.433594c-4.425781 0-8-3.578125-8-8v-175.984375c0-4.425781 3.574219-8 8-8s8 3.574219 8 8v175.984375c0 4.421875-3.574219 8-8 8zm0 0"/><path d="m88 125.449219c-4.425781 0-8-3.578125-8-8 0-13.234375 10.769531-24 24-24 4.425781 0 8 3.574219 8 8 0 4.421875-3.574219 8-8 8-4.414062 0-8 3.582031-8 8 0 4.421875-3.574219 8-8 8zm0 0"/><path d="m424 125.449219c-4.425781 0-8-3.578125-8-8 0-4.417969-3.585938-8-8-8-4.425781 0-8-3.578125-8-8 0-4.425781 3.574219-8 8-8 13.230469 0 24 10.765625 24 24 0 4.421875-3.574219 8-8 8zm0 0"/><path d="m408 109.449219h-304c-4.425781 0-8-3.578125-8-8 0-4.425781 3.574219-8 8-8h304c4.425781 0 8 3.574219 8 8 0 4.421875-3.574219 8-8 8zm0 0"/><path d="m424 141.449219h-336c-4.425781 0-8-3.578125-8-8 0-4.425781 3.574219-8 8-8h336c4.425781 0 8 3.574219 8 8 0 4.421875-3.574219 8-8 8zm0 0"/><path d="m376 245.449219h-240c-4.425781 0-8-3.578125-8-8v-64c0-4.425781 3.574219-8 8-8h240c4.425781 0 8 3.574219 8 8v64c0 4.421875-3.574219 8-8 8zm-232-16h224v-48h-224zm0 0"/><path d="m272 285.449219h-136c-4.425781 0-8-3.578125-8-8 0-4.425781 3.574219-8 8-8h136c4.425781 0 8 3.574219 8 8 0 4.421875-3.574219 8-8 8zm0 0"/><path d="m184 317.449219h-48c-4.425781 0-8-3.578125-8-8 0-4.425781 3.574219-8 8-8h48c4.425781 0 8 3.574219 8 8 0 4.421875-3.574219 8-8 8zm0 0"/><path d="m376 317.449219h-160c-4.425781 0-8-3.578125-8-8 0-4.425781 3.574219-8 8-8h160c4.425781 0 8 3.574219 8 8 0 4.421875-3.574219 8-8 8zm0 0"/><path d="m240 381.449219h-71.246094c-4.425781 0-8-3.578125-8-8 0-4.425781 3.574219-8 8-8h71.246094c4.425781 0 8 3.574219 8 8 0 4.421875-3.574219 8-8 8zm0 0"/><path d="m343.992188 381.449219h-71.992188c-4.425781 0-8-3.578125-8-8 0-4.425781 3.574219-8 8-8h71.992188c4.421874 0 8 3.574219 8 8 0 4.421875-3.578126 8-8 8zm0 0"/><path d="m320 349.449219h-183.992188c-4.421874 0-8-3.578125-8-8 0-4.425781 3.578126-8 8-8h183.992188c4.425781 0 8 3.574219 8 8 0 4.421875-3.574219 8-8 8zm0 0"/><path d="m311.992188 413.449219h-111.984376c-4.421874 0-8-3.578125-8-8 0-4.425781 3.578126-8 8-8h111.984376c4.421874 0 8 3.574219 8 8 0 4.421875-3.578126 8-8 8zm0 0"/><path d="m376.246094 349.449219h-24.246094c-4.425781 0-8-3.578125-8-8 0-4.425781 3.574219-8 8-8h24.246094c4.425781 0 8 3.574219 8 8 0 4.421875-3.574219 8-8 8zm0 0"/><path d="m376 285.449219h-72c-4.425781 0-8-3.578125-8-8 0-4.425781 3.574219-8 8-8h72c4.425781 0 8 3.574219 8 8 0 4.421875-3.574219 8-8 8zm0 0"/><path d="m336.144531 213.449219h-160c-4.425781 0-8-3.578125-8-8 0-4.425781 3.574219-8 8-8h160c4.421875 0 8 3.574219 8 8 0 4.421875-3.585937 8-8 8zm0 0"/></svg>