<svg height="512pt" viewBox="0 -52 512.144 512" width="512pt" xmlns="http://www.w3.org/2000/svg"><path d="m32.238281 32.070312c-4.421875 0-8.039062-3.574218-8.039062-8 0-4.421874 3.535156-8 7.953125-8h.085937c4.417969 0 8 3.578126 8 8 0 4.425782-3.582031 8-8 8zm0 0"/><path d="m56.238281 32.070312c-4.421875 0-8.039062-3.574218-8.039062-8 0-4.421874 3.535156-8 7.953125-8h.085937c4.417969 0 8 3.578126 8 8 0 4.425782-3.582031 8-8 8zm0 0"/><path d="m80.238281 32.070312c-4.421875 0-8.039062-3.574218-8.039062-8 0-4.421874 3.535156-8 7.953125-8h.085937c4.417969 0 8 3.578126 8 8 0 4.425782-3.582031 8-8 8zm0 0"/><path d="m392.3125 80.070312c-4.425781 0-8.039062-3.574218-8.039062-8 0-4.421874 3.535156-8 7.949218-8h.089844c4.414062 0 8 3.578126 8 8 0 4.425782-3.585938 8-8 8zm0 0"/><path d="m392.3125 120.070312c-4.425781 0-8.039062-3.574218-8.039062-8 0-4.421874 3.535156-8 7.949218-8h.089844c4.414062 0 8 3.578126 8 8 0 4.425782-3.585938 8-8 8zm0 0"/><path d="m392.3125 160.070312c-4.425781 0-8.039062-3.574218-8.039062-8 0-4.421874 3.535156-8 7.949218-8h.089844c4.414062 0 8 3.578126 8 8 0 4.425782-3.585938 8-8 8zm0 0"/><path d="m392.3125 200.070312c-4.425781 0-8.039062-3.574218-8.039062-8 0-4.421874 3.535156-8 7.949218-8h.089844c4.414062 0 8 3.578126 8 8 0 4.425782-3.585938 8-8 8zm0 0"/><path d="m392.3125 240.070312c-4.425781 0-8.039062-3.574218-8.039062-8 0-4.421874 3.535156-8 7.949218-8h.089844c4.414062 0 8 3.578126 8 8 0 4.425782-3.585938 8-8 8zm0 0"/><path d="m216.238281 152.070312c-4.421875 0-8.039062-3.574218-8.039062-8 0-4.421874 3.535156-8 7.953125-8h.085937c4.417969 0 8 3.578126 8 8 0 4.425782-3.582031 8-8 8zm0 0"/><path d="m184.238281 152.070312c-4.421875 0-8.039062-3.574218-8.039062-8 0-4.421874 3.535156-8 7.953125-8h.085937c4.417969 0 8 3.578126 8 8 0 4.425782-3.582031 8-8 8zm0 0"/><path d="m504.144531 408.070312h-496c-4.425781 0-8-3.574218-8-8v-360c0-4.421874 3.574219-8 8-8h496c4.421875 0 8 3.578126 8 8v360c0 4.425782-3.578125 8-8 8zm-488-16h480v-344h-480zm0 0"/><path d="m8 32.070312c-4.425781 0-8-3.574218-8-8 0-13.230468 10.769531-23.9999995 24-23.9999995 4.425781 0 8 3.5781255 8 7.9999995 0 4.425782-3.574219 8-8 8-4.414062 0-8 3.585938-8 8 0 4.425782-3.574219 8-8 8zm0 0"/><path d="m8 48.070312c-4.425781 0-8-3.574218-8-8v-16c0-4.421874 3.574219-8 8-8s8 3.578126 8 8v16c0 4.425782-3.574219 8-8 8zm0 0"/><path d="m504 32.070312c-4.425781 0-8-3.574218-8-8 0-4.414062-3.585938-8-8-8-4.425781 0-8-3.574218-8-8 0-4.421874 3.574219-7.9999995 8-7.9999995 13.230469 0 24 10.7695315 24 23.9999995 0 4.425782-3.574219 8-8 8zm0 0"/><path d="m504 48.070312c-4.425781 0-8-3.574218-8-8v-16c0-4.421874 3.574219-8 8-8s8 3.578126 8 8v16c0 4.425782-3.574219 8-8 8zm0 0"/><path d="m488 16.070312h-464c-4.425781 0-8-3.574218-8-8 0-4.421874 3.574219-7.9999995 8-7.9999995h464c4.425781 0 8 3.5781255 8 7.9999995 0 4.425782-3.574219 8-8 8zm0 0"/><path d="m360.070312 376.070312h-320c-4.421874 0-8-3.574218-8-8v-296c0-4.421874 3.578126-8 8-8h320c4.425782 0 8 3.578126 8 8v296c0 4.425782-3.574218 8-8 8zm-312-16h304v-280h-304zm0 0"/><path d="m456.070312 80.070312h-40c-4.421874 0-8-3.574218-8-8 0-4.421874 3.578126-8 8-8h40c4.425782 0 8 3.578126 8 8 0 4.425782-3.574218 8-8 8zm0 0"/><path d="m472.070312 120.070312h-56c-4.421874 0-8-3.574218-8-8 0-4.421874 3.578126-8 8-8h56c4.425782 0 8 3.578126 8 8 0 4.425782-3.574218 8-8 8zm0 0"/><path d="m464.070312 160.070312h-48c-4.421874 0-8-3.574218-8-8 0-4.421874 3.578126-8 8-8h48c4.425782 0 8 3.578126 8 8 0 4.425782-3.574218 8-8 8zm0 0"/><path d="m440.070312 200.070312h-24c-4.421874 0-8-3.574218-8-8 0-4.421874 3.578126-8 8-8h24c4.425782 0 8 3.578126 8 8 0 4.425782-3.574218 8-8 8zm0 0"/><path d="m472.070312 240.070312h-56c-4.421874 0-8-3.574218-8-8 0-4.421874 3.578126-8 8-8h56c4.425782 0 8 3.578126 8 8 0 4.425782-3.574218 8-8 8zm0 0"/><path d="m392.3125 280.070312c-4.425781 0-8.039062-3.574218-8.039062-8 0-4.421874 3.535156-8 7.949218-8h.089844c4.414062 0 8 3.578126 8 8 0 4.425782-3.585938 8-8 8zm0 0"/><path d="m456.070312 280.070312h-40c-4.421874 0-8-3.574218-8-8 0-4.421874 3.578126-8 8-8h40c4.425782 0 8 3.578126 8 8 0 4.425782-3.574218 8-8 8zm0 0"/><path d="m472.070312 352.070312h-80c-4.421874 0-8-3.574218-8-8v-32c0-4.421874 3.578126-8 8-8h80c4.425782 0 8 3.578126 8 8v32c0 4.425782-3.574218 8-8 8zm-72-16h64v-16h-64zm0 0"/><path d="m472.070312 376.070312h-24c-4.421874 0-8-3.574218-8-8 0-4.421874 3.578126-8 8-8h24c4.425782 0 8 3.578126 8 8 0 4.425782-3.574218 8-8 8zm0 0"/><path d="m360.070312 344.070312h-320c-4.421874 0-8-3.574218-8-8 0-4.421874 3.578126-8 8-8h320c4.425782 0 8 3.578126 8 8 0 4.425782-3.574218 8-8 8zm0 0"/><path d="m328.070312 376.070312c-4.421874 0-8-3.574218-8-8v-32c0-4.421874 3.578126-8 8-8 4.425782 0 8 3.578126 8 8v32c0 4.425782-3.574218 8-8 8zm0 0"/><path d="m296.070312 376.070312c-4.421874 0-8-3.574218-8-8v-32c0-4.421874 3.578126-8 8-8 4.425782 0 8 3.578126 8 8v32c0 4.425782-3.574218 8-8 8zm0 0"/><path d="m104.070312 376.070312c-4.421874 0-8-3.574218-8-8v-32c0-4.421874 3.578126-8 8-8 4.425782 0 8 3.578126 8 8v32c0 4.425782-3.574218 8-8 8zm0 0"/><path d="m72.070312 376.070312c-4.421874 0-8-3.574218-8-8v-32c0-4.421874 3.578126-8 8-8 4.425782 0 8 3.578126 8 8v32c0 4.425782-3.574218 8-8 8zm0 0"/><path d="m168.007812 312.070312c-.574218 0-1.160156-.0625-1.742187-.183593-4.3125-.957031-7.035156-5.230469-6.082031-9.542969l16-72c.960937-4.3125 5.25-6.984375 9.542968-6.078125 4.3125.957031 7.035157 5.230469 6.082032 9.542969l-16 72c-.824219 3.726562-4.136719 6.261718-7.800782 6.261718zm0 0"/><path d="m231.992188 312.070312c-3.671876 0-6.976563-2.535156-7.808594-6.269531l-15.925782-72c-.953124-4.3125 1.773438-8.585937 6.085938-9.535156 4.273438-.9375 8.578125 1.765625 9.535156 6.085937l15.929688 72c.953125 4.3125-1.777344 8.585938-6.089844 9.535157-.566406.121093-1.152344.183593-1.726562.183593zm0 0"/><path d="m232 312.070312h-64c-4.425781 0-8-3.574218-8-8 0-4.421874 3.574219-8 8-8h64c4.425781 0 8 3.578126 8 8 0 4.425782-3.574219 8-8 8zm0 0"/><path d="m216.070312 240.070312h-32.070312c-4.425781 0-8-3.574218-8-8 0-4.421874 3.574219-8 8-8h32.070312c4.425782 0 8 3.578126 8 8 0 4.425782-3.574218 8-8 8zm0 0"/><path d="m168 344.070312c-4.425781 0-8-3.574218-8-8v-32c0-4.421874 3.574219-8 8-8s8 3.578126 8 8v32c0 4.425782-3.574219 8-8 8zm0 0"/><path d="m232 344.070312c-4.425781 0-8-3.574218-8-8v-32c0-4.421874 3.574219-8 8-8s8 3.578126 8 8v32c0 4.425782-3.574219 8-8 8zm0 0"/><path d="m200 240.070312c-4.425781 0-8-3.574218-8-8v-8c0-4.421874 3.574219-8 8-8s8 3.578126 8 8v8c0 4.425782-3.574219 8-8 8zm0 0"/><path d="m226.6875 288.070312h-53.351562c-4.425782 0-8-3.574218-8-8 0-4.421874 3.574218-8 8-8h53.351562c4.425781 0 8 3.578126 8 8 0 4.425782-3.574219 8-8 8zm0 0"/><path d="m200 296.070312c-4.425781 0-8-3.574218-8-8v-8c0-4.421874 3.574219-8 8-8s8 3.578126 8 8v8c0 4.425782-3.574219 8-8 8zm0 0"/><path d="m176 200.070312c-4.425781 0-8-3.574218-8-8v-16.015624c0-4.421876 3.574219-8 8-8s8 3.578124 8 8v16.015624c0 4.425782-3.574219 8-8 8zm0 0"/><path d="m224.03125 200.070312h-48.03125c-4.425781 0-8-3.574218-8-8 0-4.421874 3.574219-8 8-8h48.03125c4.425781 0 8 3.578126 8 8 0 4.425782-3.574219 8-8 8zm0 0"/><path d="m224.03125 200.070312c-4.421875 0-8-3.574218-8-8v-16c0-4.421874 3.578125-8 8-8 4.425781 0 8 3.578126 8 8v16c0 4.425782-3.574219 8-8 8zm0 0"/><path d="m200 200.070312c-4.425781 0-8-3.574218-8-8v-8c0-4.421874 3.574219-8 8-8s8 3.578126 8 8v8c0 4.425782-3.574219 8-8 8zm0 0"/><path d="m224.007812 184.070312c-2.433593 0-4.832031-1.101562-6.40625-3.191406-2.648437-3.527344-1.9375-8.542968 1.589844-11.199218 8.144532-6.113282 12.808594-15.441407 12.808594-25.601563 0-17.644531-14.351562-32-32-32s-32 14.355469-32 32c0 10.152344 4.65625 19.480469 12.785156 25.59375 3.527344 2.65625 4.230469 7.671875 1.574219 11.199219-2.65625 3.519531-7.664063 4.25-11.199219 1.578125-12.167968-9.167969-19.160156-23.152344-19.160156-38.378907 0-26.46875 21.527344-48 48-48s48 21.53125 48 48c0 15.242188-7 29.234376-19.191406 38.402344-1.441406 1.078125-3.128906 1.597656-4.800782 1.597656zm0 0"/><path d="m136 128.070312c-4.425781 0-8-3.574218-8-8v-16c0-4.421874 3.574219-8 8-8s8 3.578126 8 8v16c0 4.425782-3.574219 8-8 8zm0 0"/><path d="m152 144.078125c-13.230469 0-24-10.773437-24-24.007813 0-4.421874 3.574219-8 8-8s8 3.578126 8 8c0 4.417969 3.585938 8.007813 8 8.007813 4.425781 0 8 3.578125 8 8 0 4.425781-3.574219 8-8 8zm0 0"/><path d="m160.808594 144.070312h-8.808594c-4.425781 0-8-3.574218-8-8 0-4.421874 3.574219-8 8-8h8.808594c4.421875 0 8 3.578126 8 8 0 4.425782-3.578125 8-8 8zm0 0"/><path d="m264 128.070312c-4.425781 0-8-3.574218-8-8v-16c0-4.421874 3.574219-8 8-8s8 3.578126 8 8v16c0 4.425782-3.574219 8-8 8zm0 0"/><path d="m248 144.078125c-4.425781 0-8-3.574219-8-8 0-4.421875 3.574219-8 8-8 4.414062 0 8-3.589844 8-8.007813 0-4.421874 3.574219-8 8-8s8 3.578126 8 8c0 13.234376-10.761719 24.007813-24 24.007813zm0 0"/><path d="m239.199219 144.078125c-4.414063 0-7.992188-3.574219-8-7.988281-.007813-4.425782 3.578125-8 7.992187-8.011719l8.800782-.007813h.007812c4.414062 0 7.992188 3.578126 8 7.992188 0 4.425781-3.574219 8-7.992188 8.007812zm0 0"/><path d="m40.0625 311.742188c-1.816406 0-3.628906-.605469-5.132812-1.863282-3.386719-2.832031-3.832032-7.878906-.992188-11.269531l39.925781-47.671875c2.832031-3.371094 7.878907-3.832031 11.273438-.992188 3.382812 2.832032 3.832031 7.878907.992187 11.269532l-39.929687 47.671875c-1.582031 1.882812-3.847657 2.855469-6.136719 2.855469zm0 0"/><path d="m80 264.070312c-4.425781 0-8-3.574218-8-8v-184c0-4.421874 3.574219-8 8-8s8 3.578126 8 8v184c0 4.425782-3.574219 8-8 8zm0 0"/><path d="m178.664062 264.070312h-98.664062c-4.425781 0-8-3.574218-8-8 0-4.421874 3.574219-8 8-8h98.664062c4.425782 0 8 3.578126 8 8 0 4.425782-3.574218 8-8 8zm0 0"/><path d="m360.078125 311.742188c-2.285156 0-4.550781-.972657-6.140625-2.855469l-39.929688-47.671875c-2.832031-3.390625-2.390624-8.4375.992188-11.269532 3.398438-2.832031 8.441406-2.378906 11.273438.992188l39.925781 47.671875c2.832031 3.390625 2.394531 8.4375-.992188 11.269531-1.496093 1.257813-3.3125 1.863282-5.128906 1.863282zm0 0"/><path d="m320.144531 264.070312c-4.425781 0-8-3.574218-8-8v-184c0-4.421874 3.574219-8 8-8 4.421875 0 8 3.578126 8 8v184c0 4.425782-3.578125 8-8 8zm0 0"/><path d="m320.144531 264.070312h-98.761719c-4.421874 0-8-3.574218-8-8 0-4.421874 3.578126-8 8-8h98.761719c4.421875 0 8 3.578126 8 8 0 4.425782-3.578125 8-8 8zm0 0"/></svg>