<svg height="512pt" viewBox="-112 0 512 512" width="512pt" xmlns="http://www.w3.org/2000/svg"><path d="m280 56.015625c-4.425781 0-8-3.574219-8-8 0-17.648437-14.351562-32-32-32-4.425781 0-8-3.574219-8-8 0-4.421875 3.574219-8 8-8 26.472656 0 48 21.527344 48 48 0 4.425781-3.574219 8-8 8zm0 0"/><path d="m8 56c-4.425781 0-8-3.574219-8-8 0-26.472656 21.527344-48 48-48 4.425781 0 8 3.574219 8 8s-3.574219 8-8 8c-17.648438 0-32 14.351562-32 32 0 4.425781-3.574219 8-8 8zm0 0"/><path d="m240 16h-192c-4.425781 0-8-3.574219-8-8s3.574219-8 8-8h192c4.425781 0 8 3.574219 8 8s-3.574219 8-8 8zm0 0"/><path d="m232 512h-176c-30.871094 0-56-25.128906-56-56v-407.992188c0-4.421874 3.574219-8 8-8s8 3.578126 8 8v407.992188c0 22.054688 17.945312 40 40 40h176c22.054688 0 40-17.945312 40-40v-407.992188c0-4.421874 3.574219-8 8-8s8 3.578126 8 8v407.992188c0 30.871094-25.128906 56-56 56zm0 0"/><path d="m280 447.992188h-272c-4.425781 0-8-3.578126-8-8 0-4.425782 3.574219-8 8-8h272c4.425781 0 8 3.574218 8 8 0 4.421874-3.574219 8-8 8zm0 0"/><path d="m144 496c-13.230469 0-24-10.769531-24-24s10.769531-24 24-24 24 10.769531 24 24-10.769531 24-24 24zm0-32c-4.414062 0-8 3.585938-8 8s3.585938 8 8 8 8-3.585938 8-8-3.585938-8-8-8zm0 0"/><path d="m64.039062 288.078125c-4.421874 0-8-3.574219-8-8 0-17.652344 14.359376-32.015625 32.015626-32.015625 4.425781 0 8 3.578125 8 8 0 4.425781-3.574219 8-8 8-8.832032 0-16.015626 7.183594-16.015626 16.015625 0 4.425781-3.574218 8-8 8zm0 0"/><path d="m88.054688 264.0625c-4.414063 0-7.992188-3.566406-8-7.984375-.007813-4.421875 3.5625-8.007813 7.984374-8.015625l32-.0625h.015626c4.417968 0 7.992187 3.566406 8 7.984375.007812 4.421875-3.558594 8.007813-7.984376 8.015625l-32 .0625c-.007812 0-.007812 0-.015624 0zm0 0"/><path d="m223.96875 288.070312c-4.425781 0-8-3.574218-8-8 0-8.824218-7.175781-16-16-16-4.425781 0-8-3.574218-8-8 0-4.421874 3.574219-8 8-8 17.648438 0 32 14.355469 32 32 0 4.425782-3.578125 8-8 8zm0 0"/><path d="m199.976562 264.0625h-31.976562c-4.425781 0-8-3.574219-8-8 0-4.421875 3.574219-8 8-8h31.976562c4.421876 0 8 3.578125 8 8 0 4.425781-3.578124 8-8 8zm0 0"/><path d="m119.9375 264c-.007812 0-.027344 0-.035156 0-4.421875-.015625-7.980469-3.617188-7.964844-8.03125l.117188-28.640625c.015624-4.40625 3.59375-7.96875 8-7.96875h.035156c4.421875.015625 7.980468 3.617187 7.964844 8.03125l-.117188 28.640625c-.015625 4.410156-3.59375 7.96875-8 7.96875zm0 0"/><path d="m168 264.0625c-4.425781 0-8-3.574219-8-8v-28.742188c0-4.425781 3.574219-8 8-8s8 3.574219 8 8v28.742188c0 4.425781-3.574219 8-8 8zm0 0"/><path d="m143.976562 239.992188c-39.695312 0-71.992187-32.289063-71.992187-71.984376 0-4.421874 3.574219-8 8-8 4.421875 0 8 3.578126 8 8 0 30.863282 25.121094 55.984376 55.992187 55.984376 30.878907 0 56.007813-25.121094 56.007813-55.984376 0-4.421874 3.574219-8 8-8 4.421875 0 8 3.578126 8 8 0 39.695313-32.304687 71.984376-72.007813 71.984376zm0 0"/><path d="m80.046875 176.039062c-4.414063 0-7.992187-3.566406-8-7.984374l-.046875-24.039063c-.007812-4.429687 3.703125-8.320313 8-8.015625 4.414062 0 7.992188 3.566406 8 7.984375l.046875 24.039063c.007813 4.425781-3.558594 8.007812-7.984375 8.015624-.007812 0-.007812 0-.015625 0zm0 0"/><path d="m207.929688 176c-.007813 0-.019532 0-.027344 0-4.421875-.015625-7.992188-3.601562-7.972656-8.023438l.070312-24c.015625-4.410156 3.59375-7.976562 8-7.976562h.023438c4.425781.015625 7.992187 3.601562 7.976562 8.023438l-.070312 24c-.019532 4.410156-3.59375 7.976562-8 7.976562zm0 0"/><path d="m224 144c-4.425781 0-8-3.574219-8-8 0-39.703125-32.296875-72-72-72s-72 32.296875-72 72c0 4.425781-3.574219 8-8 8s-8-3.574219-8-8c0-48.519531 39.480469-88 88-88s88 39.480469 88 88c0 4.425781-3.574219 8-8 8zm0 0"/><path d="m224 152h-160c-4.425781 0-8-3.574219-8-8s3.574219-8 8-8h160c4.425781 0 8 3.574219 8 8s-3.574219 8-8 8zm0 0"/><path d="m64 328.015625c-4.425781 0-8-3.574219-8-8v-184.015625c0-4.425781 3.574219-8 8-8s8 3.574219 8 8v184.015625c0 4.425781-3.574219 8-8 8zm0 0"/><path d="m224 328c-4.425781 0-8-3.574219-8-8v-184c0-4.425781 3.574219-8 8-8s8 3.574219 8 8v184c0 4.425781-3.574219 8-8 8zm0 0"/><path d="m96 152c-4.425781 0-8-3.574219-8-8v-16c0-4.425781 3.574219-8 8-8s8 3.574219 8 8v16c0 4.425781-3.574219 8-8 8zm0 0"/><path d="m128 152c-4.425781 0-8-3.574219-8-8v-16c0-4.425781 3.574219-8 8-8s8 3.574219 8 8v16c0 4.425781-3.574219 8-8 8zm0 0"/><path d="m160 152c-4.425781 0-8-3.574219-8-8v-16c0-4.425781 3.574219-8 8-8s8 3.574219 8 8v16c0 4.425781-3.574219 8-8 8zm0 0"/><path d="m192 152c-4.425781 0-8-3.574219-8-8v-16c0-4.425781 3.574219-8 8-8s8 3.574219 8 8v16c0 4.425781-3.574219 8-8 8zm0 0"/><path d="m104 296.078125c-4.425781 0-8-3.574219-8-8v-32.03125c0-4.421875 3.574219-8 8-8s8 3.578125 8 8v32.03125c0 4.425781-3.574219 8-8 8zm0 0"/><path d="m184 296.078125c-4.425781 0-8-3.574219-8-8v-32.03125c0-4.421875 3.574219-8 8-8s8 3.578125 8 8v32.03125c0 4.425781-3.574219 8-8 8zm0 0"/><path d="m184 296.078125h-80c-4.425781 0-8-3.574219-8-8 0-4.421875 3.574219-8 8-8h80c4.425781 0 8 3.578125 8 8 0 4.425781-3.574219 8-8 8zm0 0"/><path d="m280 328.007812h-272c-4.425781 0-8-3.574218-8-8 0-4.421874 3.574219-8 8-8h272c4.425781 0 8 3.578126 8 8 0 4.425782-3.574219 8-8 8zm0 0"/><path d="m192 416.007812c-2.128906 0-4.160156-.839843-5.65625-2.34375l-26.175781-26.167968c-4.847657-4.832032-7.503907-11.214844-7.503907-18.015625-.007812-6.808594 2.640626-13.199219 7.449219-18.007813 8.292969-8.328125 22.199219-9.679687 31.886719-3.351562 9.609375-6.296875 23.574219-5.007813 31.902344 3.367187 4.792968 4.792969 7.441406 11.183594 7.433594 17.992188 0 6.800781-2.648438 13.175781-7.457032 17.96875l-26.222656 26.214843c-1.496094 1.503907-3.527344 2.34375-5.65625 2.34375zm-13.894531-56c-2.519531 0-4.890625.976563-6.664063 2.761719-1.800781 1.796875-2.777344 4.167969-2.777344 6.695313s.976563 4.878906 2.75 6.65625l20.585938 20.574218 20.574219-20.566406c1.785156-1.785156 2.761719-4.144531 2.761719-6.664062 0-2.519532-.976563-4.898438-2.761719-6.679688-3.574219-3.59375-9.804688-3.570312-13.367188-.007812l-1.582031 1.566406c-3.113281 3.082031-8.144531 3.082031-11.25 0l-1.542969-1.527344c-1.824219-1.832031-4.199219-2.808594-6.726562-2.808594zm0 0"/><path d="m120.015625 376.839844c-2.046875 0-4.09375-.785156-5.65625-2.34375l-16.824219-16.824219c-3.128906-3.128906-3.128906-8.183594 0-11.3125s8.183594-3.128906 11.3125 0l16.824219 16.824219c3.128906 3.128906 3.128906 8.183594 0 11.3125-1.558594 1.566406-3.609375 2.34375-5.65625 2.34375zm0 0"/><path d="m108.832031 388.039062c-2.046875 0-4.097656-.78125-5.65625-2.34375-3.128906-3.121093-3.128906-8.183593 0-11.3125l11.183594-11.191406c3.128906-3.128906 8.183594-3.128906 11.3125 0 3.128906 3.121094 3.128906 8.183594 0 11.3125l-11.183594 11.191406c-1.566406 1.5625-3.617187 2.34375-5.65625 2.34375zm0 0"/><path d="m119.984375 399.191406c-2.046875 0-4.097656-.785156-5.65625-2.34375l-11.160156-11.160156c-3.128907-3.128906-3.128907-8.183594 0-11.3125 3.128906-3.128906 8.183593-3.128906 11.3125 0l11.160156 11.160156c3.128906 3.128906 3.128906 8.183594 0 11.3125-1.5625 1.566406-3.609375 2.34375-5.65625 2.34375zm0 0"/><path d="m103.191406 415.984375c-2.046875 0-4.09375-.785156-5.65625-2.34375-3.128906-3.128906-3.128906-8.183594 0-11.3125l16.792969-16.792969c3.128906-3.128906 8.183594-3.128906 11.3125 0s3.128906 8.183594 0 11.3125l-16.792969 16.792969c-1.558594 1.558594-3.609375 2.34375-5.65625 2.34375zm0 0"/><path d="m103.191406 415.984375c-2.046875 0-4.09375-.785156-5.65625-2.34375l-11.191406-11.191406c-3.128906-3.128907-3.128906-8.183594 0-11.3125 3.128906-3.128907 8.183594-3.128907 11.3125 0l11.191406 11.191406c3.128906 3.128906 3.128906 8.183594 0 11.3125-1.558594 1.558594-3.609375 2.34375-5.65625 2.34375zm0 0"/><path d="m92 371.207031c-2.046875 0-4.097656-.78125-5.65625-2.34375-3.128906-3.128906-3.128906-8.191406 0-11.3125l11.191406-11.183593c3.128906-3.128907 8.183594-3.128907 11.3125 0 3.128906 3.128906 3.128906 8.191406 0 11.3125l-11.191406 11.183593c-1.558594 1.570313-3.609375 2.34375-5.65625 2.34375zm0 0"/><path d="m80.839844 416.015625c-2.046875 0-4.097656-.785156-5.65625-2.34375l-16.832032-16.824219c-3.128906-3.128906-3.128906-8.183594 0-11.3125 3.128907-3.128906 8.183594-3.128906 11.3125 0l16.832032 16.824219c3.128906 3.128906 3.128906 8.183594 0 11.3125-1.558594 1.558594-3.609375 2.34375-5.65625 2.34375zm0 0"/><path d="m64.015625 399.191406c-2.046875 0-4.09375-.785156-5.65625-2.34375-3.128906-3.128906-3.128906-8.183594 0-11.3125l11.191406-11.191406c3.128907-3.128906 8.183594-3.128906 11.3125 0 3.128907 3.128906 3.128907 8.183594 0 11.3125l-11.191406 11.191406c-1.558594 1.566406-3.609375 2.34375-5.65625 2.34375zm0 0"/><path d="m80.839844 416.015625c-2.046875 0-4.097656-.785156-5.65625-2.34375-3.128906-3.128906-3.128906-8.191406 0-11.3125l11.191406-11.183594c3.128906-3.128906 8.183594-3.128906 11.3125 0 3.128906 3.128907 3.128906 8.191407 0 11.3125l-11.191406 11.183594c-1.558594 1.558594-3.609375 2.34375-5.65625 2.34375zm0 0"/><path d="m91.960938 371.167969c-2.050782 0-4.097657-.785157-5.65625-2.34375l-11.160157-11.152344c-3.128906-3.121094-3.128906-8.183594 0-11.3125 3.128907-3.128906 8.183594-3.128906 11.3125 0l11.160157 11.152344c3.125 3.121093 3.125 8.183593 0 11.3125-1.5625 1.566406-3.609376 2.34375-5.65625 2.34375zm0 0"/><path d="m64.015625 376.808594c-2.046875 0-4.09375-.785156-5.65625-2.34375-3.128906-3.128906-3.128906-8.183594 0-11.3125l16.792969-16.785156c3.128906-3.128907 8.183594-3.128907 11.3125 0 3.128906 3.128906 3.128906 8.183593 0 11.3125l-16.792969 16.785156c-1.558594 1.558594-3.609375 2.34375-5.65625 2.34375zm0 0"/><path d="m75.207031 388c-2.046875 0-4.09375-.785156-5.65625-2.34375l-11.191406-11.191406c-3.128906-3.128906-3.128906-8.183594 0-11.3125s8.183594-3.128906 11.3125 0l11.191406 11.191406c3.128907 3.128906 3.128907 8.183594 0 11.3125-1.558593 1.558594-3.605469 2.34375-5.65625 2.34375zm0 0"/></svg>