<svg height="512pt" viewBox="0 -12 512.064 512" width="512pt" xmlns="http://www.w3.org/2000/svg"><path d="m120.054688 216.03125c-1.671876 0-3.351563-.519531-4.789063-1.597656-3.539063-2.648438-4.257813-7.664063-1.601563-11.195313l48-64c2.648438-3.535156 7.671876-4.238281 11.191407-1.597656 3.535156 2.648437 4.257812 7.664063 1.601562 11.191406l-48 64c-1.570312 2.097657-3.960937 3.199219-6.402343 3.199219zm0 0"/><path d="m216.070312 216.03125c-2.4375 0-4.832031-1.101562-6.40625-3.199219l-48-64c-2.65625-3.527343-1.9375-8.542969 1.601563-11.191406 3.519531-2.65625 8.542969-1.945313 11.191406 1.597656l48 64c2.65625 3.53125 1.933594 8.546875-1.601562 11.195313-1.429688 1.078125-3.113281 1.597656-4.785157 1.597656zm0 0"/><path d="m72.054688 216.03125c-1.75 0-3.511719-.566406-4.992188-1.75-3.445312-2.769531-4.007812-7.800781-1.246094-11.25l32-40c2.769532-3.4375 7.800782-4.015625 11.246094-1.246094 3.449219 2.765625 4.007812 7.800782 1.25 11.246094l-32 40c-1.585938 1.96875-3.90625 3-6.257812 3zm0 0"/><path d="m127.808594 205.703125c-2.351563 0-4.671875-1.03125-6.257813-3l-23.734375-29.671875c-2.761718-3.457031-2.191406-8.488281 1.246094-11.246094 3.464844-2.769531 8.488281-2.183594 11.25 1.246094l23.734375 29.671875c2.761719 3.457031 2.191406 8.488281-1.246094 11.25-1.480469 1.183594-3.25 1.75-4.992187 1.75zm0 0"/><path d="m88.304688 128.03125c-4.425782 0-8.039063-3.574219-8.039063-8 0-4.421875 3.535156-8 7.949219-8h.089844c4.414062 0 8 3.578125 8 8 0 4.425781-3.585938 8-8 8zm0 0"/><path d="m32.238281 32.03125c-4.421875 0-8.039062-3.574219-8.039062-8 0-4.421875 3.535156-8 7.953125-8h.085937c4.417969 0 8 3.578125 8 8 0 4.425781-3.582031 8-8 8zm0 0"/><path d="m56.238281 32.03125c-4.421875 0-8.039062-3.574219-8.039062-8 0-4.421875 3.535156-8 7.953125-8h.085937c4.417969 0 8 3.578125 8 8 0 4.425781-3.582031 8-8 8zm0 0"/><path d="m80.238281 32.03125c-4.421875 0-8.039062-3.574219-8.039062-8 0-4.421875 3.535156-8 7.953125-8h.085937c4.417969 0 8 3.578125 8 8 0 4.425781-3.582031 8-8 8zm0 0"/><path d="m504.0625 488.03125h-495.917969c-4.425781 0-8-3.574219-8-8v-440c0-4.421875 3.574219-8 8-8h495.917969c4.425781 0 8 3.578125 8 8v440c0 4.425781-3.574219 8-8 8zm-487.917969-16h479.917969v-424h-479.917969zm0 0"/><path d="m8 32.03125c-4.425781 0-8-3.574219-8-8 0-13.230469 10.769531-24 24-24 4.425781 0 8 3.578125 8 8 0 4.425781-3.574219 8-8 8-4.414062 0-8 3.585938-8 8 0 4.425781-3.574219 8-8 8zm0 0"/><path d="m8 48.03125c-4.425781 0-8-3.574219-8-8v-16c0-4.421875 3.574219-8 8-8s8 3.578125 8 8v16c0 4.425781-3.574219 8-8 8zm0 0"/><path d="m503.921875 32.03125c-4.425781 0-8-3.574219-8-8 0-4.414062-3.585937-8-8-8-4.425781 0-8-3.574219-8-8 0-4.421875 3.574219-8 8-8 13.230469 0 24 10.769531 24 24 0 4.425781-3.578125 8-8 8zm0 0"/><path d="m503.921875 48.03125c-4.425781 0-8-3.574219-8-8v-16c0-4.421875 3.574219-8 8-8 4.421875 0 8 3.578125 8 8v16c0 4.425781-3.578125 8-8 8zm0 0"/><path d="m487.921875 16.03125h-463.921875c-4.425781 0-8-3.574219-8-8 0-4.421875 3.574219-8 8-8h463.921875c4.421875 0 8 3.578125 8 8 0 4.425781-3.578125 8-8 8zm0 0"/><path d="m232.0625 216.03125h-184c-4.421875 0-8-3.574219-8-8v-128c0-4.421875 3.578125-8 8-8h184c4.425781 0 8 3.578125 8 8v128c0 4.425781-3.574219 8-8 8zm-176-16h168v-112h-168zm0 0"/><path d="m232.0625 248.03125h-184c-4.421875 0-8-3.574219-8-8 0-4.421875 3.578125-8 8-8h184c4.425781 0 8 3.578125 8 8 0 4.425781-3.574219 8-8 8zm0 0"/><path d="m232.0625 280.03125h-184c-4.421875 0-8-3.574219-8-8 0-4.421875 3.578125-8 8-8h184c4.425781 0 8 3.578125 8 8 0 4.425781-3.574219 8-8 8zm0 0"/><path d="m136.0625 312.03125h-88c-4.421875 0-8-3.574219-8-8 0-4.421875 3.578125-8 8-8h88c4.425781 0 8 3.578125 8 8 0 4.425781-3.574219 8-8 8zm0 0"/><path d="m464.0625 216.03125h-184c-4.421875 0-8-3.574219-8-8v-128c0-4.421875 3.578125-8 8-8h184c4.425781 0 8 3.578125 8 8v128c0 4.425781-3.574219 8-8 8zm-176-16h168v-112h-168zm0 0"/><path d="m464.0625 248.03125h-184c-4.421875 0-8-3.574219-8-8 0-4.421875 3.578125-8 8-8h184c4.425781 0 8 3.578125 8 8 0 4.425781-3.574219 8-8 8zm0 0"/><path d="m464.0625 280.03125h-184c-4.421875 0-8-3.574219-8-8 0-4.421875 3.578125-8 8-8h184c4.425781 0 8 3.578125 8 8 0 4.425781-3.574219 8-8 8zm0 0"/><path d="m360.0625 312.03125h-80c-4.421875 0-8-3.574219-8-8 0-4.421875 3.578125-8 8-8h80c4.425781 0 8 3.578125 8 8 0 4.425781-3.574219 8-8 8zm0 0"/><path d="m464.0625 448.03125h-416c-4.421875 0-8-3.574219-8-8v-96c0-4.421875 3.578125-8 8-8h416c4.425781 0 8 3.578125 8 8v96c0 4.425781-3.574219 8-8 8zm-408-16h400v-80h-400zm0 0"/><path d="m256.0625 424.03125c-2.046875 0-4.09375-.785156-5.65625-2.34375l-5.652344-5.65625h-4.691406c-4.421875 0-8-3.574219-8-8v-4.6875l-5.636719-5.640625c-3.128906-3.128906-3.128906-8.175781-.011719-11.304687l5.648438-5.664063v-4.703125c0-4.421875 3.578125-8 8-8h4.691406l5.652344-5.65625c3.128906-3.128906 8.1875-3.128906 11.3125 0l5.65625 5.65625h4.6875c4.425781 0 8 3.578125 8 8v4.695312l5.664062 5.640626c1.503907 1.496093 2.351563 3.527343 2.351563 5.65625 0 2.121093-.832031 4.160156-2.335937 5.65625l-5.671876 5.679687-.007812 4.6875c-.007812 4.417969-3.582031 7.984375-8 7.984375h-4.6875l-5.65625 5.65625c-1.558594 1.558594-3.605469 2.34375-5.65625 2.34375zm-8-24c2.128906 0 4.160156.839844 5.65625 2.34375l2.34375 2.34375 2.34375-2.34375c1.503906-1.503906 3.53125-2.34375 5.65625-2.34375.007812-2.121094.839844-4.152344 2.34375-5.640625l2.355469-2.351563-2.328125-2.328124c-1.503906-1.503907-2.34375-3.527344-2.355469-5.648438l-.015625-.03125c-2.125 0-4.160156-.839844-5.65625-2.34375l-2.34375-2.34375-2.34375 2.34375c-1.503906 1.503906-3.527344 2.34375-5.65625 2.34375v.015625c0 2.121094-.839844 4.152344-2.335938 5.648437l-2.34375 2.34375 2.335938 2.335938c1.496094 1.496094 2.34375 3.527344 2.34375 5.65625zm0 0"/><path d="m192.0625 384.03125h-112c-4.421875 0-8-3.574219-8-8 0-4.421875 3.578125-8 8-8h112c4.425781 0 8 3.578125 8 8 0 4.425781-3.574219 8-8 8zm0 0"/><path d="m160.0625 416.03125h-48c-4.421875 0-8-3.574219-8-8 0-4.421875 3.578125-8 8-8h48c4.425781 0 8 3.578125 8 8 0 4.425781-3.574219 8-8 8zm0 0"/><path d="m432.0625 384.03125h-112c-4.421875 0-8-3.574219-8-8 0-4.421875 3.578125-8 8-8h112c4.425781 0 8 3.578125 8 8 0 4.425781-3.574219 8-8 8zm0 0"/><path d="m400.0625 416.03125h-48c-4.421875 0-8-3.574219-8-8 0-4.421875 3.578125-8 8-8h48c4.425781 0 8 3.578125 8 8 0 4.425781-3.574219 8-8 8zm0 0"/><path d="m352.0625 184.03125c-4.421875 0-8-3.574219-8-8v-64c0-4.421875 3.578125-8 8-8 4.425781 0 8 3.578125 8 8v64c0 4.425781-3.574219 8-8 8zm0 0"/><path d="m352.070312 184.03125c-2.582031 0-5.125-1.246094-6.664062-3.558594-2.453125-3.679687-1.460938-8.640625 2.21875-11.097656l48-32c3.679688-2.453125 8.640625-1.464844 11.09375 2.21875 2.457031 3.679688 1.464844 8.636719-2.214844 11.09375l-48 32c-1.367187.90625-2.910156 1.34375-4.433594 1.34375zm0 0"/><path d="m400.054688 152.03125c-1.519532 0-3.0625-.4375-4.429688-1.34375l-48-32c-3.679688-2.457031-4.671875-7.414062-2.21875-11.09375 2.449219-3.683594 7.402344-4.671875 11.097656-2.21875l48 32c3.679688 2.457031 4.671875 7.417969 2.214844 11.097656-1.535156 2.3125-4.078125 3.558594-6.664062 3.558594zm0 0"/></svg>