<svg height="512pt" viewBox="-24 0 512 512" width="512pt" xmlns="http://www.w3.org/2000/svg"><path d="m408 176h-351.96875c-4.421875 0-8-3.574219-8-8v-80c0-4.425781 3.578125-8 8-8h351.96875c4.425781 0 8 3.574219 8 8v80c0 4.425781-3.574219 8-8 8zm-343.96875-16h335.96875v-64h-335.96875zm0 0"/><path d="m216.03125 216h-160c-4.421875 0-8-3.574219-8-8s3.578125-8 8-8h160c4.425781 0 8 3.574219 8 8s-3.574219 8-8 8zm0 0"/><path d="m128.03125 248h-72c-4.421875 0-8-3.574219-8-8s3.578125-8 8-8h72c4.425781 0 8 3.574219 8 8s-3.574219 8-8 8zm0 0"/><path d="m408 248h-247.96875c-4.421875 0-8-3.574219-8-8s3.578125-8 8-8h247.96875c4.425781 0 8 3.574219 8 8s-3.574219 8-8 8zm0 0"/><path d="m152.03125 312h-96c-4.421875 0-8-3.574219-8-8s3.578125-8 8-8h96c4.425781 0 8 3.574219 8 8s-3.574219 8-8 8zm0 0"/><path d="m408 312h-223.96875c-4.421875 0-8-3.574219-8-8s3.578125-8 8-8h223.96875c4.425781 0 8 3.574219 8 8s-3.574219 8-8 8zm0 0"/><path d="m264 280h-207.96875c-4.421875 0-8-3.574219-8-8s3.578125-8 8-8h207.96875c4.425781 0 8 3.574219 8 8s-3.574219 8-8 8zm0 0"/><path d="m408 280h-112c-4.425781 0-8-3.574219-8-8s3.574219-8 8-8h112c4.425781 0 8 3.574219 8 8s-3.574219 8-8 8zm0 0"/><path d="m408 216h-159.96875c-4.421875 0-8-3.574219-8-8s3.578125-8 8-8h159.96875c4.425781 0 8 3.574219 8 8s-3.574219 8-8 8zm0 0"/><path d="m304 368.007812h-103.96875c-4.421875 0-8-3.574218-8-8 0-4.421874 3.578125-8 8-8h103.96875c4.425781 0 8 3.578126 8 8 0 4.425782-3.574219 8-8 8zm0 0"/><path d="m240.03125 400.007812h-40c-4.421875 0-8-3.574218-8-8 0-4.421874 3.578125-8 8-8h40c4.425781 0 8 3.578126 8 8 0 4.425782-3.574219 8-8 8zm0 0"/><path d="m408 400.007812h-136c-4.425781 0-8-3.574218-8-8 0-4.421874 3.574219-8 8-8h136c4.425781 0 8 3.578126 8 8 0 4.425782-3.574219 8-8 8zm0 0"/><path d="m272 464.007812h-71.96875c-4.421875 0-8-3.574218-8-8 0-4.421874 3.578125-8 8-8h71.96875c4.425781 0 8 3.578126 8 8 0 4.425782-3.574219 8-8 8zm0 0"/><path d="m408 464.007812h-104c-4.425781 0-8-3.574218-8-8 0-4.421874 3.574219-8 8-8h104c4.425781 0 8 3.578126 8 8 0 4.425782-3.574219 8-8 8zm0 0"/><path d="m344 432.007812h-143.96875c-4.421875 0-8-3.574218-8-8 0-4.421874 3.578125-8 8-8h143.96875c4.425781 0 8 3.578126 8 8 0 4.425782-3.574219 8-8 8zm0 0"/><path d="m408 432.007812h-32c-4.425781 0-8-3.574218-8-8 0-4.421874 3.574219-8 8-8h32c4.425781 0 8 3.578126 8 8 0 4.425782-3.574219 8-8 8zm0 0"/><path d="m408 368.007812h-72c-4.425781 0-8-3.574218-8-8 0-4.421874 3.574219-8 8-8h72c4.425781 0 8 3.578126 8 8 0 4.425782-3.574219 8-8 8zm0 0"/><path d="m32.238281 32c-4.414062 0-8.039062-3.574219-8.039062-8s3.535156-8 7.953125-8h.085937c4.417969 0 8 3.574219 8 8s-3.582031 8-8 8zm0 0"/><path d="m56.238281 32c-4.414062 0-8.039062-3.574219-8.039062-8s3.535156-8 7.953125-8h.085937c4.417969 0 8 3.574219 8 8s-3.582031 8-8 8zm0 0"/><path d="m80.238281 32c-4.421875 0-8.039062-3.574219-8.039062-8s3.535156-8 7.953125-8h.085937c4.417969 0 8 3.574219 8 8s-3.582031 8-8 8zm0 0"/><path d="m456.03125 512h-447.886719c-4.425781 0-8-3.574219-8-8v-464c0-4.425781 3.574219-8 8-8h447.886719c4.425781 0 8 3.574219 8 8v464c0 4.425781-3.574219 8-8 8zm-439.886719-16h431.886719v-448h-431.886719zm0 0"/><path d="m8 32c-4.425781 0-8-3.574219-8-8 0-13.230469 10.769531-24 24-24 4.425781 0 8 3.574219 8 8s-3.574219 8-8 8c-4.414062 0-8 3.585938-8 8 0 4.425781-3.574219 8-8 8zm0 0"/><path d="m8 48c-4.425781 0-8-3.574219-8-8v-16c0-4.425781 3.574219-8 8-8s8 3.574219 8 8v16c0 4.425781-3.574219 8-8 8zm0 0"/><path d="m455.886719 32c-4.421875 0-8-3.574219-8-8 0-4.414062-3.582031-8-8-8-4.421875 0-8-3.574219-8-8s3.578125-8 8-8c13.234375 0 24 10.769531 24 24 0 4.425781-3.574219 8-8 8zm0 0"/><path d="m455.886719 48c-4.421875 0-8-3.574219-8-8v-16c0-4.425781 3.578125-8 8-8 4.425781 0 8 3.574219 8 8v16c0 4.425781-3.574219 8-8 8zm0 0"/><path d="m439.886719 16h-415.886719c-4.425781 0-8-3.574219-8-8s3.574219-8 8-8h415.886719c4.425781 0 8 3.574219 8 8s-3.574219 8-8 8zm0 0"/><path d="m152.03125 448.007812c-4.421875 0-8-3.574218-8-8v-72h-80v72c0 4.425782-3.574219 8-8 8-4.421875 0-8-3.574218-8-8v-80c0-4.421874 3.578125-8 8-8h96c4.425781 0 8 3.578126 8 8v80c0 4.425782-3.574219 8-8 8zm0 0"/><path d="m120.03125 360.007812c-4.421875 0-8-3.574218-8-8 0-4.414062-3.582031-8-8-8-4.414062 0-8 3.585938-8 8 0 4.425782-3.574219 8-8 8-4.421875 0-8-3.574218-8-8 0-13.230468 10.769531-24 24-24 13.234375 0 24 10.769532 24 24 0 4.425782-3.574219 8-8 8zm0 0"/><path d="m88.03125 384.007812c-4.421875 0-8-3.574218-8-8v-24c0-4.421874 3.578125-8 8-8 4.425781 0 8 3.578126 8 8v24c0 4.425782-3.574219 8-8 8zm0 0"/><path d="m120.03125 384.007812c-4.421875 0-8-3.574218-8-8v-24c0-4.421874 3.578125-8 8-8 4.425781 0 8 3.578126 8 8v24c0 4.425782-3.574219 8-8 8zm0 0"/><path d="m72.03125 464.007812c-13.230469 0-24-10.769531-24-23.992187 0-4.421875 3.578125-8 8-8 4.425781 0 8 3.578125 8 8 0 4.410156 3.585938 7.992187 8 7.992187 4.425781 0 8 3.578126 8 8 0 4.425782-3.574219 8-8 8zm0 0"/><path d="m136.03125 464.007812c-4.421875 0-8-3.574218-8-8 0-4.421874 3.578125-8 8-8 4.417969 0 8-3.582031 8-8 0-4.421874 3.578125-8 8-8 4.425781 0 8 3.578126 8 8 0 13.230469-10.765625 24-24 24zm0 0"/><path d="m136.03125 464.007812h-64c-4.421875 0-8-3.574218-8-8 0-4.421874 3.578125-8 8-8h64c4.425781 0 8 3.578126 8 8 0 4.425782-3.574219 8-8 8zm0 0"/><path d="m352 136h-239.96875c-4.421875 0-8-3.574219-8-8s3.578125-8 8-8h239.96875c4.425781 0 8 3.574219 8 8s-3.574219 8-8 8zm0 0"/></svg>