<svg height="512pt" viewBox="-32 0 512 512" width="512pt" xmlns="http://www.w3.org/2000/svg"><path d="m208 144c-4.425781 0-8-3.574219-8-8 0-48.519531-39.480469-88-88-88s-88 39.480469-88 88c0 4.425781-3.574219 8-8 8s-8-3.574219-8-8c0-57.34375 46.65625-104 104-104s104 46.65625 104 104c0 4.425781-3.574219 8-8 8zm0 0"/><path d="m16 232c-4.425781 0-8-3.574219-8-8v-88c0-4.425781 3.574219-8 8-8s8 3.574219 8 8v88c0 4.425781-3.574219 8-8 8zm0 0"/><path d="m208 232c-4.425781 0-8-3.574219-8-8v-88c0-4.425781 3.574219-8 8-8s8 3.574219 8 8v88c0 4.425781-3.574219 8-8 8zm0 0"/><path d="m216 264h-208c-4.425781 0-8-3.574219-8-8v-32c0-4.425781 3.574219-8 8-8h208c4.425781 0 8 3.574219 8 8v32c0 4.425781-3.574219 8-8 8zm-200-16h192v-16h-192zm0 0"/><path d="m112 296c-22.054688 0-40-17.945312-40-40 0-4.425781 3.574219-8 8-8s8 3.574219 8 8c0 13.230469 10.769531 24 24 24s24-10.769531 24-24c0-4.425781 3.574219-8 8-8s8 3.574219 8 8c0 22.054688-17.945312 40-40 40zm0 0"/><path d="m128 32c-4.425781 0-8-3.574219-8-8 0-4.414062-3.585938-8-8-8s-8 3.585938-8 8c0 4.425781-3.574219 8-8 8s-8-3.574219-8-8c0-13.230469 10.769531-24 24-24s24 10.769531 24 24c0 4.425781-3.574219 8-8 8zm0 0"/><path d="m96 49.328125c-4.425781 0-8-3.574219-8-8v-17.328125c0-4.425781 3.574219-8 8-8s8 3.574219 8 8v17.328125c0 4.425781-3.574219 8-8 8zm0 0"/><path d="m128 49.328125c-4.425781 0-8-3.574219-8-8v-17.328125c0-4.425781 3.574219-8 8-8s8 3.574219 8 8v17.328125c0 4.425781-3.574219 8-8 8zm0 0"/><path d="m296.238281 504c-4.421875 0-8.039062-3.574219-8.039062-8s3.535156-8 7.953125-8h.085937c4.417969 0 8 3.574219 8 8s-3.582031 8-8 8zm0 0"/><path d="m320 196c-4.425781 0-8-3.574219-8-8 0-6.617188-5.382812-12-12-12s-12 5.382812-12 12c0 4.425781-3.574219 8-8 8s-8-3.574219-8-8c0-15.441406 12.558594-28 28-28s28 12.558594 28 28c0 4.425781-3.574219 8-8 8zm0 0"/><path d="m359.992188 291.992188c-4.425782 0-8-3.578126-8-8 0-6.609376-5.382813-11.992188-12-11.992188-6.609376 0-11.992188 5.382812-11.992188 11.992188 0 4.421874-3.574219 8-8 8s-8-3.578126-8-8c0-15.441407 12.550781-27.992188 27.992188-27.992188 15.441406 0 28 12.550781 28 27.992188 0 4.421874-3.578126 8-8 8zm0 0"/><path d="m399.992188 299.992188c-4.425782 0-8-3.578126-8-8 0-6.609376-5.382813-11.992188-11.992188-11.992188-6.617188 0-12 5.382812-12 11.992188 0 4.421874-3.574219 8-8 8s-8-3.578126-8-8c0-15.441407 12.558594-27.992188 28-27.992188s27.992188 12.550781 27.992188 27.992188c0 4.421874-3.578126 8-8 8zm0 0"/><path d="m439.984375 307.992188c-4.425781 0-8-3.578126-8-8 0-6.609376-5.382813-11.992188-11.992187-11.992188-6.609376 0-11.992188 5.382812-11.992188 11.992188 0 4.421874-3.574219 8-8 8s-8-3.578126-8-8c0-15.441407 12.550781-27.992188 27.992188-27.992188 15.441406 0 27.992187 12.550781 27.992187 27.992188 0 4.421874-3.578125 8-8 8zm0 0"/><path d="m320 312c-4.425781 0-8-3.574219-8-8v-116c0-4.425781 3.574219-8 8-8s8 3.574219 8 8v116c0 4.425781-3.574219 8-8 8zm0 0"/><path d="m280 360c-4.425781 0-8-3.574219-8-8v-164c0-4.425781 3.574219-8 8-8s8 3.574219 8 8v164c0 4.425781-3.574219 8-8 8zm0 0"/><path d="m360 312.007812c-4.425781 0-8-3.574218-8-8v-20.007812c0-4.425781 3.574219-8 8-8s8 3.574219 8 8v20.007812c0 4.425782-3.574219 8-8 8zm0 0"/><path d="m400 312c-4.425781 0-8-3.574219-8-8v-12.007812c0-4.425782 3.574219-8 8-8s8 3.574218 8 8v12.007812c0 4.425781-3.574219 8-8 8zm0 0"/><path d="m440 440c-4.425781 0-8-3.574219-8-8v-132.007812c0-4.425782 3.574219-8 8-8s8 3.574218 8 8v132.007812c0 4.425781-3.574219 8-8 8zm0 0"/><path d="m280 336c-4.425781 0-8-3.574219-8-8 0-13.230469-10.769531-24-24-24-4.425781 0-8-3.574219-8-8s3.574219-8 8-8c22.054688 0 40 17.945312 40 40 0 4.425781-3.574219 8-8 8zm0 0"/><path d="m248 424c-4.425781 0-8-3.574219-8-8v-120c0-4.425781 3.574219-8 8-8s8 3.574219 8 8v120c0 4.425781-3.574219 8-8 8zm0 0"/><path d="m280.007812 480c-2.785156 0-5.480468-1.449219-6.953124-4.03125l-32-56c-2.191407-3.832031-.855469-8.722656 2.976562-10.914062 3.832031-2.207032 8.722656-.855469 10.914062 2.976562l32 56c2.191407 3.832031.855469 8.722656-2.976562 10.914062-1.25.71875-2.617188 1.054688-3.960938 1.054688zm0 0"/><path d="m424 480c-.992188 0-2-.175781-2.96875-.566406-4.101562-1.640625-6.101562-6.296875-4.464844-10.402344l16-40c1.632813-4.121094 6.320313-6.09375 10.402344-4.464844 4.101562 1.640625 6.101562 6.296875 4.464844 10.402344l-16 40c-1.257813 3.136719-4.265625 5.03125-7.433594 5.03125zm0 0"/><path d="m440 512c-4.425781 0-8-3.574219-8-8v-24h-160v24c0 4.425781-3.574219 8-8 8s-8-3.574219-8-8v-32c0-4.425781 3.574219-8 8-8h176c4.425781 0 8 3.574219 8 8v32c0 4.425781-3.574219 8-8 8zm0 0"/><path d="m112 327.96875c-18.441406 0-36.871094-7.015625-50.910156-21.046875-3.128906-3.128906-3.128906-8.1875 0-11.3125 3.125-3.128906 8.183594-3.128906 11.308594 0 21.839843 21.832031 57.363281 21.832031 79.203124 0 3.125-3.128906 8.183594-3.128906 11.308594 0 3.128906 3.125 3.128906 8.183594 0 11.3125-14.039062 14.03125-32.46875 21.046875-50.910156 21.046875zm0 0"/><path d="m112 359.953125c-26.632812 0-53.265625-10.136719-73.535156-30.410156-3.128906-3.128907-3.128906-8.183594 0-11.3125 3.128906-3.125 8.183594-3.125 11.3125 0 34.3125 34.296875 90.144531 34.296875 124.453125 0 3.128906-3.125 8.183593-3.125 11.3125 0 3.128906 3.128906 3.128906 8.183593 0 11.3125-20.277344 20.28125-46.910157 30.410156-73.542969 30.410156zm0 0"/></svg>