<svg height="512pt" viewBox="0 -84 512 512" width="512pt" xmlns="http://www.w3.org/2000/svg"><path d="m48 344c-1.464844 0-2.921875-.398438-4.199219-1.191406-2.359375-1.464844-3.800781-4.03125-3.800781-6.808594v-24h-16c-13.230469 0-24-10.769531-24-24v-264c0-13.230469 10.769531-24 24-24h360c13.230469 0 24 10.769531 24 24v264c0 13.230469-10.769531 24-24 24h-270.113281l-62.3125 31.160156c-1.125.558594-2.351563.839844-3.574219.839844zm-24-328c-4.414062 0-8 3.59375-8 8v264c0 4.414062 3.585938 8 8 8h24c4.425781 0 8 3.574219 8 8v19.054688l52.425781-26.207032c1.101563-.558594 2.335938-.847656 3.574219-.847656h272c4.414062 0 8-3.585938 8-8v-264c0-4.40625-3.585938-8-8-8zm0 0"/><path d="m480 36c-4.425781 0-8-3.585938-8-8 0-6.617188-5.382812-12-12-12s-12 5.382812-12 12c0 4.414062-3.574219 8-8 8s-8-3.585938-8-8c0-15.441406 12.558594-28 28-28s28 12.558594 28 28c0 4.414062-3.574219 8-8 8zm0 0"/><path d="m440 280c-4.425781 0-8-3.574219-8-8v-244c0-4.414062 3.574219-8 8-8s8 3.585938 8 8v244c0 4.425781-3.574219 8-8 8zm0 0"/><path d="m480 280c-4.425781 0-8-3.574219-8-8v-244c0-4.414062 3.574219-8 8-8s8 3.585938 8 8v244c0 4.425781-3.574219 8-8 8zm0 0"/><path d="m480 280h-40c-4.425781 0-8-3.574219-8-8s3.574219-8 8-8h40c4.425781 0 8 3.574219 8 8s-3.574219 8-8 8zm0 0"/><path d="m480 256h-40c-4.425781 0-8-3.574219-8-8s3.574219-8 8-8h40c4.425781 0 8 3.574219 8 8s-3.574219 8-8 8zm0 0"/><path d="m472 296c-4.425781 0-8-3.574219-8-8v-16c0-4.425781 3.574219-8 8-8s8 3.574219 8 8v16c0 4.425781-3.574219 8-8 8zm0 0"/><path d="m448 296c-4.425781 0-8-3.574219-8-8v-16c0-4.425781 3.574219-8 8-8s8 3.574219 8 8v16c0 4.425781-3.574219 8-8 8zm0 0"/><path d="m480.007812 312c-2.9375 0-5.761718-1.617188-7.167968-4.425781l-8-16c-1.976563-3.949219-.375-8.757813 3.574218-10.734375 3.953126-1.96875 8.761719-.375 10.738282 3.574218l8 16c1.976562 3.953126.375 8.761719-3.578125 10.738282-1.140625.574218-2.367188.847656-3.566407.847656zm0 0"/><path d="m459.992188 344c-1.449219 0-2.914063-.390625-4.230469-1.214844-3.746094-2.335937-4.882813-7.273437-2.539063-11.023437l20-32c2.335938-3.753907 7.273438-4.898438 11.023438-2.539063 3.746094 2.335938 4.882812 7.273438 2.539062 11.023438l-20 32c-1.519531 2.425781-4.128906 3.753906-6.792968 3.753906zm0 0"/><path d="m460.007812 344c-2.664062 0-5.273437-1.328125-6.792968-3.761719l-20-32c-2.34375-3.75-1.199219-8.6875 2.539062-11.023437 3.75-2.359375 8.679688-1.207032 11.023438 2.539062l20 32c2.34375 3.75 1.199218 8.6875-2.539063 11.023438-1.316406.832031-2.78125 1.222656-4.230469 1.222656zm0 0"/><path d="m439.992188 312c-1.199219 0-2.425782-.273438-3.566407-.839844-3.953125-1.976562-5.554687-6.785156-3.578125-10.734375l8-16c1.984375-3.953125 6.785156-5.546875 10.738282-3.578125 3.949218 1.976563 5.550781 6.785156 3.574218 10.738282l-8 16c-1.40625 2.796874-4.230468 4.414062-7.167968 4.414062zm0 0"/><path d="m504 168c-4.425781 0-8-3.585938-8-8v-112c0-4.414062 3.574219-8 8-8s8 3.585938 8 8v112c0 4.414062-3.574219 8-8 8zm0 0"/><path d="m504 56c-4.425781 0-8-3.585938-8-8v-.007812c-4.425781 0-8-3.578126-8-8 0-4.425782 3.574219-7.992188 8-7.992188 8.824219 0 16 7.175781 16 16 0 4.414062-3.574219 8-8 8zm0 0"/><path d="m480 152h-40c-4.425781 0-8-3.585938-8-8s3.574219-8 8-8h40c4.425781 0 8 3.585938 8 8s-3.574219 8-8 8zm0 0"/><path d="m496 48h-56c-4.425781 0-8-3.585938-8-8s3.574219-8 8-8h56c4.425781 0 8 3.585938 8 8s-3.574219 8-8 8zm0 0"/><path d="m168 64h-112c-4.425781 0-8-3.585938-8-8s3.574219-8 8-8h112c4.425781 0 8 3.585938 8 8s-3.574219 8-8 8zm0 0"/><path d="m240 64h-40c-4.425781 0-8-3.585938-8-8s3.574219-8 8-8h40c4.425781 0 8 3.585938 8 8s-3.574219 8-8 8zm0 0"/><path d="m112 104h-56c-4.425781 0-8-3.585938-8-8s3.574219-8 8-8h56c4.425781 0 8 3.585938 8 8s-3.574219 8-8 8zm0 0"/><path d="m352 104h-208c-4.425781 0-8-3.585938-8-8s3.574219-8 8-8h208c4.425781 0 8 3.585938 8 8s-3.574219 8-8 8zm0 0"/><path d="m192 184h-136c-4.425781 0-8-3.574219-8-8 0-4.414062 3.574219-8 8-8h136c4.425781 0 8 3.585938 8 8 0 4.425781-3.574219 8-8 8zm0 0"/><path d="m352 184h-128c-4.425781 0-8-3.574219-8-8 0-4.414062 3.574219-8 8-8h128c4.425781 0 8 3.585938 8 8 0 4.425781-3.574219 8-8 8zm0 0"/><path d="m312 264h-256c-4.425781 0-8-3.574219-8-8s3.574219-8 8-8h256c4.425781 0 8 3.574219 8 8s-3.574219 8-8 8zm0 0"/><path d="m352 264h-8c-4.425781 0-8-3.574219-8-8s3.574219-8 8-8h8c4.425781 0 8 3.574219 8 8s-3.574219 8-8 8zm0 0"/><path d="m352 64h-80c-4.425781 0-8-3.585938-8-8s3.574219-8 8-8h80c4.425781 0 8 3.585938 8 8s-3.574219 8-8 8zm0 0"/><path d="m88 144h-32c-4.425781 0-8-3.585938-8-8s3.574219-8 8-8h32c4.425781 0 8 3.585938 8 8s-3.574219 8-8 8zm0 0"/><path d="m304 144h-184c-4.425781 0-8-3.585938-8-8s3.574219-8 8-8h184c4.425781 0 8 3.585938 8 8s-3.574219 8-8 8zm0 0"/><path d="m352 144h-16c-4.425781 0-8-3.585938-8-8s3.574219-8 8-8h16c4.425781 0 8 3.585938 8 8s-3.574219 8-8 8zm0 0"/><path d="m112 224h-56c-4.425781 0-8-3.574219-8-8s3.574219-8 8-8h56c4.425781 0 8 3.574219 8 8s-3.574219 8-8 8zm0 0"/><path d="m272 224h-128c-4.425781 0-8-3.574219-8-8s3.574219-8 8-8h128c4.425781 0 8 3.574219 8 8s-3.574219 8-8 8zm0 0"/><path d="m352 224h-48c-4.425781 0-8-3.574219-8-8s3.574219-8 8-8h48c4.425781 0 8 3.574219 8 8s-3.574219 8-8 8zm0 0"/></svg>