<svg height="512pt" viewBox="-31 0 511 512" width="512pt" xmlns="http://www.w3.org/2000/svg"><path d="m440.503906 512h-432c-4.421875 0-8-3.574219-8-8v-256c0-4.425781 3.578125-8 8-8 4.425782 0 8 3.574219 8 8v248h416v-248c0-4.425781 3.578125-8 8-8 4.425782 0 8 3.574219 8 8v256c0 4.425781-3.574218 8-8 8zm0 0"/><path d="m224.496094 400c-1.519532 0-3.0625-.441406-4.429688-1.34375l-216-144c-3.683594-2.457031-4.671875-7.417969-2.21875-11.097656 2.441406-3.679688 7.410156-4.671875 11.097656-2.214844l216 144c3.679688 2.457031 4.671876 7.417969 2.214844 11.097656-1.535156 2.3125-4.078125 3.558594-6.664062 3.558594zm0 0"/><path d="m224.511719 400c-2.582031 0-5.128907-1.246094-6.664063-3.558594-2.453125-3.679687-1.464844-8.640625 2.21875-11.097656l216-144c3.679688-2.457031 8.636719-1.464844 11.09375 2.214844 2.457032 3.679687 1.464844 8.640625-2.214844 11.097656l-216 144c-1.367187.902344-2.914062 1.34375-4.433593 1.34375zm0 0"/><path d="m440.496094 512c-1.519532 0-3.0625-.441406-4.429688-1.34375l-192.011718-128.007812c-3.679688-2.457032-4.671876-7.417969-2.214844-11.097657 2.441406-3.671875 7.402344-4.664062 11.097656-2.214843l192.007812 128.007812c3.679688 2.457031 4.671876 7.417969 2.214844 11.097656-1.535156 2.3125-4.078125 3.558594-6.664062 3.558594zm0 0"/><path d="m8.511719 512c-2.582031 0-5.128907-1.246094-6.664063-3.558594-2.453125-3.679687-1.464844-8.640625 2.21875-11.097656l192-128c3.679688-2.457031 8.644532-1.464844 11.09375 2.214844 2.457032 3.679687 1.464844 8.640625-2.214844 11.097656l-192 128c-1.367187.902344-2.914062 1.34375-4.433593 1.34375zm0 0"/><path d="m440.496094 256c-1.519532 0-3.0625-.441406-4.429688-1.34375l-64-42.664062c-3.683594-2.457032-4.671875-7.417969-2.21875-11.097657 2.449219-3.671875 7.410156-4.671875 11.097656-2.214843l64 42.664062c3.679688 2.457031 4.671876 7.417969 2.214844 11.097656-1.535156 2.3125-4.078125 3.558594-6.664062 3.558594zm0 0"/><path d="m8.511719 256c-2.582031 0-5.128907-1.246094-6.664063-3.558594-2.453125-3.679687-1.464844-8.640625 2.21875-11.097656l64-42.664062c3.679688-2.457032 8.644532-1.457032 11.09375 2.214843 2.457032 3.679688 1.464844 8.640625-2.214844 11.097657l-64 42.664062c-1.367187.902344-2.914062 1.34375-4.433593 1.34375zm0 0"/><path d="m72.503906 298.664062c-4.421875 0-8-3.574218-8-8v-282.664062c0-4.425781 3.578125-8 8-8 4.425782 0 8 3.574219 8 8v282.664062c0 4.425782-3.574218 8-8 8zm0 0"/><path d="m376.503906 298.664062c-4.421875 0-8-3.574218-8-8v-282.664062c0-4.425781 3.578125-8 8-8 4.425782 0 8 3.574219 8 8v282.664062c0 4.425782-3.574218 8-8 8zm0 0"/><path d="m376.503906 16h-304c-4.421875 0-8-3.574219-8-8s3.578125-8 8-8h304c4.425782 0 8 3.574219 8 8s-3.574218 8-8 8zm0 0"/><path d="m208.496094 216c-1.671875 0-3.351563-.519531-4.792969-1.601562-3.535156-2.644532-4.253906-7.664063-1.597656-11.191407l48-64c2.65625-3.542969 7.671875-4.246093 11.191406-1.597656 3.535156 2.648437 4.253906 7.664063 1.601563 11.191406l-48 64c-1.5625 2.09375-3.960938 3.199219-6.402344 3.199219zm0 0"/><path d="m304.511719 216c-2.4375 0-4.832031-1.105469-6.40625-3.199219l-48-64c-2.65625-3.527343-1.9375-8.542969 1.597656-11.191406 3.53125-2.65625 8.546875-1.945313 11.195313 1.597656l48 64c2.652343 3.527344 1.933593 8.546875-1.601563 11.191407-1.433594 1.082031-3.113281 1.601562-4.785156 1.601562zm0 0"/><path d="m160.496094 216c-1.75 0-3.511719-.566406-4.992188-1.753906-3.449218-2.765625-4.007812-7.796875-1.246094-11.246094l32-40c2.765626-3.425781 7.796876-4.007812 11.246094-1.246094 3.449219 2.765625 4.007813 7.796875 1.25 11.246094l-32 40c-1.585937 1.96875-3.90625 3-6.257812 3zm0 0"/><path d="m216.25 205.671875c-2.351562 0-4.671875-1.03125-6.257812-3l-23.734376-29.671875c-2.761718-3.457031-2.191406-8.488281 1.246094-11.246094 3.464844-2.769531 8.488282-2.179687 11.25 1.246094l23.734375 29.671875c2.761719 3.457031 2.191407 8.488281-1.246093 11.25-1.480469 1.183594-3.242188 1.75-4.992188 1.75zm0 0"/><path d="m320.503906 216h-192c-4.421875 0-8-3.574219-8-8v-144c0-4.425781 3.578125-8 8-8h192c4.425782 0 8 3.574219 8 8v144c0 4.425781-3.574218 8-8 8zm-184-16h176v-128h-176zm0 0"/><path d="m320.503906 256h-192c-4.421875 0-8-3.574219-8-8s3.578125-8 8-8h192c4.425782 0 8 3.574219 8 8s-3.574218 8-8 8zm0 0"/><path d="m320.503906 288h-192c-4.421875 0-8-3.574219-8-8s3.578125-8 8-8h192c4.425782 0 8 3.574219 8 8s-3.574218 8-8 8zm0 0"/><path d="m280.503906 320h-112c-4.421875 0-8-3.574219-8-8s3.578125-8 8-8h112c4.425782 0 8 3.574219 8 8s-3.574218 8-8 8zm0 0"/><path d="m172.503906 128c-11.03125 0-20-8.96875-20-20s8.96875-20 20-20 20 8.96875 20 20-8.96875 20-20 20zm0-24c-2.199218 0-4 1.800781-4 4s1.800782 4 4 4c2.199219 0 4-1.800781 4-4s-1.800781-4-4-4zm0 0"/></svg>