<svg height="512pt" viewBox="0 -100 512 512" width="512pt" xmlns="http://www.w3.org/2000/svg"><path d="m120 128h-64c-4.425781 0-8-3.574219-8-8v-56c0-4.425781 3.574219-8 8-8h64c4.425781 0 8 3.574219 8 8v56c0 4.425781-3.574219 8-8 8zm-56-16h48v-40h-48zm0 0"/><path d="m88 72c-4.425781 0-8-3.574219-8-8v-56c0-4.425781 3.574219-8 8-8s8 3.574219 8 8v56c0 4.425781-3.574219 8-8 8zm0 0"/><path d="m168 24h-160c-4.425781 0-8-3.574219-8-8s3.574219-8 8-8h160c4.425781 0 8 3.574219 8 8s-3.574219 8-8 8zm0 0"/><path d="m456 128h-64c-4.425781 0-8-3.574219-8-8v-56c0-4.425781 3.574219-8 8-8h64c4.425781 0 8 3.574219 8 8v56c0 4.425781-3.574219 8-8 8zm-56-16h48v-40h-48zm0 0"/><path d="m424 72c-4.425781 0-8-3.574219-8-8v-56c0-4.425781 3.574219-8 8-8s8 3.574219 8 8v56c0 4.425781-3.574219 8-8 8zm0 0"/><path d="m504 24h-160c-4.425781 0-8-3.574219-8-8s3.574219-8 8-8h160c4.425781 0 8 3.574219 8 8s-3.574219 8-8 8zm0 0"/><path d="m184 72h-64c-4.425781 0-8-3.574219-8-8s3.574219-8 8-8h64c4.425781 0 8 3.574219 8 8s-3.574219 8-8 8zm0 0"/><path d="m184 112h-64c-4.425781 0-8-3.574219-8-8s3.574219-8 8-8h64c4.425781 0 8 3.574219 8 8s-3.574219 8-8 8zm0 0"/><path d="m392 72h-64c-4.425781 0-8-3.574219-8-8s3.574219-8 8-8h64c4.425781 0 8 3.574219 8 8s-3.574219 8-8 8zm0 0"/><path d="m392 112h-64c-4.425781 0-8-3.574219-8-8s3.574219-8 8-8h64c4.425781 0 8 3.574219 8 8s-3.574219 8-8 8zm0 0"/><path d="m312 136h-112c-13.230469 0-24-10.769531-24-24v-8c0-4.425781 3.574219-8 8-8s8 3.574219 8 8v8c0 4.414062 3.585938 8 8 8h112c4.414062 0 8-3.585938 8-8v-8c0-4.425781 3.574219-8 8-8s8 3.574219 8 8v8c0 13.230469-10.769531 24-24 24zm0 0"/><path d="m328 72c-4.425781 0-8-3.574219-8-8 0-4.414062-3.585938-8-8-8h-112c-4.414062 0-8 3.585938-8 8 0 4.425781-3.574219 8-8 8s-8-3.574219-8-8c0-13.230469 10.769531-24 24-24h112c13.230469 0 24 10.769531 24 24 0 4.425781-3.574219 8-8 8zm0 0"/><path d="m152 256c-4.425781 0-8-3.574219-8-8v-144c0-4.425781 3.574219-8 8-8s8 3.574219 8 8v144c0 4.425781-3.574219 8-8 8zm0 0"/><path d="m176 256h-24c-4.425781 0-8-3.574219-8-8s3.574219-8 8-8h24c4.425781 0 8 3.574219 8 8s-3.574219 8-8 8zm0 0"/><path d="m360 256c-4.425781 0-8-3.574219-8-8v-144c0-4.425781 3.574219-8 8-8s8 3.574219 8 8v144c0 4.425781-3.574219 8-8 8zm0 0"/><path d="m360 256h-24c-4.425781 0-8-3.574219-8-8s3.574219-8 8-8h24c4.425781 0 8 3.574219 8 8s-3.574219 8-8 8zm0 0"/><path d="m184 112c-4.425781 0-8-3.574219-8-8v-8c0-4.425781 3.574219-8 8-8s8 3.574219 8 8v8c0 4.425781-3.574219 8-8 8zm0 0"/><path d="m184 80c-4.425781 0-8-3.574219-8-8v-8c0-4.425781 3.574219-8 8-8s8 3.574219 8 8v8c0 4.425781-3.574219 8-8 8zm0 0"/><path d="m328 112c-4.425781 0-8-3.574219-8-8v-8c0-4.425781 3.574219-8 8-8s8 3.574219 8 8v8c0 4.425781-3.574219 8-8 8zm0 0"/><path d="m328 80c-4.425781 0-8-3.574219-8-8v-8c0-4.425781 3.574219-8 8-8s8 3.574219 8 8v8c0 4.425781-3.574219 8-8 8zm0 0"/><path d="m288 104h-62.753906c-4.421875 0-8-3.574219-8-8s3.578125-8 8-8h62.753906c4.425781 0 8 3.574219 8 8s-3.574219 8-8 8zm0 0"/><path d="m224 64c-4.425781 0-8-3.574219-8-8v-8c0-4.425781 3.574219-8 8-8s8 3.574219 8 8v8c0 4.425781-3.574219 8-8 8zm0 0"/><path d="m256 64c-4.425781 0-8-3.574219-8-8v-8c0-4.425781 3.574219-8 8-8s8 3.574219 8 8v8c0 4.425781-3.574219 8-8 8zm0 0"/><path d="m288 64c-4.425781 0-8-3.574219-8-8v-8c0-4.425781 3.574219-8 8-8s8 3.574219 8 8v8c0 4.425781-3.574219 8-8 8zm0 0"/><path d="m336 312h-160c-4.425781 0-8-3.574219-8-8v-112c0-4.425781 3.574219-8 8-8h35.054688l5.792968-11.574219c1.351563-2.714843 4.121094-4.425781 7.152344-4.425781h64c3.03125 0 5.800781 1.710938 7.160156 4.425781l5.792969 11.574219h35.046875c4.425781 0 8 3.574219 8 8v112c0 4.425781-3.574219 8-8 8zm-152-16h144v-96h-32c-3.03125 0-5.800781-1.710938-7.160156-4.425781l-5.785156-11.574219h-54.109376l-5.792968 11.574219c-1.351563 2.714843-4.121094 4.425781-7.152344 4.425781h-32zm0 0"/><path d="m256 288c-22.054688 0-40-17.945312-40-40s17.945312-40 40-40 40 17.945312 40 40-17.945312 40-40 40zm0-64c-13.230469 0-24 10.769531-24 24s10.769531 24 24 24 24-10.769531 24-24-10.769531-24-24-24zm0 0"/><path d="m192 200c-4.425781 0-8-3.574219-8-8v-8c0-4.425781 3.574219-8 8-8s8 3.574219 8 8v8c0 4.425781-3.574219 8-8 8zm0 0"/><path d="m320 200c-4.425781 0-8-3.574219-8-8v-8c0-4.425781 3.574219-8 8-8s8 3.574219 8 8v8c0 4.425781-3.574219 8-8 8zm0 0"/></svg>