<svg height="511pt" viewBox="0 -19 511.936 511" width="511pt" xmlns="http://www.w3.org/2000/svg"><path d="m455.902344 176.46875h-399.871094c-4.421875 0-8-3.578125-8-8v-80c0-4.425781 3.578125-8 8-8h399.871094c4.425781 0 8 3.574219 8 8v80c0 4.421875-3.574219 8-8 8zm-391.871094-16h383.871094v-64h-383.871094zm0 0"/><path d="m224.03125 216.46875h-168c-4.421875 0-8-3.578125-8-8 0-4.425781 3.578125-8 8-8h168c4.425781 0 8 3.574219 8 8 0 4.421875-3.574219 8-8 8zm0 0"/><path d="m128.03125 248.46875h-72c-4.421875 0-8-3.578125-8-8 0-4.425781 3.578125-8 8-8h72c4.425781 0 8 3.574219 8 8 0 4.421875-3.574219 8-8 8zm0 0"/><path d="m455.902344 248.46875h-295.871094c-4.421875 0-8-3.578125-8-8 0-4.425781 3.578125-8 8-8h295.871094c4.425781 0 8 3.574219 8 8 0 4.421875-3.574219 8-8 8zm0 0"/><path d="m152.03125 312.46875h-96c-4.421875 0-8-3.578125-8-8 0-4.425781 3.578125-8 8-8h96c4.425781 0 8 3.574219 8 8 0 4.421875-3.574219 8-8 8zm0 0"/><path d="m455.902344 312.46875h-271.871094c-4.421875 0-8-3.578125-8-8 0-4.425781 3.578125-8 8-8h271.871094c4.425781 0 8 3.574219 8 8 0 4.421875-3.574219 8-8 8zm0 0"/><path d="m288 280.46875h-231.96875c-4.421875 0-8-3.578125-8-8 0-4.425781 3.578125-8 8-8h231.96875c4.425781 0 8 3.574219 8 8 0 4.421875-3.574219 8-8 8zm0 0"/><path d="m455.902344 280.46875h-135.902344c-4.425781 0-8-3.578125-8-8 0-4.425781 3.574219-8 8-8h135.902344c4.425781 0 8 3.574219 8 8 0 4.421875-3.574219 8-8 8zm0 0"/><path d="m455.902344 216.46875h-199.871094c-4.421875 0-8-3.578125-8-8 0-4.425781 3.578125-8 8-8h199.871094c4.425781 0 8 3.574219 8 8 0 4.421875-3.574219 8-8 8zm0 0"/><path d="m224.03125 344.46875h-168c-4.421875 0-8-3.578125-8-8 0-4.425781 3.578125-8 8-8h168c4.425781 0 8 3.574219 8 8 0 4.421875-3.574219 8-8 8zm0 0"/><path d="m128.03125 376.46875h-72c-4.421875 0-8-3.578125-8-8 0-4.425781 3.578125-8 8-8h72c4.425781 0 8 3.574219 8 8 0 4.421875-3.574219 8-8 8zm0 0"/><path d="m455.902344 376.46875h-295.871094c-4.421875 0-8-3.578125-8-8 0-4.425781 3.578125-8 8-8h295.871094c4.425781 0 8 3.574219 8 8 0 4.421875-3.574219 8-8 8zm0 0"/><path d="m455.902344 344.46875h-199.871094c-4.421875 0-8-3.578125-8-8 0-4.425781 3.578125-8 8-8h199.871094c4.425781 0 8 3.574219 8 8 0 4.421875-3.574219 8-8 8zm0 0"/><path d="m32.238281 32.46875c-4.421875 0-8.039062-3.578125-8.039062-8 0-4.425781 3.535156-8 7.953125-8h.085937c4.417969 0 8 3.574219 8 8 0 4.421875-3.582031 8-8 8zm0 0"/><path d="m56.238281 32.46875c-4.421875 0-8.039062-3.578125-8.039062-8 0-4.425781 3.535156-8 7.953125-8h.085937c4.417969 0 8 3.574219 8 8 0 4.421875-3.582031 8-8 8zm0 0"/><path d="m80.238281 32.46875c-4.421875 0-8.039062-3.578125-8.039062-8 0-4.425781 3.535156-8 7.953125-8h.085937c4.417969 0 8 3.574219 8 8 0 4.421875-3.582031 8-8 8zm0 0"/><path d="m55.9375 472.46875c-1.503906 0-3.007812-.425781-4.3125-1.257812-2.296875-1.480469-3.6875-4.015626-3.6875-6.742188v-40h-39.800781c-4.425781 0-8-3.578125-8-8v-376c0-4.425781 3.574219-8 8-8h495.800781c4.421875 0 8 3.574219 8 8v376c0 4.421875-3.578125 8-8 8h-342.242188l-102.40625 47.261719c-1.074218.496093-2.210937.738281-3.351562.738281zm-39.800781-64h39.800781c4.421875 0 8 3.574219 8 8v35.503906l92.648438-42.769531c1.046874-.488281 2.191406-.734375 3.351562-.734375h336v-360h-479.800781zm0 0"/><path d="m8 32.46875c-4.425781 0-8-3.578125-8-8 0-13.234375 10.769531-24 24-24 4.425781 0 8 3.574219 8 8 0 4.421875-3.574219 8-8 8-4.414062 0-8 3.582031-8 8 0 4.421875-3.574219 8-8 8zm0 0"/><path d="m8 48.46875c-4.425781 0-8-3.578125-8-8v-16c0-4.425781 3.574219-8 8-8s8 3.574219 8 8v16c0 4.421875-3.574219 8-8 8zm0 0"/><path d="m503.800781 32.46875c-4.425781 0-8-3.578125-8-8 0-4.417969-3.585937-8-8-8-4.425781 0-8-3.578125-8-8 0-4.425781 3.574219-8 8-8 13.230469 0 24 10.765625 24 24 0 4.421875-3.585937 8-8 8zm0 0"/><path d="m503.800781 48.46875c-4.425781 0-8-3.578125-8-8v-16c0-4.425781 3.574219-8 8-8 4.421875 0 8 3.574219 8 8v16c0 4.421875-3.585937 8-8 8zm0 0"/><path d="m487.800781 16.46875h-463.800781c-4.425781 0-8-3.578125-8-8 0-4.425781 3.574219-8 8-8h463.800781c4.421875 0 8 3.574219 8 8 0 4.421875-3.585937 8-8 8zm0 0"/><path d="m399.902344 136.46875h-287.871094c-4.421875 0-8-3.578125-8-8 0-4.425781 3.578125-8 8-8h287.871094c4.425781 0 8 3.574219 8 8 0 4.421875-3.574219 8-8 8zm0 0"/></svg>