<svg height="512pt" viewBox="-24 0 512 512" width="512pt" xmlns="http://www.w3.org/2000/svg"><path d="m320 480h-176c-30.871094 0-56-25.128906-56-56 0-4.425781 3.574219-8 8-8s8 3.574219 8 8c0 22.054688 17.945312 40 40 40h176c22.054688 0 40-17.945312 40-40 0-4.425781 3.574219-8 8-8s8 3.574219 8 8c0 30.871094-25.128906 56-56 56zm0 0"/><path d="m208.238281 40c-4.421875 0-8.039062-3.574219-8.039062-8s3.535156-8 7.953125-8h.085937c4.417969 0 8 3.574219 8 8s-3.582031 8-8 8zm0 0"/><path d="m256 40h-24c-4.425781 0-8-3.574219-8-8s3.574219-8 8-8h24c4.425781 0 8 3.574219 8 8s-3.574219 8-8 8zm0 0"/><path d="m368 56.015625c-4.425781 0-8-3.574219-8-8 0-17.648437-14.351562-32-32-32-4.425781 0-8-3.574219-8-8 0-4.421875 3.574219-8 8-8 26.472656 0 48 21.527344 48 48 0 4.425781-3.574219 8-8 8zm0 0"/><path d="m96 56c-4.425781 0-8-3.574219-8-8 0-26.472656 21.527344-48 48-48 4.425781 0 8 3.574219 8 8s-3.574219 8-8 8c-17.648438 0-32 14.351562-32 32 0 4.425781-3.574219 8-8 8zm0 0"/><path d="m328 16h-192c-4.425781 0-8-3.574219-8-8s3.574219-8 8-8h192c4.425781 0 8 3.574219 8 8s-3.574219 8-8 8zm0 0"/><path d="m368 64.015625h-272c-4.425781 0-8-3.574219-8-8 0-4.421875 3.574219-8 8-8h272c4.425781 0 8 3.578125 8 8 0 4.425781-3.574219 8-8 8zm0 0"/><path d="m320 512h-176c-30.871094 0-56-25.128906-56-56v-120c0-4.425781 3.574219-8 8-8s8 3.574219 8 8v120c0 22.054688 17.945312 40 40 40h176c22.054688 0 40-17.945312 40-40v-208c0-4.425781 3.574219-8 8-8s8 3.574219 8 8v208c0 30.871094-25.128906 56-56 56zm0 0"/><path d="m368 416h-272c-4.425781 0-8-3.574219-8-8s3.574219-8 8-8h272c4.425781 0 8 3.574219 8 8s-3.574219 8-8 8zm0 0"/><path d="m232 464c-13.230469 0-24-10.769531-24-24s10.769531-24 24-24 24 10.769531 24 24-10.769531 24-24 24zm0-32c-4.414062 0-8 3.585938-8 8s3.585938 8 8 8 8-3.585938 8-8-3.585938-8-8-8zm0 0"/><path d="m200 368c-1.425781 0-2.847656-.382812-4.121094-1.144531l-38.09375-22.855469h-149.785156c-4.425781 0-8-3.574219-8-8v-144c0-4.425781 3.574219-8 8-8h192c4.425781 0 8 3.574219 8 8v168c0 2.878906-1.542969 5.535156-4.054688 6.960938-1.226562.695312-2.585937 1.039062-3.945312 1.039062zm-184-40h144c1.457031 0 2.871094.390625 4.121094 1.144531l27.878906 16.71875v-145.863281h-176zm0 0"/><path d="m264 280c-1.359375 0-2.71875-.34375-3.945312-1.039062-2.511719-1.425782-4.054688-4.082032-4.054688-6.960938v-168c0-4.425781 3.574219-8 8-8h192c4.425781 0 8 3.574219 8 8v144c0 4.425781-3.574219 8-8 8h-149.777344l-38.109375 22.855469c-1.265625.761719-2.6875 1.144531-4.113281 1.144531zm8-168v145.871094l27.886719-16.734375c1.25-.746094 2.664062-1.136719 4.121093-1.136719h143.992188v-128zm0 0"/><path d="m96 200c-4.425781 0-8-3.574219-8-8v-144c0-4.425781 3.574219-8 8-8s8 3.574219 8 8v144c0 4.425781-3.574219 8-8 8zm0 0"/><path d="m368 112c-4.425781 0-8-3.574219-8-8v-55.984375c0-4.421875 3.574219-8 8-8s8 3.578125 8 8v55.984375c0 4.425781-3.574219 8-8 8zm0 0"/><path d="m416 152h-112c-4.425781 0-8-3.574219-8-8s3.574219-8 8-8h112c4.425781 0 8 3.574219 8 8s-3.574219 8-8 8zm0 0"/><path d="m416 184h-112c-4.425781 0-8-3.574219-8-8s3.574219-8 8-8h112c4.425781 0 8 3.574219 8 8s-3.574219 8-8 8zm0 0"/><path d="m360 216h-56c-4.425781 0-8-3.574219-8-8s3.574219-8 8-8h56c4.425781 0 8 3.574219 8 8s-3.574219 8-8 8zm0 0"/><path d="m160 240h-112c-4.425781 0-8-3.574219-8-8s3.574219-8 8-8h112c4.425781 0 8 3.574219 8 8s-3.574219 8-8 8zm0 0"/><path d="m160 272h-112c-4.425781 0-8-3.574219-8-8s3.574219-8 8-8h112c4.425781 0 8 3.574219 8 8s-3.574219 8-8 8zm0 0"/><path d="m104 304h-56c-4.425781 0-8-3.574219-8-8s3.574219-8 8-8h56c4.425781 0 8 3.574219 8 8s-3.574219 8-8 8zm0 0"/></svg>