<svg height="512pt" viewBox="-104 0 512 512" width="512pt" xmlns="http://www.w3.org/2000/svg"><path d="m40 288c-4.425781 0-8.039062-3.574219-8.039062-8s3.535156-8 7.949218-8h.089844c4.414062 0 8 3.574219 8 8s-3.585938 8-8 8zm0 0"/><path d="m104 288c-4.425781 0-8.039062-3.574219-8.039062-8s3.535156-8 7.949218-8h.089844c4.414062 0 8 3.574219 8 8s-3.585938 8-8 8zm0 0"/><path d="m72 320c-4.425781 0-8.039062-3.574219-8.039062-8s3.535156-8 7.949218-8h.089844c4.414062 0 8 3.574219 8 8s-3.585938 8-8 8zm0 0"/><path d="m40 352c-4.425781 0-8.039062-3.574219-8.039062-8s3.535156-8 7.949218-8h.089844c4.414062 0 8 3.574219 8 8s-3.585938 8-8 8zm0 0"/><path d="m168 288c-4.425781 0-8.039062-3.574219-8.039062-8s3.535156-8 7.949218-8h.089844c4.414062 0 8 3.574219 8 8s-3.585938 8-8 8zm0 0"/><path d="m136 320c-4.425781 0-8.039062-3.574219-8.039062-8s3.535156-8 7.949218-8h.089844c4.414062 0 8 3.574219 8 8s-3.585938 8-8 8zm0 0"/><path d="m104 352c-4.425781 0-8.039062-3.574219-8.039062-8s3.535156-8 7.949218-8h.089844c4.414062 0 8 3.574219 8 8s-3.585938 8-8 8zm0 0"/><path d="m72 384c-4.425781 0-8.039062-3.574219-8.039062-8s3.535156-8 7.949218-8h.089844c4.414062 0 8 3.574219 8 8s-3.585938 8-8 8zm0 0"/><path d="m40 416c-4.425781 0-8.039062-3.574219-8.039062-8s3.535156-8 7.949218-8h.089844c4.414062 0 8 3.574219 8 8s-3.585938 8-8 8zm0 0"/><path d="m200 320c-4.425781 0-8.039062-3.574219-8.039062-8s3.535156-8 7.949218-8h.089844c4.414062 0 8 3.574219 8 8s-3.585938 8-8 8zm0 0"/><path d="m168 352c-4.425781 0-8.039062-3.574219-8.039062-8s3.535156-8 7.949218-8h.089844c4.414062 0 8 3.574219 8 8s-3.585938 8-8 8zm0 0"/><path d="m136 384c-4.425781 0-8.039062-3.574219-8.039062-8s3.535156-8 7.949218-8h.089844c4.414062 0 8 3.574219 8 8s-3.585938 8-8 8zm0 0"/><path d="m104 416c-4.425781 0-8.039062-3.574219-8.039062-8s3.535156-8 7.949218-8h.089844c4.414062 0 8 3.574219 8 8s-3.585938 8-8 8zm0 0"/><path d="m72 448c-4.425781 0-8.039062-3.574219-8.039062-8s3.535156-8 7.949218-8h.089844c4.414062 0 8 3.574219 8 8s-3.585938 8-8 8zm0 0"/><path d="m40 480c-4.425781 0-8.039062-3.574219-8.039062-8s3.535156-8 7.949218-8h.089844c4.414062 0 8 3.574219 8 8s-3.585938 8-8 8zm0 0"/><path d="m200 384c-4.425781 0-8.039062-3.574219-8.039062-8s3.535156-8 7.949218-8h.089844c4.414062 0 8 3.574219 8 8s-3.585938 8-8 8zm0 0"/><path d="m168 416c-4.425781 0-8.039062-3.574219-8.039062-8s3.535156-8 7.949218-8h.089844c4.414062 0 8 3.574219 8 8s-3.585938 8-8 8zm0 0"/><path d="m136 448c-4.425781 0-8.039062-3.574219-8.039062-8s3.535156-8 7.949218-8h.089844c4.414062 0 8 3.574219 8 8s-3.585938 8-8 8zm0 0"/><path d="m104 480c-4.425781 0-8.039062-3.574219-8.039062-8s3.535156-8 7.949218-8h.089844c4.414062 0 8 3.574219 8 8s-3.585938 8-8 8zm0 0"/><path d="m200 448c-4.425781 0-8.039062-3.574219-8.039062-8s3.535156-8 7.949218-8h.089844c4.414062 0 8 3.574219 8 8s-3.585938 8-8 8zm0 0"/><path d="m168 480c-4.425781 0-8.039062-3.574219-8.039062-8s3.535156-8 7.949218-8h.089844c4.414062 0 8 3.574219 8 8s-3.585938 8-8 8zm0 0"/><path d="m104.238281 96c-4.421875 0-8.039062-3.574219-8.039062-8s3.535156-8 7.953125-8h.085937c4.417969 0 8 3.574219 8 8s-3.582031 8-8 8zm0 0"/><path d="m104.238281 176c-4.421875 0-8.039062-3.574219-8.039062-8s3.535156-8 7.953125-8h.085937c4.417969 0 8 3.574219 8 8s-3.582031 8-8 8zm0 0"/><path d="m232 512h-192c-22.054688 0-40-17.945312-40-40v-432c0-22.054688 17.945312-40 40-40h192c22.054688 0 40 17.945312 40 40v432c0 22.054688-17.945312 40-40 40zm-192-496c-13.230469 0-24 10.769531-24 24v432c0 13.230469 10.769531 24 24 24h192c13.230469 0 24-10.769531 24-24v-432c0-13.230469-10.769531-24-24-24zm0 0"/><path d="m232 512c-4.425781 0-8-3.574219-8-8v-224c0-4.425781 3.574219-8 8-8s8 3.574219 8 8v224c0 4.425781-3.574219 8-8 8zm0 0"/><path d="m232 288c-2.046875 0-4.097656-.785156-5.65625-2.34375l-32-32c-3.128906-3.128906-3.128906-8.183594 0-11.3125s8.183594-3.128906 11.3125 0l32 32c3.128906 3.128906 3.128906 8.183594 0 11.3125-1.558594 1.558594-3.609375 2.34375-5.65625 2.34375zm0 0"/><path d="m200 256h-192c-4.425781 0-8-3.574219-8-8s3.574219-8 8-8h192c4.425781 0 8 3.574219 8 8s-3.574219 8-8 8zm0 0"/><path d="m200 256c-4.425781 0-8-3.574219-8-8v-240c0-4.425781 3.574219-8 8-8s8 3.574219 8 8v240c0 4.425781-3.574219 8-8 8zm0 0"/><path d="m160 216h-112c-4.425781 0-8-3.574219-8-8v-160c0-4.425781 3.574219-8 8-8h112c4.425781 0 8 3.574219 8 8v160c0 4.425781-3.574219 8-8 8zm-104-16h96v-144h-96zm0 0"/><path d="m104 120c-17.648438 0-32-14.351562-32-32s14.351562-32 32-32 32 14.351562 32 32-14.351562 32-32 32zm0-48c-8.824219 0-16 7.175781-16 16s7.175781 16 16 16 16-7.175781 16-16-7.175781-16-16-16zm0 0"/><path d="m104 200c-17.648438 0-32-14.351562-32-32s14.351562-32 32-32 32 14.351562 32 32-14.351562 32-32 32zm0-48c-8.824219 0-16 7.175781-16 16s7.175781 16 16 16 16-7.175781 16-16-7.175781-16-16-16zm0 0"/><path d="m128 176c-4.425781 0-8-3.574219-8-8v-80c0-4.425781 3.574219-8 8-8s8 3.574219 8 8v80c0 4.425781-3.574219 8-8 8zm0 0"/><path d="m80 176c-4.425781 0-8-3.574219-8-8v-80c0-4.425781 3.574219-8 8-8s8 3.574219 8 8v80c0 4.425781-3.574219 8-8 8zm0 0"/><path d="m296 48h-32c-4.425781 0-8-3.574219-8-8s3.574219-8 8-8h32c4.425781 0 8 3.574219 8 8s-3.574219 8-8 8zm0 0"/><path d="m296 256c-4.425781 0-8-3.574219-8-8v-208c0-4.425781 3.574219-8 8-8s8 3.574219 8 8v208c0 4.425781-3.574219 8-8 8zm0 0"/><path d="m296 256h-32c-4.425781 0-8-3.574219-8-8s3.574219-8 8-8h32c4.425781 0 8 3.574219 8 8s-3.574219 8-8 8zm0 0"/><path d="m296 96h-32c-4.425781 0-8-3.574219-8-8s3.574219-8 8-8h32c4.425781 0 8 3.574219 8 8s-3.574219 8-8 8zm0 0"/><path d="m296 160h-32c-4.425781 0-8-3.574219-8-8s3.574219-8 8-8h32c4.425781 0 8 3.574219 8 8s-3.574219 8-8 8zm0 0"/><path d="m296 208h-32c-4.425781 0-8-3.574219-8-8s3.574219-8 8-8h32c4.425781 0 8 3.574219 8 8s-3.574219 8-8 8zm0 0"/></svg>