<svg height="512pt" viewBox="0 -44 512.144 512" width="512pt" xmlns="http://www.w3.org/2000/svg"><path d="m32.238281 32.070312c-4.421875 0-8.039062-3.574218-8.039062-8 0-4.421874 3.535156-8 7.953125-8h.085937c4.417969 0 8 3.578126 8 8 0 4.425782-3.582031 8-8 8zm0 0"/><path d="m56.238281 32.070312c-4.421875 0-8.039062-3.574218-8.039062-8 0-4.421874 3.535156-8 7.953125-8h.085937c4.417969 0 8 3.578126 8 8 0 4.425782-3.582031 8-8 8zm0 0"/><path d="m80.238281 32.070312c-4.421875 0-8.039062-3.574218-8.039062-8 0-4.421874 3.535156-8 7.953125-8h.085937c4.417969 0 8 3.578126 8 8 0 4.425782-3.582031 8-8 8zm0 0"/><path d="m504.144531 424.070312h-496c-4.425781 0-8-3.574218-8-8v-376c0-4.421874 3.574219-8 8-8h496c4.421875 0 8 3.578126 8 8v376c0 4.425782-3.578125 8-8 8zm-488-16h480v-360h-480zm0 0"/><path d="m8 32.070312c-4.425781 0-8-3.574218-8-8 0-13.230468 10.769531-23.9999995 24-23.9999995 4.425781 0 8 3.5781255 8 7.9999995 0 4.425782-3.574219 8-8 8-4.414062 0-8 3.585938-8 8 0 4.425782-3.574219 8-8 8zm0 0"/><path d="m8 48.070312c-4.425781 0-8-3.574218-8-8v-16c0-4.421874 3.574219-8 8-8s8 3.578126 8 8v16c0 4.425782-3.574219 8-8 8zm0 0"/><path d="m504 32.070312c-4.425781 0-8-3.574218-8-8 0-4.414062-3.585938-8-8-8-4.425781 0-8-3.574218-8-8 0-4.421874 3.574219-7.9999995 8-7.9999995 13.230469 0 24 10.7695315 24 23.9999995 0 4.425782-3.574219 8-8 8zm0 0"/><path d="m504 48.070312c-4.425781 0-8-3.574218-8-8v-16c0-4.421874 3.574219-8 8-8s8 3.578126 8 8v16c0 4.425782-3.574219 8-8 8zm0 0"/><path d="m488 16.070312h-464c-4.425781 0-8-3.574218-8-8 0-4.421874 3.574219-7.9999995 8-7.9999995h464c4.425781 0 8 3.5781255 8 7.9999995 0 4.425782-3.574219 8-8 8zm0 0"/><path d="m344.070312 392.070312h-304c-4.421874 0-8-3.574218-8-8v-304c0-4.421874 3.578126-8 8-8h304c4.425782 0 8 3.578126 8 8v304c0 4.425782-3.574218 8-8 8zm-296-16h288v-288h-288zm0 0"/><path d="m344.070312 360.070312h-304c-4.421874 0-8-3.574218-8-8 0-4.421874 3.578126-8 8-8h304c4.425782 0 8 3.578126 8 8 0 4.425782-3.574218 8-8 8zm0 0"/><path d="m312.070312 392.070312c-4.421874 0-8-3.574218-8-8v-32c0-4.421874 3.578126-8 8-8 4.425782 0 8 3.578126 8 8v32c0 4.425782-3.574218 8-8 8zm0 0"/><path d="m72.070312 392.070312c-4.421874 0-8-3.574218-8-8v-32c0-4.421874 3.578126-8 8-8 4.425782 0 8 3.578126 8 8v32c0 4.425782-3.574218 8-8 8zm0 0"/><path d="m136.070312 232.070312c-4.421874 0-8-3.574218-8-8v-30.933593c0-4.425781 3.578126-8 8-8 4.425782 0 8 3.574219 8 8v30.933593c0 4.425782-3.574218 8-8 8zm0 0"/><path d="m248.070312 232.070312c-4.421874 0-8-3.574218-8-8v-36c0-4.421874 3.578126-8 8-8 4.425782 0 8 3.578126 8 8v36c0 4.425782-3.574218 8-8 8zm0 0"/><path d="m248.070312 196.070312c-4.421874 0-8-3.574218-8-8 0-28.671874-23.328124-52-52.007812-52-28.671875 0-51.992188 23.328126-51.992188 52 0 4.425782-3.574218 8-8 8-4.421874 0-8-3.574218-8-8 0-37.496093 30.503907-68 67.992188-68 37.503906 0 68.007812 30.503907 68.007812 68 0 4.425782-3.574218 8-8 8zm0 0"/><path d="m248.078125 207.039062c-2.40625 0-4.78125-1.078124-6.359375-3.136718-15.453125-20.183594-19.648438-18.503906-35.3125-12.300782-15.023438 5.941407-37.726562 14.957032-79.582031 8.335938-4.359375-.691406-7.34375-4.785156-6.648438-9.152344.6875-4.359375 4.808594-7.371094 9.152344-6.648437 37.535156 5.925781 56.984375-1.785157 71.191406-7.417969 19.265625-7.640625 32.191407-10.894531 53.90625 17.449219 2.6875 3.503906 2.023438 8.527343-1.488281 11.214843-1.449219 1.121094-3.160156 1.65625-4.859375 1.65625zm0 0"/><path d="m216.0625 187.886719c-1.175781 0-2.382812-.261719-3.511719-.824219-3.964843-1.941406-5.597656-6.742188-3.65625-10.703125l16-32.574219c1.945313-3.976562 6.730469-5.609375 10.707031-3.65625 3.964844 1.941406 5.597657 6.742188 3.65625 10.703125l-16 32.574219c-1.394531 2.832031-4.242187 4.480469-7.195312 4.480469zm0 0"/><path d="m120.070312 336.039062c-4.421874 0-8-3.574218-8-8 0-17.648437 14.355469-32 32-32 4.425782 0 8 3.578126 8 8 0 4.425782-3.574218 8-8 8-8.824218 0-16 7.175782-16 16 0 4.425782-3.574218 8-8 8zm0 0"/><path d="m168.070312 312.089844h-24c-4.421874 0-8-3.578125-8-8 0-4.425782 3.578126-8 8-8h24c4.425782 0 8 3.574218 8 8 0 4.421875-3.574218 8-8 8zm0 0"/><path d="m120.070312 360.070312c-4.421874 0-8-3.574218-8-8v-24.03125c0-4.421874 3.578126-8 8-8 4.425782 0 8 3.578126 8 8v24.03125c0 4.425782-3.574218 8-8 8zm0 0"/><path d="m264.070312 336.039062c-4.421874 0-8-3.574218-8-8 0-8.824218-7.175781-16-16-16-4.421874 0-8-3.574218-8-8 0-4.421874 3.578126-8 8-8 17.648438 0 32 14.351563 32 32 0 4.425782-3.574218 8-8 8zm0 0"/><path d="m240.070312 312.089844h-24c-4.421874 0-8-3.578125-8-8 0-4.425782 3.578126-8 8-8h24c4.425782 0 8 3.574218 8 8 0 4.421875-3.574218 8-8 8zm0 0"/><path d="m264.070312 360.070312c-4.421874 0-8-3.574218-8-8v-24.03125c0-4.421874 3.578126-8 8-8 4.425782 0 8 3.578126 8 8v24.03125c0 4.425782-3.574218 8-8 8zm0 0"/><path d="m168.070312 312.089844c-4.421874 0-8-3.578125-8-8v-29.472656c0-4.425782 3.578126-8 8-8 4.425782 0 8 3.574218 8 8v29.472656c0 4.421875-3.574218 8-8 8zm0 0"/><path d="m216.070312 312.039062c-4.421874 0-8-3.574218-8-8v-29.421874c0-4.425782 3.578126-8 8-8 4.425782 0 8 3.574218 8 8v29.421874c0 4.425782-3.574218 8-8 8zm0 0"/><path d="m192.070312 288.007812c-35.285156 0-64-28.695312-64-63.96875 0-4.421874 3.578126-8 8-8 4.425782 0 8 3.578126 8 8 0 26.457032 21.53125 47.96875 48 47.96875 26.472657 0 48-21.511718 48-47.96875 0-4.421874 3.578126-8 8-8 4.425782 0 8 3.578126 8 8 0 35.273438-28.710937 63.96875-64 63.96875zm0 0"/><path d="m176.078125 320.039062c-2.933594 0-5.757813-1.613281-7.167969-4.421874-1.972656-3.953126-.375-8.761719 3.578125-10.738282l16-8c3.953125-1.957031 8.75-.375 10.734375 3.578125 1.976563 3.949219.378906 8.757813-3.574218 10.734375l-16 8c-1.144532.578125-2.367188.847656-3.570313.847656zm0 0"/><path d="m208.070312 320.039062c-2.046874 0-4.09375-.78125-5.65625-2.34375-3.125-3.128906-3.125-8.183593 0-11.3125l8-8c3.128907-3.125 8.1875-3.125 11.3125 0 3.128907 3.128907 3.128907 8.183594 0 11.3125l-8 8c-1.558593 1.5625-3.605468 2.34375-5.65625 2.34375zm0 0"/><path d="m176.070312 320.039062c-2.046874 0-4.09375-.78125-5.65625-2.34375l-8-8c-3.125-3.128906-3.125-8.183593 0-11.3125 3.128907-3.125 8.1875-3.125 11.3125 0l8 8c3.128907 3.128907 3.128907 8.183594 0 11.3125-1.558593 1.5625-3.605468 2.34375-5.65625 2.34375zm0 0"/><path d="m208.0625 320.039062c-1.199219 0-2.421875-.269531-3.566406-.839843l-16-8c-3.953125-1.976563-5.550782-6.785157-3.574219-10.734375 1.980469-3.953125 6.78125-5.535156 10.734375-3.578125l16 8c3.953125 1.976562 5.550781 6.785156 3.574219 10.738281-1.40625 2.800781-4.230469 4.414062-7.167969 4.414062zm0 0"/><path d="m128.070312 200.039062c-4.421874 0-8-3.574218-8-8v-3.96875c0-4.421874 3.578126-8 8-8 4.425782 0 8 3.578126 8 8v3.96875c0 4.425782-3.574218 8-8 8zm0 0"/><path d="m192.070312 392.070312c-13.230468 0-24-10.765624-24-24 0-13.230468 10.769532-24 24-24 13.234376 0 24 10.769532 24 24 0 13.234376-10.765624 24-24 24zm0-32c-4.414062 0-8 3.585938-8 8 0 4.417969 3.585938 8 8 8 4.417969 0 8-3.582031 8-8 0-4.414062-3.582031-8-8-8zm0 0"/><path d="m472.070312 168.070312h-96c-4.421874 0-8-3.574218-8-8v-80c0-4.421874 3.578126-8 8-8h96c4.425782 0 8 3.578126 8 8v80c0 4.425782-3.574218 8-8 8zm-88-16h80v-64h-80zm0 0"/><path d="m408.070312 152.070312c-4.421874 0-8-3.574218-8-8v-48c0-4.421874 3.578126-8 8-8 4.425782 0 8 3.578126 8 8v48c0 4.425782-3.574218 8-8 8zm0 0"/><path d="m408.078125 152.070312c-2.71875 0-5.367187-1.382812-6.863281-3.878906-2.269532-3.792968-1.046875-8.703125 2.746094-10.976562l40-24c3.800781-2.277344 8.703124-1.039063 10.976562 2.746094 2.269531 3.792968 1.046875 8.703124-2.746094 10.976562l-40 24c-1.289062.765625-2.710937 1.132812-4.113281 1.132812zm0 0"/><path d="m448.0625 128.070312c-1.398438 0-2.824219-.367187-4.109375-1.140624l-40-24c-3.792969-2.273438-5.015625-7.1875-2.746094-10.976563 2.273438-3.792969 7.183594-5.023437 10.976563-2.746094l40 24c3.792968 2.273438 5.015625 7.183594 2.746094 10.976563-1.496094 2.503906-4.144532 3.886718-6.867188 3.886718zm0 0"/><path d="m472.070312 280.070312h-96c-4.421874 0-8-3.574218-8-8v-80c0-4.421874 3.578126-8 8-8h96c4.425782 0 8 3.578126 8 8v80c0 4.425782-3.574218 8-8 8zm-88-16h80v-64h-80zm0 0"/><path d="m408.070312 264.070312c-4.421874 0-8-3.574218-8-8v-48c0-4.421874 3.578126-8 8-8 4.425782 0 8 3.578126 8 8v48c0 4.425782-3.574218 8-8 8zm0 0"/><path d="m408.078125 264.070312c-2.71875 0-5.367187-1.382812-6.863281-3.878906-2.269532-3.792968-1.046875-8.703125 2.746094-10.976562l40-24c3.800781-2.269532 8.703124-1.046875 10.976562 2.746094 2.269531 3.792968 1.046875 8.703124-2.746094 10.976562l-40 24c-1.289062.765625-2.710937 1.132812-4.113281 1.132812zm0 0"/><path d="m448.0625 240.070312c-1.398438 0-2.824219-.367187-4.109375-1.140624l-40-24c-3.792969-2.273438-5.015625-7.1875-2.746094-10.976563 2.273438-3.785156 7.183594-5.015625 10.976563-2.746094l40 24c3.792968 2.273438 5.015625 7.183594 2.746094 10.976563-1.496094 2.503906-4.144532 3.886718-6.867188 3.886718zm0 0"/><path d="m472.070312 392.070312h-96c-4.421874 0-8-3.574218-8-8v-80c0-4.421874 3.578126-8 8-8h96c4.425782 0 8 3.578126 8 8v80c0 4.425782-3.574218 8-8 8zm-88-16h80v-64h-80zm0 0"/><path d="m408.070312 376.070312c-4.421874 0-8-3.574218-8-8v-48c0-4.421874 3.578126-8 8-8 4.425782 0 8 3.578126 8 8v48c0 4.425782-3.574218 8-8 8zm0 0"/><path d="m408.078125 376.070312c-2.71875 0-5.367187-1.382812-6.863281-3.878906-2.269532-3.792968-1.046875-8.703125 2.746094-10.976562l40-24c3.800781-2.269532 8.703124-1.046875 10.976562 2.746094 2.269531 3.792968 1.046875 8.703124-2.746094 10.976562l-40 24c-1.289062.765625-2.710937 1.132812-4.113281 1.132812zm0 0"/><path d="m448.0625 352.070312c-1.398438 0-2.824219-.367187-4.109375-1.140624l-40-24c-3.792969-2.273438-5.015625-7.1875-2.746094-10.976563 2.273438-3.792969 7.183594-5.015625 10.976563-2.746094l40 24c3.792968 2.273438 5.015625 7.183594 2.746094 10.976563-1.496094 2.503906-4.144532 3.886718-6.867188 3.886718zm0 0"/></svg>