<svg height="512pt" viewBox="-112 0 512 512" width="512pt" xmlns="http://www.w3.org/2000/svg"><path d="m280 464c-4.425781 0-8-3.574219-8-8 0-26.472656-21.527344-48-48-48-4.425781 0-8-3.574219-8-8s3.574219-8 8-8c35.289062 0 64 28.710938 64 64 0 4.425781-3.574219 8-8 8zm0 0"/><path d="m224 408-32.007812-.015625c-4.417969 0-7.992188-3.585937-7.992188-8 0-4.425781 3.585938-8 8-8h.007812l32 .015625c4.417969 0 7.992188 3.585938 7.992188 8 0 4.425781-3.585938 8-8 8zm0 0"/><path d="m16 512c-8.824219 0-16-7.175781-16-16 0-4.425781 3.574219-8 8-8s8 3.574219 8 8v.015625c4.425781 0 8 3.570313 8 7.992187 0 4.417969-3.574219 7.992188-8 7.992188zm0 0"/><path d="m272 512c-4.425781 0-8-3.574219-8-8s3.574219-8 8-8h.015625c0-4.425781 3.570313-8 7.992187-8 4.417969 0 7.992188 3.574219 7.992188 8 0 8.824219-7.175781 16-16 16zm0 0"/><path d="m280 504c-4.425781 0-8-3.574219-8-8v-40c0-4.425781 3.574219-8 8-8s8 3.574219 8 8v40c0 4.425781-3.574219 8-8 8zm0 0"/><path d="m8.007812 463.984375c-4.414062 0-7.9999995-3.578125-7.9999995-8-.0078125-17.113281 6.6484375-33.175781 18.7265625-45.265625 12.089844-12.078125 28.167969-18.734375 45.273437-18.734375 4.425782 0 8 3.574219 8 8 0 4.421875-3.574218 8-8 8-12.832031 0-24.894531 4.992187-33.953124 14.046875-9.0625 9.066406-14.046876 21.121094-14.046876 33.953125 0 4.414063-3.574218 8-8 8zm0 0"/><path d="m64.007812 408c-4.414062 0-8-3.574219-8-8 0-4.414062 3.578126-8 7.992188-8l32-.015625h.007812c4.417969 0 8 3.574219 8 8 0 4.414063-3.574218 8-7.992187 8zm0 0"/><path d="m8 503.984375c-4.425781 0-8-3.585937-8-8l.0078125-40c0-4.425781 3.5859375-8 7.9999995-8 4.425782 0 8 3.582031 8 8l-.007812 40c0 4.421875-3.585938 8-8 8zm0 0"/><path d="m272 512h-256c-4.425781 0-8-3.574219-8-8s3.574219-8 8-8h256c4.425781 0 8 3.574219 8 8s-3.574219 8-8 8zm0 0"/><path d="m96.007812 407.984375c-4.414062 0-8-3.578125-8-8l-.007812-43.703125c0-4.417969 3.574219-8 8-8 4.414062 0 8 3.574219 8 8l.007812 43.703125c0 4.414063-3.574218 8-8 8zm0 0"/><path d="m192 407.96875c-4.425781 0-8-3.578125-8-8v-43.6875c0-4.425781 3.574219-8 8-8s8 3.574219 8 8v43.6875c0 4.421875-3.574219 8-8 8zm0 0"/><path d="m144 376c-61.761719 0-112-50.238281-112-112 0-4.425781 3.574219-8 8-8s8 3.574219 8 8c0 52.9375 43.0625 96 96 96s96-43.0625 96-96c0-4.425781 3.574219-8 8-8s8 3.574219 8 8c0 61.761719-50.238281 112-112 112zm0 0"/><path d="m248 224c-4.425781 0-8-3.574219-8-8 0-35.929688-19.824219-68.574219-51.71875-85.199219-3.921875-2.039062-5.441406-6.871093-3.402344-10.792969 2.03125-3.917968 6.855469-5.457031 10.792969-3.398437 37.207031 19.382813 60.328125 57.46875 60.328125 99.390625 0 4.425781-3.574219 8-8 8zm0 0"/><path d="m40 224c-4.425781 0-8-3.574219-8-8 0-41.902344 23.113281-79.984375 60.304688-99.375 3.917968-2.058594 8.742187-.519531 10.792968 3.398438 2.039063 3.914062.519532 8.753906-3.402344 10.792968-31.878906 16.625-51.695312 49.261719-51.695312 85.183594 0 4.425781-3.574219 8-8 8zm0 0"/><path d="m40 272c-4.425781 0-8-3.574219-8-8v-48c0-4.425781 3.574219-8 8-8s8 3.574219 8 8v48c0 4.425781-3.574219 8-8 8zm0 0"/><path d="m248 272c-4.425781 0-8-3.574219-8-8v-48c0-4.425781 3.574219-8 8-8s8 3.574219 8 8v48c0 4.425781-3.574219 8-8 8zm0 0"/><path d="m248 248c-2.046875 0-4.097656-.785156-5.65625-2.34375l-24-24c-3.128906-3.128906-3.128906-8.183594 0-11.3125s8.183594-3.128906 11.3125 0l24 24c3.128906 3.128906 3.128906 8.183594 0 11.3125-1.558594 1.558594-3.609375 2.34375-5.65625 2.34375zm0 0"/><path d="m144 240c-44.59375 0-81.648438-15.992188-83.199219-16.671875-4.046875-1.769531-5.890625-6.488281-4.128906-10.527344 1.761719-4.039062 6.457031-5.878906 10.527344-4.128906.351562.152344 35.671875 15.328125 76.800781 15.328125 41.28125 0 76.449219-15.175781 76.800781-15.328125 4.046875-1.777344 8.773438.082031 10.527344 4.128906 1.777344 4.046875-.070313 8.757813-4.128906 10.527344-1.550781.679687-38.605469 16.671875-83.199219 16.671875zm0 0"/><path d="m39.992188 248c-2.046876 0-4.097657-.785156-5.65625-2.34375-3.128907-3.128906-3.128907-8.183594 0-11.3125l24.007812-24c3.128906-3.128906 8.183594-3.128906 11.3125 0s3.128906 8.183594 0 11.3125l-24.007812 24c-1.558594 1.558594-3.609376 2.34375-5.65625 2.34375zm0 0"/><path d="m119.992188 424c-1.519532 0-3.070313-.441406-4.441407-1.34375l-23.992187-16.015625c-3.671875-2.457031-4.664063-7.425781-2.207032-11.105469 2.457032-3.671875 7.417969-4.664062 11.105469-2.207031l23.992188 16.015625c3.671875 2.457031 4.664062 7.425781 2.207031 11.105469-1.542969 2.304687-4.082031 3.550781-6.664062 3.550781zm0 0"/><path d="m120 424c-3.34375 0-6.472656-2.113281-7.585938-5.464844-1.40625-4.183594.859376-8.726562 5.050782-10.128906l24-8.03125c4.191406-1.390625 8.726562.847656 10.128906 5.050781 1.40625 4.183594-.859375 8.726563-5.050781 10.125l-24 8.035157c-.847657.277343-1.703125.414062-2.542969.414062zm0 0"/><path d="m168.007812 424c-2.582031 0-5.121093-1.246094-6.664062-3.558594-2.457031-3.671875-1.464844-8.640625 2.214844-11.097656l24-16.015625c3.664062-2.457031 8.632812-1.464844 11.097656 2.214844 2.457031 3.671875 1.464844 8.640625-2.214844 11.097656l-24 16.015625c-1.363281.902344-2.914062 1.34375-4.433594 1.34375zm0 0"/><path d="m168 424c-.839844 0-1.695312-.136719-2.535156-.414062l-24-8.035157c-4.183594-1.398437-6.457032-5.933593-5.050782-10.125 1.402344-4.1875 5.953126-6.433593 10.128907-5.050781l24 8.03125c4.183593 1.402344 6.457031 5.9375 5.050781 10.128906-1.121094 3.34375-4.25 5.464844-7.59375 5.464844zm0 0"/><path d="m144.238281 448c-4.421875 0-8.039062-3.574219-8.039062-8s3.535156-8 7.953125-8h.085937c4.417969 0 8 3.574219 8 8s-3.582031 8-8 8zm0 0"/><path d="m144.238281 480c-4.421875 0-8.039062-3.574219-8.039062-8s3.535156-8 7.953125-8h.085937c4.417969 0 8 3.574219 8 8s-3.582031 8-8 8zm0 0"/><path d="m200 176h-112c-4.425781 0-8-3.574219-8-8s3.574219-8 8-8h112c4.425781 0 8 3.574219 8 8s-3.574219 8-8 8zm0 0"/><path d="m96 168c-4.425781 0-8-3.574219-8-8v-136c0-4.425781 3.574219-8 8-8s8 3.574219 8 8v136c0 4.425781-3.574219 8-8 8zm0 0"/><path d="m192 176c-4.425781 0-8-3.574219-8-8v-144c0-4.425781 3.574219-8 8-8s8 3.574219 8 8v144c0 4.425781-3.574219 8-8 8zm0 0"/><path d="m96 32c-4.425781 0-8-3.574219-8-8 0-13.230469 10.769531-24 24-24 4.425781 0 8 3.574219 8 8s-3.574219 8-8 8c-4.414062 0-8 3.585938-8 8 0 4.425781-3.574219 8-8 8zm0 0"/><path d="m192 32c-4.425781 0-8-3.574219-8-8 0-13.230469 10.769531-24 24-24 4.425781 0 8 3.574219 8 8s-3.574219 8-8 8c-4.414062 0-8 3.585938-8 8 0 4.425781-3.574219 8-8 8zm0 0"/><path d="m224 32c-4.425781 0-8-3.574219-8-8 0-4.414062-3.585938-8-8-8-4.425781 0-8-3.574219-8-8s3.574219-8 8-8c13.230469 0 24 10.769531 24 24 0 4.425781-3.574219 8-8 8zm0 0"/><path d="m240 88c-13.230469 0-24-10.769531-24-24 0-4.425781 3.574219-8 8-8s8 3.574219 8 8c0 4.414062 3.585938 8 8 8 4.425781 0 8 3.574219 8 8s-3.574219 8-8 8zm0 0"/><path d="m240 88c-4.425781 0-8-3.574219-8-8s3.574219-8 8-8c4.414062 0 8-3.585938 8-8 0-4.425781 3.574219-8 8-8s8 3.574219 8 8c0 13.230469-10.769531 24-24 24zm0 0"/><path d="m208 16h-96c-4.425781 0-8-3.574219-8-8s3.574219-8 8-8h96c4.425781 0 8 3.574219 8 8s-3.574219 8-8 8zm0 0"/><path d="m224 72c-4.425781 0-8-3.574219-8-8v-40c0-4.425781 3.574219-8 8-8s8 3.574219 8 8v40c0 4.425781-3.574219 8-8 8zm0 0"/><path d="m256 72c-4.425781 0-8-3.574219-8-8v-16c0-4.425781 3.574219-8 8-8s8 3.574219 8 8v16c0 4.425781-3.574219 8-8 8zm0 0"/><path d="m256 56h-32c-4.425781 0-8-3.574219-8-8s3.574219-8 8-8h32c4.425781 0 8 3.574219 8 8s-3.574219 8-8 8zm0 0"/><path d="m240 88h-48c-4.425781 0-8-3.574219-8-8s3.574219-8 8-8h48c4.425781 0 8 3.574219 8 8s-3.574219 8-8 8zm0 0"/><path d="m160 48h-32c-4.425781 0-8-3.574219-8-8s3.574219-8 8-8h32c4.425781 0 8 3.574219 8 8s-3.574219 8-8 8zm0 0"/><path d="m160 80h-32c-4.425781 0-8-3.574219-8-8s3.574219-8 8-8h32c4.425781 0 8 3.574219 8 8s-3.574219 8-8 8zm0 0"/><path d="m160 112h-32c-4.425781 0-8-3.574219-8-8s3.574219-8 8-8h32c4.425781 0 8 3.574219 8 8s-3.574219 8-8 8zm0 0"/><path d="m160 144h-32c-4.425781 0-8-3.574219-8-8s3.574219-8 8-8h32c4.425781 0 8 3.574219 8 8s-3.574219 8-8 8zm0 0"/></svg>