<svg height="512pt" viewBox="0 -12 512.016 512" width="512pt" xmlns="http://www.w3.org/2000/svg"><path d="m360.007812 176.007812h-303.96875c-4.421874 0-8-3.574218-8-8v-80c0-4.421874 3.578126-8 8-8h303.96875c4.425782 0 8 3.578126 8 8v80c0 4.425782-3.574218 8-8 8zm-295.96875-16h287.96875v-64h-287.96875zm0 0"/><path d="m184.039062 248.007812h-128c-4.421874 0-8-3.574218-8-8 0-4.421874 3.578126-8 8-8h128c4.425782 0 8 3.578126 8 8 0 4.425782-3.574218 8-8 8zm0 0"/><path d="m112.039062 280.007812h-56c-4.421874 0-8-3.574218-8-8 0-4.421874 3.578126-8 8-8h56c4.425782 0 8 3.578126 8 8 0 4.425782-3.574218 8-8 8zm0 0"/><path d="m360.007812 280.007812h-215.96875c-4.421874 0-8-3.574218-8-8 0-4.421874 3.578126-8 8-8h215.96875c4.425782 0 8 3.578126 8 8 0 4.425782-3.574218 8-8 8zm0 0"/><path d="m136.039062 344.007812h-80c-4.421874 0-8-3.574218-8-8 0-4.421874 3.578126-8 8-8h80c4.425782 0 8 3.578126 8 8 0 4.425782-3.574218 8-8 8zm0 0"/><path d="m324.886719 344.007812h-156.847657c-4.421874 0-8-3.574218-8-8 0-4.421874 3.578126-8 8-8h156.847657c4.425781 0 8 3.578126 8 8 0 4.425782-3.574219 8-8 8zm0 0"/><path d="m256.039062 216.007812h-200c-4.421874 0-8-3.574218-8-8 0-4.421874 3.578126-8 8-8h200c4.425782 0 8 3.578126 8 8 0 4.425782-3.574218 8-8 8zm0 0"/><path d="m356.886719 216.007812h-68.847657c-4.421874 0-8-3.574218-8-8 0-4.421874 3.578126-8 8-8h68.847657c4.425781 0 8 3.578126 8 8 0 4.425782-3.574219 8-8 8zm0 0"/><path d="m256.007812 312.007812h-199.96875c-4.421874 0-8-3.574218-8-8 0-4.421874 3.578126-8 8-8h199.96875c4.425782 0 8 3.578126 8 8 0 4.425782-3.574218 8-8 8zm0 0"/><path d="m354.953125 312.007812h-66.945313c-4.421874 0-8-3.574218-8-8 0-4.421874 3.578126-8 8-8h66.945313c4.421875 0 8 3.578126 8 8 0 4.425782-3.578125 8-8 8zm0 0"/><path d="m360.007812 248.007812h-143.96875c-4.421874 0-8-3.574218-8-8 0-4.421874 3.578126-8 8-8h143.96875c4.425782 0 8 3.578126 8 8 0 4.425782-3.574218 8-8 8zm0 0"/><path d="m32.238281 32.007812c-4.421875 0-8.039062-3.574218-8.039062-8 0-4.421874 3.535156-8 7.953125-8h.085937c4.417969 0 8 3.578126 8 8 0 4.425782-3.582031 8-8 8zm0 0"/><path d="m56.238281 32.007812c-4.421875 0-8.039062-3.574218-8.039062-8 0-4.421874 3.535156-8 7.953125-8h.085937c4.417969 0 8 3.578126 8 8 0 4.425782-3.582031 8-8 8zm0 0"/><path d="m80.238281 32.007812c-4.421875 0-8.039062-3.574218-8.039062-8 0-4.421874 3.535156-8 7.953125-8h.085937c4.417969 0 8 3.578126 8 8 0 4.425782-3.582031 8-8 8zm0 0"/><path d="m312.015625 392.007812h-303.871094c-4.425781 0-8-3.574218-8-8v-344c0-4.421874 3.574219-8 8-8h399.894531c4.425782 0 8 3.578126 8 8v248c0 4.425782-3.574218 8-8 8-4.421874 0-8-3.574218-8-8v-240h-383.894531v328h295.871094c4.425781 0 8 3.578126 8 8 0 4.425782-3.574219 8-8 8zm0 0"/><path d="m8 32.007812c-4.425781 0-8-3.574218-8-8 0-13.230468 10.769531-23.9999995 24-23.9999995 4.425781 0 8 3.5781255 8 7.9999995 0 4.425782-3.574219 8-8 8-4.414062 0-8 3.585938-8 8 0 4.425782-3.574219 8-8 8zm0 0"/><path d="m8 48.007812c-4.425781 0-8-3.574218-8-8v-16c0-4.421874 3.574219-8 8-8s8 3.578126 8 8v16c0 4.425782-3.574219 8-8 8zm0 0"/><path d="m407.894531 32.007812c-4.421875 0-8-3.574218-8-8 0-4.414062-3.582031-8-8-8-4.421875 0-8-3.574218-8-8 0-4.421874 3.578125-7.9999995 8-7.9999995 13.234375 0 24 10.7695315 24 23.9999995 0 4.425782-3.574219 8-8 8zm0 0"/><path d="m407.894531 48.007812c-4.421875 0-8-3.574218-8-8v-16c0-4.421874 3.578125-8 8-8 4.425781 0 8 3.578126 8 8v16c0 4.425782-3.574219 8-8 8zm0 0"/><path d="m391.894531 16.007812h-367.894531c-4.425781 0-8-3.574218-8-8 0-4.421874 3.574219-7.9999995 8-7.9999995h367.894531c4.425781 0 8 3.5781255 8 7.9999995 0 4.425782-3.574219 8-8 8zm0 0"/><path d="m304.007812 136.007812h-191.96875c-4.421874 0-8-3.574218-8-8 0-4.421874 3.578126-8 8-8h191.96875c4.425782 0 8 3.578126 8 8 0 4.425782-3.574218 8-8 8zm0 0"/><path d="m408.015625 488.007812c-57.34375 0-104-46.65625-104-104s46.65625-104 104-104 104 46.65625 104 104-46.65625 104-104 104zm0-192c-48.519531 0-88 39.480469-88 88 0 48.519532 39.480469 88 88 88s88-39.480468 88-88c0-48.519531-39.480469-88-88-88zm0 0"/><path d="m368.015625 408.007812c-13.230469 0-24-10.769531-24-24 0-13.230468 10.769531-24 24-24s24 10.769532 24 24c0 13.230469-10.769531 24-24 24zm0-32c-4.414063 0-8 3.585938-8 8 0 4.417969 3.585937 8 8 8 4.417969 0 8-3.582031 8-8 0-4.414062-3.582031-8-8-8zm0 0"/><path d="m432.015625 368.007812c-13.230469 0-24-10.769531-24-24 0-13.230468 10.769531-24 24-24s24 10.769532 24 24c0 13.230469-10.769531 24-24 24zm0-32c-4.414063 0-8 3.585938-8 8 0 4.417969 3.585937 8 8 8 4.417969 0 8-3.582031 8-8 0-4.414062-3.582031-8-8-8zm0 0"/><path d="m432.015625 440.007812c-13.230469 0-24-10.769531-24-24 0-13.230468 10.769531-24 24-24s24 10.769532 24 24c0 13.230469-10.769531 24-24 24zm0-32c-4.414063 0-8 3.585938-8 8 0 4.417969 3.585937 8 8 8 4.417969 0 8-3.582031 8-8 0-4.414062-3.582031-8-8-8zm0 0"/><path d="m417.71875 416.863281c-1.199219 0-2.421875-.269531-3.566406-.839843l-35.433594-17.726563c-3.949219-1.976563-5.550781-6.785156-3.574219-10.738281 1.976563-3.949219 6.785157-5.542969 10.734375-3.574219l35.433594 17.726563c3.953125 1.976562 5.550781 6.785156 3.574219 10.738281-1.40625 2.796875-4.230469 4.414062-7.167969 4.414062zm0 0"/><path d="m381.566406 383.535156c-2.664062 0-5.269531-1.328125-6.789062-3.757812-2.34375-3.753906-1.203125-8.6875 2.535156-11.023438l36.894531-23.066406c3.761719-2.359375 8.6875-1.207031 11.023438 2.535156 2.34375 3.753906 1.203125 8.6875-2.535157 11.023438l-36.894531 23.066406c-1.3125.839844-2.785156 1.222656-4.234375 1.222656zm0 0"/></svg>