<svg height="512pt" viewBox="0 0 512 512" width="512pt" xmlns="http://www.w3.org/2000/svg"><path d="m312 480c-4.425781 0-8-3.574219-8-8 0-26.472656 21.527344-48 48-48 4.425781 0 8 3.574219 8 8s-3.574219 8-8 8c-17.648438 0-32 14.351562-32 32 0 4.425781-3.574219 8-8 8zm0 0"/><path d="m376 440h-24c-4.425781 0-8-3.574219-8-8s3.574219-8 8-8h24c4.425781 0 8 3.574219 8 8s-3.574219 8-8 8zm0 0"/><path d="m312 504c-4.425781 0-8-3.574219-8-8v-24c0-4.425781 3.574219-8 8-8s8 3.574219 8 8v24c0 4.425781-3.574219 8-8 8zm0 0"/><path d="m320 512c-8.824219 0-16-7.175781-16-16 0-4.246094 3.34375-7.3125 7.585938-7.542969 4.398437-.144531 7.941406 3.328125 8.414062 7.535157 4.414062 0 8 3.582031 8 8 0 4.421874-3.574219 8.007812-8 8.007812zm0 0"/><path d="m504 480c-4.425781 0-8-3.574219-8-8 0-17.648438-14.351562-32-32-32-4.425781 0-8-3.574219-8-8s3.574219-8 8-8c26.472656 0 48 21.527344 48 48 0 4.425781-3.574219 8-8 8zm0 0"/><path d="m464 440h-24c-4.425781 0-8-3.574219-8-8s3.574219-8 8-8h24c4.425781 0 8 3.574219 8 8s-3.574219 8-8 8zm0 0"/><path d="m504 504c-4.425781 0-8-3.574219-8-8v-24c0-4.425781 3.574219-8 8-8s8 3.574219 8 8v24c0 4.425781-3.574219 8-8 8zm0 0"/><path d="m496 512c-4.425781 0-8-3.574219-8-8s3.574219-8 8-8c0-4.425781 3.574219-8 8-8s8 3.574219 8 8c0 8.824219-7.175781 16-16 16zm0 0"/><path d="m496 512h-176c-4.425781 0-8-3.574219-8-8s3.574219-8 8-8h176c4.425781 0 8 3.574219 8 8s-3.574219 8-8 8zm0 0"/><path d="m376 440c-4.425781 0-8-3.574219-8-8v-31.488281c0-4.421875 3.574219-8 8-8s8 3.578125 8 8v31.488281c0 4.425781-3.574219 8-8 8zm0 0"/><path d="m440 440c-4.425781 0-8-3.574219-8-8v-31.488281c0-4.421875 3.574219-8 8-8s8 3.578125 8 8v31.488281c0 4.425781-3.574219 8-8 8zm0 0"/><path d="m407.992188 416c-44.113282 0-79.992188-35.878906-79.992188-79.984375 0-4.421875 3.574219-8 8-8s8 3.578125 8 8c0 35.28125 28.703125 63.984375 63.992188 63.984375 35.296874 0 64.007812-28.703125 64.007812-63.984375 0-4.421875 3.574219-8 8-8s8 3.578125 8 8c0 44.105469-35.886719 79.984375-80.007812 79.984375zm0 0"/><path d="m336 344.40625c-4.425781 0-8-3.574219-8-8v-48.40625c0-4.425781 3.574219-8 8-8s8 3.574219 8 8v48.40625c0 4.425781-3.574219 8-8 8zm0 0"/><path d="m480 344.015625c-4.425781 0-8-3.574219-8-8v-48.015625c0-4.425781 3.574219-8 8-8s8 3.574219 8 8v48.015625c0 4.425781-3.574219 8-8 8zm0 0"/><path d="m480 295.992188c-4.425781 0-8-3.578126-8-8 0-13.222657-10.769531-23.992188-24-23.992188-4.425781 0-8-3.574219-8-8s3.574219-8 8-8c22.054688 0 40 17.9375 40 39.992188 0 4.421874-3.574219 8-8 8zm0 0"/><path d="m448 264c-4.425781 0-8-3.574219-8-8v-32c0-4.425781 3.574219-8 8-8s8 3.574219 8 8v32c0 4.425781-3.574219 8-8 8zm0 0"/><path d="m448 232h-48c-4.425781 0-8-3.574219-8-8s3.574219-8 8-8h48c4.425781 0 8 3.574219 8 8s-3.574219 8-8 8zm0 0"/><path d="m336 296c-4.425781 0-8-3.574219-8-8 0-39.703125 32.296875-72 72-72 4.425781 0 8 3.574219 8 8s-3.574219 8-8 8c-30.871094 0-56 25.128906-56 56 0 4.425781-3.574219 8-8 8zm0 0"/><path d="m479.992188 320.199219c-1.535157 0-3.097657-.445313-4.472657-1.367188l-24-16.199219c-3.664062-2.480468-4.625-7.449218-2.160156-11.113281 2.480469-3.664062 7.441406-4.617187 11.113281-2.160156l24 16.199219c3.664063 2.480468 4.625 7.449218 2.160156 11.113281-1.542968 2.296875-4.074218 3.527344-6.640624 3.527344zm0 0"/><path d="m412 312c-28.894531 0-53.496094-8.0625-54.519531-8.40625-4.183594-1.402344-6.457031-5.921875-5.074219-10.113281 1.394531-4.183594 5.921875-6.480469 10.113281-5.082031.234375.089843 23.265625 7.601562 49.480469 7.601562 25.425781 0 40.320312-7.105469 40.472656-7.175781 3.941406-1.921875 8.75-.304688 10.695313 3.65625 1.945312 3.953125.34375 8.71875-3.59375 10.6875-.734375.351562-18.085938 8.832031-47.574219 8.832031zm0 0"/><path d="m336.007812 320.199219c-2.566406 0-5.097656-1.230469-6.640624-3.519531-2.472657-3.664063-1.503907-8.632813 2.160156-11.113282l24-16.199218c3.671875-2.464844 8.632812-1.503907 11.113281 2.160156 2.472656 3.664062 1.503906 8.632812-2.160156 11.113281l-24 16.199219c-1.375.921875-2.9375 1.359375-4.472657 1.359375zm0 0"/><path d="m391.992188 448c-1.199219 0-2.425782-.273438-3.566407-.839844l-16-8c-3.953125-1.976562-5.554687-6.785156-3.578125-10.734375 1.984375-3.953125 6.785156-5.539062 10.738282-3.578125l16 8c3.949218 1.976563 5.550781 6.785156 3.574218 10.738282-1.40625 2.796874-4.230468 4.414062-7.167968 4.414062zm0 0"/><path d="m392.007812 448c-2.9375 0-5.761718-1.617188-7.167968-4.425781-1.976563-3.949219-.375-8.757813 3.574218-10.734375l16-8c3.945313-1.960938 8.753907-.375 10.738282 3.574218 1.976562 3.953126.375 8.761719-3.578125 10.738282l-16 8c-1.140625.574218-2.367188.847656-3.566407.847656zm0 0"/><path d="m424.007812 448c-2.9375 0-5.761718-1.617188-7.167968-4.425781-1.976563-3.949219-.375-8.757813 3.574218-10.734375l16-8c3.960938-1.960938 8.753907-.375 10.738282 3.574218 1.976562 3.953126.375 8.761719-3.578125 10.738282l-16 8c-1.140625.574218-2.367188.847656-3.566407.847656zm0 0"/><path d="m423.992188 448c-1.199219 0-2.425782-.273438-3.566407-.839844l-16-8c-3.953125-1.976562-5.554687-6.785156-3.578125-10.734375 1.984375-3.953125 6.792969-5.539062 10.738282-3.578125l16 8c3.949218 1.976563 5.550781 6.785156 3.574218 10.738282-1.40625 2.796874-4.230468 4.414062-7.167968 4.414062zm0 0"/><path d="m32 343.679688c-4.425781 0-8-3.574219-8-8v-34.558594c0-4.425782 3.574219-8 8-8s8 3.574218 8 8v34.558594c0 4.425781-3.574219 8-8 8zm0 0"/><path d="m176 344c-4.425781 0-8-3.574219-8-8v-36.007812c0-4.425782 3.574219-8 8-8s8 3.574218 8 8v36.007812c0 4.425781-3.574219 8-8 8zm0 0"/><path d="m176 307.992188c-4.425781 0-8-3.578126-8-8 0-37.488282-30.503906-67.992188-68.007812-67.992188-37.488282 0-67.992188 30.503906-67.992188 67.992188 0 4.421874-3.574219 8-8 8s-8-3.578126-8-8c0-46.3125 37.679688-83.992188 83.992188-83.992188 46.320312 0 84.007812 37.679688 84.007812 83.992188 0 4.421874-3.574219 8-8 8zm0 0"/><path d="m176.007812 320c-2.40625 0-4.785156-1.078125-6.359374-3.136719-19.679688-25.703125-28.535157-23.054687-52.191407-16.007812-20.367187 6.066406-48.25 14.375-94.703125 7.03125-4.363281-.6875-7.347656-4.78125-6.648437-9.152344.6875-4.359375 4.765625-7.375 9.152343-6.644531 42.839844 6.742187 68.734376-.945313 87.628907-6.570313 25.050781-7.441406 43.113281-12.824219 69.472656 21.609375 2.6875 3.503906 2.023437 8.527344-1.488281 11.214844-1.457032 1.121094-3.167969 1.65625-4.863282 1.65625zm0 0"/><path d="m136.167969 296.222656c-1.550781 0-3.128907-.453125-4.503907-1.390625-3.648437-2.496093-4.585937-7.480469-2.097656-11.128906l23.832032-34.878906c2.503906-3.648438 7.472656-4.566407 11.128906-2.097657 3.648437 2.496094 4.585937 7.480469 2.097656 11.128907l-23.832031 34.878906c-1.570313 2.273437-4.074219 3.488281-6.625 3.488281zm0 0"/><path d="m8 480c-4.425781 0-8-3.574219-8-8 0-26.472656 21.527344-48 48-48 4.425781 0 8 3.574219 8 8s-3.574219 8-8 8c-17.648438 0-32 14.351562-32 32 0 4.425781-3.574219 8-8 8zm0 0"/><path d="m72 440h-24c-4.425781 0-8-3.574219-8-8s3.574219-8 8-8h24c4.425781 0 8 3.574219 8 8s-3.574219 8-8 8zm0 0"/><path d="m8 504c-4.425781 0-8-3.574219-8-8v-24c0-4.425781 3.574219-8 8-8s8 3.574219 8 8v24c0 4.425781-3.574219 8-8 8zm0 0"/><path d="m16 512c-8.824219 0-16-7.175781-16-16 0-4.246094 3.34375-7.3125 7.585938-7.542969 4.503906-.144531 7.933593 3.328125 8.414062 7.535157 4.414062 0 8 3.582031 8 8 0 4.421874-3.574219 8.007812-8 8.007812zm0 0"/><path d="m200 480c-4.425781 0-8-3.574219-8-8 0-17.648438-14.351562-32-32-32-4.425781 0-8-3.574219-8-8s3.574219-8 8-8c26.472656 0 48 21.527344 48 48 0 4.425781-3.574219 8-8 8zm0 0"/><path d="m160 440h-24c-4.425781 0-8-3.574219-8-8s3.574219-8 8-8h24c4.425781 0 8 3.574219 8 8s-3.574219 8-8 8zm0 0"/><path d="m200 504c-4.425781 0-8-3.574219-8-8v-24c0-4.425781 3.574219-8 8-8s8 3.574219 8 8v24c0 4.425781-3.574219 8-8 8zm0 0"/><path d="m192 512c-4.425781 0-8-3.574219-8-8s3.574219-8 8-8c0-4.425781 3.574219-8 8-8s8 3.574219 8 8c0 8.824219-7.175781 16-16 16zm0 0"/><path d="m192 512h-176c-4.425781 0-8-3.574219-8-8s3.574219-8 8-8h176c4.425781 0 8 3.574219 8 8s-3.574219 8-8 8zm0 0"/><path d="m72 440c-4.425781 0-8-3.574219-8-8v-31.488281c0-4.421875 3.574219-8 8-8s8 3.578125 8 8v31.488281c0 4.425781-3.574219 8-8 8zm0 0"/><path d="m136 440c-4.425781 0-8-3.574219-8-8v-31.488281c0-4.421875 3.574219-8 8-8s8 3.578125 8 8v31.488281c0 4.425781-3.574219 8-8 8zm0 0"/><path d="m103.992188 416c-44.113282 0-79.992188-35.878906-79.992188-79.984375 0-4.421875 3.574219-8 8-8s8 3.578125 8 8c0 35.28125 28.703125 63.984375 63.992188 63.984375 35.296874 0 64.007812-28.703125 64.007812-63.984375 0-4.421875 3.574219-8 8-8s8 3.578125 8 8c0 44.105469-35.886719 79.984375-80.007812 79.984375zm0 0"/><path d="m87.992188 448c-1.199219 0-2.425782-.273438-3.566407-.839844l-16-8c-3.953125-1.976562-5.554687-6.785156-3.578125-10.734375 1.984375-3.953125 6.785156-5.539062 10.738282-3.578125l16 8c3.949218 1.976563 5.550781 6.785156 3.574218 10.738282-1.40625 2.796874-4.230468 4.414062-7.167968 4.414062zm0 0"/><path d="m88.007812 448c-2.9375 0-5.761718-1.617188-7.167968-4.425781-1.976563-3.949219-.375-8.757813 3.574218-10.734375l16-8c3.945313-1.960938 8.753907-.375 10.738282 3.574218 1.976562 3.953126.375 8.761719-3.578125 10.738282l-16 8c-1.140625.574218-2.367188.847656-3.566407.847656zm0 0"/><path d="m120.007812 448c-2.9375 0-5.761718-1.617188-7.167968-4.425781-1.976563-3.949219-.375-8.757813 3.574218-10.734375l16-8c3.960938-1.960938 8.753907-.375 10.738282 3.574218 1.976562 3.953126.375 8.761719-3.578125 10.738282l-16 8c-1.140625.574218-2.367188.847656-3.566407.847656zm0 0"/><path d="m119.992188 448c-1.199219 0-2.425782-.273438-3.566407-.839844l-16-8c-3.953125-1.976562-5.554687-6.785156-3.578125-10.734375 1.984375-3.953125 6.792969-5.539062 10.738282-3.578125l16 8c3.949218 1.976563 5.550781 6.785156 3.574218 10.738282-1.40625 2.796874-4.230468 4.414062-7.167968 4.414062zm0 0"/><path d="m392 168c-1.007812 0-2.015625-.183594-2.96875-.566406l-38.566406-15.433594h-78.464844c-4.425781 0-8-3.574219-8-8s3.574219-8 8-8h80c1.015625 0 2.023438.191406 2.96875.566406l29.039062 11.617188v-4.191406c0-4.417969 3.585938-7.992188 8-7.992188h15.992188v-120h-160v23.992188c0 4.421874-3.574219 8-8 8s-8-3.578126-8-8v-31.992188c0-4.425781 3.574219-8 8-8h176c4.425781 0 8 3.574219 8 8v136c0 4.425781-3.574219 8-8 8h-15.992188l-.007812 8.007812c0 2.648438-1.320312 5.136719-3.511719 6.617188-1.34375.902344-2.914062 1.375-4.488281 1.375zm0 0"/><path d="m120 200c-1.574219 0-3.144531-.472656-4.488281-1.375-2.191407-1.480469-3.511719-3.96875-3.511719-6.617188l-.007812-8.007812h-15.992188c-4.425781 0-8-3.574219-8-8v-136c0-4.425781 3.574219-8 8-8h176c4.425781 0 8 3.574219 8 8v136c0 4.425781-3.574219 8-8 8h-110.464844l-38.566406 15.433594c-.953125.382812-1.960938.566406-2.96875.566406zm-16-32h15.992188c4.414062 0 8 3.574219 8 7.992188v4.191406l29.039062-11.617188c.945312-.375 1.953125-.566406 2.96875-.566406h104v-120h-160zm0 0"/><path d="m223.992188 280c-1.34375 0-2.710938-.335938-3.960938-1.054688-3.832031-2.191406-5.167969-7.082031-2.976562-10.914062l32-56c2.183593-3.832031 7.074218-5.183594 10.914062-2.976562 3.832031 2.191406 5.167969 7.082031 2.976562 10.914062l-32 56c-1.472656 2.582031-4.167968 4.03125-6.953124 4.03125zm0 0"/><path d="m271.992188 264c-1.398438 0-2.824219-.367188-4.113282-1.144531-3.789062-2.269531-5.015625-7.183594-2.742187-10.976563l24-40c2.269531-3.789062 7.175781-5.015625 10.976562-2.742187 3.789063 2.269531 5.015625 7.183593 2.742188 10.976562l-24 40c-1.496094 2.503907-4.144531 3.886719-6.863281 3.886719zm0 0"/><path d="m248 280h-24c-4.425781 0-8-3.574219-8-8s3.574219-8 8-8h24c4.425781 0 8 3.574219 8 8s-3.574219 8-8 8zm0 0"/><path d="m232.007812 336c-.734374 0-1.472656-.105469-2.199218-.304688-4.25-1.214843-6.710938-5.648437-5.503906-9.886718l16-56c1.214843-4.257813 5.671874-6.664063 9.886718-5.503906 4.25 1.214843 6.710938 5.648437 5.503906 9.886718l-16 56c-1.007812 3.519532-4.207031 5.808594-7.6875 5.808594zm0 0"/><path d="m304 264h-32c-4.425781 0-8-3.574219-8-8s3.574219-8 8-8h32c4.425781 0 8 3.574219 8 8s-3.574219 8-8 8zm0 0"/><path d="m232 336c-2.046875 0-4.097656-.785156-5.65625-2.34375-3.128906-3.128906-3.128906-8.183594 0-11.3125l72-72c3.128906-3.128906 8.183594-3.128906 11.3125 0s3.128906 8.183594 0 11.3125l-72 72c-1.558594 1.558594-3.609375 2.34375-5.65625 2.34375zm0 0"/><path d="m184 128c-4.425781 0-8-3.574219-8-8v-48c0-4.425781 3.574219-8 8-8s8 3.574219 8 8v48c0 4.425781-3.574219 8-8 8zm0 0"/><path d="m184.238281 152c-4.421875 0-8.039062-3.574219-8.039062-8s3.535156-8 7.953125-8h.085937c4.417969 0 8 3.574219 8 8s-3.582031 8-8 8zm0 0"/><path d="m328 96c-4.425781 0-8-3.574219-8-8v-48c0-4.425781 3.574219-8 8-8s8 3.574219 8 8v48c0 4.425781-3.574219 8-8 8zm0 0"/><path d="m328.238281 120c-4.421875 0-8.039062-3.574219-8.039062-8s3.535156-8 7.953125-8h.085937c4.417969 0 8 3.574219 8 8s-3.582031 8-8 8zm0 0"/></svg>