<svg height="512pt" viewBox="-24 0 512 512" width="512pt" xmlns="http://www.w3.org/2000/svg"><path d="m88.21875 32c-4.421875 0-8.039062-3.574219-8.039062-8s3.535156-8 7.953124-8h.085938c4.417969 0 8 3.574219 8 8s-3.582031 8-8 8zm0 0"/><path d="m112.21875 32c-4.421875 0-8.039062-3.574219-8.039062-8s3.535156-8 7.953124-8h.085938c4.417969 0 8 3.574219 8 8s-3.582031 8-8 8zm0 0"/><path d="m136.21875 32c-4.421875 0-8.039062-3.574219-8.039062-8s3.535156-8 7.953124-8h.085938c4.417969 0 8 3.574219 8 8s-3.582031 8-8 8zm0 0"/><path d="m400.003906 224c-4.425781 0-8-3.574219-8-8v-168h-319.878906v168c0 4.425781-3.578125 8-8 8-4.425781 0-8-3.574219-8-8v-176c0-4.425781 3.574219-8 8-8h335.878906c4.421875 0 8 3.574219 8 8v176c0 4.425781-3.578125 8-8 8zm0 0"/><path d="m63.980469 32c-4.425781 0-8-3.574219-8-8 0-13.230469 10.765625-24 24-24 4.421875 0 8 3.574219 8 8s-3.578125 8-8 8c-4.417969 0-8 3.585938-8 8 0 4.425781-3.578125 8-8 8zm0 0"/><path d="m63.980469 48c-4.425781 0-8-3.574219-8-8v-16c0-4.425781 3.574219-8 8-8 4.421875 0 8 3.574219 8 8v16c0 4.425781-3.578125 8-8 8zm0 0"/><path d="m399.859375 32c-4.421875 0-8-3.574219-8-8 0-4.414062-3.582031-8-8-8-4.421875 0-8-3.574219-8-8s3.578125-8 8-8c13.230469 0 24 10.769531 24 24 0 4.425781-3.574219 8-8 8zm0 0"/><path d="m399.859375 48c-4.421875 0-8-3.574219-8-8v-16c0-4.425781 3.578125-8 8-8 4.425781 0 8 3.574219 8 8v16c0 4.425781-3.574219 8-8 8zm0 0"/><path d="m383.859375 16h-303.878906c-4.425781 0-8-3.574219-8-8s3.574219-8 8-8h303.878906c4.425781 0 8 3.574219 8 8s-3.574219 8-8 8zm0 0"/><path d="m40.003906 512c-22.054687 0-39.99999975-17.945312-39.99999975-40 0-4.425781 3.57421875-8 7.99999975-8 4.421875 0 8 3.574219 8 8 0 13.230469 10.769532 24 24 24 4.421875 0 8 3.574219 8 8s-3.578125 8-8 8zm0 0"/><path d="m424.003906 512c-4.425781 0-8-3.574219-8-8s3.574219-8 8-8c13.230469 0 24-10.769531 24-24 0-4.425781 3.574219-8 8-8 4.421875 0 8 3.574219 8 8 0 22.054688-17.945312 40-40 40zm0 0"/><path d="m424.003906 512h-384c-4.425781 0-8-3.574219-8-8s3.574219-8 8-8h384c4.421875 0 8 3.574219 8 8s-3.578125 8-8 8zm0 0"/><path d="m40.003906 480c-22.054687 0-39.99999975-17.945312-39.99999975-40 0-4.425781 3.57421875-8 7.99999975-8 4.421875 0 8 3.574219 8 8 0 13.230469 10.769532 24 24 24 4.421875 0 8 3.574219 8 8s-3.578125 8-8 8zm0 0"/><path d="m424.003906 480c-4.425781 0-8-3.574219-8-8s3.574219-8 8-8c13.230469 0 24-10.769531 24-24 0-4.425781 3.574219-8 8-8 4.421875 0 8 3.574219 8 8 0 22.054688-17.945312 40-40 40zm0 0"/><path d="m424.003906 480h-384c-4.425781 0-8-3.574219-8-8s3.574219-8 8-8h384c4.421875 0 8 3.574219 8 8s-3.578125 8-8 8zm0 0"/><path d="m8.003906 480c-4.425781 0-7.99999975-3.574219-7.99999975-8v-32c0-4.425781 3.57421875-8 7.99999975-8 4.421875 0 8 3.574219 8 8v32c0 4.425781-3.578125 8-8 8zm0 0"/><path d="m456.003906 480c-4.425781 0-8-3.574219-8-8v-32c0-4.425781 3.574219-8 8-8 4.421875 0 8 3.574219 8 8v32c0 4.425781-3.578125 8-8 8zm0 0"/><path d="m8.011719 448c-.472657 0-.9375-.039062-1.417969-.128906-4.351562-.773438-7.238281-4.925782-6.46875-9.277344l40-224.007812c.773438-4.355469 4.949219-7.25 9.277344-6.472657 4.351562.773438 7.242187 4.925781 6.472656 9.277344l-40 224.007813c-.6875 3.882812-4.054688 6.601562-7.863281 6.601562zm0 0"/><path d="m455.996094 448c-3.808594 0-7.175782-2.71875-7.863282-6.59375l-40-224c-.777343-4.351562 2.117188-8.503906 6.472657-9.277344 4.328125-.761718 8.503906 2.117188 9.277343 6.472656l40 224c.777344 4.351563-2.121093 8.503907-6.472656 9.277344-.476562.082032-.941406.121094-1.414062.121094zm0 0"/><path d="m432.003906 224h-400c-4.425781 0-8-3.574219-8-8s3.574219-8 8-8h400c4.421875 0 8 3.574219 8 8s-3.578125 8-8 8zm0 0"/><path d="m72.003906 440c-13.464844 0-24-8.785156-24-20s10.535156-20 24-20 24 8.785156 24 20-10.535156 20-24 20zm0-24c-4.960937 0-8 2.585938-8 4s3.039063 4 8 4c4.960938 0 8-2.585938 8-4s-3.039062-4-8-4zm0 0"/><path d="m72.003906 448c-4.425781 0-8-3.574219-8-8v-8c0-4.425781 3.574219-8 8-8 4.421875 0 8 3.574219 8 8v8c0 4.425781-3.578125 8-8 8zm0 0"/><path d="m152.003906 440c-13.464844 0-24-8.785156-24-20s10.535156-20 24-20 24 8.785156 24 20-10.535156 20-24 20zm0-24c-4.960937 0-8 2.585938-8 4s3.039063 4 8 4c4.960938 0 8-2.585938 8-4s-3.039062-4-8-4zm0 0"/><path d="m152.003906 448c-4.425781 0-8-3.574219-8-8v-8c0-4.425781 3.574219-8 8-8 4.421875 0 8 3.574219 8 8v8c0 4.425781-3.578125 8-8 8zm0 0"/><path d="m232.003906 440c-13.464844 0-24-8.785156-24-20s10.535156-20 24-20 24 8.785156 24 20-10.535156 20-24 20zm0-24c-4.960937 0-8 2.585938-8 4s3.039063 4 8 4c4.960938 0 8-2.585938 8-4s-3.039062-4-8-4zm0 0"/><path d="m232.003906 448c-4.425781 0-8-3.574219-8-8v-8c0-4.425781 3.574219-8 8-8 4.421875 0 8 3.574219 8 8v8c0 4.425781-3.578125 8-8 8zm0 0"/><path d="m312.003906 440c-13.464844 0-24-8.785156-24-20s10.535156-20 24-20 24 8.785156 24 20-10.535156 20-24 20zm0-24c-4.960937 0-8 2.585938-8 4s3.039063 4 8 4c4.960938 0 8-2.585938 8-4s-3.039062-4-8-4zm0 0"/><path d="m312.003906 448c-4.425781 0-8-3.574219-8-8v-8c0-4.425781 3.574219-8 8-8 4.421875 0 8 3.574219 8 8v8c0 4.425781-3.578125 8-8 8zm0 0"/><path d="m112.003906 400c-13.464844 0-24-8.785156-24-20s10.535156-20 24-20 24 8.785156 24 20-10.535156 20-24 20zm0-24c-4.960937 0-8 2.585938-8 4s3.039063 4 8 4c4.960938 0 8-2.585938 8-4s-3.039062-4-8-4zm0 0"/><path d="m112.003906 408c-4.425781 0-8-3.574219-8-8v-8c0-4.425781 3.574219-8 8-8 4.421875 0 8 3.574219 8 8v8c0 4.425781-3.578125 8-8 8zm0 0"/><path d="m192.003906 400c-13.464844 0-24-8.785156-24-20s10.535156-20 24-20 24 8.785156 24 20-10.535156 20-24 20zm0-24c-4.960937 0-8 2.585938-8 4s3.039063 4 8 4c4.960938 0 8-2.585938 8-4s-3.039062-4-8-4zm0 0"/><path d="m192.003906 408c-4.425781 0-8-3.574219-8-8v-8c0-4.425781 3.574219-8 8-8 4.421875 0 8 3.574219 8 8v8c0 4.425781-3.578125 8-8 8zm0 0"/><path d="m272.003906 400c-13.464844 0-24-8.785156-24-20s10.535156-20 24-20 24 8.785156 24 20-10.535156 20-24 20zm0-24c-4.960937 0-8 2.585938-8 4s3.039063 4 8 4c4.960938 0 8-2.585938 8-4s-3.039062-4-8-4zm0 0"/><path d="m272.003906 408c-4.425781 0-8-3.574219-8-8v-8c0-4.425781 3.574219-8 8-8 4.421875 0 8 3.574219 8 8v8c0 4.425781-3.578125 8-8 8zm0 0"/><path d="m352.003906 400c-13.464844 0-24-8.785156-24-20s10.535156-20 24-20 24 8.785156 24 20-10.535156 20-24 20zm0-24c-4.960937 0-8 2.585938-8 4s3.039063 4 8 4c4.960938 0 8-2.585938 8-4s-3.039062-4-8-4zm0 0"/><path d="m352.003906 408c-4.425781 0-8-3.574219-8-8v-8c0-4.425781 3.574219-8 8-8 4.421875 0 8 3.574219 8 8v8c0 4.425781-3.578125 8-8 8zm0 0"/><path d="m392.003906 440c-13.464844 0-24-8.785156-24-20s10.535156-20 24-20 24 8.785156 24 20-10.535156 20-24 20zm0-24c-4.960937 0-8 2.585938-8 4s3.039063 4 8 4c4.960938 0 8-2.585938 8-4s-3.039062-4-8-4zm0 0"/><path d="m392.003906 448c-4.425781 0-8-3.574219-8-8v-8c0-4.425781 3.574219-8 8-8 4.421875 0 8 3.574219 8 8v8c0 4.425781-3.578125 8-8 8zm0 0"/><path d="m72.003906 360c-13.464844 0-24-8.785156-24-20s10.535156-20 24-20 24 8.785156 24 20-10.535156 20-24 20zm0-24c-4.960937 0-8 2.585938-8 4s3.039063 4 8 4c4.960938 0 8-2.585938 8-4s-3.039062-4-8-4zm0 0"/><path d="m72.003906 368c-4.425781 0-8-3.574219-8-8v-8c0-4.425781 3.574219-8 8-8 4.421875 0 8 3.574219 8 8v8c0 4.425781-3.578125 8-8 8zm0 0"/><path d="m152.003906 360c-13.464844 0-24-8.785156-24-20s10.535156-20 24-20 24 8.785156 24 20-10.535156 20-24 20zm0-24c-4.960937 0-8 2.585938-8 4s3.039063 4 8 4c4.960938 0 8-2.585938 8-4s-3.039062-4-8-4zm0 0"/><path d="m152.003906 368c-4.425781 0-8-3.574219-8-8v-8c0-4.425781 3.574219-8 8-8 4.421875 0 8 3.574219 8 8v8c0 4.425781-3.578125 8-8 8zm0 0"/><path d="m232.003906 360c-13.464844 0-24-8.785156-24-20s10.535156-20 24-20 24 8.785156 24 20-10.535156 20-24 20zm0-24c-4.960937 0-8 2.585938-8 4s3.039063 4 8 4c4.960938 0 8-2.585938 8-4s-3.039062-4-8-4zm0 0"/><path d="m232.003906 368c-4.425781 0-8-3.574219-8-8v-8c0-4.425781 3.574219-8 8-8 4.421875 0 8 3.574219 8 8v8c0 4.425781-3.578125 8-8 8zm0 0"/><path d="m312.003906 360c-13.464844 0-24-8.785156-24-20s10.535156-20 24-20 24 8.785156 24 20-10.535156 20-24 20zm0-24c-4.960937 0-8 2.585938-8 4s3.039063 4 8 4c4.960938 0 8-2.585938 8-4s-3.039062-4-8-4zm0 0"/><path d="m312.003906 368c-4.425781 0-8-3.574219-8-8v-8c0-4.425781 3.574219-8 8-8 4.421875 0 8 3.574219 8 8v8c0 4.425781-3.578125 8-8 8zm0 0"/><path d="m392.003906 360c-13.464844 0-24-8.785156-24-20s10.535156-20 24-20 24 8.785156 24 20-10.535156 20-24 20zm0-24c-4.960937 0-8 2.585938-8 4s3.039063 4 8 4c4.960938 0 8-2.585938 8-4s-3.039062-4-8-4zm0 0"/><path d="m392.003906 368c-4.425781 0-8-3.574219-8-8v-8c0-4.425781 3.574219-8 8-8 4.421875 0 8 3.574219 8 8v8c0 4.425781-3.578125 8-8 8zm0 0"/><path d="m232.003906 288c-39.703125 0-72-32.296875-72-72 0-4.425781 3.574219-8 8-8 4.421875 0 8 3.574219 8 8 0 30.871094 25.128906 56 56 56s56-25.128906 56-56c0-4.425781 3.574219-8 8-8 4.421875 0 8 3.574219 8 8 0 39.703125-32.296875 72-72 72zm0 0"/><path d="m232.003906 256c-22.054687 0-40-17.945312-40-40 0-4.425781 3.574219-8 8-8 4.421875 0 8 3.574219 8 8 0 13.230469 10.769532 24 24 24 13.230469 0 24-10.769531 24-24 0-4.425781 3.574219-8 8-8 4.421875 0 8 3.574219 8 8 0 22.054688-17.945312 40-40 40zm0 0"/><path d="m232.003906 312c-67.34375 0-128.585937-34.320312-163.824218-91.808594-2.3125-3.765625-1.128907-8.695312 2.640624-11 3.773438-2.3125 8.695313-1.121094 11 2.640625 32.3125 52.703125 88.449219 84.167969 150.183594 84.167969s117.863282-31.472656 150.167969-84.175781c2.304687-3.761719 7.222656-4.945313 11-2.640625 3.769531 2.304687 4.953125 7.230468 2.640625 11-35.234375 57.488281-96.464844 91.816406-163.808594 91.816406zm0 0"/><path d="m63.980469 176h-31.976563c-4.425781 0-8-3.574219-8-8s3.574219-8 8-8h31.976563c4.421875 0 8 3.574219 8 8s-3.578125 8-8 8zm0 0"/><path d="m432.003906 224c-4.425781 0-8-3.574219-8-8v-48c0-4.425781 3.574219-8 8-8 4.421875 0 8 3.574219 8 8v48c0 4.425781-3.578125 8-8 8zm0 0"/><path d="m32.003906 224c-4.425781 0-8-3.574219-8-8v-48c0-4.425781 3.574219-8 8-8 4.421875 0 8 3.574219 8 8v48c0 4.425781-3.578125 8-8 8zm0 0"/><path d="m456.003906 184h-24c-4.425781 0-8-3.574219-8-8s3.574219-8 8-8h24c4.421875 0 8 3.574219 8 8s-3.578125 8-8 8zm0 0"/><path d="m456.003906 216c-4.425781 0-8-3.574219-8-8v-32c0-4.425781 3.574219-8 8-8 4.421875 0 8 3.574219 8 8v32c0 4.425781-3.578125 8-8 8zm0 0"/><path d="m456.003906 216h-24c-4.425781 0-8-3.574219-8-8s3.574219-8 8-8h24c4.421875 0 8 3.574219 8 8s-3.578125 8-8 8zm0 0"/><path d="m32.003906 184h-24c-4.425781 0-7.99999975-3.574219-7.99999975-8s3.57421875-8 7.99999975-8h24c4.421875 0 8 3.574219 8 8s-3.578125 8-8 8zm0 0"/><path d="m8.003906 216c-4.425781 0-7.99999975-3.574219-7.99999975-8v-32c0-4.425781 3.57421875-8 7.99999975-8 4.421875 0 8 3.574219 8 8v32c0 4.425781-3.578125 8-8 8zm0 0"/><path d="m32.003906 216h-24c-4.425781 0-7.99999975-3.574219-7.99999975-8s3.57421875-8 7.99999975-8h24c4.421875 0 8 3.574219 8 8s-3.578125 8-8 8zm0 0"/><path d="m432.003906 176h-32c-4.425781 0-8-3.574219-8-8s3.574219-8 8-8h32c4.421875 0 8 3.574219 8 8s-3.578125 8-8 8zm0 0"/><path d="m232.003906 288c-4.425781 0-8-3.574219-8-8v-8c0-4.425781 3.574219-8 8-8 4.421875 0 8 3.574219 8 8v8c0 4.425781-3.578125 8-8 8zm0 0"/><path d="m264.011719 279.425781c-2.769531 0-5.457031-1.433593-6.9375-4l-4-6.921875c-2.207031-3.824218-.894531-8.71875 2.929687-10.929687 3.816406-2.207031 8.71875-.902344 10.929688 2.929687l4 6.921875c2.207031 3.820313.894531 8.71875-2.929688 10.925781-1.257812.726563-2.632812 1.074219-3.992187 1.074219zm0 0"/><path d="m287.417969 256c-1.359375 0-2.734375-.34375-3.992188-1.070312l-6.917969-4c-3.832031-2.210938-5.144531-7.105469-2.9375-10.929688 2.21875-3.832031 7.105469-5.144531 10.929688-2.929688l6.917969 4c3.832031 2.210938 5.144531 7.113282 2.929687 10.929688-1.480468 2.566406-4.167968 4-6.929687 4zm0 0"/><path d="m296.003906 224h-8c-4.425781 0-8-3.574219-8-8s3.574219-8 8-8h8c4.421875 0 8 3.574219 8 8s-3.578125 8-8 8zm0 0"/><path d="m176.003906 224h-8c-4.425781 0-8-3.574219-8-8s3.574219-8 8-8h8c4.421875 0 8 3.574219 8 8s-3.578125 8-8 8zm0 0"/><path d="m176.585938 256c-2.765626 0-5.453126-1.433594-6.933594-4-2.207032-3.824219-.898438-8.71875 2.925781-10.929688l6.921875-4c3.816406-2.207031 8.71875-.902343 10.925781 2.929688 2.210938 3.824219.898438 8.71875-2.925781 10.929688l-6.921875 4c-1.253906.726562-2.628906 1.070312-3.992187 1.070312zm0 0"/><path d="m199.996094 279.425781c-1.359375 0-2.738282-.347656-3.992188-1.074219-3.832031-2.207031-5.144531-7.113281-2.929687-10.925781l4-6.921875c2.210937-3.832031 7.105469-5.144531 10.929687-2.929687 3.824219 2.21875 5.144532 7.113281 2.929688 10.929687l-4 6.921875c-1.480469 2.566407-4.171875 4-6.9375 4zm0 0"/><path d="m216.066406 223.503906c-4.421875 0-8-3.574218-8-8v-23.503906c0-4.425781 3.578125-8 8-8 4.425782 0 8 3.574219 8 8v23.503906c0 4.417969-3.574218 8-8 8zm0 0"/><path d="m248.003906 223.503906c-4.425781 0-8-3.574218-8-8v-23.503906c0-4.425781 3.574219-8 8-8 4.421875 0 8 3.574219 8 8v23.503906c0 4.417969-3.578125 8-8 8zm0 0"/><path d="m248.003906 200h-31.9375c-4.421875 0-8-3.574219-8-8s3.578125-8 8-8h31.9375c4.421875 0 8 3.574219 8 8s-3.578125 8-8 8zm0 0"/><path d="m232.003906 200c-4.425781 0-8-3.574219-8-8v-8c0-4.425781 3.574219-8 8-8 4.421875 0 8 3.574219 8 8v8c0 4.425781-3.578125 8-8 8zm0 0"/><path d="m264.019531 88h-160c-4.425781 0-8-3.574219-8-8s3.574219-8 8-8h160c4.425781 0 8 3.574219 8 8s-3.574219 8-8 8zm0 0"/><path d="m176.019531 120h-72c-4.425781 0-8-3.574219-8-8s3.574219-8 8-8h72c4.425781 0 8 3.574219 8 8s-3.574219 8-8 8zm0 0"/><path d="m359.988281 120h-151.96875c-4.425781 0-8-3.574219-8-8s3.574219-8 8-8h151.96875c4.421875 0 8 3.574219 8 8s-3.578125 8-8 8zm0 0"/><path d="m184.019531 184h-80c-4.425781 0-8-3.574219-8-8s3.574219-8 8-8h80c4.425781 0 8 3.574219 8 8s-3.574219 8-8 8zm0 0"/><path d="m215.988281 152h-111.96875c-4.425781 0-8-3.574219-8-8s3.574219-8 8-8h111.96875c4.421875 0 8 3.574219 8 8s-3.578125 8-8 8zm0 0"/><path d="m359.988281 152h-112c-4.425781 0-8-3.574219-8-8s3.574219-8 8-8h112c4.421875 0 8 3.574219 8 8s-3.578125 8-8 8zm0 0"/><path d="m359.988281 88h-63.96875c-4.425781 0-8-3.574219-8-8s3.574219-8 8-8h63.96875c4.421875 0 8 3.574219 8 8s-3.578125 8-8 8zm0 0"/></svg>