<svg height="512pt" viewBox="-32 0 512 512" width="512pt" xmlns="http://www.w3.org/2000/svg"><path d="m184 512h-144c-22.054688 0-40-17.945312-40-40v-304c0-22.054688 17.945312-40 40-40h144c22.054688 0 40 17.945312 40 40v304c0 22.054688-17.945312 40-40 40zm-144-368c-13.230469 0-24 10.769531-24 24v304c0 13.230469 10.769531 24 24 24h144c13.230469 0 24-10.769531 24-24v-304c0-13.230469-10.769531-24-24-24zm0 0"/><path d="m112 368c-22.054688 0-40-17.945312-40-40s17.945312-40 40-40 40 17.945312 40 40-17.945312 40-40 40zm0-64c-13.230469 0-24 10.769531-24 24s10.769531 24 24 24 24-10.769531 24-24-10.769531-24-24-24zm0 0"/><path d="m56 208c-13.230469 0-24-10.769531-24-24s10.769531-24 24-24 24 10.769531 24 24-10.769531 24-24 24zm0-32c-4.414062 0-8 3.59375-8 8s3.585938 8 8 8 8-3.59375 8-8-3.585938-8-8-8zm0 0"/><path d="m96.238281 192c-4.421875 0-8.039062-3.585938-8.039062-8s3.535156-8 7.953125-8h.085937c4.417969 0 8 3.585938 8 8s-3.582031 8-8 8zm0 0"/><path d="m168 480h-112c-4.425781 0-8-3.574219-8-8s3.574219-8 8-8h112c4.425781 0 8 3.574219 8 8s-3.574219 8-8 8zm0 0"/><path d="m440 440c-4.425781 0-8-3.574219-8-8 0-22.054688-17.945312-40-40-40-4.425781 0-8-3.574219-8-8s3.574219-8 8-8c30.871094 0 56 25.128906 56 56 0 4.425781-3.574219 8-8 8zm0 0"/><path d="m392 392h-72c-4.425781 0-8-3.574219-8-8s3.574219-8 8-8h72c4.425781 0 8 3.574219 8 8s-3.574219 8-8 8zm0 0"/><path d="m440 512c-4.425781 0-8-3.574219-8-8v-72c0-4.425781 3.574219-8 8-8s8 3.574219 8 8v72c0 4.425781-3.574219 8-8 8zm0 0"/><path d="m218.984375 391.808594c-4.425781 0-8-3.578125-8-8v-44.847656c0-4.425782 3.574219-8 8-8 4.421875 0 8 3.574218 8 8v44.847656c0 4.414062-3.578125 8-8 8zm0 0"/><path d="m320 392c-4.425781 0-8-3.574219-8-8v-38.441406c0-4.421875 3.574219-8 8-8s8 3.578125 8 8v38.441406c0 4.425781-3.574219 8-8 8zm0 0"/><path d="m280 359.9375c-23.921875 0-47.449219-6.296875-68.023438-18.210938-3.824218-2.207031-5.136718-7.109374-2.914062-10.925781 2.210938-3.824219 7.089844-5.160156 10.929688-2.914062 18.152343 10.503906 38.894531 16.058593 60.007812 16.058593 4.425781 0 8 3.574219 8 8 0 4.421876-3.574219 7.992188-8 7.992188zm0 0"/><path d="m280 359.9375c-4.425781 0-8-3.578125-8-8 0-4.425781 3.574219-8 8-8 57.257812 0 106.785156-40.730469 117.761719-96.832031.847656-4.335938 4.992187-7.195313 9.390625-6.320313 4.335937.847656 7.167968 5.046875 6.3125 9.382813-12.449219 63.609375-68.578125 109.769531-133.464844 109.769531zm0 0"/><path d="m424 168c-4.425781 0-8-3.585938-8-8 0-79.398438-64.601562-144-144-144-71.265625 0-131.070312 50.992188-142.207031 121.257812-.6875 4.359376-4.785157 7.328126-9.152344 6.644532-4.367187-.6875-7.34375-4.789063-6.648437-9.160156 12.375-78.078126 78.832031-134.742188 158.007812-134.742188 88.222656 0 160 71.777344 160 160 0 4.414062-3.574219 8-8 8zm0 0"/><path d="m424 352c-4.425781 0-8-3.574219-8-8v-182.320312c0-4.414063 3.574219-8 8-8s8 3.585937 8 8v182.320312c0 4.425781-3.574219 8-8 8zm0 0"/><path d="m424 264c-.992188 0-2-.183594-2.96875-.566406l-208.015625-83.203125c-4.105469-1.644531-6.105469-6.292969-4.464844-10.398438s6.320313-6.078125 10.402344-4.457031l208.015625 83.199219c4.101562 1.648437 6.101562 6.296875 4.464844 10.402343-1.257813 3.121094-4.265625 5.023438-7.433594 5.023438zm0 0"/><path d="m408 367.9375c-4.425781 0-8-3.578125-8-8 0-4.425781 3.574219-8 8-8 4.414062 0 8-3.585938 8-8 0-4.425781 3.574219-8 8-8s8 3.574219 8 8c0 13.230469-10.769531 24-24 24zm0 0"/><path d="m408 368h-88c-4.425781 0-8-3.574219-8-8s3.574219-8 8-8h88c4.425781 0 8 3.574219 8 8s-3.574219 8-8 8zm0 0"/><path d="m184 144c-4.425781 0-8-3.585938-8-8v-99.9375c0-4.414062 3.574219-8 8-8s8 3.585938 8 8v99.9375c0 4.414062-3.574219 8-8 8zm0 0"/><path d="m267.992188 424c-1.433594 0-2.871094-.382812-4.183594-1.183594l-52-32c-3.761719-2.3125-4.929688-7.242187-2.617188-11.007812 2.304688-3.761719 7.214844-4.9375 11.007813-2.617188l52 32c3.761719 2.3125 4.929687 7.242188 2.617187 11.007813-1.511718 2.449219-4.136718 3.800781-6.824218 3.800781zm0 0"/><path d="m268.007812 424c-2.6875 0-5.3125-1.351562-6.824218-3.808594-2.3125-3.765625-1.144532-8.695312 2.617187-11.007812l52-32c3.785157-2.320313 8.695313-1.144532 11.007813 2.617187 2.3125 3.765625 1.144531 8.695313-2.617188 11.007813l-52 32c-1.3125.808594-2.75 1.191406-4.183594 1.191406zm0 0"/><path d="m267.992188 464c-1.519532 0-3.0625-.441406-4.433594-1.34375l-52.03125-34.6875c-3.679688-2.457031-4.671875-7.417969-2.214844-11.097656 2.449219-3.679688 7.398438-4.671875 11.09375-2.214844l52.035156 34.6875c3.679688 2.457031 4.671875 7.417969 2.214844 11.097656-1.535156 2.3125-4.082031 3.558594-6.664062 3.558594zm0 0"/><path d="m268.007812 464c-2.582031 0-5.128906-1.246094-6.664062-3.558594-2.457031-3.679687-1.464844-8.640625 2.214844-11.097656l108-72c3.6875-2.449219 8.648437-1.464844 11.097656 2.214844 2.457031 3.679687 1.464844 8.640625-2.214844 11.097656l-108 72c-1.371094.902344-2.914062 1.34375-4.433594 1.34375zm0 0"/></svg>