<svg height="512pt" viewBox="-24 0 512 512" width="512pt" xmlns="http://www.w3.org/2000/svg"><path d="m320 480h-176c-30.871094 0-56-25.128906-56-56 0-4.425781 3.574219-8 8-8s8 3.574219 8 8c0 22.054688 17.945312 40 40 40h176c22.054688 0 40-17.945312 40-40 0-4.425781 3.574219-8 8-8s8 3.574219 8 8c0 30.871094-25.128906 56-56 56zm0 0"/><path d="m64.238281 256c-4.421875 0-8.039062-3.574219-8.039062-8s3.535156-8 7.953125-8h.085937c4.417969 0 8 3.574219 8 8s-3.582031 8-8 8zm0 0"/><path d="m208.238281 40c-4.421875 0-8.039062-3.574219-8.039062-8s3.535156-8 7.953125-8h.085937c4.417969 0 8 3.574219 8 8s-3.582031 8-8 8zm0 0"/><path d="m256 40h-24c-4.425781 0-8-3.574219-8-8s3.574219-8 8-8h24c4.425781 0 8 3.574219 8 8s-3.574219 8-8 8zm0 0"/><path d="m368 56.015625c-4.425781 0-8-3.574219-8-8 0-17.648437-14.351562-32-32-32-4.425781 0-8-3.574219-8-8 0-4.421875 3.574219-8 8-8 26.472656 0 48 21.527344 48 48 0 4.425781-3.574219 8-8 8zm0 0"/><path d="m96 56c-4.425781 0-8-3.574219-8-8 0-26.472656 21.527344-48 48-48 4.425781 0 8 3.574219 8 8s-3.574219 8-8 8c-17.648438 0-32 14.351562-32 32 0 4.425781-3.574219 8-8 8zm0 0"/><path d="m328 16h-192c-4.425781 0-8-3.574219-8-8s3.574219-8 8-8h192c4.425781 0 8 3.574219 8 8s-3.574219 8-8 8zm0 0"/><path d="m368 64.015625h-272c-4.425781 0-8-3.574219-8-8 0-4.421875 3.574219-8 8-8h272c4.425781 0 8 3.578125 8 8 0 4.425781-3.574219 8-8 8zm0 0"/><path d="m320 512h-176c-30.871094 0-56-25.128906-56-56v-112c0-4.425781 3.574219-8 8-8s8 3.574219 8 8v112c0 22.054688 17.945312 40 40 40h176c22.054688 0 40-17.945312 40-40v-200c0-4.425781 3.574219-8 8-8s8 3.574219 8 8v200c0 30.871094-25.128906 56-56 56zm0 0"/><path d="m368 416h-272c-4.425781 0-8-3.574219-8-8s3.574219-8 8-8h272c4.425781 0 8 3.574219 8 8s-3.574219 8-8 8zm0 0"/><path d="m232 464c-13.230469 0-24-10.769531-24-24s10.769531-24 24-24 24 10.769531 24 24-10.769531 24-24 24zm0-32c-4.414062 0-8 3.585938-8 8s3.585938 8 8 8 8-3.585938 8-8-3.585938-8-8-8zm0 0"/><path d="m200 352h-192c-4.425781 0-8-3.574219-8-8v-144c0-4.425781 3.574219-8 8-8h192c4.425781 0 8 3.574219 8 8v144c0 4.425781-3.574219 8-8 8zm-184-16h176v-128h-176zm0 0"/><path d="m456 264h-192c-4.425781 0-8-3.574219-8-8v-144c0-4.425781 3.574219-8 8-8h192c4.425781 0 8 3.574219 8 8v144c0 4.425781-3.574219 8-8 8zm-184-16h176v-128h-176zm0 0"/><path d="m96 208c-4.425781 0-8-3.574219-8-8v-152c0-4.425781 3.574219-8 8-8s8 3.574219 8 8v152c0 4.425781-3.574219 8-8 8zm0 0"/><path d="m368 120c-4.425781 0-8-3.574219-8-8v-63.984375c0-4.421875 3.574219-8 8-8s8 3.578125 8 8v63.984375c0 4.425781-3.574219 8-8 8zm0 0"/><path d="m344 224c-4.425781 0-8-3.574219-8-8v-64c0-4.425781 3.574219-8 8-8s8 3.574219 8 8v64c0 4.425781-3.574219 8-8 8zm0 0"/><path d="m344.007812 224c-2.785156 0-5.480468-1.449219-6.953124-4.03125-2.191407-3.832031-.855469-8.722656 2.976562-10.914062l56-32c3.832031-2.207032 8.722656-.855469 10.914062 2.976562 2.191407 3.832031.855469 8.722656-2.976562 10.914062l-56 32c-1.25.71875-2.617188 1.054688-3.960938 1.054688zm0 0"/><path d="m399.992188 192c-1.34375 0-2.710938-.335938-3.960938-1.054688l-56-32c-3.832031-2.191406-5.167969-7.082031-2.976562-10.914062 2.183593-3.832031 7.074218-5.191406 10.914062-2.976562l56 32c3.832031 2.191406 5.167969 7.082031 2.976562 10.914062-1.472656 2.582031-4.167968 4.03125-6.953124 4.03125zm0 0"/><path d="m87.992188 352c-1.671876 0-3.351563-.519531-4.792969-1.601562-3.535157-2.644532-4.253907-7.664063-1.597657-11.191407l48-64c2.644532-3.535156 7.664063-4.238281 11.191407-1.597656 3.535156 2.648437 4.253906 7.664063 1.597656 11.191406l-48 64c-1.558594 2.09375-3.957031 3.199219-6.398437 3.199219zm0 0"/><path d="m184.007812 352c-2.441406 0-4.832031-1.105469-6.40625-3.199219l-48-64c-2.65625-3.527343-1.9375-8.542969 1.597657-11.191406 3.519531-2.65625 8.535156-1.945313 11.191406 1.597656l48 64c2.65625 3.527344 1.9375 8.546875-1.597656 11.191407-1.433594 1.082031-3.113281 1.601562-4.785157 1.601562zm0 0"/><path d="m39.992188 352c-1.753907 0-3.511719-.566406-4.992188-1.753906-3.449219-2.765625-4.007812-7.796875-1.246094-11.246094l32-40c2.773438-3.433594 7.796875-4.007812 11.246094-1.246094 3.449219 2.765625 4.007812 7.796875 1.246094 11.246094l-32 40c-1.582032 1.96875-3.902344 3-6.253906 3zm0 0"/><path d="m95.742188 341.671875c-2.351563 0-4.671876-1.03125-6.253907-3l-23.734375-29.671875c-2.761718-3.457031-2.195312-8.488281 1.246094-11.246094 3.464844-2.761718 8.488281-2.179687 11.246094 1.246094l23.738281 29.671875c2.757813 3.457031 2.191406 8.488281-1.25 11.25-1.476563 1.183594-3.238281 1.75-4.992187 1.75zm0 0"/></svg>