<svg height="512pt" viewBox="-112 0 512 512" width="512pt" xmlns="http://www.w3.org/2000/svg"><path d="m232 216c-2.128906 0-4.160156-.839844-5.65625-2.34375l-18.695312-18.695312c-3.90625-3.898438-6.03125-9.03125-6.03125-14.503907 0-5.472656 2.125-10.601562 5.992187-14.472656 6.300781-6.328125 16.726563-7.695313 24.382813-3.441406 7.625-4.238281 18.070312-2.910157 24.414062 3.464843 3.851562 3.839844 5.976562 8.976563 5.976562 14.449219 0 5.472657-2.125 10.597657-5.992187 14.472657l-18.734375 18.726562c-1.496094 1.503906-3.527344 2.34375-5.65625 2.34375zm-9.929688-40c-1.183593 0-2.292968.464844-3.132812 1.296875-.859375.855469-1.320312 1.976563-1.320312 3.167969s.460937 2.304687 1.292968 3.144531l13.089844 13.078125 13.078125-13.078125c.84375-.839844 1.304687-1.960937 1.304687-3.152344 0-1.191406-.460937-2.304687-1.292968-3.144531-1.730469-1.726562-4.632813-1.703125-6.3125-.015625l-1.160156 1.144531c-3.113282 3.078125-8.128907 3.078125-11.234376 0l-1.109374-1.097656c-.890626-.878906-2.007813-1.34375-3.203126-1.34375zm0 0"/><path d="m56 232c-2.128906 0-4.160156-.839844-5.65625-2.34375l-18.695312-18.695312c-3.90625-3.898438-6.03125-9.03125-6.03125-14.503907 0-5.472656 2.125-10.601562 5.992187-14.472656 6.300781-6.328125 16.734375-7.703125 24.382813-3.441406 7.632812-4.238281 18.078124-2.910157 24.414062 3.464843 3.851562 3.839844 5.976562 8.976563 5.976562 14.449219 0 5.472657-2.125 10.597657-5.992187 14.472657l-18.734375 18.726562c-1.496094 1.503906-3.527344 2.34375-5.65625 2.34375zm-9.929688-40c-1.183593 0-2.292968.464844-3.132812 1.296875-.859375.855469-1.320312 1.976563-1.320312 3.167969s.460937 2.304687 1.292968 3.144531l13.089844 13.078125 13.078125-13.078125c.84375-.839844 1.304687-1.960937 1.304687-3.152344 0-1.191406-.460937-2.304687-1.292968-3.144531-1.730469-1.738281-4.632813-1.703125-6.3125-.015625l-1.160156 1.144531c-3.113282 3.078125-8.128907 3.078125-11.234376 0l-1.109374-1.097656c-.890626-.878906-2.007813-1.34375-3.203126-1.34375zm0 0"/><path d="m144 184c-2.128906 0-4.160156-.839844-5.65625-2.34375l-18.695312-18.695312c-3.90625-3.898438-6.03125-9.03125-6.03125-14.503907 0-5.472656 2.125-10.601562 5.992187-14.472656 6.3125-6.328125 16.726563-7.703125 24.382813-3.441406 7.625-4.238281 18.078124-2.910157 24.414062 3.464843 3.851562 3.839844 5.976562 8.976563 5.976562 14.449219 0 5.472657-2.125 10.597657-5.992187 14.472657l-18.734375 18.726562c-1.496094 1.503906-3.527344 2.34375-5.65625 2.34375zm-9.929688-40c-1.183593 0-2.292968.464844-3.132812 1.296875-.859375.855469-1.320312 1.976563-1.320312 3.167969s.460937 2.304687 1.292968 3.144531l13.089844 13.078125 13.078125-13.078125c.84375-.839844 1.304687-1.960937 1.304687-3.152344 0-1.191406-.460937-2.304687-1.292968-3.144531-1.730469-1.726562-4.632813-1.703125-6.3125-.015625l-1.160156 1.144531c-3.113282 3.078125-8.128907 3.078125-11.234376 0l-1.109374-1.097656c-.890626-.878906-2.007813-1.34375-3.203126-1.34375zm0 0"/><path d="m280 56.015625c-4.425781 0-8-3.574219-8-8 0-17.648437-14.351562-32-32-32-4.425781 0-8-3.574219-8-8 0-4.421875 3.574219-8 8-8 26.472656 0 48 21.527344 48 48 0 4.425781-3.574219 8-8 8zm0 0"/><path d="m8 56c-4.425781 0-8-3.574219-8-8 0-26.472656 21.527344-48 48-48 4.425781 0 8 3.574219 8 8s-3.574219 8-8 8c-17.648438 0-32 14.351562-32 32 0 4.425781-3.574219 8-8 8zm0 0"/><path d="m240 16h-192c-4.425781 0-8-3.574219-8-8s3.574219-8 8-8h192c4.425781 0 8 3.574219 8 8s-3.574219 8-8 8zm0 0"/><path d="m232 512h-176c-30.871094 0-56-25.128906-56-56v-408c0-4.425781 3.574219-8 8-8s8 3.574219 8 8v408c0 22.054688 17.945312 40 40 40h176c22.054688 0 40-17.945312 40-40v-408c0-4.425781 3.574219-8 8-8s8 3.574219 8 8v408c0 30.871094-25.128906 56-56 56zm0 0"/><path d="m280 448h-272c-4.425781 0-8-3.574219-8-8s3.574219-8 8-8h272c4.425781 0 8 3.574219 8 8s-3.574219 8-8 8zm0 0"/><path d="m144 496c-13.230469 0-24-10.769531-24-24s10.769531-24 24-24 24 10.769531 24 24-10.769531 24-24 24zm0-32c-4.414062 0-8 3.585938-8 8s3.585938 8 8 8 8-3.585938 8-8-3.585938-8-8-8zm0 0"/><path d="m88 320.015625c-4.425781 0-8-3.574219-8-8v-64.03125c0-4.425781 3.574219-8 8-8s8 3.574219 8 8v64.03125c0 4.425781-3.574219 8-8 8zm0 0"/><path d="m200 320.015625c-4.425781 0-8-3.574219-8-8v-2.34375c0-4.425781 3.574219-8 8-8s8 3.574219 8 8v2.34375c0 4.425781-3.574219 8-8 8zm0 0"/><path d="m72 423.984375c-4.425781 0-8-3.578125-8-8 0-17.648437 14.351562-32 32-32 4.425781 0 8 3.574219 8 8 0 4.421875-3.574219 8-8 8-8.824219 0-16 7.175781-16 16 0 4.421875-3.574219 8-8 8zm0 0"/><path d="m120 400.03125h-24c-4.425781 0-8-3.574219-8-8 0-4.421875 3.574219-8 8-8h24c4.425781 0 8 3.578125 8 8 0 4.425781-3.574219 8-8 8zm0 0"/><path d="m72 448.015625c-4.425781 0-8-3.574219-8-8v-24.03125c0-4.425781 3.574219-8 8-8s8 3.574219 8 8v24.03125c0 4.425781-3.574219 8-8 8zm0 0"/><path d="m216 423.984375c-4.425781 0-8-3.578125-8-8 0-8.824219-7.175781-16-16-16-4.425781 0-8-3.578125-8-8 0-4.425781 3.574219-8 8-8 17.648438 0 32 14.351563 32 32 0 4.421875-3.574219 8-8 8zm0 0"/><path d="m192 400.03125h-24c-4.425781 0-8-3.574219-8-8 0-4.421875 3.574219-8 8-8h24c4.425781 0 8 3.578125 8 8 0 4.425781-3.574219 8-8 8zm0 0"/><path d="m216 448.015625c-4.425781 0-8-3.574219-8-8v-24.03125c0-4.425781 3.574219-8 8-8s8 3.574219 8 8v24.03125c0 4.425781-3.574219 8-8 8zm0 0"/><path d="m120 400.03125c-4.425781 0-8-3.574219-8-8v-29.472656c0-4.421875 3.574219-8 8-8s8 3.578125 8 8v29.472656c0 4.425781-3.574219 8-8 8zm0 0"/><path d="m168 399.984375c-4.425781 0-8-3.578125-8-8v-29.425781c0-4.421875 3.574219-8 8-8s8 3.578125 8 8v29.425781c0 4.421875-3.574219 8-8 8zm0 0"/><path d="m144 375.953125c-35.289062 0-64-28.695313-64-63.96875 0-4.425781 3.574219-8 8-8s8 3.574219 8 8c0 26.457031 21.527344 47.96875 48 47.96875s48-21.511719 48-47.96875c0-4.425781 3.574219-8 8-8s8 3.574219 8 8c0 35.273437-28.710938 63.96875-64 63.96875zm0 0"/><path d="m143.992188 415.984375c-1.519532 0-3.0625-.441406-4.433594-1.34375l-24-16c-3.679688-2.457031-4.671875-7.417969-2.214844-11.097656 2.449219-3.679688 7.410156-4.664063 11.097656-2.214844l24 16c3.679688 2.457031 4.671875 7.414063 2.214844 11.097656-1.535156 2.308594-4.082031 3.558594-6.664062 3.558594zm0 0"/><path d="m144.007812 415.984375c-2.582031 0-5.128906-1.25-6.664062-3.558594-2.457031-3.683593-1.464844-8.640625 2.214844-11.097656l24-16c3.6875-2.449219 8.648437-1.464844 11.097656 2.214844 2.457031 3.679687 1.464844 8.640625-2.214844 11.097656l-24 16c-1.371094.902344-2.914062 1.34375-4.433594 1.34375zm0 0"/><path d="m216 279.984375c-4.425781 0-8-3.578125-8-8 0-30.871094-25.128906-56-56-56-14.257812 0-26.894531 7.742187-34.992188 14.238281-3.457031 2.769532-8.480468 2.210938-11.246093-1.230468-2.769531-3.449219-2.210938-8.488282 1.230469-11.25 14.480468-11.613282 30.039062-17.757813 45.007812-17.757813 39.703125 0 72 32.296875 72 72 0 4.421875-3.574219 8-8 8zm0 0"/><path d="m216 359.984375c-4.425781 0-8-3.578125-8-8 0-30.871094-25.128906-56-56-56-4.425781 0-8-3.578125-8-8 0-4.425781 3.574219-8 8-8 39.703125 0 72 32.296875 72 72 0 4.421875-3.574219 8-8 8zm0 0"/><path d="m88 295.984375c-4.425781 0-8-3.578125-8-8 0-4.425781 3.574219-8 8-8 8.824219 0 16-7.175781 16-16 0-4.425781 3.574219-8 8-8s8 3.574219 8 8c0 17.648437-14.351562 32-32 32zm0 0"/><path d="m88 255.984375c-4.425781 0-8-3.578125-8-8 0-17.648437 14.351562-32 32-32 4.425781 0 8 3.574219 8 8 0 4.421875-3.574219 8-8 8-8.824219 0-16 7.175781-16 16 0 4.421875-3.574219 8-8 8zm0 0"/><path d="m136 295.984375c-17.648438 0-32-14.351563-32-32 0-4.425781 3.574219-8 8-8s8 3.574219 8 8c0 8.824219 7.175781 16 16 16 4.425781 0 8 3.574219 8 8 0 4.421875-3.574219 8-8 8zm0 0"/><path d="m112 271.984375c-4.425781 0-8-3.578125-8-8v-40c0-4.425781 3.574219-8 8-8s8 3.574219 8 8v40c0 4.421875-3.574219 8-8 8zm0 0"/><path d="m216 359.984375c-4.425781 0-8-3.578125-8-8v-80c0-4.425781 3.574219-8 8-8s8 3.574219 8 8v80c0 4.421875-3.574219 8-8 8zm0 0"/><path d="m152 295.984375h-16c-4.425781 0-8-3.578125-8-8 0-4.425781 3.574219-8 8-8h16c4.425781 0 8 3.574219 8 8 0 4.421875-3.574219 8-8 8zm0 0"/><path d="m64 88c-17.648438 0-32-14.351562-32-32s14.351562-32 32-32 32 14.351562 32 32-14.351562 32-32 32zm0-48c-8.824219 0-16 7.175781-16 16s7.175781 16 16 16 16-7.175781 16-16-7.175781-16-16-16zm0 0"/><path d="m144 88c-17.648438 0-32-14.351562-32-32s14.351562-32 32-32 32 14.351562 32 32-14.351562 32-32 32zm0-48c-8.824219 0-16 7.175781-16 16s7.175781 16 16 16 16-7.175781 16-16-7.175781-16-16-16zm0 0"/><path d="m224 88c-17.648438 0-32-14.351562-32-32s14.351562-32 32-32 32 14.351562 32 32-14.351562 32-32 32zm0-48c-8.824219 0-16 7.175781-16 16s7.175781 16 16 16 16-7.175781 16-16-7.175781-16-16-16zm0 0"/><path d="m280 112h-272c-4.425781 0-8-3.574219-8-8s3.574219-8 8-8h272c4.425781 0 8 3.574219 8 8s-3.574219 8-8 8zm0 0"/></svg>