<svg height="512pt" viewBox="-64 0 512 512" width="512pt" xmlns="http://www.w3.org/2000/svg"><path d="m120 208c-4.425781 0-8-3.574219-8-8 0-22.054688-17.945312-40-40-40-4.425781 0-8-3.574219-8-8s3.574219-8 8-8c30.871094 0 56 25.128906 56 56 0 4.425781-3.578125 8-8 8zm0 0"/><path d="m72 421.558594c-4.425781 0-8-3.574219-8-8v-261.558594c0-4.425781 3.574219-8 8-8 4.421875 0 8 3.574219 8 8v261.558594c0 4.425781-3.578125 8-8 8zm0 0"/><path d="m328 368h-192c-13.234375 0-24-10.769531-24-24v-320c0-13.230469 10.765625-24 24-24h192c13.230469 0 24 10.769531 24 24 0 4.425781-3.578125 8-8 8-4.425781 0-8-3.574219-8-8 0-4.414062-3.585938-8-8-8h-192c-4.417969 0-8 3.585938-8 8v320c0 4.414062 3.582031 8 8 8h192c4.414062 0 8-3.585938 8-8 0-4.425781 3.574219-8 8-8 4.421875 0 8 3.574219 8 8 0 13.230469-10.769531 24-24 24zm0 0"/><path d="m344 151c-4.425781 0-8-3.574219-8-8v-119c0-4.425781 3.574219-8 8-8 4.421875 0 8 3.574219 8 8v119c0 4.425781-3.578125 8-8 8zm0 0"/><path d="m344 296.007812c-17.648438 0-32-14.351562-32-32 0-17.648437 14.351562-32 32-32 4.421875 0 8 3.578126 8 8 0 4.425782-3.578125 8-8 8-8.824219 0-16 7.175782-16 16 0 8.824219 7.175781 16 16 16 4.421875 0 8 3.578126 8 8 0 4.425782-3.578125 8-8 8zm0 0"/><path d="m344 344c-17.648438 0-32-14.351562-32-32s14.351562-32 32-32c4.421875 0 8 3.574219 8 8s-3.578125 8-8 8c-8.824219 0-16 7.175781-16 16s7.175781 16 16 16c4.421875 0 8 3.574219 8 8s-3.578125 8-8 8zm0 0"/><path d="m352 295.992188c-4.425781 0-8-3.578126-8-8 0-4.425782 3.574219-8 8-8 8.824219 0 16-7.175782 16-16 0-8.824219-7.175781-16-16-16-4.425781 0-8-3.578126-8-8 0-4.425782 3.574219-8 8-8 17.648438 0 32 14.351562 32 32 0 17.648437-14.351562 32-32 32zm0 0"/><path d="m352 344c-4.425781 0-8-3.574219-8-8s3.574219-8 8-8c8.824219 0 16-7.175781 16-16s-7.175781-16-16-16c-4.425781 0-8-3.574219-8-8s3.574219-8 8-8c17.648438 0 32 14.351562 32 32s-14.351562 32-32 32zm0 0"/><path d="m352 296h-8c-4.425781 0-8-3.574219-8-8s3.574219-8 8-8h8c4.421875 0 8 3.574219 8 8s-3.578125 8-8 8zm0 0"/><path d="m352 344h-8c-4.425781 0-8-3.574219-8-8s3.574219-8 8-8h8c4.421875 0 8 3.574219 8 8s-3.578125 8-8 8zm0 0"/><path d="m344 248.007812c-17.648438 0-32-14.351562-32-32 0-17.648437 14.351562-32 32-32 4.421875 0 8 3.578126 8 8 0 4.425782-3.578125 8-8 8-8.824219 0-16 7.175782-16 16 0 8.824219 7.175781 16 16 16 4.421875 0 8 3.578126 8 8 0 4.425782-3.578125 8-8 8zm0 0"/><path d="m344 200c-17.648438 0-32-14.351562-32-32s14.351562-32 32-32c4.421875 0 8 3.574219 8 8s-3.578125 8-8 8c-8.824219 0-16 7.175781-16 16s7.175781 16 16 16c4.421875 0 8 3.574219 8 8s-3.578125 8-8 8zm0 0"/><path d="m352 247.992188c-4.425781 0-8-3.578126-8-8 0-4.425782 3.574219-8 8-8 8.824219 0 16-7.175782 16-16 0-8.824219-7.175781-16-16-16-4.425781 0-8-3.578126-8-8 0-4.425782 3.574219-8 8-8 17.648438 0 32 14.351562 32 32 0 17.648437-14.351562 32-32 32zm0 0"/><path d="m352 200c-4.425781 0-8-3.574219-8-8s3.574219-8 8-8c8.824219 0 16-7.175781 16-16s-7.175781-16-16-16c-4.425781 0-8-3.574219-8-8s3.574219-8 8-8c17.648438 0 32 14.351562 32 32s-14.351562 32-32 32zm0 0"/><path d="m352 200.007812h-8c-4.425781 0-8-3.574218-8-8 0-4.421874 3.574219-8 8-8h8c4.421875 0 8 3.578126 8 8 0 4.425782-3.578125 8-8 8zm0 0"/><path d="m352 152h-8c-4.425781 0-8-3.574219-8-8s3.574219-8 8-8h8c4.421875 0 8 3.574219 8 8s-3.578125 8-8 8zm0 0"/><path d="m352 247.992188h-8c-4.425781 0-8-3.578126-8-8 0-4.425782 3.574219-8 8-8h8c4.421875 0 8 3.574218 8 8 0 4.421874-3.578125 8-8 8zm0 0"/><path d="m224 474.441406c-1.914062 0-3.832031-.679687-5.359375-2.066406-3.28125-2.949219-3.539063-8.015625-.578125-11.296875l96-106.4375c2.96875-3.289063 8.023438-3.535156 11.296875-.578125 3.28125 2.953125 3.535156 8.015625.574219 11.296875l-96 106.441406c-1.574219 1.742188-3.757813 2.640625-5.933594 2.640625zm0 0"/><path d="m240 480c-.875 0-1.761719-.144531-2.625-.449219l-184-64c-4.175781-1.453125-6.382812-6.007812-4.929688-10.175781 1.457032-4.167969 6.035157-6.382812 10.175782-4.925781l184 64c4.175781 1.453125 6.386718 6.007812 4.929687 10.175781-1.144531 3.304688-4.238281 5.375-7.550781 5.375zm0 0"/><path d="m7.992188 512c-1.203126 0-2.425782-.273438-3.570313-.839844-3.949219-1.976562-5.550781-6.785156-3.574219-10.734375l48-96c1.984375-3.953125 6.78125-5.53125 10.734375-3.578125 3.953125 1.976563 5.550781 6.785156 3.578125 10.738282l-48 96c-1.410156 2.796874-4.234375 4.414062-7.167968 4.414062zm0 0"/><path d="m223.992188 512c-1.203126 0-2.425782-.273438-3.570313-.839844-3.949219-1.976562-5.550781-6.785156-3.574219-10.734375l16-32c1.976563-3.960937 6.78125-5.546875 10.734375-3.578125 3.953125 1.976563 5.550781 6.785156 3.578125 10.738282l-16 32c-1.410156 2.796874-4.234375 4.414062-7.167968 4.414062zm0 0"/><path d="m344 352c-4.425781 0-8-3.574219-8-8v-8c0-4.425781 3.574219-8 8-8 4.421875 0 8 3.574219 8 8v8c0 4.425781-3.578125 8-8 8zm0 0"/><path d="m72.238281 472c-4.421875 0-8.039062-3.574219-8.039062-8s3.535156-8 7.953125-8h.085937c4.417969 0 8 3.574219 8 8s-3.582031 8-8 8zm0 0"/><path d="m232 344c-13.234375 0-24-10.769531-24-24s10.765625-24 24-24c13.230469 0 24 10.769531 24 24s-10.769531 24-24 24zm0-32c-4.417969 0-8 3.585938-8 8s3.582031 8 8 8c4.414062 0 8-3.585938 8-8s-3.585938-8-8-8zm0 0"/><path d="m208.238281 48c-4.421875 0-8.039062-3.574219-8.039062-8s3.535156-8 7.953125-8h.085937c4.417969 0 8 3.574219 8 8s-3.582031 8-8 8zm0 0"/><path d="m256 48h-24c-4.425781 0-8-3.574219-8-8s3.574219-8 8-8h24c4.421875 0 8 3.574219 8 8s-3.578125 8-8 8zm0 0"/><path d="m288 232h-112c-4.425781 0-8-3.574219-8-8v-80c0-4.425781 3.574219-8 8-8h112c4.421875 0 8 3.574219 8 8v80c0 4.425781-3.578125 8-8 8zm-104-16h96v-64h-96zm0 0"/><path d="m232 200c-1.839844 0-3.695312-.632812-5.203125-1.929688l-56-48c-3.359375-2.871093-3.75-7.917968-.863281-11.269531 2.882812-3.367187 7.929687-3.746093 11.273437-.863281l56 48c3.359375 2.871094 3.75 7.917969.863281 11.269531-1.574218 1.847657-3.824218 2.792969-6.070312 2.792969zm0 0"/><path d="m232 200c-2.25 0-4.496094-.945312-6.074219-2.800781-2.878906-3.351563-2.496093-8.398438.863281-11.269531l56-48c3.363282-2.875 8.410157-2.503907 11.273438.863281 2.878906 3.351562 2.496094 8.398437-.863281 11.269531l-56 48c-1.503907 1.304688-3.359375 1.9375-5.199219 1.9375zm0 0"/><path d="m288 232c-2.226562 0-4.441406-.921875-6.023438-2.734375l-40-45.714844c-2.90625-3.320312-2.570312-8.375.757813-11.285156 3.3125-2.914063 8.367187-2.585937 11.289063.757813l40 45.710937c2.902343 3.320313 2.566406 8.378906-.761719 11.289063-1.511719 1.328124-3.390625 1.976562-5.261719 1.976562zm0 0"/><path d="m176 232c-1.875 0-3.753906-.648438-5.265625-1.976562-3.328125-2.910157-3.664063-7.96875-.757813-11.289063l40-45.710937c2.910157-3.34375 7.972657-3.671876 11.285157-.757813 3.328125 2.910156 3.664062 7.964844.761719 11.285156l-40 45.714844c-1.585938 1.8125-3.800782 2.734375-6.023438 2.734375zm0 0"/></svg>