<svg height="512pt" viewBox="-64 0 512 512" width="512pt" xmlns="http://www.w3.org/2000/svg"><path d="m48 512c-1.464844 0-2.921875-.398438-4.199219-1.191406-2.359375-1.457032-3.800781-4.03125-3.800781-6.808594v-24h-32c-4.425781 0-8-3.574219-8-8v-272c0-4.425781 3.574219-8 8-8h368c4.425781 0 8 3.574219 8 8v272c0 4.425781-3.574219 8-8 8h-262.121094l-62.304687 31.160156c-1.125.558594-2.351563.839844-3.574219.839844zm-32-48h32c4.425781 0 8 3.574219 8 8v19.054688l52.414062-26.207032c1.105469-.558594 2.339844-.847656 3.578126-.847656h256.007812v-256h-352zm0 0"/><path d="m336 200c-4.425781 0-8-3.574219-8-8 0-95.398438-76.9375-176-168-176-4.425781 0-8-3.574219-8-8s3.574219-8 8-8c99.742188 0 184 87.921875 184 192 0 4.425781-3.574219 8-8 8zm0 0"/><path d="m48 128c-4.425781 0-8-3.574219-8-8s3.574219-8 8-8c57.34375 0 104-46.65625 104-104 0-4.425781 3.574219-8 8-8s8 3.574219 8 8c0 66.167969-53.832031 120-120 120zm0 0"/><path d="m48 208c-4.425781 0-8-3.574219-8-8v-80c0-4.425781 3.574219-8 8-8s8 3.574219 8 8v80c0 4.425781-3.574219 8-8 8zm0 0"/><path d="m336 208c-4.425781 0-8-3.574219-8-8v-8c0-4.425781 3.574219-8 8-8s8 3.574219 8 8v8c0 4.425781-3.574219 8-8 8zm0 0"/><path d="m304 208c-4.425781 0-8-3.574219-8-8v-8c0-64.648438-44.566406-124.519531-102.742188-139.785156-15.136718 49.457031-55.394531 88.625-105.257812 102.304687v45.480469c0 4.425781-3.574219 8-8 8s-8-3.574219-8-8v-51.710938c0-3.738281 2.574219-6.96875 6.214844-7.800781 49.457031-11.28125 89.335937-50.425781 101.609375-99.703125 1.03125-4.144531 5.128906-6.761718 9.296875-5.921875 68.902344 13.441407 122.878906 82.457031 122.878906 157.136719v8c0 4.425781-3.574219 8-8 8zm0 0"/><path d="m216.128906 264h-152c-4.425781 0-8-3.574219-8-8s3.574219-8 8-8h152c4.421875 0 8 3.574219 8 8s-3.585937 8-8 8zm0 0"/><path d="m120.128906 296h-56c-4.425781 0-8-3.574219-8-8s3.574219-8 8-8h56c4.421875 0 8 3.574219 8 8s-3.585937 8-8 8zm0 0"/><path d="m320 296h-167.871094c-4.425781 0-8-3.574219-8-8s3.574219-8 8-8h167.871094c4.425781 0 8 3.574219 8 8s-3.574219 8-8 8zm0 0"/><path d="m144.128906 360h-80c-4.425781 0-8-3.574219-8-8s3.574219-8 8-8h80c4.421875 0 8 3.574219 8 8s-3.585937 8-8 8zm0 0"/><path d="m320 360h-143.871094c-4.425781 0-8-3.574219-8-8s3.574219-8 8-8h143.871094c4.425781 0 8 3.574219 8 8s-3.574219 8-8 8zm0 0"/><path d="m240.097656 328h-175.96875c-4.425781 0-8-3.574219-8-8s3.574219-8 8-8h175.96875c4.421875 0 8 3.574219 8 8s-3.585937 8-8 8zm0 0"/><path d="m320 328h-47.902344c-4.425781 0-8-3.574219-8-8s3.574219-8 8-8h47.902344c4.425781 0 8 3.574219 8 8s-3.574219 8-8 8zm0 0"/><path d="m320 264h-71.871094c-4.425781 0-8-3.574219-8-8s3.574219-8 8-8h71.871094c4.425781 0 8 3.574219 8 8s-3.574219 8-8 8zm0 0"/><path d="m216.128906 392h-152c-4.425781 0-8-3.574219-8-8s3.574219-8 8-8h152c4.421875 0 8 3.574219 8 8s-3.585937 8-8 8zm0 0"/><path d="m120.128906 424h-56c-4.425781 0-8-3.574219-8-8s3.574219-8 8-8h56c4.421875 0 8 3.574219 8 8s-3.585937 8-8 8zm0 0"/><path d="m320 424h-167.871094c-4.425781 0-8-3.574219-8-8s3.574219-8 8-8h167.871094c4.425781 0 8 3.574219 8 8s-3.574219 8-8 8zm0 0"/><path d="m320 392h-71.871094c-4.425781 0-8-3.574219-8-8s3.574219-8 8-8h71.871094c4.425781 0 8 3.574219 8 8s-3.574219 8-8 8zm0 0"/></svg>