<svg height="512pt" viewBox="0 0 512 512" width="512pt" xmlns="http://www.w3.org/2000/svg"><path d="m344 480h-176c-30.871094 0-56-25.128906-56-56 0-4.425781 3.574219-8 8-8s8 3.574219 8 8c0 22.054688 17.945312 40 40 40h176c22.054688 0 40-17.945312 40-40 0-4.425781 3.574219-8 8-8s8 3.574219 8 8c0 30.871094-25.128906 56-56 56zm0 0"/><path d="m232.238281 40c-4.421875 0-8.039062-3.574219-8.039062-8s3.535156-8 7.953125-8h.085937c4.417969 0 8 3.574219 8 8s-3.582031 8-8 8zm0 0"/><path d="m280 40h-24c-4.425781 0-8-3.574219-8-8s3.574219-8 8-8h24c4.425781 0 8 3.574219 8 8s-3.574219 8-8 8zm0 0"/><path d="m392 56.015625c-4.425781 0-8-3.574219-8-8 0-17.648437-14.351562-32-32-32-4.425781 0-8-3.574219-8-8 0-4.421875 3.574219-8 8-8 26.472656 0 48 21.527344 48 48 0 4.425781-3.574219 8-8 8zm0 0"/><path d="m120 56c-4.425781 0-8-3.574219-8-8 0-26.472656 21.527344-48 48-48 4.425781 0 8 3.574219 8 8s-3.574219 8-8 8c-17.648438 0-32 14.351562-32 32 0 4.425781-3.574219 8-8 8zm0 0"/><path d="m352 16h-192c-4.425781 0-8-3.574219-8-8s3.574219-8 8-8h192c4.425781 0 8 3.574219 8 8s-3.574219 8-8 8zm0 0"/><path d="m392 64.015625h-272c-4.425781 0-8-3.574219-8-8 0-4.421875 3.574219-8 8-8h272c4.425781 0 8 3.578125 8 8 0 4.425781-3.574219 8-8 8zm0 0"/><path d="m344 512h-176c-30.871094 0-56-25.128906-56-56 0-4.425781 3.574219-8 8-8s8 3.574219 8 8c0 22.054688 17.945312 40 40 40h176c22.054688 0 40-17.945312 40-40 0-4.425781 3.574219-8 8-8s8 3.574219 8 8c0 30.871094-25.128906 56-56 56zm0 0"/><path d="m392 416h-272c-4.425781 0-8-3.574219-8-8s3.574219-8 8-8h272c4.425781 0 8 3.574219 8 8s-3.574219 8-8 8zm0 0"/><path d="m256 464c-13.230469 0-24-10.769531-24-24s10.769531-24 24-24 24 10.769531 24 24-10.769531 24-24 24zm0-32c-4.414062 0-8 3.585938-8 8s3.585938 8 8 8 8-3.585938 8-8-3.585938-8-8-8zm0 0"/><path d="m344 328h-176c-4.425781 0-8-3.574219-8-8v-176c0-4.425781 3.574219-8 8-8h176c4.425781 0 8 3.574219 8 8v176c0 4.425781-3.574219 8-8 8zm-168-16h160v-160h-160zm0 0"/><path d="m344 104h-176c-4.425781 0-8-3.574219-8-8v-40c0-4.425781 3.574219-8 8-8s8 3.574219 8 8v32h160v-32c0-4.425781 3.574219-8 8-8s8 3.574219 8 8v40c0 4.425781-3.574219 8-8 8zm0 0"/><path d="m344 416c-4.425781 0-8-3.574219-8-8v-32h-160v32c0 4.425781-3.574219 8-8 8s-8-3.574219-8-8v-40c0-4.425781 3.574219-8 8-8h176c4.425781 0 8 3.574219 8 8v40c0 4.425781-3.574219 8-8 8zm0 0"/><path d="m239.726562 328c-1.671874 0-3.351562-.519531-4.789062-1.601562-3.539062-2.644532-4.257812-7.664063-1.601562-11.191407l48-64c2.648437-3.535156 7.671874-4.238281 11.191406-1.597656 3.535156 2.648437 4.257812 7.664063 1.601562 11.191406l-48 64c-1.570312 2.09375-3.960937 3.199219-6.402344 3.199219zm0 0"/><path d="m335.742188 328c-2.4375 0-4.832032-1.105469-6.40625-3.199219l-48-64c-2.65625-3.527343-1.9375-8.542969 1.601562-11.191406 3.519531-2.648437 8.542969-1.945313 11.191406 1.597656l48 64c2.65625 3.527344 1.933594 8.546875-1.601562 11.191407-1.429688 1.082031-3.113282 1.601562-4.785156 1.601562zm0 0"/><path d="m191.726562 328c-1.75 0-3.511718-.566406-4.992187-1.753906-3.445313-2.765625-4.007813-7.796875-1.246094-11.246094l32-40c2.777344-3.433594 7.792969-4.015625 11.246094-1.246094 3.449219 2.765625 4.007813 7.796875 1.25 11.246094l-32 40c-1.585937 1.96875-3.90625 3-6.257813 3zm0 0"/><path d="m247.480469 317.671875c-2.351563 0-4.671875-1.03125-6.257813-3l-23.734375-29.671875c-2.761719-3.457031-2.191406-8.488281 1.246094-11.246094 3.464844-2.769531 8.488281-2.1875 11.25 1.246094l23.734375 29.671875c2.761719 3.457031 2.191406 8.488281-1.246094 11.25-1.480468 1.183594-3.25 1.75-4.992187 1.75zm0 0"/><path d="m228 232c-11.03125 0-20-8.96875-20-20s8.96875-20 20-20 20 8.96875 20 20-8.96875 20-20 20zm0-24c-2.199219 0-4 1.800781-4 4s1.800781 4 4 4 4-1.800781 4-4-1.800781-4-4-4zm0 0"/><path d="m72 240c-2.121094 0-4.160156-.839844-5.65625-2.34375l-22.488281-22.488281c-4.328125-4.320313-6.71875-10.078125-6.71875-16.207031-.007813-6.136719 2.382812-11.898438 6.71875-16.234376 7.296875-7.328124 19.480469-8.6875 28.136719-3.40625 8.65625-5.25 20.832031-3.945312 28.167968 3.433594 4.3125 4.308594 6.703125 10.078125 6.695313 16.207032 0 6.136718-2.390625 11.886718-6.726563 16.214843l-22.480468 22.480469c-1.488282 1.503906-3.519532 2.34375-5.648438 2.34375zm-11.910156-48c-1.859375 0-3.59375.71875-4.898438 2.03125-1.328125 1.328125-2.046875 3.074219-2.046875 4.929688 0 1.847656.71875 3.582031 2.023438 4.886718l16.832031 16.832032 16.871094-16.863282c1.265625-1.265625 1.984375-3 1.984375-4.847656 0-1.855469-.71875-3.601562-2.03125-4.90625-2.640625-2.671875-7.207031-2.636719-9.832031-.015625l-1.367188 1.351563c-3.128906 3.082031-8.128906 3.082031-11.25 0l-1.328125-1.320313c-1.351563-1.351563-3.101563-2.078125-4.957031-2.078125zm0 0"/><path d="m136 280h-128c-4.425781 0-8-3.574219-8-8v-128c0-4.425781 3.574219-8 8-8h128c4.425781 0 8 3.574219 8 8v46.105469l7.160156 14.308593c1.128906 2.25 1.128906 4.90625 0 7.160157l-7.160156 14.304687v46.121094c0 4.425781-3.574219 8-8 8zm-120-16h112v-40.007812c0-1.238282.289062-2.472657.839844-3.578126l6.207031-12.421874-6.207031-12.425782c-.550782-1.101562-.839844-2.335937-.839844-3.574218v-39.992188h-112zm0 0"/><path d="m120 152c-4.425781 0-8-3.574219-8-8v-95.984375c0-4.421875 3.574219-8 8-8s8 3.578125 8 8v95.984375c0 4.425781-3.574219 8-8 8zm0 0"/><path d="m120 464c-4.425781 0-8-3.574219-8-8v-184c0-4.425781 3.574219-8 8-8s8 3.574219 8 8v184c0 4.425781-3.574219 8-8 8zm0 0"/><path d="m440 288c-2.128906 0-4.160156-.839844-5.65625-2.34375l-22.441406-22.441406c-4.375-4.367188-6.765625-10.125-6.765625-16.253906-.007813-6.136719 2.382812-11.898438 6.71875-16.234376 7.289062-7.320312 19.480469-8.6875 28.136719-3.40625 8.65625-5.25 20.839843-3.945312 28.167968 3.433594 4.3125 4.308594 6.703125 10.078125 6.695313 16.207032 0 6.136718-2.390625 11.886718-6.726563 16.214843l-22.480468 22.480469c-1.488282 1.503906-3.519532 2.34375-5.648438 2.34375zm-11.910156-48c-1.859375 0-3.59375.71875-4.898438 2.03125-1.328125 1.328125-2.046875 3.074219-2.046875 4.929688 0 1.847656.71875 3.582031 2.023438 4.886718l16.832031 16.832032 16.832031-16.824219c1.3125-1.3125 2.03125-3.046875 2.03125-4.894531 0-1.855469-.71875-3.601563-2.03125-4.90625-2.640625-2.671876-7.207031-2.640626-9.832031-.015626l-1.367188 1.351563c-3.128906 3.082031-8.128906 3.082031-11.25 0l-1.328124-1.3125c-1.359376-1.351563-3.109376-2.078125-4.964844-2.078125zm0 0"/><path d="m504 328h-128c-4.425781 0-8-3.574219-8-8v-46.121094l-7.160156-14.3125c-1.128906-2.246094-1.128906-4.902344 0-7.160156l7.160156-14.300781v-46.105469c0-4.425781 3.574219-8 8-8h128c4.425781 0 8 3.574219 8 8v128c0 4.425781-3.574219 8-8 8zm-120-16h112v-112h-112v39.992188c0 1.238281-.289062 2.472656-.839844 3.574218l-6.207031 12.425782 6.207031 12.421874c.550782 1.105469.839844 2.339844.839844 3.578126zm0 0"/><path d="m392 200c-4.425781 0-8-3.574219-8-8v-143.984375c0-4.421875 3.574219-8 8-8s8 3.578125 8 8v143.984375c0 4.425781-3.574219 8-8 8zm0 0"/><path d="m392 464c-4.425781 0-8-3.574219-8-8v-136c0-4.425781 3.574219-8 8-8s8 3.574219 8 8v136c0 4.425781-3.574219 8-8 8zm0 0"/></svg>