<svg height="512pt" viewBox="-12 0 512 512" width="512pt" xmlns="http://www.w3.org/2000/svg"><path d="m152 136c-2.121094 0-4.160156-.839844-5.65625-2.34375l-46.855469-46.855469c-7.398437-7.375-11.488281-17.214843-11.488281-27.6875 0-10.472656 4.089844-20.3125 11.496094-27.699219 7.335937-7.382812 17.167968-11.46875 27.664062-11.46875 9.167969 0 17.847656 3.117188 24.839844 8.839844 7-5.730468 15.6875-8.839844 24.847656-8.839844 10.496094 0 20.328125 4.085938 27.695313 11.496094 7.386719 7.359375 11.464843 17.191406 11.464843 27.671875s-4.078124 20.3125-11.488281 27.695313l-2.824219 2.777344-44.046874 44.078124c-1.488282 1.496094-3.519532 2.335938-5.648438 2.335938zm-24.839844-100.054688c-6.199218 0-12.007812 2.40625-16.34375 6.773438-4.402344 4.386719-6.816406 10.191406-6.816406 16.394531 0 6.199219 2.414062 12.007813 6.792969 16.367188l41.207031 41.207031 41.265625-41.246094c4.328125-4.320312 6.742187-10.136718 6.742187-16.328125 0-6.191406-2.414062-12.007812-6.785156-16.371093-8.734375-8.789063-24.039062-8.757813-32.832031 0l-2.757813 2.746093c-3.128906 3.113281-8.160156 3.113281-11.28125 0l-2.75-2.734375c-4.394531-4.394531-10.234374-6.808594-16.441406-6.808594zm0 0"/><path d="m440 72c-4.425781 0-8-3.574219-8-8 0-4.414062-3.585938-8-8-8-4.425781 0-8-3.574219-8-8s3.574219-8 8-8c13.230469 0 24 10.769531 24 24 0 4.425781-3.574219 8-8 8zm0 0"/><path d="m424 128c-4.425781 0-8-3.574219-8-8s3.574219-8 8-8c4.414062 0 8-3.585938 8-8 0-4.425781 3.574219-8 8-8s8 3.574219 8 8c0 13.230469-10.769531 24-24 24zm0 0"/><path d="m440 112c-4.425781 0-8-3.574219-8-8v-40c0-4.425781 3.574219-8 8-8s8 3.574219 8 8v40c0 4.425781-3.574219 8-8 8zm0 0"/><path d="m424 56h-16c-4.425781 0-8-3.574219-8-8s3.574219-8 8-8h16c4.425781 0 8 3.574219 8 8s-3.574219 8-8 8zm0 0"/><path d="m424 128h-48c-4.425781 0-8-3.574219-8-8s3.574219-8 8-8h48c4.425781 0 8 3.574219 8 8s-3.574219 8-8 8zm0 0"/><path d="m408 56c-4.425781 0-8-3.574219-8-8v-28c0-4.425781 3.574219-8 8-8s8 3.574219 8 8v28c0 4.425781-3.574219 8-8 8zm0 0"/><path d="m376.007812 56c-.734374 0-1.472656-.105469-2.199218-.304688-4.25-1.214843-6.710938-5.648437-5.503906-9.886718l8-28c1.214843-4.257813 5.671874-6.671875 9.886718-5.503906 4.25 1.214843 6.710938 5.648437 5.503906 9.886718l-8 28c-1.007812 3.519532-4.207031 5.808594-7.6875 5.808594zm0 0"/><path d="m384 28c-.726562 0-1.472656-.105469-2.199219-.3125-4.25-1.214844-6.703125-5.648438-5.488281-9.886719 1.390625-4.871093 5.101562-17.800781 19.6875-17.800781 11.03125 0 20 8.96875 20 20 0 4.425781-3.574219 8-8 8s-8-3.574219-8-8c0-2.199219-1.800781-4-4-4-1.472656 0-2.527344 0-4.3125 6.199219-1.007812 3.519531-4.199219 5.800781-7.6875 5.800781zm0 0"/><path d="m376 128c-2.046875 0-4.097656-.785156-5.65625-2.34375l-8-8c-3.128906-3.128906-3.128906-8.183594 0-11.3125s8.183594-3.128906 11.3125 0l8 8c3.128906 3.128906 3.128906 8.183594 0 11.3125-1.558594 1.558594-3.609375 2.34375-5.65625 2.34375zm0 0"/><path d="m376 56h-24c-4.425781 0-8-3.574219-8-8s3.574219-8 8-8h24c4.425781 0 8 3.574219 8 8s-3.574219 8-8 8zm0 0"/><path d="m368 120h-16c-4.425781 0-8-3.574219-8-8s3.574219-8 8-8h16c4.425781 0 8 3.574219 8 8s-3.574219 8-8 8zm0 0"/><path d="m352 128h-32c-4.425781 0-8-3.574219-8-8v-80c0-4.425781 3.574219-8 8-8h32c4.425781 0 8 3.574219 8 8v80c0 4.425781-3.574219 8-8 8zm-24-16h16v-64h-16zm0 0"/><path d="m432 304c-30.871094 0-56-25.128906-56-56s25.128906-56 56-56 56 25.128906 56 56-25.128906 56-56 56zm0-96c-22.054688 0-40 17.945312-40 40s17.945312 40 40 40 40-17.945312 40-40-17.945312-40-40-40zm0 0"/><path d="m432 272c-4.425781 0-8-3.574219-8-8v-32c0-4.425781 3.574219-8 8-8s8 3.574219 8 8v32c0 4.425781-3.574219 8-8 8zm0 0"/><path d="m448 256h-32c-4.425781 0-8-3.574219-8-8s3.574219-8 8-8h32c4.425781 0 8 3.574219 8 8s-3.574219 8-8 8zm0 0"/><path d="m24 264c-13.230469 0-24-10.769531-24-24s10.769531-24 24-24 24 10.769531 24 24-10.769531 24-24 24zm0-32c-4.414062 0-8 3.585938-8 8s3.585938 8 8 8 8-3.585938 8-8-3.585938-8-8-8zm0 0"/><path d="m96 224c-13.230469 0-24-10.769531-24-24s10.769531-24 24-24 24 10.769531 24 24-10.769531 24-24 24zm0-32c-4.414062 0-8 3.585938-8 8s3.585938 8 8 8 8-3.585938 8-8-3.585938-8-8-8zm0 0"/><path d="m96 304c-13.230469 0-24-10.769531-24-24s10.769531-24 24-24 24 10.769531 24 24-10.769531 24-24 24zm0-32c-4.414062 0-8 3.585938-8 8s3.585938 8 8 8 8-3.585938 8-8-3.585938-8-8-8zm0 0"/><path d="m82.007812 280.230469c-1.3125 0-2.648437-.320313-3.871093-1.007813l-44.046875-24.46875c-3.867188-2.144531-5.257813-7.019531-3.113282-10.875 2.144532-3.855468 7.023438-5.269531 10.871094-3.109375l44.046875 24.46875c3.867188 2.144531 5.257813 7.019531 3.113281 10.875-1.464843 2.640625-4.183593 4.117188-7 4.117188zm0 0"/><path d="m37.992188 240.230469c-2.816407 0-5.535157-1.488281-7-4.117188-2.152344-3.855469-.761719-8.738281 3.113281-10.875l44.046875-24.46875c3.855468-2.167969 8.734375-.753906 10.871094 3.109375 2.152343 3.855469.761718 8.738282-3.113282 10.875l-44.046875 24.46875c-1.222656.6875-2.558593 1.007813-3.871093 1.007813zm0 0"/><path d="m136 463.984375c-4.425781 0-8-3.578125-8-8 0-30.863281 25.128906-55.984375 56-55.984375 4.425781 0 8 3.574219 8 8s-3.574219 8-8 8c-22.054688 0-40 17.9375-40 39.984375 0 4.421875-3.574219 8-8 8zm0 0"/><path d="m208 416h-24c-4.425781 0-8-3.574219-8-8s3.574219-8 8-8h24c4.425781 0 8 3.574219 8 8s-3.574219 8-8 8zm0 0"/><path d="m136 496c-4.425781 0-8-3.574219-8-8v-29.71875c0-4.425781 3.574219-8 8-8s8 3.574219 8 8v29.71875c0 4.425781-3.574219 8-8 8zm0 0"/><path d="m360 463.984375c-4.425781 0-8-3.578125-8-8 0-22.046875-17.945312-39.984375-40-39.984375-4.425781 0-8-3.574219-8-8s3.574219-8 8-8c30.871094 0 56 25.121094 56 55.984375 0 4.421875-3.574219 8-8 8zm0 0"/><path d="m312 416h-24c-4.425781 0-8-3.574219-8-8s3.574219-8 8-8h24c4.425781 0 8 3.574219 8 8s-3.574219 8-8 8zm0 0"/><path d="m360 496c-4.425781 0-8-3.574219-8-8v-29.71875c0-4.425781 3.574219-8 8-8s8 3.574219 8 8v29.71875c0 4.425781-3.574219 8-8 8zm0 0"/><path d="m344 512h-192c-4.425781 0-8-3.574219-8-8s3.574219-8 8-8h192c4.425781 0 8 3.574219 8 8s-3.574219 8-8 8zm0 0"/><path d="m208 416c-4.425781 0-8-3.574219-8-8v-25.609375c0-4.421875 3.574219-8 8-8s8 3.578125 8 8v25.609375c0 4.425781-3.574219 8-8 8zm0 0"/><path d="m288 416c-4.425781 0-8-3.574219-8-8v-25.609375c0-4.421875 3.574219-8 8-8s8 3.578125 8 8v25.609375c0 4.425781-3.574219 8-8 8zm0 0"/><path d="m248 400c-52.9375 0-96-43.0625-96-96 0-4.425781 3.574219-8 8-8s8 3.574219 8 8c0 44.113281 35.886719 80 80 80s80-35.886719 80-80c0-4.425781 3.574219-8 8-8s8 3.574219 8 8c0 52.9375-43.0625 96-96 96zm0 0"/><path d="m160 312c-4.425781 0-8-3.574219-8-8v-72c0-4.425781 3.574219-8 8-8s8 3.574219 8 8v72c0 4.425781-3.574219 8-8 8zm0 0"/><path d="m336 312.015625c-4.425781 0-8-3.574219-8-8v-72.015625c0-4.425781 3.574219-8 8-8s8 3.574219 8 8v72.015625c0 4.425781-3.574219 8-8 8zm0 0"/><path d="m336 240c-4.425781 0-8-3.574219-8-8 0-17.648438-14.351562-32-32-32-4.425781 0-8-3.574219-8-8s3.574219-8 8-8c26.472656 0 48 21.527344 48 48 0 4.425781-3.574219 8-8 8zm0 0"/><path d="m296 200c-4.425781 0-8-3.574219-8-8v-32c0-4.425781 3.574219-8 8-8s8 3.574219 8 8v32c0 4.425781-3.574219 8-8 8zm0 0"/><path d="m296 168h-64c-4.425781 0-8-3.574219-8-8s3.574219-8 8-8h64c4.425781 0 8 3.574219 8 8s-3.574219 8-8 8zm0 0"/><path d="m160 240c-4.425781 0-8-3.574219-8-8 0-44.113281 35.886719-80 80-80 4.425781 0 8 3.574219 8 8s-3.574219 8-8 8c-35.289062 0-64 28.710938-64 64 0 4.425781-3.574219 8-8 8zm0 0"/><path d="m336 280c-2.046875 0-4.097656-.785156-5.65625-2.34375l-24-24c-3.128906-3.128906-3.128906-8.183594 0-11.3125s8.183594-3.128906 11.3125 0l24 24c3.128906 3.128906 3.128906 8.183594 0 11.3125-1.558594 1.558594-3.609375 2.34375-5.65625 2.34375zm0 0"/><path d="m248 272c-35.878906 0-66.503906-16.265625-67.792969-16.953125-3.886719-2.09375-5.34375-6.933594-3.253906-10.832031 2.09375-3.878906 6.925781-5.375 10.832031-3.261719.277344.152344 28.472656 15.046875 60.214844 15.046875 31.894531 0 59.929688-14.886719 60.207031-15.046875 3.871094-2.089844 8.746094-.632813 10.832031 3.253906 2.089844 3.890625.632813 8.746094-3.253906 10.832031-1.28125.695313-31.90625 16.960938-67.785156 16.960938zm0 0"/><path d="m160 280c-2.046875 0-4.097656-.785156-5.65625-2.34375-3.128906-3.128906-3.128906-8.183594 0-11.3125l24-24c3.128906-3.128906 8.183594-3.128906 11.3125 0s3.128906 8.183594 0 11.3125l-24 24c-1.558594 1.558594-3.609375 2.34375-5.65625 2.34375zm0 0"/><path d="m224 432c-2.046875 0-4.097656-.785156-5.65625-2.34375l-16-16c-3.128906-3.128906-3.128906-8.183594 0-11.3125s8.183594-3.128906 11.3125 0l16 16c3.128906 3.128906 3.128906 8.183594 0 11.3125-1.558594 1.558594-3.609375 2.34375-5.65625 2.34375zm0 0"/><path d="m224 432c-3.351562 0-6.472656-2.121094-7.585938-5.472656-1.398437-4.191406.867188-8.726563 5.058594-10.121094l24-8c4.230469-1.414062 8.71875.867188 10.121094 5.058594 1.398438 4.191406-.867188 8.726562-5.058594 10.121094l-24 8c-.847656.277343-1.703125.414062-2.535156.414062zm0 0"/><path d="m272 432c-2.046875 0-4.097656-.785156-5.65625-2.34375-3.128906-3.128906-3.128906-8.183594 0-11.3125l16-16c3.128906-3.128906 8.183594-3.128906 11.3125 0s3.128906 8.183594 0 11.3125l-16 16c-1.558594 1.558594-3.609375 2.34375-5.65625 2.34375zm0 0"/><path d="m272 432c-.832031 0-1.6875-.136719-2.527344-.414062l-24-8c-4.183594-1.394532-6.457031-5.921876-5.058594-10.121094 1.402344-4.183594 5.882813-6.472656 10.121094-5.058594l24 8c4.183594 1.394531 6.457032 5.921875 5.058594 10.121094-1.121094 3.351562-4.242188 5.472656-7.59375 5.472656zm0 0"/><path d="m344 512c-4.425781 0-8-3.574219-8-8s3.574219-8 8-8c4.414062 0 8-3.585938 8-8 0-4.425781 3.574219-8 8-8s8 3.574219 8 8c0 13.230469-10.769531 24-24 24zm0 0"/><path d="m152 512c-13.230469 0-24-10.769531-24-24 0-4.425781 3.574219-8 8-8s8 3.574219 8 8c0 4.414062 3.585938 8 8 8 4.425781 0 8 3.574219 8 8s-3.574219 8-8 8zm0 0"/><path d="m248.238281 488c-4.421875 0-8.039062-3.574219-8.039062-8s3.535156-8 7.953125-8h.085937c4.417969 0 8 3.574219 8 8s-3.582031 8-8 8zm0 0"/><path d="m248.238281 456c-4.421875 0-8.039062-3.574219-8.039062-8s3.535156-8 7.953125-8h.085937c4.417969 0 8 3.574219 8 8s-3.582031 8-8 8zm0 0"/></svg>