<svg height="512pt" viewBox="-15 0 511 512" width="512pt" xmlns="http://www.w3.org/2000/svg"><path d="m328.738281 504c-4.421875 0-8.039062-3.574219-8.039062-8s3.535156-8 7.953125-8h.085937c4.417969 0 8 3.574219 8 8s-3.582031 8-8 8zm0 0"/><path d="m352.5 196c-4.425781 0-8-3.574219-8-8 0-6.617188-5.382812-12-12-12s-12 5.382812-12 12c0 4.425781-3.574219 8-8 8s-8-3.574219-8-8c0-15.441406 12.558594-28 28-28s28 12.558594 28 28c0 4.425781-3.574219 8-8 8zm0 0"/><path d="m392.492188 291.992188c-4.425782 0-8-3.578126-8-8 0-6.609376-5.382813-11.992188-12-11.992188-6.609376 0-11.992188 5.382812-11.992188 11.992188 0 4.421874-3.574219 8-8 8s-8-3.578126-8-8c0-15.441407 12.550781-27.992188 27.992188-27.992188 15.441406 0 28 12.550781 28 27.992188 0 4.421874-3.578126 8-8 8zm0 0"/><path d="m432.492188 299.992188c-4.425782 0-8-3.578126-8-8 0-6.609376-5.382813-11.992188-11.992188-11.992188-6.617188 0-12 5.382812-12 11.992188 0 4.421874-3.574219 8-8 8s-8-3.578126-8-8c0-15.441407 12.558594-27.992188 28-27.992188s27.992188 12.550781 27.992188 27.992188c0 4.421874-3.578126 8-8 8zm0 0"/><path d="m472.484375 307.992188c-4.425781 0-8-3.578126-8-8 0-6.609376-5.382813-11.992188-11.992187-11.992188-6.609376 0-11.992188 5.382812-11.992188 11.992188 0 4.421874-3.574219 8-8 8s-8-3.578126-8-8c0-15.441407 12.550781-27.992188 27.992188-27.992188 15.441406 0 27.992187 12.550781 27.992187 27.992188 0 4.421874-3.578125 8-8 8zm0 0"/><path d="m352.5 312c-4.425781 0-8-3.574219-8-8v-116c0-4.425781 3.574219-8 8-8s8 3.574219 8 8v116c0 4.425781-3.574219 8-8 8zm0 0"/><path d="m312.5 360c-4.425781 0-8-3.574219-8-8v-164c0-4.425781 3.574219-8 8-8s8 3.574219 8 8v164c0 4.425781-3.574219 8-8 8zm0 0"/><path d="m392.5 312.007812c-4.425781 0-8-3.574218-8-8v-20.007812c0-4.425781 3.574219-8 8-8s8 3.574219 8 8v20.007812c0 4.425782-3.574219 8-8 8zm0 0"/><path d="m432.5 312c-4.425781 0-8-3.574219-8-8v-12.007812c0-4.425782 3.574219-8 8-8s8 3.574218 8 8v12.007812c0 4.425781-3.574219 8-8 8zm0 0"/><path d="m472.5 440c-4.425781 0-8-3.574219-8-8v-132.007812c0-4.425782 3.574219-8 8-8s8 3.574218 8 8v132.007812c0 4.425781-3.574219 8-8 8zm0 0"/><path d="m312.5 336c-4.425781 0-8-3.574219-8-8 0-13.230469-10.769531-24-24-24-4.425781 0-8-3.574219-8-8s3.574219-8 8-8c22.054688 0 40 17.945312 40 40 0 4.425781-3.574219 8-8 8zm0 0"/><path d="m280.5 424c-4.425781 0-8-3.574219-8-8v-120c0-4.425781 3.574219-8 8-8s8 3.574219 8 8v120c0 4.425781-3.574219 8-8 8zm0 0"/><path d="m312.507812 480c-2.785156 0-5.480468-1.449219-6.953124-4.03125l-32-56c-2.191407-3.832031-.855469-8.722656 2.976562-10.914062 3.832031-2.207032 8.722656-.855469 10.914062 2.976562l32 56c2.191407 3.832031.855469 8.722656-2.976562 10.914062-1.25.71875-2.617188 1.054688-3.960938 1.054688zm0 0"/><path d="m456.5 480c-.992188 0-2-.175781-2.96875-.566406-4.101562-1.640625-6.101562-6.296875-4.464844-10.402344l16-40c1.640625-4.121094 6.328125-6.101562 10.402344-4.464844 4.101562 1.640625 6.101562 6.296875 4.464844 10.402344l-16 40c-1.257813 3.136719-4.265625 5.03125-7.433594 5.03125zm0 0"/><path d="m472.5 512c-4.425781 0-8-3.574219-8-8v-24h-160v24c0 4.425781-3.574219 8-8 8s-8-3.574219-8-8v-32c0-4.425781 3.574219-8 8-8h176c4.425781 0 8 3.574219 8 8v32c0 4.425781-3.574219 8-8 8zm0 0"/><path d="m176.5 270.167969c-2.046875 0-4.097656-.785157-5.65625-2.34375l-86.167969-86.160157c-26.863281-26.863281-26.863281-70.59375.007813-97.480468 13.023437-13.015625 30.328125-20.183594 48.738281-20.183594 15.863281 0 30.902344 5.320312 43.078125 15.113281 12.175781-9.792969 27.214844-15.113281 43.070312-15.113281 18.417969 0 35.730469 7.167969 48.753907 20.191406 26.863281 26.871094 26.863281 70.601563 0 97.472656l-86.167969 86.160157c-1.558594 1.558593-3.609375 2.34375-5.65625 2.34375zm-43.078125-190.167969c-14.136719 0-27.425781 5.503906-37.425781 15.503906-20.632813 20.640625-20.640625 54.214844-.007813 74.847656l80.511719 80.496094 80.503906-80.503906c20.632813-20.632812 20.632813-54.199219 0-74.839844-10-10-23.296875-15.503906-37.441406-15.503906-14.132812 0-27.421875 5.503906-37.414062 15.503906-3 3-8.3125 3-11.3125 0-9.984376-10-23.273438-15.503906-37.414063-15.503906zm0 0"/><path d="m40.5 136c-4.425781 0-8-3.574219-8-8 0-52.929688 43.0625-95.992188 96-96 4.414062 0 8 3.574219 8 8 0 4.414062-3.574219 8-8 8-44.113281.007812-80 35.894531-80 80 0 4.425781-3.574219 8-8 8zm0 0"/><path d="m8.5 136c-4.425781 0-8-3.574219-8-8 0-70.566406 57.425781-127.9921875 128-128 4.414062 0 8 3.574219 8 8 0 4.414062-3.574219 8-8 8-61.761719.007812-112 50.246094-112 112 0 4.425781-3.574219 8-8 8zm0 0"/><path d="m312.5 136c-4.425781 0-8-3.574219-8-8 0-44.105469-35.886719-79.992188-80-80-4.425781 0-8-3.585938-8-8 0-4.425781 3.585938-8 8-8 52.9375.007812 96 43.070312 96 96 0 4.425781-3.574219 8-8 8zm0 0"/><path d="m344.5 136c-4.425781 0-8-3.574219-8-8 0-61.753906-50.238281-111.992188-112-112-4.425781 0-8-3.585938-8-8 0-4.425781 3.585938-8 8-8 70.574219.0078125 128 57.433594 128 128 0 4.425781-3.574219 8-8 8zm0 0"/></svg>