<svg height="512pt" viewBox="0 0 512 512" width="512pt" xmlns="http://www.w3.org/2000/svg"><path d="m160 400c-4.425781 0-8-3.574219-8-8 0-26.472656 21.527344-48 48-48 4.425781 0 8 3.574219 8 8s-3.574219 8-8 8c-17.648438 0-32 14.351562-32 32 0 4.425781-3.574219 8-8 8zm0 0"/><path d="m224 360h-24c-4.425781 0-8-3.574219-8-8s3.574219-8 8-8h24c4.425781 0 8 3.574219 8 8s-3.574219 8-8 8zm0 0"/><path d="m160 401.894531c-4.425781 0-8-3.574219-8-8v-1.894531c0-4.425781 3.574219-8 8-8s8 3.574219 8 8v1.894531c0 4.425781-3.574219 8-8 8zm0 0"/><path d="m352 400c-4.425781 0-8-3.574219-8-8 0-17.648438-14.351562-32-32-32-4.425781 0-8-3.574219-8-8s3.574219-8 8-8c26.472656 0 48 21.527344 48 48 0 4.425781-3.574219 8-8 8zm0 0"/><path d="m312 360h-24c-4.425781 0-8-3.574219-8-8s3.574219-8 8-8h24c4.425781 0 8 3.574219 8 8s-3.574219 8-8 8zm0 0"/><path d="m352 401.886719c-4.425781 0-8-3.574219-8-8v-1.886719c0-4.425781 3.574219-8 8-8s8 3.574219 8 8v1.886719c0 4.425781-3.574219 8-8 8zm0 0"/><path d="m224 360c-4.425781 0-8-3.574219-8-8v-31.488281c0-4.421875 3.574219-8 8-8s8 3.578125 8 8v31.488281c0 4.425781-3.574219 8-8 8zm0 0"/><path d="m288 360c-4.425781 0-8-3.574219-8-8v-31.488281c0-4.421875 3.574219-8 8-8s8 3.578125 8 8v31.488281c0 4.425781-3.574219 8-8 8zm0 0"/><path d="m255.992188 336c-44.113282 0-79.992188-35.878906-79.992188-79.984375 0-4.421875 3.574219-8 8-8s8 3.578125 8 8c0 35.28125 28.703125 63.984375 63.992188 63.984375 35.296874 0 64.007812-28.703125 64.007812-63.984375 0-4.421875 3.574219-8 8-8s8 3.578125 8 8c0 44.105469-35.886719 79.984375-80.007812 79.984375zm0 0"/><path d="m184 264.40625c-4.425781 0-8-3.574219-8-8v-48.40625c0-4.425781 3.574219-8 8-8s8 3.574219 8 8v48.40625c0 4.425781-3.574219 8-8 8zm0 0"/><path d="m328 264.015625c-4.425781 0-8-3.574219-8-8v-48.015625c0-4.425781 3.574219-8 8-8s8 3.574219 8 8v48.015625c0 4.425781-3.574219 8-8 8zm0 0"/><path d="m328 215.992188c-4.425781 0-8-3.578126-8-8 0-13.222657-10.769531-23.992188-24-23.992188-4.425781 0-8-3.574219-8-8s3.574219-8 8-8c22.054688 0 40 17.9375 40 39.992188 0 4.421874-3.574219 8-8 8zm0 0"/><path d="m296 184c-4.425781 0-8-3.574219-8-8v-32c0-4.425781 3.574219-8 8-8s8 3.574219 8 8v32c0 4.425781-3.574219 8-8 8zm0 0"/><path d="m296 152h-48c-4.425781 0-8-3.574219-8-8s3.574219-8 8-8h48c4.425781 0 8 3.574219 8 8s-3.574219 8-8 8zm0 0"/><path d="m184 216c-4.425781 0-8-3.574219-8-8 0-39.703125 32.296875-72 72-72 4.425781 0 8 3.574219 8 8s-3.574219 8-8 8c-30.871094 0-56 25.128906-56 56 0 4.425781-3.574219 8-8 8zm0 0"/><path d="m327.992188 240.199219c-1.535157 0-3.097657-.445313-4.472657-1.367188l-24-16.199219c-3.664062-2.480468-4.625-7.449218-2.160156-11.113281 2.464844-3.664062 7.433594-4.617187 11.113281-2.160156l24 16.199219c3.664063 2.480468 4.625 7.449218 2.160156 11.113281-1.542968 2.296875-4.074218 3.527344-6.640624 3.527344zm0 0"/><path d="m260 232c-28.894531 0-53.496094-8.0625-54.519531-8.40625-4.183594-1.402344-6.457031-5.921875-5.074219-10.113281 1.394531-4.183594 5.921875-6.472657 10.113281-5.082031.234375.089843 23.265625 7.601562 49.480469 7.601562 25.425781 0 40.320312-7.105469 40.472656-7.175781 3.953125-1.921875 8.75-.296875 10.695313 3.65625 1.945312 3.953125.34375 8.71875-3.59375 10.6875-.734375.351562-18.085938 8.832031-47.574219 8.832031zm0 0"/><path d="m184.007812 240.199219c-2.566406 0-5.097656-1.230469-6.640624-3.519531-2.472657-3.664063-1.503907-8.632813 2.160156-11.113282l24-16.199218c3.671875-2.464844 8.632812-1.503907 11.113281 2.160156 2.472656 3.664062 1.503906 8.632812-2.160156 11.113281l-24 16.199219c-1.375.921875-2.9375 1.359375-4.472657 1.359375zm0 0"/><path d="m239.992188 368c-1.199219 0-2.425782-.273438-3.566407-.839844l-16-8c-3.953125-1.976562-5.554687-6.785156-3.578125-10.734375 1.984375-3.953125 6.792969-5.539062 10.738282-3.578125l16 8c3.949218 1.976563 5.550781 6.785156 3.574218 10.738282-1.40625 2.796874-4.230468 4.414062-7.167968 4.414062zm0 0"/><path d="m240.007812 368c-2.9375 0-5.761718-1.617188-7.167968-4.425781-1.976563-3.949219-.375-8.757813 3.574218-10.734375l16-8c3.953126-1.960938 8.753907-.375 10.738282 3.574218 1.976562 3.953126.375 8.761719-3.578125 10.738282l-16 8c-1.140625.574218-2.367188.847656-3.566407.847656zm0 0"/><path d="m272.007812 368c-2.9375 0-5.761718-1.617188-7.167968-4.425781-1.976563-3.949219-.375-8.757813 3.574218-10.734375l16-8c3.953126-1.960938 8.761719-.375 10.738282 3.574218 1.976562 3.953126.375 8.761719-3.578125 10.738282l-16 8c-1.140625.574218-2.367188.847656-3.566407.847656zm0 0"/><path d="m271.992188 368c-1.199219 0-2.425782-.273438-3.566407-.839844l-16-8c-3.953125-1.976562-5.554687-6.785156-3.578125-10.734375 1.976563-3.953125 6.785156-5.539062 10.738282-3.578125l16 8c3.949218 1.976563 5.550781 6.785156 3.574218 10.738282-1.40625 2.796874-4.230468 4.414062-7.167968 4.414062zm0 0"/><path d="m64 512c-35.289062 0-64-28.710938-64-64s28.710938-64 64-64 64 28.710938 64 64-28.710938 64-64 64zm0-112c-26.472656 0-48 21.527344-48 48s21.527344 48 48 48 48-21.527344 48-48-21.527344-48-48-48zm0 0"/><path d="m64 472c-13.230469 0-24-10.769531-24-24s10.769531-24 24-24 24 10.769531 24 24-10.769531 24-24 24zm0-32c-4.414062 0-8 3.585938-8 8s3.585938 8 8 8 8-3.585938 8-8-3.585938-8-8-8zm0 0"/><path d="m95.921875 502c-4.195313 0-7.722656-3.265625-7.976563-7.503906-.777343-12.617188-11.296874-22.496094-23.953124-22.496094s-23.167969 9.878906-23.953126 22.496094c-.261718 4.414062-4.109374 7.65625-8.480468 7.496094-4.40625-.273438-7.765625-4.0625-7.496094-8.480469 1.304688-21.03125 18.832031-37.511719 39.929688-37.511719 21.097656 0 38.625 16.480469 39.917968 37.503906.273438 4.417969-3.085937 8.199219-7.496094 8.480469-.15625.007813-.324218.015625-.492187.015625zm0 0"/><path d="m64 128c-35.289062 0-64-28.710938-64-64s28.710938-64 64-64 64 28.710938 64 64-28.710938 64-64 64zm0-112c-26.472656 0-48 21.527344-48 48s21.527344 48 48 48 48-21.527344 48-48-21.527344-48-48-48zm0 0"/><path d="m64 88c-13.230469 0-24-10.769531-24-24s10.769531-24 24-24 24 10.769531 24 24-10.769531 24-24 24zm0-32c-4.414062 0-8 3.585938-8 8s3.585938 8 8 8 8-3.585938 8-8-3.585938-8-8-8zm0 0"/><path d="m95.921875 118c-4.195313 0-7.722656-3.265625-7.976563-7.503906-.777343-12.617188-11.296874-22.496094-23.953124-22.496094s-23.167969 9.878906-23.953126 22.496094c-.261718 4.414062-4.109374 7.824218-8.480468 7.496094-4.40625-.273438-7.765625-4.0625-7.496094-8.480469 1.304688-21.03125 18.832031-37.511719 39.929688-37.511719 21.097656 0 38.625 16.480469 39.917968 37.503906.273438 4.417969-3.085937 8.199219-7.496094 8.480469-.15625.007813-.324218.015625-.492187.015625zm0 0"/><path d="m256 432c-97.046875 0-176-78.953125-176-176s78.953125-176 176-176 176 78.953125 176 176-78.953125 176-176 176zm0-336c-88.222656 0-160 71.777344-160 160s71.777344 160 160 160 160-71.777344 160-160-71.777344-160-160-160zm0 0"/><path d="m103.59375 416.40625c-2.050781 0-4.097656-.78125-5.65625-2.34375-3.128906-3.125-3.128906-8.183594 0-11.308594l33.605469-33.609375c3.128906-3.128906 8.183593-3.128906 11.3125 0 3.128906 3.128907 3.128906 8.183594 0 11.3125l-33.609375 33.605469c-1.558594 1.5625-3.605469 2.34375-5.652344 2.34375zm0 0"/><path d="m137.199219 145.167969c-2.046875 0-4.09375-.785157-5.65625-2.34375l-33.605469-33.609375c-3.128906-3.125-3.128906-8.183594 0-11.3125 3.125-3.125 8.183594-3.125 11.308594 0l33.609375 33.609375c3.128906 3.128906 3.128906 8.183593 0 11.3125-1.558594 1.566406-3.609375 2.34375-5.65625 2.34375zm0 0"/><path d="m448 128c-35.289062 0-64-28.710938-64-64s28.710938-64 64-64 64 28.710938 64 64-28.710938 64-64 64zm0-112c-26.472656 0-48 21.527344-48 48s21.527344 48 48 48 48-21.527344 48-48-21.527344-48-48-48zm0 0"/><path d="m448 88c-13.230469 0-24-10.769531-24-24s10.769531-24 24-24 24 10.769531 24 24-10.769531 24-24 24zm0-32c-4.414062 0-8 3.585938-8 8s3.585938 8 8 8 8-3.585938 8-8-3.585938-8-8-8zm0 0"/><path d="m479.9375 118c-4.195312 0-7.722656-3.265625-7.976562-7.503906-.785157-12.617188-11.296876-22.496094-23.953126-22.496094s-23.167968 9.878906-23.953124 22.496094c-.261719 4.414062-4.085938 7.824218-8.480469 7.496094-4.40625-.273438-7.765625-4.0625-7.496094-8.480469 1.304687-21.03125 18.832031-37.511719 39.929687-37.511719 21.097657 0 38.625 16.480469 39.921876 37.503906.269531 4.417969-3.089844 8.199219-7.496094 8.480469-.160156.007813-.328125.015625-.496094.015625zm0 0"/><path d="m374.785156 145.183594c-2.050781 0-4.097656-.785156-5.65625-2.34375-3.128906-3.128906-3.128906-8.183594 0-11.3125l33.625-33.625c3.125-3.125 8.183594-3.125 11.308594 0 3.128906 3.128906 3.128906 8.1875 0 11.3125l-33.621094 33.625c-1.570312 1.566406-3.609375 2.34375-5.65625 2.34375zm0 0"/><path d="m448 512c-35.289062 0-64-28.710938-64-64s28.710938-64 64-64 64 28.710938 64 64-28.710938 64-64 64zm0-112c-26.472656 0-48 21.527344-48 48s21.527344 48 48 48 48-21.527344 48-48-21.527344-48-48-48zm0 0"/><path d="m448 472c-13.230469 0-24-10.769531-24-24s10.769531-24 24-24 24 10.769531 24 24-10.769531 24-24 24zm0-32c-4.414062 0-8 3.585938-8 8s3.585938 8 8 8 8-3.585938 8-8-3.585938-8-8-8zm0 0"/><path d="m479.9375 502c-4.195312 0-7.722656-3.265625-7.976562-7.503906-.785157-12.617188-11.296876-22.496094-23.953126-22.496094s-23.167968 9.878906-23.953124 22.496094c-.261719 4.414062-4.085938 7.65625-8.480469 7.496094-4.40625-.273438-7.765625-4.0625-7.496094-8.480469 1.304687-21.03125 18.832031-37.511719 39.929687-37.511719 21.097657 0 38.625 16.480469 39.921876 37.503906.269531 4.417969-3.089844 8.199219-7.496094 8.480469-.160156.007813-.328125.015625-.496094.015625zm0 0"/><path d="m408.40625 416.40625c-2.046875 0-4.09375-.78125-5.652344-2.34375l-33.609375-33.605469c-3.128906-3.128906-3.128906-8.183593 0-11.3125 3.128907-3.128906 8.183594-3.128906 11.3125 0l33.605469 33.609375c3.128906 3.125 3.128906 8.183594 0 11.308594-1.558594 1.5625-3.605469 2.34375-5.65625 2.34375zm0 0"/></svg>