<svg height="512pt" viewBox="0 -76 512 512" width="512pt" xmlns="http://www.w3.org/2000/svg"><path d="m240 360h-232c-4.425781 0-8-3.574219-8-8v-280c0-4.425781 3.574219-8 8-8s8 3.574219 8 8v272h216v-272c0-4.425781 3.574219-8 8-8s8 3.574219 8 8v280c0 4.425781-3.574219 8-8 8zm0 0"/><path d="m64 80h-56c-4.425781 0-8-3.574219-8-8s3.574219-8 8-8h56c4.425781 0 8 3.574219 8 8s-3.574219 8-8 8zm0 0"/><path d="m240 80h-56c-4.425781 0-8-3.574219-8-8s3.574219-8 8-8h56c4.425781 0 8 3.574219 8 8s-3.574219 8-8 8zm0 0"/><path d="m200 176h-152c-4.425781 0-8-3.574219-8-8s3.574219-8 8-8h152c4.425781 0 8 3.574219 8 8s-3.574219 8-8 8zm0 0"/><path d="m152 208h-56c-4.425781 0-8-3.574219-8-8s3.574219-8 8-8h56c4.425781 0 8 3.574219 8 8s-3.574219 8-8 8zm0 0"/><path d="m80 296c-4.425781 0-8-3.574219-8-8v-16c0-4.425781 3.574219-8 8-8s8 3.574219 8 8v16c0 4.425781-3.574219 8-8 8zm0 0"/><path d="m88 288h-16c-4.425781 0-8-3.574219-8-8s3.574219-8 8-8h16c4.425781 0 8 3.574219 8 8s-3.574219 8-8 8zm0 0"/><path d="m124 136c-37.496094 0-68-30.503906-68-68s30.503906-68 68-68 68 30.503906 68 68-30.503906 68-68 68zm0-120c-28.671875 0-52 23.328125-52 52s23.328125 52 52 52 52-23.328125 52-52-23.328125-52-52-52zm0 0"/><path d="m124 88c-15.441406 0-28-12.558594-28-28s12.558594-28 28-28 28 12.558594 28 28-12.558594 28-28 28zm0-40c-6.617188 0-12 5.382812-12 12s5.382812 12 12 12 12-5.382812 12-12-5.382812-12-12-12zm0 0"/><path d="m160 124c-4.425781 0-8-3.574219-8-8 0-15.441406-12.558594-28-28-28s-28 12.558594-28 28c0 4.425781-3.574219 8-8 8s-8-3.574219-8-8c0-24.257812 19.742188-44 44-44s44 19.742188 44 44c0 4.425781-3.574219 8-8 8zm0 0"/><path d="m168 320h-88c-22.054688 0-40-17.945312-40-40s17.945312-40 40-40h88c22.054688 0 40 17.945312 40 40s-17.945312 40-40 40zm-88-64c-13.230469 0-24 10.769531-24 24s10.769531 24 24 24h88c13.230469 0 24-10.769531 24-24s-10.769531-24-24-24zm0 0"/><path d="m168 288h-48c-4.425781 0-8-3.574219-8-8s3.574219-8 8-8h48c4.425781 0 8 3.574219 8 8s-3.574219 8-8 8zm0 0"/><path d="m504 360h-232c-4.425781 0-8-3.574219-8-8v-280c0-4.425781 3.574219-8 8-8s8 3.574219 8 8v272h216v-272c0-4.425781 3.574219-8 8-8s8 3.574219 8 8v280c0 4.425781-3.574219 8-8 8zm0 0"/><path d="m328 80h-56c-4.425781 0-8-3.574219-8-8s3.574219-8 8-8h56c4.425781 0 8 3.574219 8 8s-3.574219 8-8 8zm0 0"/><path d="m504 80h-56c-4.425781 0-8-3.574219-8-8s3.574219-8 8-8h56c4.425781 0 8 3.574219 8 8s-3.574219 8-8 8zm0 0"/><path d="m464 176h-152c-4.425781 0-8-3.574219-8-8s3.574219-8 8-8h152c4.425781 0 8 3.574219 8 8s-3.574219 8-8 8zm0 0"/><path d="m416 208h-56c-4.425781 0-8-3.574219-8-8s3.574219-8 8-8h56c4.425781 0 8 3.574219 8 8s-3.574219 8-8 8zm0 0"/><path d="m344 296c-4.425781 0-8-3.574219-8-8v-16c0-4.425781 3.574219-8 8-8s8 3.574219 8 8v16c0 4.425781-3.574219 8-8 8zm0 0"/><path d="m352 288h-16c-4.425781 0-8-3.574219-8-8s3.574219-8 8-8h16c4.425781 0 8 3.574219 8 8s-3.574219 8-8 8zm0 0"/><path d="m388 136c-37.496094 0-68-30.503906-68-68s30.503906-68 68-68 68 30.503906 68 68-30.503906 68-68 68zm0-120c-28.671875 0-52 23.328125-52 52s23.328125 52 52 52 52-23.328125 52-52-23.328125-52-52-52zm0 0"/><path d="m388 88c-15.441406 0-28-12.558594-28-28s12.558594-28 28-28 28 12.558594 28 28-12.558594 28-28 28zm0-40c-6.617188 0-12 5.382812-12 12s5.382812 12 12 12 12-5.382812 12-12-5.382812-12-12-12zm0 0"/><path d="m424 124c-4.425781 0-8-3.574219-8-8 0-15.441406-12.558594-28-28-28s-28 12.558594-28 28c0 4.425781-3.574219 8-8 8s-8-3.574219-8-8c0-24.257812 19.742188-44 44-44s44 19.742188 44 44c0 4.425781-3.574219 8-8 8zm0 0"/><path d="m432 320h-88c-22.054688 0-40-17.945312-40-40s17.945312-40 40-40h88c22.054688 0 40 17.945312 40 40s-17.945312 40-40 40zm-88-64c-13.230469 0-24 10.769531-24 24s10.769531 24 24 24h88c13.230469 0 24-10.769531 24-24s-10.769531-24-24-24zm0 0"/><path d="m432 288h-48c-4.425781 0-8-3.574219-8-8s3.574219-8 8-8h48c4.425781 0 8 3.574219 8 8s-3.574219 8-8 8zm0 0"/></svg>