<svg height="512pt" viewBox="0 -92 512.064 512" width="512pt" xmlns="http://www.w3.org/2000/svg"><path d="m32.238281 32.03125c-4.421875 0-8.039062-3.574219-8.039062-8 0-4.421875 3.535156-8 7.953125-8h.085937c4.417969 0 8 3.578125 8 8 0 4.425781-3.582031 8-8 8zm0 0"/><path d="m56.238281 32.03125c-4.421875 0-8.039062-3.574219-8.039062-8 0-4.421875 3.535156-8 7.953125-8h.085937c4.417969 0 8 3.578125 8 8 0 4.425781-3.582031 8-8 8zm0 0"/><path d="m80.238281 32.03125c-4.421875 0-8.039062-3.574219-8.039062-8 0-4.421875 3.535156-8 7.953125-8h.085937c4.417969 0 8 3.578125 8 8 0 4.425781-3.582031 8-8 8zm0 0"/><path d="m320.144531 328.03125h-312c-4.425781 0-8-3.574219-8-8v-280c0-4.421875 3.574219-8 8-8h312c4.421875 0 8 3.578125 8 8v280c0 4.425781-3.585937 8-8 8zm-304-16h296v-264h-296zm0 0"/><path d="m8 32.03125c-4.425781 0-8-3.574219-8-8 0-13.230469 10.769531-24 24-24 4.425781 0 8 3.578125 8 8 0 4.425781-3.574219 8-8 8-4.414062 0-8 3.585938-8 8 0 4.425781-3.574219 8-8 8zm0 0"/><path d="m8 48.03125c-4.425781 0-8-3.574219-8-8v-16c0-4.421875 3.574219-8 8-8s8 3.578125 8 8v16c0 4.425781-3.574219 8-8 8zm0 0"/><path d="m320 32.03125c-4.425781 0-8-3.574219-8-8 0-4.414062-3.585938-8-8-8-4.425781 0-8-3.574219-8-8 0-4.421875 3.574219-8 8-8 13.230469 0 24 10.769531 24 24 0 4.425781-3.574219 8-8 8zm0 0"/><path d="m320 48.03125c-4.425781 0-8-3.574219-8-8v-16c0-4.421875 3.574219-8 8-8s8 3.578125 8 8v16c0 4.425781-3.574219 8-8 8zm0 0"/><path d="m304 16.03125h-280c-4.425781 0-8-3.574219-8-8 0-4.421875 3.574219-8 8-8h280c4.425781 0 8 3.578125 8 8 0 4.425781-3.574219 8-8 8zm0 0"/><path d="m279.921875 152.03125h-232c-4.425781 0-8-3.574219-8-8v-64c0-4.421875 3.574219-8 8-8h232c4.421875 0 8 3.578125 8 8v64c0 4.425781-3.578125 8-8 8zm-224-16h216v-48h-216zm0 0"/><path d="m167.921875 192.03125h-120c-4.425781 0-8-3.574219-8-8 0-4.421875 3.574219-8 8-8h120c4.421875 0 8 3.578125 8 8 0 4.425781-3.578125 8-8 8zm0 0"/><path d="m119.921875 224.03125h-72c-4.425781 0-8-3.574219-8-8 0-4.421875 3.574219-8 8-8h72c4.421875 0 8 3.578125 8 8 0 4.425781-3.578125 8-8 8zm0 0"/><path d="m279.921875 224.03125h-128c-4.425781 0-8-3.574219-8-8 0-4.421875 3.574219-8 8-8h128c4.421875 0 8 3.578125 8 8 0 4.425781-3.578125 8-8 8zm0 0"/><path d="m151.921875 288.03125h-104c-4.425781 0-8-3.574219-8-8 0-4.421875 3.574219-8 8-8h104c4.421875 0 8 3.578125 8 8 0 4.425781-3.578125 8-8 8zm0 0"/><path d="m279.921875 288.03125h-96c-4.425781 0-8-3.574219-8-8 0-4.421875 3.574219-8 8-8h96c4.421875 0 8 3.578125 8 8 0 4.425781-3.578125 8-8 8zm0 0"/><path d="m207.921875 256.03125h-160c-4.425781 0-8-3.574219-8-8 0-4.421875 3.574219-8 8-8h160c4.421875 0 8 3.578125 8 8 0 4.425781-3.578125 8-8 8zm0 0"/><path d="m279.921875 256.03125h-40c-4.425781 0-8-3.574219-8-8 0-4.421875 3.574219-8 8-8h40c4.421875 0 8 3.578125 8 8 0 4.425781-3.578125 8-8 8zm0 0"/><path d="m279.921875 192.03125h-80c-4.425781 0-8-3.574219-8-8 0-4.421875 3.574219-8 8-8h80c4.421875 0 8 3.578125 8 8 0 4.425781-3.578125 8-8 8zm0 0"/><path d="m224.0625 120.03125h-120c-4.421875 0-8-3.574219-8-8 0-4.421875 3.578125-8 8-8h120c4.425781 0 8 3.578125 8 8 0 4.425781-3.574219 8-8 8zm0 0"/><path d="m352.0625 312.03125c-4.421875 0-8-3.574219-8-8v-120c0-4.421875 3.578125-8 8-8 4.425781 0 8 3.578125 8 8v120c0 4.425781-3.574219 8-8 8zm0 0"/><path d="m368.0625 328.03125c-13.230469 0-24-10.765625-24-24 0-4.421875 3.578125-8 8-8 4.425781 0 8 3.578125 8 8 0 4.417969 3.585938 8 8 8 4.425781 0 8 3.578125 8 8 0 4.425781-3.574219 8-8 8zm0 0"/><path d="m472.0625 312.03125c-4.421875 0-8-3.574219-8-8v-120c0-4.421875 3.578125-8 8-8 4.425781 0 8 3.578125 8 8v120c0 4.425781-3.574219 8-8 8zm0 0"/><path d="m456.0625 328.03125c-4.421875 0-8-3.574219-8-8 0-4.421875 3.578125-8 8-8 4.417969 0 8-3.582031 8-8 0-4.421875 3.578125-8 8-8 4.425781 0 8 3.578125 8 8 0 13.234375-10.765625 24-24 24zm0 0"/><path d="m472.0625 192.03125h-120c-4.421875 0-8-3.574219-8-8 0-4.421875 3.578125-8 8-8h120c4.425781 0 8 3.578125 8 8 0 4.425781-3.574219 8-8 8zm0 0"/><path d="m456.0625 328.03125h-88c-4.421875 0-8-3.574219-8-8 0-4.421875 3.578125-8 8-8h88c4.425781 0 8 3.578125 8 8 0 4.425781-3.574219 8-8 8zm0 0"/><path d="m504.0625 216.03125h-32c-4.421875 0-8-3.574219-8-8 0-4.421875 3.578125-8 8-8h32c4.425781 0 8 3.578125 8 8 0 4.425781-3.574219 8-8 8zm0 0"/><path d="m504.0625 296.03125c-4.421875 0-8-3.574219-8-8v-80c0-4.421875 3.578125-8 8-8 4.425781 0 8 3.578125 8 8v80c0 4.425781-3.574219 8-8 8zm0 0"/><path d="m504.0625 296.03125h-32c-4.421875 0-8-3.574219-8-8 0-4.421875 3.578125-8 8-8h32c4.425781 0 8 3.578125 8 8 0 4.425781-3.574219 8-8 8zm0 0"/><path d="m412.0625 280.03125c-15.4375 0-28-12.558594-28-28 0-15.4375 12.5625-28 28-28 15.441406 0 28 12.5625 28 28 0 15.441406-12.558594 28-28 28zm0-40c-6.613281 0-12 5.382812-12 12s5.386719 12 12 12c6.617188 0 12-5.382812 12-12s-5.382812-12-12-12zm0 0"/><path d="m449.320312 192.039062c-.457031 0-.914062-.039062-1.375-.117187-4.351562-.761719-7.273437-4.898437-6.511718-9.25l22.886718-131.894531c.769532-4.351563 4.910157-7.257813 9.246094-6.511719 4.355469.757813 7.273438 4.894531 6.511719 9.246094l-22.886719 131.894531c-.671875 3.890625-4.046875 6.632812-7.871094 6.632812zm0 0"/><path d="m424.929688 192.070312c-.457032 0-.914063-.039062-1.378907-.117187-4.359375-.761719-7.269531-4.898437-6.511719-9.25l23.640626-136.039063c.769531-4.351562 4.894531-7.238281 9.25-6.511718 4.359374.757812 7.269531 4.894531 6.511718 9.246094l-23.640625 136.042968c-.671875 3.886719-4.046875 6.628906-7.871093 6.628906zm0 0"/><path d="m472.207031 60.144531c-.453125 0-.910156-.039062-1.375-.121093l-23.640625-4.113282c-4.359375-.757812-7.269531-4.894531-6.511718-9.246094.769531-4.351562 4.894531-7.238281 9.25-6.511718l23.636718 4.113281c4.363282.757813 7.273438 4.894531 6.511719 9.246094-.671875 3.886719-4.046875 6.632812-7.871094 6.632812zm0 0"/><path d="m466.742188 91.664062c-.453126 0-.910157-.039062-1.375-.121093l-23.65625-4.109375c-4.351563-.761719-7.269532-4.898438-6.511719-9.25.761719-4.351563 4.9375-7.261719 9.25-6.511719l23.65625 4.113281c4.351562.757813 7.269531 4.894532 6.511719 9.246094-.679688 3.890625-4.058594 6.632812-7.875 6.632812zm0 0"/><path d="m461.257812 123.199219c-.457031 0-.914062-.039063-1.378906-.121094l-23.640625-4.109375c-4.359375-.761719-7.269531-4.898438-6.511719-9.25.761719-4.351562 4.875-7.253906 9.25-6.511719l23.640626 4.113281c4.359374.757813 7.269531 4.894532 6.511718 9.246094-.671875 3.890625-4.050781 6.632813-7.871094 6.632813zm0 0"/></svg>