<svg height="513pt" viewBox="-24 0 513 513.336" width="513pt" xmlns="http://www.w3.org/2000/svg"><path d="m408.167969 287.992188c-4.425781 0-8-3.578126-8-8v-256c0-4.417969 3.574219-8 8-8s8 3.582031 8 8v256c0 4.421874-3.574219 8-8 8zm0 0"/><path d="m56.167969 287.992188c-4.425781 0-8-3.578126-8-8v-256c0-4.417969 3.574219-8 8-8s8 3.582031 8 8v256c0 4.421874-3.574219 8-8 8zm0 0"/><path d="m40.167969 287.992188c-22.054688 0-40-17.945313-40-40v-192c0-22.054688 17.945312-40 40-40 4.425781 0 8 3.582031 8 8 0 4.414062-3.574219 8-8 8-13.230469 0-24 10.769531-24 24v192c0 13.230468 10.769531 24 24 24 4.425781 0 8 3.574218 8 8 0 4.421874-3.574219 8-8 8zm0 0"/><path d="m424.167969 287.992188c-4.425781 0-8-3.578126-8-8 0-4.425782 3.574219-8 8-8 13.230469 0 24-10.769532 24-24v-192c0-13.230469-10.769531-24-24-24-4.425781 0-8-3.585938-8-8 0-4.417969 3.574219-8 8-8 22.054687 0 40 17.945312 40 40v192c0 22.054687-17.945313 40-40 40zm0 0"/><path d="m432.289062 176.023438c-13.234374 0-24-10.765626-24-24 0-13.230469 10.765626-24 24-24 13.230469 0 24 10.769531 24 24 0 13.234374-10.769531 24-24 24zm0-32c-4.417968 0-8 3.59375-8 8 0 4.410156 3.582032 8 8 8 4.414063 0 8-3.589844 8-8 0-4.40625-3.59375-8-8-8zm0 0"/><path d="m168.167969 48c-13.230469 0-24-10.769531-24-24 0-4.414062 3.574219-8 8-8s8 3.585938 8 8c0 4.40625 3.585937 8 8 8 4.425781 0 8 3.585938 8 8s-3.574219 8-8 8zm0 0"/><path d="m296.167969 48c-4.425781 0-8-3.585938-8-8s3.574219-8 8-8c4.417969 0 8-3.59375 8-8 0-4.414062 3.574219-8 8-8s8 3.585938 8 8c0 13.230469-10.769531 24-24 24zm0 0"/><path d="m296.167969 48h-128c-4.425781 0-8-3.585938-8-8s3.574219-8 8-8h128c4.425781 0 8 3.585938 8 8s-3.574219 8-8 8zm0 0"/><path d="m312.167969 32c-4.425781 0-8-3.585938-8-8v-16c0-4.414062 3.574219-8 8-8s8 3.585938 8 8v16c0 4.414062-3.574219 8-8 8zm0 0"/><path d="m152.167969 32c-4.425781 0-8-3.585938-8-8v-16c0-4.414062 3.574219-8 8-8s8 3.585938 8 8v16c0 4.414062-3.574219 8-8 8zm0 0"/><path d="m312.167969 16h-160c-4.425781 0-8-3.585938-8-8s3.574219-8 8-8h160c4.425781 0 8 3.585938 8 8s-3.574219 8-8 8zm0 0"/><path d="m152.167969 32h-112c-4.425781 0-8-3.585938-8-8s3.574219-8 8-8h112c4.425781 0 8 3.585938 8 8s-3.574219 8-8 8zm0 0"/><path d="m424.167969 32h-112c-4.425781 0-8-3.585938-8-8s3.574219-8 8-8h112c4.425781 0 8 3.585938 8 8s-3.574219 8-8 8zm0 0"/><path d="m312.167969 287.992188c-4.425781 0-8-3.578126-8-8 0-4.40625-3.582031-7.992188-8-7.992188-4.425781 0-8-3.585938-8-8s3.574219-8 8-8c13.230469 0 24 10.761719 24 24 0 4.414062-3.574219 7.992188-8 7.992188zm0 0"/><path d="m152.167969 287.992188c-4.425781 0-8-3.578126-8-8 0-13.230469 10.769531-24 24-24 4.425781 0 8 3.582031 8 8 0 4.414062-3.574219 8-8 8-4.414063 0-8 3.582031-8 7.992187 0 4.429687-3.574219 8.007813-8 8.007813zm0 0"/><path d="m296.167969 271.992188h-128c-4.425781 0-8-3.578126-8-8 0-4.425782 3.574219-8 8-8h128c4.425781 0 8 3.582031 8 8 0 4.414062-3.574219 8-8 8zm0 0"/><path d="m152.167969 319.992188c-4.425781 0-8-3.578126-8-8v-32c0-4.425782 3.574219-8 8-8s8 3.574218 8 8v32c0 4.421874-3.574219 8-8 8zm0 0"/><path d="m312.167969 319.992188c-4.425781 0-8-3.578126-8-8v-32c0-4.425782 3.574219-8 8-8s8 3.574218 8 8v32c0 4.421874-3.574219 8-8 8zm0 0"/><path d="m312.167969 319.992188h-160c-4.425781 0-8-3.578126-8-8 0-4.425782 3.574219-8 8-8h160c4.425781 0 8 3.574218 8 8 0 4.421874-3.574219 8-8 8zm0 0"/><path d="m424.167969 287.992188h-112c-4.425781 0-8-3.578126-8-8 0-4.425782 3.574219-8 8-8h112c4.425781 0 8 3.574218 8 8 0 4.421874-3.574219 8-8 8zm0 0"/><path d="m152.167969 287.992188h-112c-4.425781 0-8-3.578126-8-8 0-4.425782 3.574219-8 8-8h112c4.425781 0 8 3.574218 8 8 0 4.421874-3.574219 8-8 8zm0 0"/><path d="m208.175781 351.992188c-2.9375 0-5.761719-1.617188-7.167969-4.425782l-16-32c-1.976562-3.949218-.375-8.757812 3.578126-10.734375 3.949218-1.96875 8.757812-.382812 10.734374 3.574219l16 32c1.976563 3.953125.375 8.761719-3.578124 10.738281-1.140626.574219-2.367188.847657-3.566407.847657zm0 0"/><path d="m208.167969 434.878906c-4.425781 0-8-3.574218-8-8v-82.886718c0-4.425782 3.574219-8 8-8s8 3.574218 8 8v82.886718c0 4.425782-3.574219 8-8 8zm0 0"/><path d="m256.160156 351.992188c-1.199218 0-2.425781-.273438-3.566406-.839844-3.953125-1.976563-5.554688-6.785156-3.578125-10.738282l16-32c1.984375-3.957031 6.785156-5.542968 10.738281-3.574218 3.949219 1.976562 5.550782 6.785156 3.574219 10.734375l-16 32c-1.40625 2.800781-4.230469 4.417969-7.167969 4.417969zm0 0"/><path d="m256.167969 434.878906c-4.425781 0-8-3.574218-8-8v-82.886718c0-4.425782 3.574219-8 8-8s8 3.574218 8 8v82.886718c0 4.425782-3.574219 8-8 8zm0 0"/><path d="m232.167969 391.992188c-4.425781 0-8-3.578126-8-8v-40c0-4.425782 3.574219-8 8-8s8 3.574218 8 8v40c0 4.421874-3.574219 8-8 8zm0 0"/><path d="m280.167969 375.992188h-24c-4.425781 0-8-3.578126-8-8 0-4.425782 3.574219-8 8-8h24c4.425781 0 8 3.574218 8 8 0 4.421874-3.574219 8-8 8zm0 0"/><path d="m280.167969 383.992188c-4.425781 0-8-3.578126-8-8v-16c0-4.425782 3.574219-8 8-8s8 3.574218 8 8v16c0 4.421874-3.574219 8-8 8zm0 0"/><path d="m208.167969 375.992188h-8c-4.425781 0-8-3.578126-8-8 0-4.425782 3.574219-8 8-8h8c4.425781 0 8 3.574218 8 8 0 4.421874-3.574219 8-8 8zm0 0"/><path d="m256.167969 415.992188c-4.425781 0-8-3.578126-8-8 0-8.824219-7.175781-16-16-16s-16 7.175781-16 16c0 4.421874-3.574219 8-8 8s-8-3.578126-8-8c0-17.648438 14.351562-32 32-32 17.648437 0 32 14.351562 32 32 0 4.421874-3.574219 8-8 8zm0 0"/><path d="m264.167969 455.992188c-4.425781 0-8-3.578126-8-8 0-13.230469-10.769531-24-24-24s-24 10.769531-24 24c0 4.421874-3.574219 8-8 8s-8-3.578126-8-8c0-22.054688 17.945312-40 40-40 22.054687 0 40 17.945312 40 40 0 4.421874-3.574219 8-8 8zm0 0"/><path d="m200.167969 513.335938c-4.425781 0-8-3.574219-8-8v-57.34375c0-4.425782 3.574219-8 8-8s8 3.574218 8 8v57.34375c0 4.425781-3.574219 8-8 8zm0 0"/><path d="m264.167969 511.992188c-4.425781 0-8-3.578126-8-8v-56c0-4.425782 3.574219-8 8-8s8 3.574218 8 8v56c0 4.421874-3.574219 8-8 8zm0 0"/><path d="m264.167969 471.992188h-64c-4.425781 0-8-3.578126-8-8 0-4.425782 3.574219-8 8-8h64c4.425781 0 8 3.574218 8 8 0 4.421874-3.574219 8-8 8zm0 0"/><path d="m168.167969 263.96875c-4.425781 0-8-3.585938-8-8 0-17.648438 14.351562-32 32-32 4.425781 0 8 3.582031 8 8 0 4.414062-3.574219 8-8 8-8.824219 0-16 7.175781-16 16 0 4.414062-3.574219 8-8 8zm0 0"/><path d="m208.167969 240.007812h-16c-4.425781 0-8-3.582031-8-8 0-4.414062 3.574219-8 8-8h16c4.425781 0 8 3.585938 8 8 0 4.417969-3.574219 8-8 8zm0 0"/><path d="m168.167969 271.992188c-4.425781 0-8-3.578126-8-8v-8.03125c0-4.417969 3.574219-8 8-8s8 3.582031 8 8v8.03125c0 4.421874-3.574219 8-8 8zm0 0"/><path d="m296.167969 263.96875c-4.425781 0-8-3.585938-8-8 0-8.824219-7.175781-16-16-16-4.425781 0-8-3.585938-8-8 0-4.417969 3.574219-8 8-8 17.648437 0 32 14.351562 32 32 0 4.414062-3.574219 8-8 8zm0 0"/><path d="m272.167969 240.007812h-16c-4.425781 0-8-3.582031-8-8 0-4.414062 3.574219-8 8-8h16c4.425781 0 8 3.585938 8 8 0 4.417969-3.574219 8-8 8zm0 0"/><path d="m296.167969 271.992188c-4.425781 0-8-3.578126-8-8v-8.03125c0-4.417969 3.574219-8 8-8s8 3.582031 8 8v8.03125c0 4.421874-3.574219 8-8 8zm0 0"/><path d="m208.167969 240.007812c-4.425781 0-8-3.582031-8-8v-21.472656c0-4.414062 3.574219-8 8-8s8 3.585938 8 8v21.472656c0 4.425782-3.574219 8-8 8zm0 0"/><path d="m256.167969 239.96875c-4.425781 0-8-3.585938-8-8v-21.425781c0-4.414063 3.574219-8 8-8s8 3.585937 8 8v21.425781c0 4.414062-3.574219 8-8 8zm0 0"/><path d="m216.175781 247.96875c-2.9375 0-5.761719-1.617188-7.167969-4.425781-1.976562-3.949219-.375-8.757813 3.578126-10.734375l16-8c3.941406-1.984375 8.75-.375 10.734374 3.574218 1.976563 3.953126.375 8.761719-3.578124 10.738282l-16 8c-1.140626.574218-2.367188.847656-3.566407.847656zm0 0"/><path d="m248.167969 247.96875c-2.046875 0-4.097657-.785156-5.65625-2.34375-3.128907-3.128906-3.128907-8.183594 0-11.3125l8-8c3.128906-3.128906 8.183593-3.128906 11.3125 0 3.128906 3.128906 3.128906 8.183594 0 11.3125l-8 8c-1.558594 1.558594-3.609375 2.34375-5.65625 2.34375zm0 0"/><path d="m216.167969 247.96875c-2.046875 0-4.097657-.785156-5.65625-2.34375l-8-8c-3.128907-3.128906-3.128907-8.183594 0-11.3125 3.128906-3.128906 8.183593-3.128906 11.3125 0l8 8c3.128906 3.128906 3.128906 8.183594 0 11.3125-1.558594 1.558594-3.609375 2.34375-5.65625 2.34375zm0 0"/><path d="m248.160156 247.96875c-1.199218 0-2.425781-.273438-3.566406-.839844l-16-8c-3.953125-1.976562-5.554688-6.785156-3.578125-10.738281 1.984375-3.957031 6.792969-5.558594 10.738281-3.574219l16 8c3.949219 1.976563 5.550782 6.785156 3.574219 10.734375-1.40625 2.792969-4.230469 4.417969-7.167969 4.417969zm0 0"/><path d="m236.175781 144c-22.847656 0-45.75-8.128906-46.710937-8.472656-4.160156-1.496094-6.3125-6.070313-4.832032-10.222656 1.480469-4.152344 6.03125-6.328126 10.222657-4.832032.207031.070313 21.3125 7.527344 41.3125 7.527344 19.136719 0 31.953125-6.984375 32.078125-7.054688 3.867187-2.152343 8.730468-.769531 10.875 3.070313 2.160156 3.839844.816406 8.6875-3.015625 10.863281-.648438.367188-16.363281 9.121094-39.929688 9.121094zm0 0"/><path d="m232.167969 224c-35.289063 0-64-28.710938-64-64 0-4.414062 3.574219-8 8-8s8 3.585938 8 8c0 26.472656 21.527343 48 48 48 26.472656 0 48-21.527344 48-48 0-4.414062 3.574219-8 8-8s8 3.585938 8 8c0 35.289062-28.710938 64-64 64zm0 0"/><path d="m176.167969 168c-4.425781 0-8-3.585938-8-8v-40c0-4.414062 3.574219-8 8-8s8 3.585938 8 8v40c0 4.414062-3.574219 8-8 8zm0 0"/><path d="m288.167969 168c-4.425781 0-8-3.585938-8-8l.015625-39.992188c0-4.414062 3.585937-8 8-8 4.425781 0 8 3.585938 8 8l-.015625 39.992188c0 4.414062-3.582031 8-8 8zm0 0"/><path d="m288.183594 128c-4.421875 0-8-3.585938-8-8 0-8.832031-7.183594-16.007812-16.015625-16.007812-4.425781 0-8-3.585938-8-8 0-4.417969 3.574219-8 8-8 17.65625 0 32.015625 14.359374 32.015625 32.007812 0 4.425781-3.574219 8-8 8zm0 0"/><path d="m264.167969 104c-4.425781 0-8-3.585938-8-8v-24c0-4.414062 3.574219-8 8-8s8 3.585938 8 8v24c0 4.414062-3.574219 8-8 8zm0 0"/><path d="m176.167969 128c-4.425781 0-8-3.585938-8-8 0-30.878906 25.128906-56 56-56 4.425781 0 8 3.585938 8 8s-3.574219 8-8 8c-22.054688 0-40 17.945312-40 40 0 4.414062-3.574219 8-8 8zm0 0"/><path d="m288.167969 152c-2.039063 0-4.089844-.777344-5.640625-2.328125l-16-15.917969c-3.136719-3.121094-3.152344-8.1875-.03125-11.320312 3.121094-3.128906 8.191406-3.136719 11.3125-.027344l16 15.921875c3.136718 3.121094 3.152344 8.183594.03125 11.320313-1.558594 1.558593-3.617188 2.351562-5.671875 2.351562zm0 0"/><path d="m176.167969 152c-2.0625 0-4.121094-.792969-5.6875-2.367188-3.113281-3.144531-3.082031-8.199218.054687-11.3125l16-15.839843c3.152344-3.121094 8.199219-3.082031 11.320313.054687 3.113281 3.144532 3.082031 8.199219-.054688 11.3125l-16 15.839844c-1.5625 1.535156-3.601562 2.3125-5.632812 2.3125zm0 0"/><path d="m264.167969 80h-40c-4.425781 0-8-3.585938-8-8s3.574219-8 8-8h40c4.425781 0 8 3.585938 8 8s-3.574219 8-8 8zm0 0"/><path d="m352.167969 287.992188c-4.425781 0-8-3.578126-8-8v-96c0-4.417969 3.574219-8 8-8s8 3.582031 8 8v96c0 4.421874-3.574219 8-8 8zm0 0"/><path d="m368.167969 208c-2.046875 0-4.097657-.785156-5.65625-2.34375l-16-16c-3.128907-3.128906-3.128907-8.183594 0-11.3125 3.128906-3.128906 8.183593-3.128906 11.3125 0l16 16c3.128906 3.128906 3.128906 8.183594 0 11.3125-1.558594 1.558594-3.609375 2.34375-5.65625 2.34375zm0 0"/><path d="m336.167969 208c-2.046875 0-4.097657-.785156-5.65625-2.34375-3.128907-3.128906-3.128907-8.183594 0-11.3125l16-16c3.128906-3.128906 8.183593-3.128906 11.3125 0 3.128906 3.128906 3.128906 8.183594 0 11.3125l-16 16c-1.558594 1.558594-3.609375 2.34375-5.65625 2.34375zm0 0"/><path d="m368.167969 240c-2.046875 0-4.097657-.785156-5.65625-2.34375l-16-16c-3.128907-3.128906-3.128907-8.183594 0-11.3125 3.128906-3.128906 8.183593-3.128906 11.3125 0l16 16c3.128906 3.128906 3.128906 8.183594 0 11.3125-1.558594 1.558594-3.609375 2.34375-5.65625 2.34375zm0 0"/><path d="m336.167969 240c-2.046875 0-4.097657-.785156-5.65625-2.34375-3.128907-3.128906-3.128907-8.183594 0-11.3125l16-16c3.128906-3.128906 8.183593-3.128906 11.3125 0 3.128906 3.128906 3.128906 8.183594 0 11.3125l-16 16c-1.558594 1.558594-3.609375 2.34375-5.65625 2.34375zm0 0"/><path d="m112.167969 287.992188c-4.425781 0-8-3.578126-8-8v-128c0-4.417969 3.574219-8 8-8s8 3.582031 8 8v128c0 4.421874-3.574219 8-8 8zm0 0"/><path d="m128.167969 176c-2.046875 0-4.097657-.785156-5.65625-2.34375l-16-16c-3.128907-3.128906-3.128907-8.183594 0-11.3125 3.128906-3.128906 8.183593-3.128906 11.3125 0l16 16c3.128906 3.128906 3.128906 8.183594 0 11.3125-1.558594 1.558594-3.609375 2.34375-5.65625 2.34375zm0 0"/><path d="m96.167969 176c-2.046875 0-4.097657-.785156-5.65625-2.34375-3.128907-3.128906-3.128907-8.183594 0-11.3125l16-16c3.128906-3.128906 8.183593-3.128906 11.3125 0 3.128906 3.128906 3.128906 8.183594 0 11.3125l-16 16c-1.558594 1.558594-3.609375 2.34375-5.65625 2.34375zm0 0"/><path d="m128.167969 208c-2.046875 0-4.097657-.785156-5.65625-2.34375l-16-16c-3.128907-3.128906-3.128907-8.183594 0-11.3125 3.128906-3.128906 8.183593-3.128906 11.3125 0l16 16c3.128906 3.128906 3.128906 8.183594 0 11.3125-1.558594 1.558594-3.609375 2.34375-5.65625 2.34375zm0 0"/><path d="m96.167969 208c-2.046875 0-4.097657-.785156-5.65625-2.34375-3.128907-3.128906-3.128907-8.183594 0-11.3125l16-16c3.128906-3.128906 8.183593-3.128906 11.3125 0 3.128906 3.128906 3.128906 8.183594 0 11.3125l-16 16c-1.558594 1.558594-3.609375 2.34375-5.65625 2.34375zm0 0"/><path d="m128.167969 240c-2.046875 0-4.097657-.785156-5.65625-2.34375l-16-16c-3.128907-3.128906-3.128907-8.183594 0-11.3125 3.128906-3.128906 8.183593-3.128906 11.3125 0l16 16c3.128906 3.128906 3.128906 8.183594 0 11.3125-1.558594 1.558594-3.609375 2.34375-5.65625 2.34375zm0 0"/><path d="m96.167969 240c-2.046875 0-4.097657-.785156-5.65625-2.34375-3.128907-3.128906-3.128907-8.183594 0-11.3125l16-16c3.128906-3.128906 8.183593-3.128906 11.3125 0 3.128906 3.128906 3.128906 8.183594 0 11.3125l-16 16c-1.558594 1.558594-3.609375 2.34375-5.65625 2.34375zm0 0"/><path d="m32.40625 184c-4.421875 0-8.039062-3.585938-8.039062-8s3.535156-8 7.953124-8h.085938c4.417969 0 8 3.585938 8 8s-3.582031 8-8 8zm0 0"/><path d="m32.167969 160c-4.425781 0-8-3.585938-8-8v-24c0-4.414062 3.574219-8 8-8s8 3.585938 8 8v24c0 4.414062-3.574219 8-8 8zm0 0"/><path d="m352.167969 104c-13.230469 0-24-10.769531-24-24s10.769531-24 24-24 24 10.769531 24 24-10.769531 24-24 24zm0-32c-4.414063 0-8 3.59375-8 8s3.585937 8 8 8c4.417969 0 8-3.59375 8-8s-3.582031-8-8-8zm0 0"/></svg>