<svg height="512pt" viewBox="0 0 512 512.008" width="512pt" xmlns="http://www.w3.org/2000/svg"><path d="m248.003906 496c-66.246094 0-128.527344-25.800781-175.367187-72.632812-46.839844-46.847657-72.63281275-109.128907-72.63281275-175.375 0-66.238282 25.79296875-128.511719 72.63281275-175.359376 46.839843-46.832031 109.109375-72.632812 175.34375-72.632812h.015625c136.742187.0078125 247.992187 111.257812 248 248 0 34.808594-7.070313 68.464844-21.007813 100.046875-1.785156 4.03125-6.480469 5.875-10.550781 4.089844-4.042969-1.792969-5.867188-6.503907-4.089844-10.550781 13.039063-29.53125 19.648438-61.019532 19.648438-93.578126-.007813-127.910156-104.089844-231.992187-232-232-.007813 0-.007813 0-.015625 0-61.960938 0-120.207031 24.136719-164.03125 67.945313-43.816407 43.816406-67.945313 102.070313-67.945313 164.039063 0 61.976562 24.128906 120.238281 67.945313 164.054687 43.816406 43.816406 102.078125 67.953125 164.054687 67.953125 32.550782 0 64.023438-6.601562 93.542969-19.632812 4.042969-1.773438 8.769531.058593 10.546875 4.097656 1.773438 4.039062-.050781 8.765625-4.097656 10.542968-31.550782 13.929688-65.199219 20.992188-99.992188 20.992188zm0 0"/><path d="m415.996094 512.007812c-25.640625 0-49.753906-9.984374-67.871094-28.121093-18.136719-18.125-28.121094-42.246094-28.121094-67.886719s9.984375-49.753906 28.121094-67.871094c18.117188-18.136718 42.230469-28.128906 67.871094-28.128906 25.648437 0 49.761718 9.992188 67.878906 28.128906 18.136719 18.128906 28.121094 42.230469 28.121094 67.871094s-9.984375 49.761719-28.121094 67.886719c-18.117188 18.136719-42.230469 28.121093-67.878906 28.121093zm0-176.007812c-21.367188 0-41.457032 8.320312-56.558594 23.441406-15.113281 15.101563-23.433594 35.191406-23.433594 56.558594 0 21.375 8.320313 41.464844 23.433594 56.574219 15.109375 15.113281 35.191406 23.433593 56.558594 23.433593 21.375 0 41.464844-8.320312 56.566406-23.433593 15.113281-15.117188 23.433594-35.199219 23.433594-56.574219 0-21.367188-8.320313-41.457031-23.433594-56.558594-15.101562-15.121094-35.191406-23.441406-56.566406-23.441406zm0 0"/><path d="m478.210938 486.207031c-2.046876 0-4.09375-.78125-5.65625-2.34375l-124.429688-124.421875c-3.128906-3.128906-3.128906-8.183594 0-11.3125s8.183594-3.128906 11.3125 0l124.4375 124.429688c3.128906 3.128906 3.128906 8.183594 0 11.3125-1.566406 1.5625-3.613281 2.335937-5.664062 2.335937zm0 0"/><path d="m334.011719 392h-46.015625c-4.425782 0-8-3.574219-8-8s3.574218-8 8-8h46.015625c4.425781 0 8 3.574219 8 8s-3.574219 8-8 8zm0 0"/><path d="m111.996094 432c-4.425782 0-8-3.574219-8-8 0-26.472656 21.527344-48 48-48 4.425781 0 8 3.574219 8 8s-3.574219 8-8 8c-17.648438 0-32 14.351562-32 32 0 4.425781-3.574219 8-8 8zm0 0"/><path d="m207.996094 392h-56c-4.425782 0-8-3.574219-8-8s3.574218-8 8-8h56c4.425781 0 8 3.574219 8 8s-3.574219 8-8 8zm0 0"/><path d="m207.996094 392c-4.425782 0-8-3.574219-8-8v-31.359375c0-4.425781 3.574218-8 8-8 4.425781 0 8 3.574219 8 8v31.359375c0 4.425781-3.574219 8-8 8zm0 0"/><path d="m287.996094 392c-4.425782 0-8-3.574219-8-8v-31.359375c0-4.425781 3.574218-8 8-8 4.425781 0 8 3.574219 8 8v31.359375c0 4.425781-3.574219 8-8 8zm0 0"/><path d="m247.996094 368c-66.167969 0-120-53.832031-120-120 0-4.425781 3.574218-8 8-8 4.425781 0 8 3.574219 8 8 0 57.34375 46.65625 104 104 104s104-46.65625 104-104c0-4.425781 3.574218-8 8-8 4.425781 0 8 3.574219 8 8 0 66.167969-53.824219 120-120 120zm0 0"/><path d="m135.996094 255.816406c-4.425782 0-8-3.578125-8-8v-43c0-4.425781 3.574218-8 8-8 4.425781 0 8 3.574219 8 8v43c0 4.414063-3.574219 8-8 8zm0 0"/><path d="m359.996094 256.007812c-4.425782 0-8-3.574218-8-8v-46.703124c0-4.425782 3.574218-8 8-8 4.425781 0 8 3.574218 8 8v46.703124c0 4.425782-3.574219 8-8 8zm0 0"/><path d="m383.996094 200c-4.425782 0-8-3.574219-8-8 0-70.574219-57.425782-128-128-128-70.574219 0-128 57.425781-128 128 0 4.425781-3.574219 8-8 8-4.425782 0-8-3.574219-8-8 0-79.398438 64.601562-144 144-144 79.398437 0 144 64.601562 144 144 0 4.425781-3.574219 8-8 8zm0 0"/><path d="m111.996094 453.761719c-4.425782 0-8-3.578125-8-8v-253.761719c0-4.425781 3.574218-8 8-8 4.425781 0 8 3.574219 8 8v253.761719c0 4.414062-3.574219 8-8 8zm0 0"/><path d="m383.996094 342.015625c-4.425782 0-8-3.574219-8-8v-142.015625c0-4.425781 3.574218-8 8-8 4.425781 0 8 3.574219 8 8v142.015625c0 4.425781-3.574219 8-8 8zm0 0"/><path d="m112.003906 224c-3.015625 0-5.894531-1.710938-7.257812-4.617188-1.863282-4.007812-.132813-8.765624 3.867187-10.628906l239.824219-111.824218c4-1.851563 8.765625-.136719 10.628906 3.863281 1.867188 4.007812.136719 8.765625-3.863281 10.632812l-239.824219 111.820313c-1.09375.515625-2.238281.753906-3.375.753906zm0 0"/><path d="m383.988281 224c-1.425781 0-2.863281-.382812-4.167969-1.175781l-117.578124-72c-3.765626-2.304688-4.949219-7.222657-2.636719-11 2.300781-3.769531 7.214843-4.945313 11-2.640625l117.574219 72c3.769531 2.304687 4.953124 7.222656 2.640624 11-1.511718 2.457031-4.136718 3.816406-6.832031 3.816406zm0 0"/><path d="m248.074219 432c-35.285157 0-64-21.527344-64-48 0-4.425781 3.578125-8 8-8 4.425781 0 8 3.574219 8 8 0 17.34375 21.984375 32 48 32 26.019531 0 48-14.65625 48-32 0-4.425781 3.578125-8 8-8 4.425781 0 8 3.574219 8 8 0 26.472656-28.710938 48-64 48zm0 0"/></svg>