<svg height="512pt" viewBox="-64 0 512 512" width="512pt" xmlns="http://www.w3.org/2000/svg"><path d="m192 208c-1.542969 0-3.097656-.449219-4.441406-1.34375l-21.984375-14.65625h-77.574219c-4.425781 0-8-3.574219-8-8v-176c0-4.425781 3.574219-8 8-8h208c4.425781 0 8 3.574219 8 8v176c0 4.425781-3.574219 8-8 8h-77.574219l-21.984375 14.65625c-1.34375.894531-2.898437 1.34375-4.441406 1.34375zm-96-32h72c1.574219 0 3.128906.472656 4.441406 1.34375l19.558594 13.039062 19.558594-13.039062c1.3125-.871094 2.867187-1.34375 4.441406-1.34375h72v-160h-192zm0 0"/><path d="m136 312c-4.425781 0-8-3.574219-8-8v-120c0-4.425781 3.574219-8 8-8s8 3.574219 8 8v120c0 4.425781-3.574219 8-8 8zm0 0"/><path d="m248 312c-4.425781 0-8-3.574219-8-8v-119.976562c0-4.421876 3.574219-8 8-8s8 3.578124 8 8v119.976562c0 4.425781-3.574219 8-8 8zm0 0"/><path d="m168 336c-13.230469 0-24-10.769531-24-24 0-4.425781 3.574219-8 8-8s8 3.574219 8 8c0 4.414062 3.585938 8 8 8 4.425781 0 8 3.574219 8 8s-3.574219 8-8 8zm0 0"/><path d="m216 336c-4.425781 0-8-3.574219-8-8s3.574219-8 8-8c4.414062 0 8-3.585938 8-7.992188 0-4.421874 3.574219-8 8-8s8 3.578126 8 8c0 13.222657-10.769531 23.992188-24 23.992188zm0 0"/><path d="m216 336h-48c-4.425781 0-8-3.574219-8-8s3.574219-8 8-8h48c4.425781 0 8 3.574219 8 8s-3.574219 8-8 8zm0 0"/><path d="m296 272c-4.425781 0-8-3.574219-8-8 0-22.046875-17.945312-39.992188-40-40-4.425781 0-8-3.585938-8-8 0-4.425781 3.585938-8 8-8 30.878906.007812 56 25.136719 56 56 0 4.425781-3.574219 8-8 8zm0 0"/><path d="m296 296h-48c-4.425781 0-8-3.574219-8-8s3.574219-8 8-8h48c4.425781 0 8 3.574219 8 8s-3.574219 8-8 8zm0 0"/><path d="m88 272c-4.425781 0-8-3.574219-8-8 0-30.871094 25.128906-55.992188 56-55.992188 4.425781 0 8 3.578126 8 8 0 4.425782-3.574219 8-8 8-22.054688 0-40 17.9375-40 39.992188 0 4.425781-3.574219 8-8 8zm0 0"/><path d="m136 296h-48c-4.425781 0-8-3.574219-8-8s3.574219-8 8-8h48c4.425781 0 8 3.574219 8 8s-3.574219 8-8 8zm0 0"/><path d="m88 296c-4.425781 0-8-3.574219-8-8v-24c0-4.425781 3.574219-8 8-8s8 3.574219 8 8v24c0 4.425781-3.574219 8-8 8zm0 0"/><path d="m296 296c-4.425781 0-8-3.574219-8-8v-24c0-4.425781 3.574219-8 8-8s8 3.574219 8 8v24c0 4.425781-3.574219 8-8 8zm0 0"/><path d="m248 312h-112c-4.425781 0-8-3.574219-8-8s3.574219-8 8-8h112c4.425781 0 8 3.574219 8 8s-3.574219 8-8 8zm0 0"/><path d="m232 320.007812c-4.425781 0-8-3.574218-8-8v-8.007812c0-4.425781 3.574219-8 8-8s8 3.574219 8 8v8.007812c0 4.425782-3.574219 8-8 8zm0 0"/><path d="m152.144531 320.007812c-4.425781 0-8-3.574218-8-8v-8c0-4.421874 3.574219-8 8-8 4.421875 0 8 3.578126 8 8v8c0 4.425782-3.585937 8-8 8zm0 0"/><path d="m256 56h-128c-4.425781 0-8-3.574219-8-8s3.574219-8 8-8h128c4.425781 0 8 3.574219 8 8s-3.574219 8-8 8zm0 0"/><path d="m256 88h-128c-4.425781 0-8-3.574219-8-8s3.574219-8 8-8h128c4.425781 0 8 3.574219 8 8s-3.574219 8-8 8zm0 0"/><path d="m256 120h-128c-4.425781 0-8-3.574219-8-8s3.574219-8 8-8h128c4.425781 0 8 3.574219 8 8s-3.574219 8-8 8zm0 0"/><path d="m224 152h-64c-4.425781 0-8-3.574219-8-8s3.574219-8 8-8h64c4.425781 0 8 3.574219 8 8s-3.574219 8-8 8zm0 0"/><path d="m216 410.976562c-4.425781 0-8-3.578124-8-8v-74.976562c0-4.425781 3.574219-8 8-8s8 3.574219 8 8v74.976562c0 4.421876-3.574219 8-8 8zm0 0"/><path d="m168 410.976562c-4.425781 0-8-3.578124-8-8v-74.976562c0-4.425781 3.574219-8 8-8s8 3.574219 8 8v74.976562c0 4.421876-3.574219 8-8 8zm0 0"/><path d="m192 368c-4.425781 0-8-3.574219-8-8v-32c0-4.425781 3.574219-8 8-8s8 3.574219 8 8v32c0 4.425781-3.574219 8-8 8zm0 0"/><path d="m256 480c-4.425781 0-8-3.574219-8-8 0-22.054688 17.945312-40 40-40 4.425781 0 8 3.574219 8 8s-3.574219 8-8 8c-13.230469 0-24 10.769531-24 24 0 4.425781-3.574219 8-8 8zm0 0"/><path d="m376 480c-4.425781 0-8-3.574219-8-8 0-13.230469-10.769531-24-24-24-8.695312 0-16.734375 4.839844-20.96875 12.632812-2.816406 5.160157-11.246094 5.160157-14.0625 0-6.304688-11.601562-21.441406-16.175781-33.199219-9.152343-2.328125 1.40625-5.234375 1.511719-7.679687.296875-2.449219-1.21875-4.097656-3.59375-4.386719-6.3125-1.296875-12.242188-11.496094-21.464844-23.703125-21.464844-4.257812 0-8.367188 1.167969-12.230469 3.488281-2.328125 1.40625-5.234375 1.519531-7.679687.296875-2.449219-1.21875-4.105469-3.601562-4.386719-6.3125-.519531-4.9375-2.503906-9.519531-5.75-13.25-2.890625-3.335937-2.527344-8.390625.808594-11.285156 3.34375-2.890625 8.382812-2.53125 11.285156.804688 3.066406 3.539062 5.457031 7.53125 7.113281 11.824218 3.535156-1.039062 7.183594-1.566406 10.839844-1.566406 16.832031 0 31.367188 10.457031 37.160156 25.550781 13.824219-3.984375 28.929688.191407 38.839844 10.058594 7.375-7.335937 17.382812-11.609375 28-11.609375 22.054688 0 40 17.945312 40 40 0 4.425781-3.574219 8-8 8zm0 0"/><path d="m144 488c-4.425781 0-8-3.574219-8-8s3.574219-8 8-8c13.230469 0 24-10.769531 24-24s-10.769531-24-24-24c-4.425781 0-8-3.574219-8-8s3.574219-8 8-8c22.054688 0 40 17.945312 40 40s-17.945312 40-40 40zm0 0"/><path d="m8 480c-4.425781 0-8-3.574219-8-8 0-22.054688 17.945312-40 40-40 10.617188 0 20.625 4.273438 28 11.609375 9.910156-9.855469 25.023438-14.042969 38.839844-10.058594 5.792968-15.09375 20.328125-25.550781 37.160156-25.550781 3.65625 0 7.304688.527344 10.839844 1.550781 1.65625-4.285156 4.046875-8.277343 7.113281-11.824219 2.902344-3.335937 7.941406-3.695312 11.285156-.804687 3.335938 2.894531 3.699219 7.949219.808594 11.285156-3.238281 3.730469-5.222656 8.3125-5.75 13.25-.28125 2.710938-1.9375 5.09375-4.386719 6.3125-2.445312 1.222657-5.34375 1.117188-7.679687-.296875-3.863281-2.304687-7.972657-3.472656-12.230469-3.472656-12.207031 0-22.40625 9.222656-23.703125 21.472656-.289063 2.71875-1.9375 5.09375-4.386719 6.3125-2.4375 1.222656-5.34375 1.109375-7.679687-.296875-11.75-7.03125-26.886719-2.457031-33.199219 9.152344-2.816406 5.160156-11.246094 5.160156-14.0625 0-4.234375-7.800781-12.273438-12.640625-20.96875-12.640625-13.230469 0-24 10.769531-24 24 0 4.425781-3.574219 8-8 8zm0 0"/><path d="m344 512h-304c-4.425781 0-8-3.574219-8-8s3.574219-8 8-8h304c4.425781 0 8 3.574219 8 8s-3.574219 8-8 8zm0 0"/><path d="m40 512c-22.054688 0-40-17.945312-40-40 0-4.425781 3.574219-8 8-8s8 3.574219 8 8c0 13.230469 10.769531 24 24 24 4.425781 0 8 3.574219 8 8s-3.574219 8-8 8zm0 0"/><path d="m344 512c-4.425781 0-8-3.574219-8-8s3.574219-8 8-8c13.230469 0 24-10.769531 24-24 0-4.425781 3.574219-8 8-8s8 3.574219 8 8c0 22.054688-17.945312 40-40 40zm0 0"/></svg>