<svg height="512pt" viewBox="-64 0 512 512" width="512pt" xmlns="http://www.w3.org/2000/svg"><path d="m216.0625 120h-160c-4.421875 0-8-3.574219-8-8s3.578125-8 8-8h160c4.425781 0 8 3.574219 8 8s-3.574219 8-8 8zm0 0"/><path d="m120.0625 152h-64c-4.421875 0-8-3.574219-8-8s3.578125-8 8-8h64c4.425781 0 8 3.574219 8 8s-3.574219 8-8 8zm0 0"/><path d="m327.9375 152h-175.875c-4.421875 0-8-3.574219-8-8s3.578125-8 8-8h175.875c4.421875 0 8 3.574219 8 8s-3.578125 8-8 8zm0 0"/><path d="m144.0625 216h-88c-4.421875 0-8-3.574219-8-8s3.578125-8 8-8h88c4.425781 0 8 3.574219 8 8s-3.574219 8-8 8zm0 0"/><path d="m327.9375 216h-151.875c-4.421875 0-8-3.574219-8-8s3.578125-8 8-8h151.875c4.421875 0 8 3.574219 8 8s-3.578125 8-8 8zm0 0"/><path d="m240.03125 184h-183.96875c-4.421875 0-8-3.574219-8-8s3.578125-8 8-8h183.96875c4.425781 0 8 3.574219 8 8s-3.574219 8-8 8zm0 0"/><path d="m327.9375 184h-55.90625c-4.421875 0-8-3.574219-8-8s3.578125-8 8-8h55.90625c4.421875 0 8 3.574219 8 8s-3.578125 8-8 8zm0 0"/><path d="m327.9375 120h-79.875c-4.421875 0-8-3.574219-8-8s3.578125-8 8-8h79.875c4.421875 0 8 3.574219 8 8s-3.578125 8-8 8zm0 0"/><path d="m120.0625 56h-64c-4.421875 0-8-3.574219-8-8s3.578125-8 8-8h64c4.425781 0 8 3.574219 8 8s-3.574219 8-8 8zm0 0"/><path d="m327.9375 56h-175.875c-4.421875 0-8-3.574219-8-8s3.578125-8 8-8h175.875c4.421875 0 8 3.574219 8 8s-3.578125 8-8 8zm0 0"/><path d="m240.03125 88h-183.96875c-4.421875 0-8-3.574219-8-8s3.578125-8 8-8h183.96875c4.425781 0 8 3.574219 8 8s-3.574219 8-8 8zm0 0"/><path d="m327.9375 88h-55.90625c-4.421875 0-8-3.574219-8-8s3.578125-8 8-8h55.90625c4.421875 0 8 3.574219 8 8s-3.578125 8-8 8zm0 0"/><path d="m216.0625 248h-160c-4.421875 0-8-3.574219-8-8s3.578125-8 8-8h160c4.425781 0 8 3.574219 8 8s-3.574219 8-8 8zm0 0"/><path d="m120.0625 280h-64c-4.421875 0-8-3.574219-8-8s3.578125-8 8-8h64c4.425781 0 8 3.574219 8 8s-3.574219 8-8 8zm0 0"/><path d="m327.9375 280h-175.875c-4.421875 0-8-3.574219-8-8s3.578125-8 8-8h175.875c4.421875 0 8 3.574219 8 8s-3.578125 8-8 8zm0 0"/><path d="m327.9375 248h-79.875c-4.421875 0-8-3.574219-8-8s3.578125-8 8-8h79.875c4.421875 0 8 3.574219 8 8s-3.578125 8-8 8zm0 0"/><path d="m8 432.023438c-4.425781 0-8-3.574219-8-8 0-39.710938 32.304688-72.015626 72.015625-72.015626 4.425781 0 8 3.578126 8 8 0 4.425782-3.574219 8-8 8-30.886719 0-56.015625 25.128907-56.015625 56.015626 0 4.425781-3.574219 8-8 8zm0 0"/><path d="m376 432.015625c-4.425781 0-8-3.574219-8-8 0-30.871094-25.128906-56-56-56-4.425781 0-8-3.574219-8-8 0-4.421875 3.574219-8 8-8 39.703125 0 72 32.296875 72 72 0 4.425781-3.574219 8-8 8zm0 0"/><path d="m72.015625 368.007812c-4.414063 0-8-3.574218-8-8 0-4.414062 3.578125-8 8-8l39.992187-.007812c4.417969 0 8 3.574219 8 8 0 4.414062-3.574218 8-8 8zm0 0"/><path d="m8.007812 504c-4.414062 0-7.9999995-3.574219-7.9999995-8l-.0078125-71.976562c0-4.414063 3.574219-8 8-8 4.414062 0 8 3.578124 8 8l.007812 71.976562c0 4.414062-3.574218 8-8 8zm0 0"/><path d="m16.007812 512c-8.824218 0-15.9999995-7.175781-15.9999995-16 0-4.425781 3.5781255-8 7.9999995-8 4.425782 0 8 3.574219 8 8v.015625c4.425782 0 8 3.570313 8 7.992187 0 4.417969-3.574218 7.992188-8 7.992188zm0 0"/><path d="m368 512c-4.425781 0-8-3.574219-8-8s3.574219-8 8-8h.015625c0-4.425781 3.570313-8 7.992187-8 4.417969 0 7.992188 3.574219 7.992188 8 0 8.824219-7.175781 16-16 16zm0 0"/><path d="m376 504c-4.425781 0-8-3.574219-8-8v-71.984375c0-4.421875 3.574219-8 8-8s8 3.578125 8 8v71.984375c0 4.425781-3.574219 8-8 8zm0 0"/><path d="m368 512h-351.992188c-4.421874 0-8-3.574219-8-8s3.578126-8 8-8h351.992188c4.425781 0 8 3.574219 8 8s-3.574219 8-8 8zm0 0"/><path d="m128 352c-4.425781 0-8-3.574219-8-8v-29.304688c0-4.421874 3.574219-8 8-8s8 3.578126 8 8v29.304688c0 4.425781-3.574219 8-8 8zm0 0"/><path d="m256 352c-4.425781 0-8-3.585938-8-8l.007812-29.304688c0-4.421874 3.585938-8 8-8 4.425782 0 8 3.585938 8 8l-.007812 29.304688c0 4.425781-3.585938 8-8 8zm0 0"/><path d="m140.808594 384c-3.007813 0-5.886719-1.703125-7.25-4.601562-1.871094-4-.160156-8.765626 3.839844-10.636719l51.203124-24c4.023438-1.882813 8.773438-.152344 10.636719 3.839843 1.875 4 .160157 8.765626-3.839843 10.636719l-51.199219 24c-1.101563.523438-2.261719.761719-3.390625.761719zm0 0"/><path d="m243.191406 384c-1.136718 0-2.289062-.238281-3.390625-.761719l-51.199219-24c-4-1.871093-5.722656-6.636719-3.839843-10.636719 1.871093-3.992187 6.605469-5.730468 10.636719-3.839843l51.203124 24c4 1.871093 5.71875 6.636719 3.839844 10.636719-1.351562 2.898437-4.242187 4.601562-7.25 4.601562zm0 0"/><path d="m96 384.015625c-2.046875 0-4.097656-.785156-5.65625-2.34375-3.128906-3.128906-3.128906-8.183594 0-11.3125l32-32.015625c3.128906-3.128906 8.183594-3.128906 11.3125 0s3.128906 8.183594 0 11.3125l-32 32.015625c-1.558594 1.558594-3.609375 2.34375-5.65625 2.34375zm0 0"/><path d="m128 416c-2.046875 0-4.097656-.785156-5.65625-2.34375l-32-31.984375c-3.128906-3.128906-3.128906-8.183594 0-11.3125s8.183594-3.128906 11.3125 0l32 31.984375c3.128906 3.128906 3.128906 8.183594 0 11.3125-1.558594 1.558594-3.609375 2.34375-5.65625 2.34375zm0 0"/><path d="m112 432c-2.046875 0-4.097656-.785156-5.65625-2.34375-3.128906-3.128906-3.128906-8.183594 0-11.3125l16-16c3.128906-3.128906 8.183594-3.128906 11.3125 0s3.128906 8.183594 0 11.3125l-16 16c-1.558594 1.558594-3.609375 2.34375-5.65625 2.34375zm0 0"/><path d="m160.007812 512c-2.71875 0-5.367187-1.382812-6.863281-3.878906l-48-80c-2.273437-3.792969-1.046875-8.707032 2.742188-10.976563 3.800781-2.273437 8.707031-1.046875 10.976562 2.742188l48 80c2.273438 3.792969 1.046875 8.707031-2.742187 10.976562-1.289063.769531-2.714844 1.136719-4.113282 1.136719zm0 0"/><path d="m192 512c-3.167969 0-6.175781-1.894531-7.433594-5.03125l-64-160c-1.636718-4.105469.363282-8.761719 4.464844-10.402344 4.066406-1.636718 8.761719.355469 10.402344 4.464844l64 160c1.636718 4.105469-.363282 8.761719-4.464844 10.402344-.96875.390625-1.976562.566406-2.96875.566406zm0 0"/><path d="m288 384.015625c-2.046875 0-4.097656-.785156-5.65625-2.34375l-32-32.015625c-3.128906-3.128906-3.128906-8.183594 0-11.3125s8.183594-3.128906 11.3125 0l32 32.015625c3.128906 3.128906 3.128906 8.183594 0 11.3125-1.558594 1.558594-3.609375 2.34375-5.65625 2.34375zm0 0"/><path d="m256 416c-2.046875 0-4.097656-.785156-5.65625-2.34375-3.128906-3.128906-3.128906-8.183594 0-11.3125l32-31.984375c3.128906-3.128906 8.183594-3.128906 11.3125 0s3.128906 8.183594 0 11.3125l-32 31.984375c-1.558594 1.558594-3.609375 2.34375-5.65625 2.34375zm0 0"/><path d="m272 432c-2.046875 0-4.097656-.785156-5.65625-2.34375l-16-16c-3.128906-3.128906-3.128906-8.183594 0-11.3125s8.183594-3.128906 11.3125 0l16 16c3.128906 3.128906 3.128906 8.183594 0 11.3125-1.558594 1.558594-3.609375 2.34375-5.65625 2.34375zm0 0"/><path d="m223.992188 512c-1.398438 0-2.824219-.367188-4.113282-1.144531-3.789062-2.269531-5.015625-7.183594-2.742187-10.976563l48-80c2.269531-3.789062 7.175781-5.015625 10.976562-2.742187 3.789063 2.269531 5.015625 7.183593 2.742188 10.976562l-48 80c-1.496094 2.503907-4.144531 3.886719-6.863281 3.886719zm0 0"/><path d="m192 512c-.992188 0-2-.175781-2.96875-.566406-4.101562-1.640625-6.101562-6.296875-4.464844-10.402344l64-160c1.640625-4.109375 6.328125-6.101562 10.402344-4.464844 4.101562 1.640625 6.101562 6.296875 4.464844 10.402344l-64 160c-1.257813 3.136719-4.265625 5.03125-7.433594 5.03125zm0 0"/><path d="m312 368.015625h-39.992188c-4.421874 0-8-3.574219-8-8 0-4.421875 3.578126-8 8-8h39.992188c4.425781 0 8 3.578125 8 8 0 4.425781-3.574219 8-8 8zm0 0"/><path d="m160 432.023438c-1.398438 0-2.824219-.367188-4.113281-1.144532-3.789063-2.269531-5.015625-7.183594-2.742188-10.976562l23.992188-40.007813c2.269531-3.78125 7.175781-5.015625 10.976562-2.742187 3.789063 2.273437 5.015625 7.183594 2.742188 10.976562l-23.992188 40.007813c-1.496093 2.503906-4.144531 3.886719-6.863281 3.886719zm0 0"/><path d="m224 432.023438c-2.71875 0-5.367188-1.382813-6.863281-3.886719l-23.992188-40.023438c-2.273437-3.792969-1.046875-8.707031 2.75-10.96875 3.769531-2.273437 8.699219-1.046875 10.96875 2.75l23.992188 40.027344c2.273437 3.789063 1.046875 8.703125-2.75 10.964844-1.28125.769531-2.707031 1.136719-4.105469 1.136719zm0 0"/><path d="m200 392.015625h-16c-4.425781 0-8-3.574219-8-8 0-4.421875 3.574219-8 8-8h16c4.425781 0 8 3.578125 8 8 0 4.425781-3.574219 8-8 8zm0 0"/><path d="m199.992188 392.015625c-1.703126 0-3.425782-.535156-4.871094-1.664063-3.503906-2.695312-4.152344-7.71875-1.457032-11.214843l16-20.769531c2.695313-3.503907 7.710938-4.167969 11.214844-1.457032 3.503906 2.699219 4.152344 7.722656 1.457032 11.21875l-16 20.765625c-1.574219 2.050781-3.945313 3.121094-6.34375 3.121094zm0 0"/><path d="m184.007812 392.015625c-2.398437 0-4.769531-1.070313-6.34375-3.121094l-16-20.765625c-2.695312-3.503906-2.046874-8.519531 1.457032-11.21875 3.503906-2.703125 8.511718-2.046875 11.214844 1.457032l16 20.769531c2.695312 3.503906 2.046874 8.519531-1.457032 11.214843-1.445312 1.128907-3.167968 1.664063-4.871094 1.664063zm0 0"/><path d="m191.992188 336c-1.542969 0-3.097657-.449219-4.441407-1.34375l-21.976562-14.65625h-149.574219c-4.425781 0-8-3.574219-8-8v-304c0-4.425781 3.574219-8 8-8h352c4.425781 0 8 3.574219 8 8v304c0 4.425781-3.574219 8-8 8h-149.585938l-21.980468 14.65625c-1.34375.894531-2.898438 1.34375-4.441406 1.34375zm-167.992188-32h144c1.574219 0 3.128906.472656 4.441406 1.34375l19.550782 13.039062 19.558593-13.039062c1.3125-.871094 2.863281-1.34375 4.441407-1.34375h144.007812v-288h-336zm0 0"/></svg>