<svg height="512pt" viewBox="0 -8 512.00147 512" width="512pt" xmlns="http://www.w3.org/2000/svg"><path d="m256.003906 400.007812c-92.632812 0-168-75.367187-168-168 0-92.628906 75.367188-168 168-168 92.632813 0 168 75.371094 168 168 0 92.632813-75.367187 168-168 168zm0-320c-83.816406 0-152 68.1875-152 152 0 83.816407 68.183594 152 152 152s152-68.183593 152-152c0-83.8125-68.183594-152-152-152zm0 0"/><path d="m256.003906 448.007812c-92.632812 0-168-75.367187-168-168 0-4.421874 3.574219-8 8-8 4.421875 0 8 3.578126 8 8 0 83.816407 68.183594 152 152 152s152-68.183593 152-152c0-4.421874 3.574219-8 8-8 4.421875 0 8 3.578126 8 8 0 92.632813-75.367187 168-168 168zm0 0"/><path d="m153.988281 116.746094c-2.050781 0-4.097656-.785156-5.65625-2.34375l-83.761719-83.769532c-3.128906-3.128906-3.128906-8.183593 0-11.3125 3.128907-3.125 8.183594-3.125 11.3125 0l83.761719 83.769532c3.125 3.128906 3.125 8.183594 0 11.3125-1.5625 1.558594-3.609375 2.34375-5.65625 2.34375zm0 0"/><path d="m113.644531 166.898438c-2.050781 0-4.097656-.785157-5.65625-2.34375l-88.671875-88.664063c-3.128906-3.128906-3.128906-8.183594 0-11.3125 3.125-3.128906 8.183594-3.128906 11.308594 0l88.675781 88.664063c3.125 3.128906 3.125 8.183593 0 11.3125-1.5625 1.566406-3.609375 2.34375-5.65625 2.34375zm0 0"/><path d="m131.507812 139.515625c-2.050781 0-4.097656-.785156-5.65625-2.347656l-66.9375-66.933594c-3.128906-3.128906-3.128906-8.183594 0-11.3125 3.128907-3.128906 8.183594-3.128906 11.3125 0l66.929688 66.929687c3.125 3.125 3.125 8.183594 0 11.308594-1.5625 1.570313-3.609375 2.355469-5.648438 2.355469zm0 0"/><path d="m24.964844 78.234375c-3.515625 0-6.746094-2.335937-7.714844-5.898437l-16.96875-62.222657c-1.160156-4.261719 1.355469-8.65625 5.617188-9.824219 4.242187-1.160156 8.65625 1.34375 9.824218 5.617188l16.96875 62.222656c1.167969 4.257813-1.351562 8.65625-5.617187 9.824219-.703125.199219-1.40625.28125-2.109375.28125zm0 0"/><path d="m70.234375 32.976562c-.703125 0-1.40625-.085937-2.113281-.277343l-62.222656-16.96875c-4.261719-1.167969-6.777344-5.5625-5.617188-9.824219 1.167969-4.273438 5.601562-6.792969 9.824219-5.617188l62.226562 16.96875c4.261719 1.167969 6.78125 5.558594 5.613281 9.824219-.964843 3.558594-4.191406 5.894531-7.710937 5.894531zm0 0"/><path d="m24.964844 78.234375c-3.921875 0-7.347656-2.871094-7.914063-6.863281-.625-4.378906 2.417969-8.433594 6.785157-9.058594l39.597656-5.65625c4.371094-.65625 8.433594 2.417969 9.066406 6.792969s-2.417969 8.425781-6.792969 9.054687l-39.601562 5.65625c-.382813.050782-.765625.074219-1.140625.074219zm0 0"/><path d="m64.578125 72.578125c-.375 0-.757813-.023437-1.144531-.082031-4.367188-.621094-7.40625-4.671875-6.78125-9.046875l5.65625-39.597657c.621094-4.378906 4.679687-7.425781 9.054687-6.792968 4.375.625 7.414063 4.679687 6.792969 9.054687l-5.65625 39.601563c-.578125 3.992187-3.992188 6.863281-7.921875 6.863281zm0 0"/><path d="m17.699219 51.570312c-2.046875 0-4.097657-.785156-5.65625-2.34375-3.128907-3.128906-3.128907-8.183593 0-11.3125l25.863281-25.863281c3.128906-3.128906 8.183594-3.128906 11.3125 0 3.128906 3.128907 3.128906 8.183594 0 11.3125l-25.863281 25.863281c-1.5625 1.566407-3.609375 2.34375-5.65625 2.34375zm0 0"/><path d="m485.660156 448.417969c-2.050781 0-4.097656-.785157-5.65625-2.34375l-87.296875-87.296875c-3.128906-3.128906-3.128906-8.183594 0-11.3125 3.128907-3.128906 8.183594-3.128906 11.3125 0l87.296875 87.296875c3.125 3.128906 3.125 8.183593 0 11.3125-1.5625 1.558593-3.609375 2.34375-5.65625 2.34375zm0 0"/><path d="m440.402344 493.664062c-2.046875 0-4.09375-.78125-5.65625-2.34375l-82.382813-82.390624c-3.128906-3.128907-3.128906-8.183594 0-11.3125 3.128907-3.128907 8.183594-3.128907 11.3125 0l82.382813 82.390624c3.128906 3.128907 3.128906 8.1875 0 11.3125-1.558594 1.5625-3.609375 2.34375-5.65625 2.34375zm0 0"/><path d="m411.15625 419.160156c-2.050781 0-4.097656-.78125-5.65625-2.34375l-30.648438-30.648437c-3.128906-3.125-3.128906-8.183594 0-11.308594 3.128907-3.128906 8.183594-3.128906 11.3125 0l30.648438 30.644531c3.125 3.128906 3.125 8.1875 0 11.3125-1.570312 1.5625-3.617188 2.34375-5.65625 2.34375zm0 0"/><path d="m451.722656 493.664062c-2.046875 0-4.097656-.78125-5.65625-2.34375-3.128906-3.125-3.128906-8.183593 0-11.3125l33.9375-33.933593c3.128906-3.128907 8.183594-3.128907 11.3125 0 3.125 3.128906 3.125 8.183593 0 11.3125l-33.9375 33.933593c-1.558594 1.5625-3.609375 2.34375-5.65625 2.34375zm0 0"/><path d="m417.777344 471.042969c-2.046875 0-4.09375-.785157-5.65625-2.34375-3.125-3.128907-3.125-8.183594 0-11.3125l45.257812-45.257813c3.128906-3.128906 8.183594-3.128906 11.3125 0s3.128906 8.183594 0 11.3125l-45.257812 45.257813c-1.566406 1.558593-3.605469 2.34375-5.65625 2.34375zm0 0"/><path d="m446.058594 495.992188c-4.09375 0-8.183594-1.550782-11.304688-4.664063-3.136718-3.117187-3.136718-8.183594-.015625-11.308594 3.128907-3.144531 8.183594-3.128906 11.3125-.019531l.015625.007812c3.128906-3.109374 8.199219-3.125 11.3125.019532 3.128906 3.125 3.128906 8.183594-.007812 11.300781-3.121094 3.113281-7.207032 4.664063-11.3125 4.664063zm0 0"/><path d="m485.660156 459.730469c-2.050781 0-4.089844-.785157-5.648437-2.335938-3.136719-3.121093-3.136719-8.183593-.015625-11.3125-3.128906-3.128906-3.121094-8.191406 0-11.320312 3.125-3.128907 8.191406-3.128907 11.320312 0 6.230469 6.222656 6.230469 16.375.007813 22.617187-1.5625 1.566406-3.617188 2.351563-5.664063 2.351563zm0 0"/><path d="m96.003906 288.007812c-4.425781 0-8-3.574218-8-8v-48c0-4.421874 3.574219-8 8-8 4.421875 0 8 3.578126 8 8v48c0 4.425782-3.578125 8-8 8zm0 0"/><path d="m416.003906 288.007812c-4.425781 0-8-3.574218-8-8v-48c0-4.421874 3.574219-8 8-8 4.421875 0 8 3.578126 8 8v48c0 4.425782-3.578125 8-8 8zm0 0"/><path d="m256.003906 448.007812c-4.425781 0-8-3.574218-8-8v-48c0-4.421874 3.574219-8 8-8 4.421875 0 8 3.578126 8 8v48c0 4.425782-3.578125 8-8 8zm0 0"/><path d="m344.003906 421.640625c-4.425781 0-8-3.574219-8-8v-47.992187c0-4.421876 3.574219-8 8-8 4.421875 0 8 3.578124 8 8v47.992187c0 4.425781-3.578125 8-8 8zm0 0"/><path d="m168.003906 421.640625c-4.425781 0-8-3.574219-8-8v-47.992187c0-4.421876 3.574219-8 8-8 4.421875 0 8 3.578124 8 8v47.992187c0 4.425781-3.578125 8-8 8zm0 0"/><path d="m272.003906 296.007812c-4.425781 0-8-3.574218-8-8v-136c0-4.421874 3.574219-8 8-8 4.421875 0 8 3.578126 8 8v136c0 4.425782-3.578125 8-8 8zm0 0"/><path d="m224.011719 192.007812c-2.585938 0-5.128907-1.246093-6.664063-3.558593-2.457031-3.679688-1.464844-8.640625 2.214844-11.09375l48-32c3.679688-2.449219 8.640625-1.464844 11.097656 2.214843 2.453125 3.679688 1.460938 8.640626-2.21875 11.09375l-48 32c-1.367187.90625-2.910156 1.34375-4.429687 1.34375zm0 0"/><path d="m240.003906 296.007812c-4.425781 0-8-3.574218-8-8v-114.660156c0-4.425781 3.574219-8 8-8 4.421875 0 8 3.574219 8 8v114.660156c0 4.425782-3.578125 8-8 8zm0 0"/><path d="m288.003906 296.007812h-64c-4.425781 0-8-3.574218-8-8 0-4.421874 3.574219-8 8-8h64c4.421875 0 8 3.578126 8 8 0 4.425782-3.578125 8-8 8zm0 0"/><path d="m398.363281 166.90625c-2.046875 0-4.097656-.785156-5.65625-2.34375-3.128906-3.128906-3.128906-8.183594 0-11.3125l26.449219-26.449219c3.125-3.128906 8.183594-3.128906 11.3125 0 3.125 3.128907 3.125 8.183594 0 11.3125l-26.449219 26.449219c-1.5625 1.566406-3.609375 2.34375-5.65625 2.34375zm0 0"/><path d="m424.8125 140.464844c-2.050781 0-4.097656-.78125-5.65625-2.34375l-45.257812-45.253906c-3.128907-3.128907-3.128907-8.183594 0-11.3125 3.128906-3.128907 8.183593-3.128907 11.3125 0l45.257812 45.253906c3.125 3.128906 3.125 8.183594 0 11.3125-1.570312 1.5625-3.617188 2.34375-5.65625 2.34375zm0 0"/><path d="m358.011719 116.746094c-2.046875 0-4.097657-.785156-5.65625-2.34375-3.128907-3.128906-3.128907-8.183594 0-11.3125l21.535156-21.535156c3.128906-3.128907 8.183594-3.128907 11.3125 0 3.128906 3.128906 3.128906 8.183593 0 11.3125l-21.535156 21.535156c-1.5625 1.558594-3.609375 2.34375-5.65625 2.34375zm0 0"/><path d="m390.859375 106.515625c-2.046875 0-4.105469-.785156-5.664063-2.347656-3.121093-3.125-3.121093-8.191407.007813-11.316407l19.335937-19.3125c3.128907-3.113281 8.191407-3.121093 11.320313.007813 3.121094 3.125 3.121094 8.191406-.007813 11.320313l-19.335937 19.3125c-1.5625 1.558593-3.609375 2.335937-5.65625 2.335937zm0 0"/><path d="m413.5 129.152344c-2.050781 0-4.097656-.78125-5.65625-2.34375-3.128906-3.125-3.128906-8.183594 0-11.3125l19.320312-19.328125c3.125-3.125 8.183594-3.125 11.3125 0 3.125 3.128906 3.125 8.1875 0 11.3125l-19.320312 19.328125c-1.570312 1.5625-3.617188 2.34375-5.65625 2.34375zm0 0"/><path d="m447.433594 112.578125c-12.824219 0-24.871094-4.992187-33.933594-14.0625-18.722656-18.722656-18.722656-49.167969 0-67.882813 3.125-3.128906 8.183594-3.128906 11.3125 0 3.125 3.128907 3.125 8.183594 0 11.3125-12.480469 12.480469-12.480469 32.785157 0 45.257813 12.09375 12.09375 33.160156 12.09375 45.246094 0 3.128906-3.128906 8.183594-3.128906 11.3125 0 3.128906 3.125 3.128906 8.183594 0 11.3125-9.0625 9.070313-21.121094 14.0625-33.9375 14.0625zm0 0"/><path d="m419.15625 44.289062c-2.050781 0-4.097656-.785156-5.65625-2.34375-3.128906-3.128906-3.128906-8.183593 0-11.3125 18.253906-18.253906 81.984375-29.3125 89.191406-30.511718 4.351563-.742188 8.472656 2.214844 9.199219 6.578125.726563 4.351562-2.214844 8.480469-6.574219 9.199219-25.273437 4.214843-69.480468 15.015624-80.503906 26.046874-1.570312 1.570313-3.617188 2.34375-5.65625 2.34375zm0 0"/><path d="m475.714844 100.859375c-2.046875 0-4.097656-.785156-5.65625-2.34375-3.128906-3.128906-3.128906-8.1875 0-11.3125 11.03125-11.035156 21.832031-55.234375 26.054687-80.503906.738281-4.363281 4.839844-7.328125 9.203125-6.578125 4.359375.730468 7.300782 4.847656 6.574219 9.199218-1.199219 7.210938-12.253906 70.945313-30.519531 89.195313-1.558594 1.566406-3.609375 2.34375-5.65625 2.34375zm0 0"/><path d="m419.15625 100.859375c-2.050781 0-4.097656-.785156-5.65625-2.34375-3.128906-3.128906-3.128906-8.1875 0-11.3125l28.277344-28.28125c3.128906-3.128906 8.1875-3.128906 11.3125 0 3.128906 3.128906 3.128906 8.183594 0 11.3125l-28.277344 28.28125c-1.570312 1.566406-3.617188 2.34375-5.65625 2.34375zm0 0"/><path d="m33.484375 441.386719c-2.050781 0-4.097656-.785157-5.65625-2.34375-3.128906-3.128907-3.128906-8.183594 0-11.3125l80.109375-80.113281c3.128906-3.128907 8.183594-3.128907 11.3125 0 3.128906 3.128906 3.128906 8.183593 0 11.3125l-80.109375 80.113281c-1.570313 1.558593-3.617187 2.34375-5.65625 2.34375zm0 0"/><path d="m78.738281 486.632812c-2.046875 0-4.09375-.78125-5.65625-2.34375-3.128906-3.128906-3.128906-8.183593 0-11.3125l75.3125-75.304687c3.128907-3.125 8.183594-3.125 11.3125 0 3.128907 3.128906 3.128907 8.1875 0 11.3125l-75.3125 75.304687c-1.558593 1.5625-3.609375 2.34375-5.65625 2.34375zm0 0"/><path d="m56.105469 495.984375c-10.238281 0-20.488281-3.894531-28.277344-11.695313-15.59375-15.589843-15.59375-40.96875 0-56.558593 3.125-3.128907 8.183594-3.128907 11.3125 0 3.125 3.128906 3.125 8.183593 0 11.3125-9.363281 9.359375-9.363281 24.574219 0 33.933593 9.085937 9.074219 24.886719 9.058594 33.941406 0 3.128907-3.125 8.183594-3.125 11.3125 0 3.128907 3.128907 3.128907 8.183594 0 11.3125-7.800781 7.800782-18.039062 11.695313-28.289062 11.695313zm0 0"/></svg>