<svg height="511pt" viewBox="0 -31 511.936 511" width="511pt" xmlns="http://www.w3.org/2000/svg"><path d="m32.238281 32.46875c-4.421875 0-8.039062-3.578125-8.039062-8 0-4.425781 3.535156-8 7.953125-8h.085937c4.417969 0 8 3.574219 8 8 0 4.421875-3.582031 8-8 8zm0 0"/><path d="m56.238281 32.46875c-4.421875 0-8.039062-3.578125-8.039062-8 0-4.425781 3.535156-8 7.953125-8h.085937c4.417969 0 8 3.574219 8 8 0 4.421875-3.582031 8-8 8zm0 0"/><path d="m80.238281 32.46875c-4.421875 0-8.039062-3.578125-8.039062-8 0-4.425781 3.535156-8 7.953125-8h.085937c4.417969 0 8 3.574219 8 8 0 4.421875-3.582031 8-8 8zm0 0"/><path d="m264.015625 408.46875h-255.878906c-4.425781 0-8-3.578125-8-8v-360c0-4.425781 3.574219-8 8-8h376c4.421875 0 8 3.574219 8 8v224c0 4.421875-3.578125 8-8 8-4.425781 0-8-3.578125-8-8v-216h-360v344h247.871093c4.425782 0 8 3.574219 8 8 0 4.421875-3.566406 8-7.992187 8zm0 0"/><path d="m8 32.46875c-4.425781 0-8-3.578125-8-8 0-13.234375 10.769531-24 24-24 4.425781 0 8 3.574219 8 8 0 4.421875-3.574219 8-8 8-4.414062 0-8 3.582031-8 8 0 4.421875-3.574219 8-8 8zm0 0"/><path d="m8 48.46875c-4.425781 0-8-3.578125-8-8v-16c0-4.425781 3.574219-8 8-8s8 3.574219 8 8v16c0 4.421875-3.574219 8-8 8zm0 0"/><path d="m384 32.46875c-4.425781 0-8-3.578125-8-8 0-4.417969-3.585938-8-8-8-4.425781 0-8-3.578125-8-8 0-4.425781 3.574219-8 8-8 13.230469 0 24 10.765625 24 24 0 4.421875-3.574219 8-8 8zm0 0"/><path d="m384 48.46875c-4.425781 0-8-3.578125-8-8v-16c0-4.425781 3.574219-8 8-8s8 3.574219 8 8v16c0 4.421875-3.574219 8-8 8zm0 0"/><path d="m368 16.46875h-344c-4.425781 0-8-3.578125-8-8 0-4.425781 3.574219-8 8-8h344c4.425781 0 8 3.574219 8 8 0 4.421875-3.574219 8-8 8zm0 0"/><path d="m327.9375 168.46875h-264c-4.425781 0-8-3.578125-8-8v-64c0-4.425781 3.574219-8 8-8h264c4.421875 0 8 3.574219 8 8v64c0 4.421875-3.578125 8-8 8zm-256-16h248v-48h-248zm0 0"/><path d="m327.9375 224.46875h-264c-4.425781 0-8-3.578125-8-8v-24c0-4.425781 3.574219-8 8-8h264c4.421875 0 8 3.574219 8 8v24c0 4.421875-3.578125 8-8 8zm-256-16h248v-8h-248zm0 0"/><path d="m199.9375 256.46875h-136c-4.425781 0-8-3.578125-8-8 0-4.425781 3.574219-8 8-8h136c4.421875 0 8 3.574219 8 8 0 4.421875-3.578125 8-8 8zm0 0"/><path d="m127.9375 288.46875h-64c-4.425781 0-8-3.578125-8-8 0-4.425781 3.574219-8 8-8h64c4.421875 0 8 3.574219 8 8 0 4.421875-3.578125 8-8 8zm0 0"/><path d="m327.9375 288.46875h-168c-4.425781 0-8-3.578125-8-8 0-4.425781 3.574219-8 8-8h168c4.421875 0 8 3.574219 8 8 0 4.421875-3.578125 8-8 8zm0 0"/><path d="m167.9375 352.46875h-104c-4.425781 0-8-3.578125-8-8 0-4.425781 3.574219-8 8-8h104c4.421875 0 8 3.574219 8 8 0 4.421875-3.578125 8-8 8zm0 0"/><path d="m232 352.46875h-32.0625c-4.425781 0-8-3.578125-8-8 0-4.425781 3.574219-8 8-8h32.0625c4.425781 0 8 3.574219 8 8 0 4.421875-3.574219 8-8 8zm0 0"/><path d="m231.9375 320.46875h-168c-4.425781 0-8-3.578125-8-8 0-4.425781 3.574219-8 8-8h168c4.421875 0 8 3.574219 8 8 0 4.421875-3.578125 8-8 8zm0 0"/><path d="m327.9375 256.46875h-96c-4.425781 0-8-3.578125-8-8 0-4.425781 3.574219-8 8-8h96c4.421875 0 8 3.574219 8 8 0 4.421875-3.578125 8-8 8zm0 0"/><path d="m272.078125 136.46875h-152c-4.421875 0-8-3.578125-8-8 0-4.425781 3.578125-8 8-8h152c4.425781 0 8 3.574219 8 8 0 4.421875-3.582031 8-8 8zm0 0"/><path d="m503.9375 448.46875h-240c-4.425781 0-8-3.578125-8-8 0-4.425781 3.574219-8 8-8h240c4.421875 0 8 3.574219 8 8 0 4.421875-3.578125 8-8 8zm0 0"/><path d="m503.9375 424.46875h-240c-4.425781 0-8-3.578125-8-8 0-4.425781 3.574219-8 8-8h240c4.421875 0 8 3.574219 8 8 0 4.421875-3.578125 8-8 8zm0 0"/><path d="m503.9375 448.46875c-4.425781 0-8-3.578125-8-8v-128c0-4.425781 3.574219-8 8-8 4.421875 0 8 3.574219 8 8v128c0 4.421875-3.578125 8-8 8zm0 0"/><path d="m263.9375 448.46875c-4.425781 0-8-3.578125-8-8v-128c0-4.425781 3.574219-8 8-8 4.421875 0 8 3.574219 8 8v128c0 4.421875-3.578125 8-8 8zm0 0"/><path d="m311.929688 344.46875c-1.203126 0-2.425782-.273438-3.570313-.839844l-48-24c-3.953125-1.976562-5.550781-6.785156-3.574219-10.738281 1.984375-3.949219 6.789063-5.535156 10.734375-3.574219l48 24c3.953125 1.976563 5.550781 6.785156 3.578125 10.734375-1.410156 2.800781-4.234375 4.417969-7.167968 4.417969zm0 0"/><path d="m455.945312 344.46875c-2.9375 0-5.761718-1.617188-7.167968-4.425781-1.976563-3.949219-.378906-8.757813 3.574218-10.734375l48-24c3.953126-1.960938 8.753907-.375 10.738282 3.574218 1.972656 3.953126.375 8.761719-3.578125 10.738282l-48 24c-1.144531.574218-2.367188.847656-3.566407.847656zm0 0"/><path d="m311.9375 344.46875c-2.050781 0-4.097656-.785156-5.65625-2.34375-3.128906-3.128906-3.128906-8.183594 0-11.3125l72-72c3.125-3.128906 8.183594-3.128906 11.3125 0 3.125 3.128906 3.125 8.183594 0 11.3125l-72 72c-1.5625 1.558594-3.609375 2.34375-5.65625 2.34375zm0 0"/><path d="m455.9375 344.46875c-2.050781 0-4.097656-.785156-5.65625-2.34375l-72-72c-3.128906-3.128906-3.128906-8.183594 0-11.3125 3.125-3.128906 8.183594-3.128906 11.3125 0l72 72c3.125 3.128906 3.125 8.183594 0 11.3125-1.5625 1.558594-3.609375 2.34375-5.65625 2.34375zm0 0"/><path d="m391.9375 392.46875h-16c-3.035156 0-5.800781-1.710938-7.160156-4.425781l-8-16c-.554688-1.109375-.839844-2.335938-.839844-3.574219v-8c0-1.242188.285156-2.472656.839844-3.578125l8-16c1.359375-2.710937 4.125-4.421875 7.160156-4.421875h16c3.03125 0 5.796875 1.710938 7.160156 4.421875l8 16c.550782 1.113281.839844 2.335937.839844 3.578125v8c0 1.238281-.289062 2.472656-.839844 3.574219l-8 16c-1.363281 2.714843-4.128906 4.425781-7.160156 4.425781zm-11.058594-16h6.113282l4.945312-9.890625v-4.214844l-4.945312-9.894531h-6.113282l-4.941406 9.886719v4.214843zm0 0"/></svg>