<svg height="512pt" viewBox="-112 0 512 512" width="512pt" xmlns="http://www.w3.org/2000/svg"><path d="m232 480h-176c-30.871094 0-56-25.128906-56-56 0-4.425781 3.574219-8 8-8s8 3.574219 8 8c0 22.054688 17.945312 40 40 40h176c22.054688 0 40-17.945312 40-40 0-4.425781 3.574219-8 8-8s8 3.574219 8 8c0 30.871094-25.128906 56-56 56zm0 0"/><path d="m120.238281 40c-4.421875 0-8.039062-3.574219-8.039062-8s3.535156-8 7.953125-8h.085937c4.417969 0 8 3.574219 8 8s-3.582031 8-8 8zm0 0"/><path d="m168 40h-24c-4.425781 0-8-3.574219-8-8s3.574219-8 8-8h24c4.425781 0 8 3.574219 8 8s-3.574219 8-8 8zm0 0"/><path d="m280 56.015625c-4.425781 0-8-3.574219-8-8 0-17.648437-14.351562-32-32-32-4.425781 0-8-3.574219-8-8 0-4.421875 3.574219-8 8-8 26.472656 0 48 21.527344 48 48 0 4.425781-3.574219 8-8 8zm0 0"/><path d="m8 56c-4.425781 0-8-3.574219-8-8 0-26.472656 21.527344-48 48-48 4.425781 0 8 3.574219 8 8s-3.574219 8-8 8c-17.648438 0-32 14.351562-32 32 0 4.425781-3.574219 8-8 8zm0 0"/><path d="m240 16h-192c-4.425781 0-8-3.574219-8-8s3.574219-8 8-8h192c4.425781 0 8 3.574219 8 8s-3.574219 8-8 8zm0 0"/><path d="m280 64.015625h-272c-4.425781 0-8-3.574219-8-8 0-4.421875 3.574219-8 8-8h272c4.425781 0 8 3.578125 8 8 0 4.425781-3.574219 8-8 8zm0 0"/><path d="m232 512h-176c-30.871094 0-56-25.128906-56-56v-408c0-4.425781 3.574219-8 8-8s8 3.574219 8 8v408c0 22.054688 17.945312 40 40 40h176c22.054688 0 40-17.945312 40-40v-407.984375c0-4.421875 3.574219-8 8-8s8 3.578125 8 8v407.984375c0 30.871094-25.128906 56-56 56zm0 0"/><path d="m280 416h-272c-4.425781 0-8-3.574219-8-8s3.574219-8 8-8h272c4.425781 0 8 3.574219 8 8s-3.574219 8-8 8zm0 0"/><path d="m144 464c-13.230469 0-24-10.769531-24-24s10.769531-24 24-24 24 10.769531 24 24-10.769531 24-24 24zm0-32c-4.414062 0-8 3.585938-8 8s3.585938 8 8 8 8-3.585938 8-8-3.585938-8-8-8zm0 0"/><path d="m64 136c-13.230469 0-24-10.769531-24-24s10.769531-24 24-24 24 10.769531 24 24-10.769531 24-24 24zm0-32c-4.414062 0-8 3.585938-8 8s3.585938 8 8 8 8-3.585938 8-8-3.585938-8-8-8zm0 0"/><path d="m240 136h-128c-4.425781 0-8-3.574219-8-8v-4.6875l-5.65625-5.65625c-3.128906-3.128906-3.128906-8.183594 0-11.3125l5.65625-5.65625v-4.6875c0-4.425781 3.574219-8 8-8h128c4.425781 0 8 3.574219 8 8v32c0 4.425781-3.574219 8-8 8zm-120-16h112v-16h-112c0 2.128906-.839844 4.160156-2.34375 5.65625l-2.34375 2.34375 2.34375 2.34375c1.503906 1.496094 2.34375 3.527344 2.34375 5.65625zm0 0"/><path d="m224 216c-13.230469 0-24-10.769531-24-24s10.769531-24 24-24 24 10.769531 24 24-10.769531 24-24 24zm0-32c-4.414062 0-8 3.585938-8 8s3.585938 8 8 8 8-3.585938 8-8-3.585938-8-8-8zm0 0"/><path d="m176 216h-128c-4.425781 0-8-3.574219-8-8v-32c0-4.425781 3.574219-8 8-8h128c4.425781 0 8 3.574219 8 8v4.6875l5.65625 5.65625c3.128906 3.128906 3.128906 8.183594 0 11.3125l-5.65625 5.65625v4.6875c0 4.425781-3.574219 8-8 8zm-120-16h112c0-2.128906.839844-4.160156 2.34375-5.65625l2.34375-2.34375-2.34375-2.34375c-1.503906-1.496094-2.34375-3.527344-2.34375-5.65625h-112zm0 0"/><path d="m64 296c-13.230469 0-24-10.769531-24-24s10.769531-24 24-24 24 10.769531 24 24-10.769531 24-24 24zm0-32c-4.414062 0-8 3.585938-8 8s3.585938 8 8 8 8-3.585938 8-8-3.585938-8-8-8zm0 0"/><path d="m240 296h-128c-4.425781 0-8-3.574219-8-8v-4.6875l-5.65625-5.65625c-3.128906-3.128906-3.128906-8.183594 0-11.3125l5.65625-5.65625v-4.6875c0-4.425781 3.574219-8 8-8h128c4.425781 0 8 3.574219 8 8v32c0 4.425781-3.574219 8-8 8zm-120-16h112v-16h-112c0 2.128906-.839844 4.160156-2.34375 5.65625l-2.34375 2.34375 2.34375 2.34375c1.503906 1.496094 2.34375 3.527344 2.34375 5.65625zm0 0"/><path d="m224 376c-13.230469 0-24-10.769531-24-24s10.769531-24 24-24 24 10.769531 24 24-10.769531 24-24 24zm0-32c-4.414062 0-8 3.585938-8 8s3.585938 8 8 8 8-3.585938 8-8-3.585938-8-8-8zm0 0"/><path d="m176 376h-128c-4.425781 0-8-3.574219-8-8v-32c0-4.425781 3.574219-8 8-8h128c4.425781 0 8 3.574219 8 8v4.6875l5.65625 5.65625c3.128906 3.128906 3.128906 8.183594 0 11.3125l-5.65625 5.65625v4.6875c0 4.425781-3.574219 8-8 8zm-120-16h112c0-2.128906.839844-4.160156 2.34375-5.65625l2.34375-2.34375-2.34375-2.34375c-1.503906-1.496094-2.34375-3.527344-2.34375-5.65625h-112zm0 0"/></svg>