<svg height="512pt" viewBox="0 -96 512 512" width="512pt" xmlns="http://www.w3.org/2000/svg"><path d="m192 160.03125c-4.425781 0-8-3.574219-8-8v-64.03125c0-4.425781 3.574219-8 8-8s8 3.574219 8 8v64.03125c0 4.425781-3.574219 8-8 8zm0 0"/><path d="m304 160.03125c-4.425781 0-8-3.574219-8-8v-2.34375c0-4.421875 3.574219-8 8-8s8 3.578125 8 8v2.34375c0 4.425781-3.574219 8-8 8zm0 0"/><path d="m176 264c-4.425781 0-8-3.574219-8-8 0-17.648438 14.351562-32 32-32 4.425781 0 8 3.574219 8 8s-3.574219 8-8 8c-8.824219 0-16 7.175781-16 16 0 4.425781-3.574219 8-8 8zm0 0"/><path d="m224 240.046875h-24c-4.425781 0-8-3.574219-8-8 0-4.421875 3.574219-8 8-8h24c4.425781 0 8 3.578125 8 8 0 4.425781-3.574219 8-8 8zm0 0"/><path d="m176 288.03125c-4.425781 0-8-3.574219-8-8v-24.03125c0-4.425781 3.574219-8 8-8s8 3.574219 8 8v24.03125c0 4.425781-3.574219 8-8 8zm0 0"/><path d="m320 264c-4.425781 0-8-3.574219-8-8 0-8.824219-7.175781-16-16-16-4.425781 0-8-3.574219-8-8s3.574219-8 8-8c17.648438 0 32 14.351562 32 32 0 4.425781-3.574219 8-8 8zm0 0"/><path d="m296 240.046875h-24c-4.425781 0-8-3.574219-8-8 0-4.421875 3.574219-8 8-8h24c4.425781 0 8 3.578125 8 8 0 4.425781-3.574219 8-8 8zm0 0"/><path d="m320 288.03125c-4.425781 0-8-3.574219-8-8v-24.03125c0-4.425781 3.574219-8 8-8s8 3.574219 8 8v24.03125c0 4.425781-3.574219 8-8 8zm0 0"/><path d="m224 240.046875c-4.425781 0-8-3.574219-8-8v-29.472656c0-4.421875 3.574219-8 8-8s8 3.578125 8 8v29.472656c0 4.425781-3.574219 8-8 8zm0 0"/><path d="m272 240c-4.425781 0-8-3.574219-8-8v-29.425781c0-4.421875 3.574219-8 8-8s8 3.578125 8 8v29.425781c0 4.425781-3.574219 8-8 8zm0 0"/><path d="m248 215.96875c-35.289062 0-64-28.695312-64-63.96875 0-4.425781 3.574219-8 8-8s8 3.574219 8 8c0 26.457031 21.527344 47.96875 48 47.96875s48-21.511719 48-47.96875c0-4.425781 3.574219-8 8-8s8 3.574219 8 8c0 35.273438-28.710938 63.96875-64 63.96875zm0 0"/><path d="m247.992188 256c-1.519532 0-3.0625-.441406-4.433594-1.34375l-24-16c-3.679688-2.457031-4.671875-7.417969-2.214844-11.097656 2.449219-3.679688 7.398438-4.664063 11.097656-2.214844l24 16c3.679688 2.457031 4.671875 7.417969 2.214844 11.097656-1.535156 2.3125-4.082031 3.558594-6.664062 3.558594zm0 0"/><path d="m248.007812 256c-2.582031 0-5.128906-1.246094-6.664062-3.558594-2.457031-3.679687-1.464844-8.640625 2.214844-11.097656l24-16c3.679687-2.449219 8.640625-1.464844 11.097656 2.214844 2.457031 3.679687 1.464844 8.640625-2.214844 11.097656l-24 16c-1.371094.902344-2.914062 1.34375-4.433594 1.34375zm0 0"/><path d="m320 120c-4.425781 0-8-3.574219-8-8 0-30.871094-25.128906-56-56-56-14.257812 0-26.894531 7.742188-34.992188 14.238281-3.449218 2.769531-8.480468 2.210938-11.246093-1.230469-2.769531-3.449218-2.210938-8.488281 1.230469-11.246093 14.480468-11.617188 30.039062-17.761719 45.007812-17.761719 39.703125 0 72 32.296875 72 72 0 4.425781-3.574219 8-8 8zm0 0"/><path d="m320 200c-4.425781 0-8-3.574219-8-8 0-30.871094-25.128906-56-56-56-4.425781 0-8-3.574219-8-8s3.574219-8 8-8c39.703125 0 72 32.296875 72 72 0 4.425781-3.574219 8-8 8zm0 0"/><path d="m192 136c-4.425781 0-8-3.574219-8-8s3.574219-8 8-8c8.824219 0 16-7.175781 16-16 0-4.425781 3.574219-8 8-8s8 3.574219 8 8c0 17.648438-14.351562 32-32 32zm0 0"/><path d="m192 96c-4.425781 0-8-3.574219-8-8 0-17.648438 14.351562-32 32-32 4.425781 0 8 3.574219 8 8s-3.574219 8-8 8c-8.824219 0-16 7.175781-16 16 0 4.425781-3.574219 8-8 8zm0 0"/><path d="m240 136c-17.648438 0-32-14.351562-32-32 0-4.425781 3.574219-8 8-8s8 3.574219 8 8c0 8.824219 7.175781 16 16 16 4.425781 0 8 3.574219 8 8s-3.574219 8-8 8zm0 0"/><path d="m216 112c-4.425781 0-8-3.574219-8-8v-40c0-4.425781 3.574219-8 8-8s8 3.574219 8 8v40c0 4.425781-3.574219 8-8 8zm0 0"/><path d="m320 200c-4.425781 0-8-3.574219-8-8v-80c0-4.425781 3.574219-8 8-8s8 3.574219 8 8v80c0 4.425781-3.574219 8-8 8zm0 0"/><path d="m256 136h-16c-4.425781 0-8-3.574219-8-8s3.574219-8 8-8h16c4.425781 0 8 3.574219 8 8s-3.574219 8-8 8zm0 0"/><path d="m456 288c-4.425781 0-8-3.574219-8-8s3.574219-8 8-8c22.054688 0 40-17.945312 40-40v-176c0-22.054688-17.945312-40-40-40-4.425781 0-8-3.574219-8-8s3.574219-8 8-8c30.871094 0 56 25.128906 56 56v176c0 30.871094-25.128906 56-56 56zm0 0"/><path d="m32.238281 176c-4.421875 0-8.039062-3.574219-8.039062-8s3.535156-8 7.953125-8h.085937c4.417969 0 8 3.574219 8 8s-3.582031 8-8 8zm0 0"/><path d="m32 152c-4.425781 0-8-3.574219-8-8v-24c0-4.425781 3.574219-8 8-8s8 3.574219 8 8v24c0 4.425781-3.574219 8-8 8zm0 0"/><path d="m8.015625 56c-4.421875 0-8-3.574219-8-8 0-26.472656 21.527344-48 48-48 4.425781 0 8 3.574219 8 8s-3.574219 8-8 8c-17.648437 0-32 14.351562-32 32 0 4.425781-3.574219 8-8 8zm0 0"/><path d="m48 288c-26.472656 0-48-21.527344-48-48 0-4.425781 3.574219-8 8-8s8 3.574219 8 8c0 17.648438 14.351562 32 32 32 4.425781 0 8 3.574219 8 8s-3.574219 8-8 8zm0 0"/><path d="m8 248c-4.425781 0-8-3.574219-8-8v-192c0-4.425781 3.574219-8 8-8s8 3.574219 8 8v192c0 4.425781-3.574219 8-8 8zm0 0"/><path d="m56.015625 288c-4.421875 0-8-3.574219-8-8v-272c0-4.425781 3.578125-8 8-8 4.425781 0 8 3.574219 8 8v272c0 4.425781-3.574219 8-8 8zm0 0"/><path d="m440 288c-4.425781 0-8-3.574219-8-8v-272c0-4.425781 3.574219-8 8-8s8 3.574219 8 8v272c0 4.425781-3.574219 8-8 8zm0 0"/><path d="m472 168c-13.230469 0-24-10.769531-24-24s10.769531-24 24-24 24 10.769531 24 24-10.769531 24-24 24zm0-32c-4.414062 0-8 3.585938-8 8s3.585938 8 8 8 8-3.585938 8-8-3.585938-8-8-8zm0 0"/><path d="m456 288h-408c-4.425781 0-8-3.574219-8-8s3.574219-8 8-8h408c4.425781 0 8 3.574219 8 8s-3.574219 8-8 8zm0 0"/><path d="m456 320c-4.425781 0-8-3.574219-8-8s3.574219-8 8-8c22.054688 0 40-17.945312 40-40 0-4.425781 3.574219-8 8-8s8 3.574219 8 8c0 30.871094-25.128906 56-56 56zm0 0"/><path d="m48 320c-26.472656 0-48-21.527344-48-48 0-4.425781 3.574219-8 8-8s8 3.574219 8 8c0 17.648438 14.351562 32 32 32 4.425781 0 8 3.574219 8 8s-3.574219 8-8 8zm0 0"/><path d="m456 320h-408c-4.425781 0-8-3.574219-8-8s3.574219-8 8-8h408c4.425781 0 8 3.574219 8 8s-3.574219 8-8 8zm0 0"/><path d="m456 16h-407.984375c-4.421875 0-8-3.574219-8-8s3.578125-8 8-8h407.984375c4.425781 0 8 3.574219 8 8s-3.574219 8-8 8zm0 0"/><path d="m8 288c-4.425781 0-8-3.574219-8-8v-40c0-4.425781 3.574219-8 8-8s8 3.574219 8 8v40c0 4.425781-3.574219 8-8 8zm0 0"/><path d="m504 272c-4.425781 0-8-3.574219-8-8v-32c0-4.425781 3.574219-8 8-8s8 3.574219 8 8v32c0 4.425781-3.574219 8-8 8zm0 0"/><path d="m128 80h-40c-4.425781 0-8-3.574219-8-8v-32c0-4.425781 3.574219-8 8-8h40c4.425781 0 8 3.574219 8 8v32c0 4.425781-3.574219 8-8 8zm-32-16h24v-16h-24zm0 0"/><path d="m128 56c-3.351562 0-6.472656-2.121094-7.585938-5.472656-1.398437-4.191406.867188-8.726563 5.058594-10.121094l24-8c4.214844-1.40625 8.726563.867188 10.121094 5.058594 1.398438 4.191406-.867188 8.726562-5.058594 10.121094l-24 8c-.847656.277343-1.703125.414062-2.535156.414062zm0 0"/><path d="m152 80c-4.425781 0-8-3.574219-8-8v-32c0-4.425781 3.574219-8 8-8s8 3.574219 8 8v32c0 4.425781-3.574219 8-8 8zm0 0"/><path d="m152 80c-.832031 0-1.6875-.136719-2.527344-.414062l-24-8c-4.183594-1.394532-6.457031-5.921876-5.058594-10.121094 1.394532-4.183594 5.898438-6.472656 10.121094-5.058594l24 8c4.183594 1.394531 6.457032 5.921875 5.058594 10.121094-1.121094 3.351562-4.242188 5.472656-7.59375 5.472656zm0 0"/><path d="m384 80c-4.425781 0-8-3.574219-8-8v-32c0-4.425781 3.574219-8 8-8s8 3.574219 8 8v32c0 4.425781-3.574219 8-8 8zm0 0"/><path d="m408 80c-4.425781 0-8-3.574219-8-8v-32c0-4.425781 3.574219-8 8-8s8 3.574219 8 8v32c0 4.425781-3.574219 8-8 8zm0 0"/><path d="m392 288c-4.425781 0-8-3.574219-8-8v-96c0-4.425781 3.574219-8 8-8s8 3.574219 8 8v96c0 4.425781-3.574219 8-8 8zm0 0"/><path d="m408 208c-2.046875 0-4.097656-.785156-5.65625-2.34375l-16-16c-3.128906-3.128906-3.128906-8.183594 0-11.3125s8.183594-3.128906 11.3125 0l16 16c3.128906 3.128906 3.128906 8.183594 0 11.3125-1.558594 1.558594-3.609375 2.34375-5.65625 2.34375zm0 0"/><path d="m376 208c-2.046875 0-4.097656-.785156-5.65625-2.34375-3.128906-3.128906-3.128906-8.183594 0-11.3125l16-16c3.128906-3.128906 8.183594-3.128906 11.3125 0s3.128906 8.183594 0 11.3125l-16 16c-1.558594 1.558594-3.609375 2.34375-5.65625 2.34375zm0 0"/><path d="m408 240c-2.046875 0-4.097656-.785156-5.65625-2.34375l-16-16c-3.128906-3.128906-3.128906-8.183594 0-11.3125s8.183594-3.128906 11.3125 0l16 16c3.128906 3.128906 3.128906 8.183594 0 11.3125-1.558594 1.558594-3.609375 2.34375-5.65625 2.34375zm0 0"/><path d="m376 240c-2.046875 0-4.097656-.785156-5.65625-2.34375-3.128906-3.128906-3.128906-8.183594 0-11.3125l16-16c3.128906-3.128906 8.183594-3.128906 11.3125 0s3.128906 8.183594 0 11.3125l-16 16c-1.558594 1.558594-3.609375 2.34375-5.65625 2.34375zm0 0"/><path d="m112 288c-4.425781 0-8-3.574219-8-8v-120c0-4.425781 3.574219-8 8-8s8 3.574219 8 8v120c0 4.425781-3.574219 8-8 8zm0 0"/><path d="m128 176c-2.046875 0-4.097656-.785156-5.65625-2.34375l-16-16c-3.128906-3.128906-3.128906-8.183594 0-11.3125s8.183594-3.128906 11.3125 0l16 16c3.128906 3.128906 3.128906 8.183594 0 11.3125-1.558594 1.558594-3.609375 2.34375-5.65625 2.34375zm0 0"/><path d="m96 176c-2.046875 0-4.097656-.785156-5.65625-2.34375-3.128906-3.128906-3.128906-8.183594 0-11.3125l16-16c3.128906-3.128906 8.183594-3.128906 11.3125 0s3.128906 8.183594 0 11.3125l-16 16c-1.558594 1.558594-3.609375 2.34375-5.65625 2.34375zm0 0"/><path d="m128 208c-2.046875 0-4.097656-.785156-5.65625-2.34375l-16-16c-3.128906-3.128906-3.128906-8.183594 0-11.3125s8.183594-3.128906 11.3125 0l16 16c3.128906 3.128906 3.128906 8.183594 0 11.3125-1.558594 1.558594-3.609375 2.34375-5.65625 2.34375zm0 0"/><path d="m96 208c-2.046875 0-4.097656-.785156-5.65625-2.34375-3.128906-3.128906-3.128906-8.183594 0-11.3125l16-16c3.128906-3.128906 8.183594-3.128906 11.3125 0s3.128906 8.183594 0 11.3125l-16 16c-1.558594 1.558594-3.609375 2.34375-5.65625 2.34375zm0 0"/><path d="m128 240c-2.046875 0-4.097656-.785156-5.65625-2.34375l-16-16c-3.128906-3.128906-3.128906-8.183594 0-11.3125s8.183594-3.128906 11.3125 0l16 16c3.128906 3.128906 3.128906 8.183594 0 11.3125-1.558594 1.558594-3.609375 2.34375-5.65625 2.34375zm0 0"/><path d="m96 240c-2.046875 0-4.097656-.785156-5.65625-2.34375-3.128906-3.128906-3.128906-8.183594 0-11.3125l16-16c3.128906-3.128906 8.183594-3.128906 11.3125 0s3.128906 8.183594 0 11.3125l-16 16c-1.558594 1.558594-3.609375 2.34375-5.65625 2.34375zm0 0"/></svg>