<svg height="512pt" viewBox="0 -36 512 512" width="512pt" xmlns="http://www.w3.org/2000/svg"><path d="m504 440h-496c-4.425781 0-8-3.574219-8-8v-216c0-4.425781 3.574219-8 8-8h496c4.425781 0 8 3.574219 8 8v216c0 4.425781-3.574219 8-8 8zm-488-16h480v-200h-480zm0 0"/><path d="m240 192c-1.695312 0-3.390625-.535156-4.800781-1.601562l-29.863281-22.398438h-181.335938c-4.425781 0-8-3.574219-8-8v-112c0-4.425781 3.574219-8 8-8h216c4.425781 0 8 3.574219 8 8v136c0 3.03125-1.710938 5.800781-4.425781 7.160156-1.125.558594-2.359375.839844-3.574219.839844zm-208-40h176c1.734375 0 3.414062.558594 4.800781 1.601562l19.199219 14.398438v-112h-200zm0 0"/><path d="m272 152c-1.214844 0-2.449219-.28125-3.574219-.839844-2.714843-1.359375-4.425781-4.128906-4.425781-7.160156v-136c0-4.425781 3.574219-8 8-8h216c4.425781 0 8 3.574219 8 8v112c0 4.425781-3.574219 8-8 8h-181.335938l-29.863281 22.398438c-1.410156 1.066406-3.105469 1.601562-4.800781 1.601562zm8-136v112l19.199219-14.398438c1.386719-1.042968 3.066406-1.601562 4.800781-1.601562h176v-96zm0 0"/><path d="m72 288h-24c-4.425781 0-8-3.574219-8-8v-24c0-4.425781 3.574219-8 8-8h24c4.425781 0 8 3.574219 8 8v24c0 4.425781-3.574219 8-8 8zm-16-16h8v-8h-8zm0 0"/><path d="m128 288h-24c-4.425781 0-8-3.574219-8-8v-24c0-4.425781 3.574219-8 8-8h24c4.425781 0 8 3.574219 8 8v24c0 4.425781-3.574219 8-8 8zm-16-16h8v-8h-8zm0 0"/><path d="m184 288h-24c-4.425781 0-8-3.574219-8-8v-24c0-4.425781 3.574219-8 8-8h24c4.425781 0 8 3.574219 8 8v24c0 4.425781-3.574219 8-8 8zm-16-16h8v-8h-8zm0 0"/><path d="m240 288h-24c-4.425781 0-8-3.574219-8-8v-24c0-4.425781 3.574219-8 8-8h24c4.425781 0 8 3.574219 8 8v24c0 4.425781-3.574219 8-8 8zm-16-16h8v-8h-8zm0 0"/><path d="m296 288h-24c-4.425781 0-8-3.574219-8-8v-24c0-4.425781 3.574219-8 8-8h24c4.425781 0 8 3.574219 8 8v24c0 4.425781-3.574219 8-8 8zm-16-16h8v-8h-8zm0 0"/><path d="m352 288h-24c-4.425781 0-8-3.574219-8-8v-24c0-4.425781 3.574219-8 8-8h24c4.425781 0 8 3.574219 8 8v24c0 4.425781-3.574219 8-8 8zm-16-16h8v-8h-8zm0 0"/><path d="m408 288h-24c-4.425781 0-8-3.574219-8-8v-24c0-4.425781 3.574219-8 8-8h24c4.425781 0 8 3.574219 8 8v24c0 4.425781-3.574219 8-8 8zm-16-16h8v-8h-8zm0 0"/><path d="m128 344h-80c-4.425781 0-8-3.574219-8-8v-24c0-4.425781 3.574219-8 8-8h80c4.425781 0 8 3.574219 8 8v24c0 4.425781-3.574219 8-8 8zm-72-16h64v-8h-64zm0 0"/><path d="m184 344h-24c-4.425781 0-8-3.574219-8-8v-24c0-4.425781 3.574219-8 8-8h24c4.425781 0 8 3.574219 8 8v24c0 4.425781-3.574219 8-8 8zm-16-16h8v-8h-8zm0 0"/><path d="m240 344h-24c-4.425781 0-8-3.574219-8-8v-24c0-4.425781 3.574219-8 8-8h24c4.425781 0 8 3.574219 8 8v24c0 4.425781-3.574219 8-8 8zm-16-16h8v-8h-8zm0 0"/><path d="m296 344h-24c-4.425781 0-8-3.574219-8-8v-24c0-4.425781 3.574219-8 8-8h24c4.425781 0 8 3.574219 8 8v24c0 4.425781-3.574219 8-8 8zm-16-16h8v-8h-8zm0 0"/><path d="m352 344h-24c-4.425781 0-8-3.574219-8-8v-24c0-4.425781 3.574219-8 8-8h24c4.425781 0 8 3.574219 8 8v24c0 4.425781-3.574219 8-8 8zm-16-16h8v-8h-8zm0 0"/><path d="m408 344h-24c-4.425781 0-8-3.574219-8-8v-24c0-4.425781 3.574219-8 8-8h24c4.425781 0 8 3.574219 8 8v24c0 4.425781-3.574219 8-8 8zm-16-16h8v-8h-8zm0 0"/><path d="m464 344h-24c-4.425781 0-8-3.574219-8-8v-80c0-4.425781 3.574219-8 8-8h24c4.425781 0 8 3.574219 8 8v80c0 4.425781-3.574219 8-8 8zm-16-16h8v-64h-8zm0 0"/><path d="m72 400h-24c-4.425781 0-8-3.574219-8-8v-24c0-4.425781 3.574219-8 8-8h24c4.425781 0 8 3.574219 8 8v24c0 4.425781-3.574219 8-8 8zm-16-16h8v-8h-8zm0 0"/><path d="m128 400h-24c-4.425781 0-8-3.574219-8-8v-24c0-4.425781 3.574219-8 8-8h24c4.425781 0 8 3.574219 8 8v24c0 4.425781-3.574219 8-8 8zm-16-16h8v-8h-8zm0 0"/><path d="m352 400h-192c-4.425781 0-8-3.574219-8-8v-24c0-4.425781 3.574219-8 8-8h192c4.425781 0 8 3.574219 8 8v24c0 4.425781-3.574219 8-8 8zm-184-16h176v-8h-176zm0 0"/><path d="m408 400h-24c-4.425781 0-8-3.574219-8-8v-24c0-4.425781 3.574219-8 8-8h24c4.425781 0 8 3.574219 8 8v24c0 4.425781-3.574219 8-8 8zm-16-16h8v-8h-8zm0 0"/><path d="m464 400h-24c-4.425781 0-8-3.574219-8-8v-24c0-4.425781 3.574219-8 8-8h24c4.425781 0 8 3.574219 8 8v24c0 4.425781-3.574219 8-8 8zm-16-16h8v-8h-8zm0 0"/><path d="m192 96h-120c-4.425781 0-8-3.574219-8-8s3.574219-8 8-8h120c4.425781 0 8 3.574219 8 8s-3.574219 8-8 8zm0 0"/><path d="m192 128h-120c-4.425781 0-8-3.574219-8-8s3.574219-8 8-8h120c4.425781 0 8 3.574219 8 8s-3.574219 8-8 8zm0 0"/><path d="m440 56h-120c-4.425781 0-8-3.574219-8-8s3.574219-8 8-8h120c4.425781 0 8 3.574219 8 8s-3.574219 8-8 8zm0 0"/><path d="m440 88h-120c-4.425781 0-8-3.574219-8-8s3.574219-8 8-8h120c4.425781 0 8 3.574219 8 8s-3.574219 8-8 8zm0 0"/></svg>