<svg height="512pt" viewBox="-112 0 512 512" width="512pt" xmlns="http://www.w3.org/2000/svg"><path d="m120.238281 40c-4.421875 0-8.039062-3.585938-8.039062-8s3.535156-8 7.953125-8h.085937c4.417969 0 8 3.585938 8 8s-3.582031 8-8 8zm0 0"/><path d="m168 40h-24c-4.425781 0-8-3.585938-8-8s3.574219-8 8-8h24c4.425781 0 8 3.585938 8 8s-3.574219 8-8 8zm0 0"/><path d="m280 56.015625c-4.425781 0-8-3.582031-8-8 0-17.648437-14.351562-32-32-32-4.425781 0-8-3.582031-8-8 0-4.414063 3.574219-8 8-8 26.472656 0 48 21.527344 48 48 0 4.425781-3.574219 8-8 8zm0 0"/><path d="m8 56c-4.425781 0-8-3.585938-8-8 0-26.472656 21.527344-48 48-48 4.425781 0 8 3.585938 8 8s-3.574219 8-8 8c-17.648438 0-32 14.351562-32 32 0 4.425781-3.574219 8-8 8zm0 0"/><path d="m240 16h-192c-4.425781 0-8-3.585938-8-8s3.574219-8 8-8h192c4.425781 0 8 3.585938 8 8s-3.574219 8-8 8zm0 0"/><path d="m280 64.015625h-272c-4.425781 0-8-3.582031-8-8 0-4.414063 3.574219-8 8-8h272c4.425781 0 8 3.585937 8 8 0 4.417969-3.574219 8-8 8zm0 0"/><path d="m232 480h-176c-30.871094 0-56-25.128906-56-56v-376c0-4.414062 3.574219-8 8-8s8 3.585938 8 8v376c0 22.054688 17.945312 40 40 40h176c22.054688 0 40-17.945312 40-40v-376c0-4.414062 3.574219-8 8-8s8 3.585938 8 8v376c0 30.871094-25.128906 56-56 56zm0 0"/><path d="m232 512h-176c-30.871094 0-56-25.128906-56-56v-32c0-4.425781 3.574219-8 8-8s8 3.574219 8 8v32c0 22.054688 17.945312 40 40 40h176c22.054688 0 40-17.945312 40-40v-32c0-4.425781 3.574219-8 8-8s8 3.574219 8 8v32c0 30.871094-25.128906 56-56 56zm0 0"/><path d="m280 416h-272c-4.425781 0-8-3.574219-8-8s3.574219-8 8-8h272c4.425781 0 8 3.574219 8 8s-3.574219 8-8 8zm0 0"/><path d="m144 464c-13.230469 0-24-10.769531-24-24s10.769531-24 24-24 24 10.769531 24 24-10.769531 24-24 24zm0-32c-4.414062 0-8 3.585938-8 8s3.585938 8 8 8 8-3.585938 8-8-3.585938-8-8-8zm0 0"/><path d="m127.992188 240c-1.671876 0-3.351563-.519531-4.792969-1.601562-3.535157-2.644532-4.253907-7.664063-1.597657-11.199219l48-64c2.644532-3.519531 7.664063-4.246094 11.191407-1.597657 3.535156 2.644532 4.253906 7.664063 1.597656 11.199219l-48 64c-1.558594 2.085938-3.957031 3.199219-6.398437 3.199219zm0 0"/><path d="m224.007812 240c-2.441406 0-4.832031-1.105469-6.40625-3.199219l-48-64c-2.65625-3.535156-1.9375-8.554687 1.597657-11.199219 3.527343-2.664062 8.542969-1.9375 11.191406 1.597657l48 64c2.65625 3.535156 1.9375 8.554687-1.597656 11.199219-1.433594 1.082031-3.113281 1.601562-4.785157 1.601562zm0 0"/><path d="m79.992188 240c-1.753907 0-3.511719-.574219-4.992188-1.753906-3.449219-2.757813-4.007812-7.789063-1.246094-11.238282l32-40c2.773438-3.449218 7.796875-4.007812 11.246094-1.246093 3.449219 2.757812 4.007812 7.789062 1.246094 11.238281l-32 40c-1.582032 1.96875-3.902344 3-6.253906 3zm0 0"/><path d="m135.742188 229.664062c-2.351563 0-4.671876-1.023437-6.253907-3l-23.734375-29.671874c-2.761718-3.449219-2.195312-8.488282 1.246094-11.238282 3.464844-2.769531 8.488281-2.195312 11.246094 1.246094l23.738281 29.671875c2.757813 3.449219 2.191406 8.488281-1.25 11.238281-1.476563 1.1875-3.238281 1.753906-4.992187 1.753906zm0 0"/><path d="m96.238281 144c-4.421875 0-8.039062-3.585938-8.039062-8s3.535156-8 7.953125-8h.085937c4.417969 0 8 3.585938 8 8s-3.582031 8-8 8zm0 0"/><path d="m240 240h-192c-4.425781 0-8-3.585938-8-8v-136c0-4.414062 3.574219-8 8-8h192c4.425781 0 8 3.585938 8 8v136c0 4.414062-3.574219 8-8 8zm-184-16h176v-120h-176zm0 0"/><path d="m176 280h-128c-4.425781 0-8-3.574219-8-8s3.574219-8 8-8h128c4.425781 0 8 3.574219 8 8s-3.574219 8-8 8zm0 0"/><path d="m104 312h-56c-4.425781 0-8-3.574219-8-8s3.574219-8 8-8h56c4.425781 0 8 3.574219 8 8s-3.574219 8-8 8zm0 0"/><path d="m240 312h-104c-4.425781 0-8-3.574219-8-8s3.574219-8 8-8h104c4.425781 0 8 3.574219 8 8s-3.574219 8-8 8zm0 0"/><path d="m152 344h-104c-4.425781 0-8-3.574219-8-8s3.574219-8 8-8h104c4.425781 0 8 3.574219 8 8s-3.574219 8-8 8zm0 0"/><path d="m240 344h-56c-4.425781 0-8-3.574219-8-8s3.574219-8 8-8h56c4.425781 0 8 3.574219 8 8s-3.574219 8-8 8zm0 0"/><path d="m240 280h-32c-4.425781 0-8-3.574219-8-8s3.574219-8 8-8h32c4.425781 0 8 3.574219 8 8s-3.574219 8-8 8zm0 0"/><path d="m176 376h-128c-4.425781 0-8-3.574219-8-8s3.574219-8 8-8h128c4.425781 0 8 3.574219 8 8s-3.574219 8-8 8zm0 0"/><path d="m240 376h-32c-4.425781 0-8-3.574219-8-8s3.574219-8 8-8h32c4.425781 0 8 3.574219 8 8s-3.574219 8-8 8zm0 0"/></svg>