<svg height="512pt" viewBox="0 0 512 512" width="512pt" xmlns="http://www.w3.org/2000/svg"><path d="m32.238281 32c-4.414062 0-8.039062-3.574219-8.039062-8s3.542969-8 7.960937-8h.078125c4.417969 0 8 3.574219 8 8s-3.582031 8-8 8zm0 0"/><path d="m56.238281 32c-4.414062 0-8.039062-3.574219-8.039062-8s3.542969-8 7.960937-8h.078125c4.417969 0 8 3.574219 8 8s-3.582031 8-8 8zm0 0"/><path d="m80.238281 32c-4.414062 0-8.039062-3.574219-8.039062-8s3.535156-8 7.953125-8h.085937c4.417969 0 8 3.574219 8 8s-3.582031 8-8 8zm0 0"/><path d="m312 384h-303.855469c-4.425781 0-8-3.574219-8-8v-336c0-4.425781 3.574219-8 8-8h399.847657c4.421874 0 8 3.574219 8 8s-3.578126 8-8 8h-391.847657v320h295.855469c4.425781 0 8 3.574219 8 8s-3.574219 8-8 8zm0 0"/><path d="m408.128906 288c-4.417968 0-8-3.574219-8-8l-.058594-256c0-4.414062 3.578126-8 8-8 4.417969 0 8 3.574219 8 8l.058594 256c0 4.414062-3.585937 8-8 8zm0 0"/><path d="m8 32c-4.425781 0-8-3.574219-8-8 0-13.230469 10.769531-24 24-24 4.425781 0 8 3.574219 8 8s-3.574219 8-8 8c-4.414062 0-8 3.585938-8 8 0 4.425781-3.574219 8-8 8zm0 0"/><path d="m408.070312 32c-4.421874 0-8-3.574219-8-8 0-4.414062-3.582031-8-8-8-4.421874 0-8-3.574219-8-8s3.578126-8 8-8c13.234376 0 24 10.769531 24 24 0 4.425781-3.574218 8-8 8zm0 0"/><path d="m8 48c-4.425781 0-8-3.574219-8-8v-16c0-4.425781 3.574219-8 8-8s8 3.574219 8 8v16c0 4.425781-3.574219 8-8 8zm0 0"/><path d="m392 16h-368c-4.425781 0-8-3.574219-8-8s3.574219-8 8-8h368c4.425781 0 8 3.574219 8 8s-3.574219 8-8 8zm0 0"/><path d="m359.9375 200h-304c-4.425781 0-8-3.574219-8-8v-104c0-4.425781 3.574219-8 8-8 4.421875 0 8 3.574219 8 8v96h288v-96c0-4.425781 3.574219-8 8-8 4.421875 0 8 3.574219 8 8v104c0 4.425781-3.578125 8-8 8zm0 0"/><path d="m207.9375 304h-152c-4.425781 0-8-3.574219-8-8s3.574219-8 8-8h152c4.421875 0 8 3.574219 8 8s-3.578125 8-8 8zm0 0"/><path d="m127.9375 336h-72c-4.425781 0-8-3.574219-8-8s3.574219-8 8-8h72c4.421875 0 8 3.574219 8 8s-3.578125 8-8 8zm0 0"/><path d="m324.847656 336h-164.910156c-4.425781 0-8-3.574219-8-8s3.574219-8 8-8h164.910156c4.425782 0 8 3.574219 8 8s-3.574218 8-8 8zm0 0"/><path d="m127.9375 240h-72c-4.425781 0-8-3.574219-8-8s3.574219-8 8-8h72c4.421875 0 8 3.574219 8 8s-3.578125 8-8 8zm0 0"/><path d="m359.9375 240h-200c-4.425781 0-8-3.574219-8-8s3.574219-8 8-8h200c4.421875 0 8 3.574219 8 8s-3.578125 8-8 8zm0 0"/><path d="m263.9375 272h-208c-4.425781 0-8-3.574219-8-8s3.574219-8 8-8h208c4.421875 0 8 3.574219 8 8s-3.578125 8-8 8zm0 0"/><path d="m359.9375 272h-64c-4.425781 0-8-3.574219-8-8s3.574219-8 8-8h64c4.421875 0 8 3.574219 8 8s-3.578125 8-8 8zm0 0"/><path d="m354.921875 304h-114.984375c-4.425781 0-8-3.574219-8-8s3.574219-8 8-8h114.984375c4.421875 0 8 3.574219 8 8s-3.578125 8-8 8zm0 0"/><path d="m199.929688 200c-1.671876 0-3.355469-.519531-4.792969-1.601562-3.535157-2.644532-4.257813-7.664063-1.601563-11.191407l48-64c2.648438-3.535156 7.664063-4.238281 11.191406-1.597656 3.539063 2.648437 4.257813 7.664063 1.601563 11.191406l-48 64c-1.558594 2.09375-3.960937 3.199219-6.398437 3.199219zm0 0"/><path d="m295.945312 200c-2.441406 0-4.832031-1.105469-6.410156-3.199219l-48-64c-2.65625-3.527343-1.933594-8.542969 1.601563-11.191406 3.527343-2.65625 8.542969-1.945313 11.191406 1.597656l48 64c2.65625 3.527344 1.9375 8.546875-1.601563 11.191407-1.429687 1.082031-3.109374 1.601562-4.78125 1.601562zm0 0"/><path d="m151.929688 200c-1.753907 0-3.515626-.566406-4.992188-1.753906-3.449219-2.765625-4.007812-7.796875-1.25-11.246094l32-40c2.769531-3.441406 7.792969-4.015625 11.25-1.246094 3.445312 2.765625 4.007812 7.796875 1.246094 11.246094l-32 40c-1.582032 1.96875-3.902344 3-6.253906 3zm0 0"/><path d="m207.679688 189.671875c-2.351563 0-4.671876-1.03125-6.253907-3l-23.738281-29.671875c-2.757812-3.457031-2.191406-8.488281 1.25-11.246094 3.460938-2.769531 8.488281-2.1875 11.246094 1.246094l23.738281 29.671875c2.757813 3.457031 2.191406 8.488281-1.25 11.25-1.480469 1.183594-3.238281 1.75-4.992187 1.75zm0 0"/><path d="m136.175781 128c-4.421875 0-8.039062-3.574219-8.039062-8s3.535156-8 7.953125-8h.085937c4.417969 0 8 3.574219 8 8s-3.582031 8-8 8zm0 0"/><path d="m360 96h-304.0625c-4.425781 0-8-3.574219-8-8s3.574219-8 8-8h304.0625c4.425781 0 8 3.574219 8 8s-3.574219 8-8 8zm0 0"/><path d="m408 480c-57.34375 0-104-46.65625-104-104s46.65625-104 104-104 104 46.65625 104 104-46.65625 104-104 104zm0-192c-48.519531 0-88 39.480469-88 88s39.480469 88 88 88 88-39.480469 88-88-39.480469-88-88-88zm0 0"/><path d="m408 512c-57.34375 0-104-46.65625-104-104 0-4.425781 3.574219-8 8-8s8 3.574219 8 8c0 48.519531 39.480469 88 88 88s88-39.480469 88-88c0-4.425781 3.574219-8 8-8s8 3.574219 8 8c0 57.34375-46.65625 104-104 104zm0 0"/><path d="m312 416c-4.425781 0-8-3.574219-8-8v-32c0-4.425781 3.574219-8 8-8s8 3.574219 8 8v32c0 4.425781-3.574219 8-8 8zm0 0"/><path d="m504 416c-4.425781 0-8-3.574219-8-8v-32c0-4.425781 3.574219-8 8-8s8 3.574219 8 8v32c0 4.425781-3.574219 8-8 8zm0 0"/><path d="m408 512c-4.425781 0-8-3.574219-8-8v-32c0-4.425781 3.574219-8 8-8s8 3.574219 8 8v32c0 4.425781-3.574219 8-8 8zm0 0"/><path d="m464 493.960938c-4.425781 0-8-3.578126-8-8v-32c0-4.425782 3.574219-8 8-8s8 3.574218 8 8v32c0 4.421874-3.574219 8-8 8zm0 0"/><path d="m352 493.960938c-4.425781 0-8-3.578126-8-8v-32c0-4.425782 3.574219-8 8-8s8 3.574218 8 8v32c0 4.421874-3.574219 8-8 8zm0 0"/><path d="m408.128906 415.992188c-4.417968 0-7.992187-3.566407-8-7.984376l-.128906-63.984374c-.007812-4.421876 3.558594-8.007813 7.984375-8.015626h.015625c4.414062 0 7.992188 3.566407 8 7.984376l.128906 63.984374c.007813 4.421876-3.5625 8.007813-7.984375 8.015626-.007812 0-.007812 0-.015625 0zm0 0"/></svg>