<svg height="512pt" viewBox="-7 0 511 512" width="512pt" xmlns="http://www.w3.org/2000/svg"><path d="m128.820312 32c-4.425781 0-8.039062-3.585938-8.039062-8s3.535156-8 7.949219-8h.089843c4.414063 0 8 3.585938 8 8s-3.585937 8-8 8zm0 0"/><path d="m152.820312 32c-4.425781 0-8.039062-3.585938-8.039062-8s3.535156-8 7.949219-8h.089843c4.414063 0 8 3.585938 8 8s-3.585937 8-8 8zm0 0"/><path d="m176.820312 32c-4.425781 0-8.039062-3.585938-8.039062-8s3.535156-8 7.949219-8h.089843c4.414063 0 8 3.585938 8 8s-3.585937 8-8 8zm0 0"/><path d="m488.722656 416h-384c-4.421875 0-8-3.574219-8-8v-368c0-4.414062 3.578125-8 8-8h384c4.425782 0 8 3.585938 8 8v368c0 4.425781-3.582031 8-8 8zm-376-16h368v-352h-368zm0 0"/><path d="m104.578125 32c-4.421875 0-8-3.585938-8-8 0-13.230469 10.769531-24 24-24 4.425781 0 8 3.585938 8 8s-3.574219 8-8 8c-4.414063 0-8 3.59375-8 8 0 4.414062-3.574219 8-8 8zm0 0"/><path d="m104.578125 48c-4.421875 0-8-3.585938-8-8v-16c0-4.414062 3.578125-8 8-8 4.425781 0 8 3.585938 8 8v16c0 4.414062-3.574219 8-8 8zm0 0"/><path d="m488.578125 32c-4.421875 0-8-3.585938-8-8 0-4.40625-3.582031-8-8-8-4.421875 0-8-3.585938-8-8s3.578125-8 8-8c13.234375 0 24 10.769531 24 24 0 4.414062-3.574219 8-8 8zm0 0"/><path d="m488.578125 48c-4.421875 0-8-3.585938-8-8v-16c0-4.414062 3.578125-8 8-8 4.425781 0 8 3.585938 8 8v16c0 4.414062-3.574219 8-8 8zm0 0"/><path d="m472.578125 16h-352c-4.421875 0-8-3.585938-8-8s3.578125-8 8-8h352c4.425781 0 8 3.585938 8 8s-3.574219 8-8 8zm0 0"/><path d="m80.683594 80c-4.421875 0-8.039063-3.585938-8.039063-8s3.535157-8 7.953125-8h.085938c4.417968 0 8 3.585938 8 8s-3.582032 8-8 8zm0 0"/><path d="m440.578125 464h-384c-4.421875 0-8-3.574219-8-8v-368c0-4.414062 3.578125-8 8-8 4.425781 0 8 3.585938 8 8v360h368v-31.335938c0-4.425781 3.578125-8 8-8 4.425781 0 8 3.574219 8 8v39.335938c0 4.425781-3.574219 8-8 8zm0 0"/><path d="m56.445312 80c-4.425781 0-8-3.585938-8-8 0-13.230469 10.765626-24 24-24 4.421876 0 8 3.585938 8 8s-3.578124 8-8 8c-4.417968 0-8 3.59375-8 8 0 4.414062-3.585937 8-8 8zm0 0"/><path d="m56.445312 96c-4.425781 0-8-3.585938-8-8v-16c0-4.414062 3.574219-8 8-8 4.421876 0 8 3.585938 8 8v16c0 4.414062-3.585937 8-8 8zm0 0"/><path d="m104.445312 96h-47.867187c-4.421875 0-8-3.585938-8-8s3.578125-8 8-8h47.859375c4.421875 0 8 3.585938 8 8s-3.578125 8-7.992188 8zm0 0"/><path d="m104.445312 64h-31.867187c-4.421875 0-8-3.585938-8-8s3.578125-8 8-8h31.859375c4.421875 0 8 3.585938 8 8s-3.578125 8-7.992188 8zm0 0"/><path d="m32.746094 128c-4.421875 0-8.039063-3.585938-8.039063-8s3.535157-8 7.953125-8h.085938c4.417968 0 8 3.585938 8 8s-3.589844 8-8 8zm0 0"/><path d="m392.644531 512h-384c-4.425781 0-8-3.574219-8-8v-368c0-4.414062 3.574219-8 8-8 4.421875 0 8 3.585938 8 8v360h368v-31.335938c0-4.425781 3.574219-8 8-8 4.421875 0 8 3.574219 8 8v39.335938c0 4.425781-3.578125 8-8 8zm0 0"/><path d="m8.5 128c-4.425781 0-8-3.585938-8-8 0-13.230469 10.769531-24 24-24 4.425781 0 8 3.585938 8 8s-3.574219 8-8 8c-4.414062 0-8 3.59375-8 8 0 4.414062-3.574219 8-8 8zm0 0"/><path d="m8.5 144c-4.425781 0-8-3.585938-8-8v-16c0-4.414062 3.574219-8 8-8s8 3.585938 8 8v16c0 4.414062-3.574219 8-8 8zm0 0"/><path d="m56.515625 144h-47.871094c-4.425781 0-8-3.585938-8-8s3.574219-8 8-8h47.871094c4.425781 0 8 3.585938 8 8s-3.574219 8-8 8zm0 0"/><path d="m56.515625 112h-31.871094c-4.425781 0-8-3.585938-8-8s3.574219-8 8-8h31.871094c4.425781 0 8 3.585938 8 8s-3.574219 8-8 8zm0 0"/><path d="m440.5 200h-288c-4.425781 0-8-3.585938-8-8v-104c0-4.414062 3.574219-8 8-8h288c4.425781 0 8 3.585938 8 8v104c0 4.414062-3.574219 8-8 8zm-280-16h272v-88h-272zm0 0"/><path d="m440.5 264h-288c-4.425781 0-8-3.585938-8-8v-24c0-4.414062 3.574219-8 8-8h288c4.425781 0 8 3.585938 8 8v24c0 4.414062-3.574219 8-8 8zm-280-16h272v-8h-272zm0 0"/><path d="m304.5 304h-152c-4.425781 0-8-3.574219-8-8s3.574219-8 8-8h152c4.425781 0 8 3.574219 8 8s-3.574219 8-8 8zm0 0"/><path d="m224.5 336h-72c-4.425781 0-8-3.574219-8-8s3.574219-8 8-8h72c4.425781 0 8 3.574219 8 8s-3.574219 8-8 8zm0 0"/><path d="m440.5 336h-184c-4.425781 0-8-3.574219-8-8s3.574219-8 8-8h184c4.425781 0 8 3.574219 8 8s-3.574219 8-8 8zm0 0"/><path d="m360.5 368h-208c-4.425781 0-8-3.574219-8-8s3.574219-8 8-8h208c4.425781 0 8 3.574219 8 8s-3.574219 8-8 8zm0 0"/><path d="m440.5 368h-48c-4.425781 0-8-3.574219-8-8s3.574219-8 8-8h48c4.425781 0 8 3.574219 8 8s-3.574219 8-8 8zm0 0"/><path d="m440.5 304h-104c-4.425781 0-8-3.574219-8-8s3.574219-8 8-8h104c4.425781 0 8 3.574219 8 8s-3.574219 8-8 8zm0 0"/><path d="m288.492188 200c-1.671876 0-3.351563-.519531-4.792969-1.601562-3.535157-2.644532-4.253907-7.664063-1.597657-11.199219l48-64c2.65625-3.527344 7.664063-4.246094 11.191407-1.597657 3.535156 2.644532 4.253906 7.664063 1.597656 11.199219l-48 64c-1.558594 2.09375-3.957031 3.199219-6.398437 3.199219zm0 0"/><path d="m384.507812 200c-2.441406 0-4.832031-1.105469-6.40625-3.199219l-48-64c-2.65625-3.535156-1.9375-8.554687 1.597657-11.199219 3.527343-2.664062 8.535156-1.9375 11.191406 1.597657l48 64c2.65625 3.535156 1.9375 8.554687-1.597656 11.199219-1.433594 1.082031-3.113281 1.601562-4.785157 1.601562zm0 0"/><path d="m240.492188 200c-1.753907 0-3.511719-.574219-4.992188-1.753906-3.449219-2.757813-4.007812-7.789063-1.246094-11.238282l32-40c2.773438-3.441406 7.789063-4.015624 11.246094-1.246093 3.449219 2.757812 4.007812 7.789062 1.246094 11.238281l-32 40c-1.582032 1.976562-3.902344 3-6.253906 3zm0 0"/><path d="m296.242188 189.671875c-2.351563 0-4.671876-1.023437-6.253907-3l-23.734375-29.671875c-2.761718-3.449219-2.195312-8.488281 1.246094-11.238281 3.464844-2.769531 8.488281-2.203125 11.246094 1.246093l23.738281 29.671876c2.757813 3.449218 2.191406 8.488281-1.25 11.242187-1.46875 1.175781-3.238281 1.75-4.992187 1.75zm0 0"/><path d="m216.746094 128c-4.421875 0-8.039063-3.585938-8.039063-8s3.535157-8 7.953125-8h.085938c4.417968 0 8 3.585938 8 8s-3.589844 8-8 8zm0 0"/></svg>