<svg height="512pt" viewBox="0 0 512 512.008" width="512pt" xmlns="http://www.w3.org/2000/svg"><path d="m337.597656 384h-41.59375c-4.425781 0-8-3.574219-8-8s3.574219-8 8-8h41.59375c4.421875 0 8 3.574219 8 8s-3.578125 8-8 8zm0 0"/><path d="m104.003906 440c-4.425781 0-8-3.574219-8-8 0-35.289062 28.710938-64 64-64 4.425782 0 8 3.574219 8 8s-3.574218 8-8 8c-26.472656 0-48 21.527344-48 48 0 4.425781-3.574218 8-8 8zm0 0"/><path d="m200.003906 384h-40c-4.425781 0-8-3.574219-8-8s3.574219-8 8-8h40c4.425782 0 8 3.574219 8 8s-3.574218 8-8 8zm0 0"/><path d="m104.003906 448.023438c-4.425781 0-8-3.574219-8-8v-6.863282c0-4.425781 3.574219-8 8-8 4.425782 0 8 3.574219 8 8v6.863282c0 4.425781-3.574218 8-8 8zm0 0"/><path d="m200.003906 384c-4.425781 0-8-3.574219-8-8v-34.785156c0-4.421875 3.574219-8 8-8 4.425782 0 8 3.578125 8 8v34.785156c0 4.425781-3.574218 8-8 8zm0 0"/><path d="m296.003906 384c-4.425781 0-8-3.574219-8-8v-34.785156c0-4.421875 3.574219-8 8-8 4.425782 0 8 3.578125 8 8v34.785156c0 4.425781-3.574218 8-8 8zm0 0"/><path d="m248.003906 360c-66.167968 0-120-53.832031-120-120 0-4.414062 3.574219-8 8-8 4.425782 0 8 3.585938 8 8 0 57.34375 46.65625 104 104 104s104-46.65625 104-104c0-4.414062 3.574219-8 8-8 4.425782 0 8 3.585938 8 8 0 66.167969-53.832031 120-120 120zm0 0"/><path d="m136.003906 247.816406c-4.425781 0-8-3.585937-8-8v-79.816406c0-4.414062 3.574219-8 8-8 4.425782 0 8 3.585938 8 8v79.816406c0 4.414063-3.574218 8-8 8zm0 0"/><path d="m360.003906 248.007812c-4.425781 0-8-3.582031-8-8v-88c0-4.414062 3.574219-8 8-8 4.425782 0 8 3.585938 8 8v88c0 4.417969-3.574218 8-8 8zm0 0"/><path d="m360.003906 160c-4.425781 0-8-3.585938-8-8 0-22.054688-17.945312-40-40-40-4.425781 0-8-3.585938-8-8s3.574219-8 8-8c30.871094 0 56 25.121094 56 56 0 4.414062-3.574218 8-8 8zm0 0"/><path d="m312.003906 112c-4.425781 0-8-3.585938-8-8v-40c0-4.414062 3.574219-8 8-8 4.425782 0 8 3.585938 8 8v40c0 4.414062-3.574218 8-8 8zm0 0"/><path d="m136.003906 168c-4.425781 0-8-3.585938-8-8 0-57.34375 46.65625-104 104-104 4.425782 0 8 3.585938 8 8s-3.574218 8-8 8c-48.519531 0-88 39.480469-88 88 0 4.414062-3.574218 8-8 8zm0 0"/><path d="m360.003906 208c-2.046875 0-4.097656-.785156-5.65625-2.34375l-32-32c-3.128906-3.128906-3.128906-8.183594 0-11.3125s8.183594-3.128906 11.3125 0l32 32c3.128906 3.128906 3.128906 8.183594 0 11.3125-1.558594 1.558594-3.609375 2.34375-5.65625 2.34375zm0 0"/><path d="m248.003906 192c-44.601562 0-81.648437-15.992188-83.207031-16.671875-4.039063-1.769531-5.882813-6.480469-4.121094-10.527344 1.769531-4.058593 6.496094-5.898437 10.527344-4.136719.351563.160157 35.664063 15.335938 76.800781 15.335938 41.273438 0 76.449219-15.175781 76.800782-15.328125 4.046874-1.769531 8.765624.082031 10.527343 4.121094 1.777344 4.046875-.070312 8.765625-4.128906 10.535156-1.550781.679687-38.613281 16.671875-83.199219 16.671875zm0 0"/><path d="m136.003906 207.902344c-2.054687 0-4.105468-.78125-5.664062-2.351563-3.121094-3.125-3.121094-8.191406.015625-11.3125l32-31.902343c3.136719-3.121094 8.191406-3.113282 11.3125.015624 3.121093 3.128907 3.121093 8.191407-.015625 11.3125l-32 31.902344c-1.558594 1.5625-3.601563 2.335938-5.648438 2.335938zm0 0"/><path d="m223.996094 400c-1.519532 0-3.0625-.441406-4.433594-1.34375l-24-16c-3.679688-2.457031-4.671875-7.417969-2.214844-11.097656 2.449219-3.671875 7.398438-4.664063 11.097656-2.214844l24 16c3.679688 2.457031 4.671876 7.417969 2.214844 11.097656-1.535156 2.3125-4.082031 3.558594-6.664062 3.558594zm0 0"/><path d="m224.003906 400c-3.351562 0-6.472656-2.121094-7.582031-5.472656-1.402344-4.191406.863281-8.726563 5.054687-10.121094l24-8c4.214844-1.40625 8.726563.867188 10.121094 5.058594 1.398438 4.191406-.867187 8.726562-5.058594 10.121094l-24 8c-.847656.277343-1.703124.414062-2.535156.414062zm0 0"/><path d="m272.011719 400c-2.582031 0-5.128907-1.246094-6.664063-3.558594-2.457031-3.679687-1.464844-8.640625 2.214844-11.097656l24-16c3.679688-2.449219 8.648438-1.457031 11.097656 2.214844 2.457032 3.679687 1.464844 8.640625-2.214844 11.097656l-24 16c-1.371093.902344-2.914062 1.34375-4.433593 1.34375zm0 0"/><path d="m272.003906 400c-.832031 0-1.6875-.136719-2.527344-.414062l-24-8c-4.183593-1.394532-6.457031-5.921876-5.054687-10.121094 1.398437-4.183594 5.886719-6.464844 10.117187-5.058594l24 8c4.183594 1.394531 6.457032 5.921875 5.058594 10.121094-1.121094 3.351562-4.242187 5.472656-7.59375 5.472656zm0 0"/><path d="m248.242188 432c-4.421876 0-8.039063-3.574219-8.039063-8s3.535156-8 7.953125-8h.085938c4.417968 0 8 3.574219 8 8s-3.582032 8-8 8zm0 0"/><path d="m248.242188 464c-4.421876 0-8.039063-3.574219-8.039063-8s3.535156-8 7.953125-8h.085938c4.417968 0 8 3.574219 8 8s-3.582032 8-8 8zm0 0"/><path d="m312.003906 72h-80c-4.425781 0-8-3.585938-8-8s3.574219-8 8-8h80c4.425782 0 8 3.585938 8 8s-3.574218 8-8 8zm0 0"/><path d="m248.003906 496c-136.75 0-247.99999975-111.246094-247.99999975-248 0-136.742188 111.24999975-248 247.99999975-248 136.734375 0 247.984375 111.246094 248 248 0 34.785156-7.070312 68.449219-21.007812 100.039062-1.785156 4.050782-6.503906 5.882813-10.542969 4.097657-4.050781-1.785157-5.875-6.503907-4.097656-10.542969 13.039062-29.5625 19.648437-61.050781 19.648437-93.59375-.015625-127.929688-104.089844-232-232-232-127.917968 0-232 104.070312-232 232 0 127.921875 104.082032 232 232 232 32.542969 0 64.023438-6.601562 93.550782-19.632812 4.050781-1.765626 8.769531.058593 10.546874 4.097656 1.773438 4.039062-.050781 8.765625-4.097656 10.542968-31.558594 13.929688-65.207031 20.992188-100 20.992188zm0 0"/><path d="m416.003906 512.007812c-25.640625 0-49.75-9.984374-67.871094-28.121093-18.144531-18.125-28.128906-42.238281-28.128906-67.886719 0-25.640625 9.992188-49.753906 28.128906-67.871094 18.121094-18.136718 42.230469-28.128906 67.871094-28.128906s49.753906 9.992188 67.871094 28.128906c18.136719 18.117188 28.128906 42.230469 28.128906 67.871094 0 25.648438-9.984375 49.761719-28.128906 67.886719-18.117188 18.136719-42.230469 28.121093-67.871094 28.121093zm0-176.007812c-21.367187 0-41.457031 8.320312-56.558594 23.441406-15.121093 15.101563-23.441406 35.191406-23.441406 56.558594s8.320313 41.464844 23.441406 56.574219c15.109376 15.113281 35.191407 23.433593 56.558594 23.433593 21.367188 0 41.457032-8.320312 56.558594-23.433593 15.121094-15.109375 23.441406-35.207031 23.441406-56.574219s-8.320312-41.457031-23.441406-56.558594c-15.101562-15.121094-35.191406-23.441406-56.558594-23.441406zm0 0"/><path d="m456.003906 424h-80c-4.425781 0-8-3.574219-8-8s3.574219-8 8-8h80c4.425782 0 8 3.574219 8 8s-3.574218 8-8 8zm0 0"/><path d="m416.003906 464c-4.425781 0-8-3.574219-8-8v-80c0-4.425781 3.574219-8 8-8 4.425782 0 8 3.574219 8 8v80c0 4.425781-3.574218 8-8 8zm0 0"/></svg>