<svg height="512pt" viewBox="0 -12 512 512" width="512pt" xmlns="http://www.w3.org/2000/svg"><path d="m104 312h-21.992188c-4.421874 0-8-3.574219-8-8s3.578126-8 8-8h21.992188c4.425781 0 8 3.574219 8 8s-3.574219 8-8 8zm0 0"/><path d="m103.992188 312c-1.199219 0-2.425782-.273438-3.566407-.839844-3.953125-1.976562-5.554687-6.785156-3.578125-10.734375l32-64c1.976563-3.953125 6.785156-5.554687 10.738282-3.578125 3.949218 1.976563 5.550781 6.785156 3.574218 10.738282l-32 64c-1.40625 2.796874-4.230468 4.414062-7.167968 4.414062zm0 0"/><path d="m136 248c-4.425781 0-8-3.585938-8-8v-64c0-4.414062 3.574219-8 8-8s8 3.585938 8 8v64c0 4.414062-3.574219 8-8 8zm0 0"/><path d="m160 184h-24c-4.425781 0-8-3.585938-8-8s3.574219-8 8-8h24c4.425781 0 8 3.585938 8 8s-3.574219 8-8 8zm0 0"/><path d="m184 288c-4.425781 0-8-3.574219-8-8v-80c0-4.414062 3.574219-8 8-8s8 3.585938 8 8v80c0 4.425781-3.574219 8-8 8zm0 0"/><path d="m296 288h-112c-4.425781 0-8-3.574219-8-8s3.574219-8 8-8h112c4.425781 0 8 3.574219 8 8s-3.574219 8-8 8zm0 0"/><path d="m296 336h-16c-4.425781 0-8-3.574219-8-8s3.574219-8 8-8h16c4.425781 0 8 3.574219 8 8s-3.574219 8-8 8zm0 0"/><path d="m127.992188 480c-1.199219 0-2.425782-.273438-3.566407-.839844l-32-16c-3.953125-1.976562-5.554687-6.785156-3.578125-10.734375 1.984375-3.953125 6.792969-5.546875 10.738282-3.578125l32 16c3.949218 1.976563 5.550781 6.785156 3.574218 10.738282-1.40625 2.796874-4.230468 4.414062-7.167968 4.414062zm0 0"/><path d="m96 464h-16c-4.425781 0-8-3.574219-8-8s3.574219-8 8-8h16c4.425781 0 8 3.574219 8 8s-3.574219 8-8 8zm0 0"/><path d="m8 488c-4.425781 0-8-3.574219-8-8v-200c0-4.425781 3.574219-8 8-8s8 3.574219 8 8v200c0 4.425781-3.574219 8-8 8zm0 0"/><path d="m80 488c-4.425781 0-8-3.574219-8-8v-200c0-4.425781 3.574219-8 8-8s8 3.574219 8 8v200c0 4.425781-3.574219 8-8 8zm0 0"/><path d="m296 336c-4.425781 0-8-3.574219-8-8s3.574219-8 8-8c8.824219 0 16-7.175781 16-16s-7.175781-16-16-16c-4.425781 0-8-3.574219-8-8s3.574219-8 8-8c17.648438 0 32 14.351562 32 32s-14.351562 32-32 32zm0 0"/><path d="m288 384h-16c-4.425781 0-8-3.574219-8-8s3.574219-8 8-8h16c4.425781 0 8 3.574219 8 8s-3.574219 8-8 8zm0 0"/><path d="m288 384c-4.425781 0-8-3.574219-8-8s3.574219-8 8-8c8.824219 0 16-7.175781 16-16s-7.175781-16-16-16c-4.425781 0-8-3.574219-8-8s3.574219-8 8-8c17.648438 0 32 14.351562 32 32s-14.351562 32-32 32zm0 0"/><path d="m280 432h-16c-4.425781 0-8-3.574219-8-8s3.574219-8 8-8h16c4.425781 0 8 3.574219 8 8s-3.574219 8-8 8zm0 0"/><path d="m280 432c-4.425781 0-8-3.574219-8-8s3.574219-8 8-8c8.824219 0 16-7.175781 16-16s-7.175781-16-16-16c-4.425781 0-8-3.574219-8-8s3.574219-8 8-8c17.648438 0 32 14.351562 32 32s-14.351562 32-32 32zm0 0"/><path d="m272 480h-144c-4.425781 0-8-3.574219-8-8s3.574219-8 8-8h144c4.425781 0 8 3.574219 8 8s-3.574219 8-8 8zm0 0"/><path d="m272 480c-4.425781 0-8-3.574219-8-8s3.574219-8 8-8c8.824219 0 16-7.175781 16-16s-7.175781-16-16-16c-4.425781 0-8-3.574219-8-8s3.574219-8 8-8c17.648438 0 32 14.351562 32 32s-14.351562 32-32 32zm0 0"/><path d="m184 208c-4.425781 0-8-3.585938-8-8 0-8.824219-7.175781-16-16-16-4.425781 0-8-3.585938-8-8s3.574219-8 8-8c17.648438 0 32 14.351562 32 32 0 4.414062-3.574219 8-8 8zm0 0"/><path d="m80 288h-72c-4.425781 0-8-3.574219-8-8s3.574219-8 8-8h72c4.425781 0 8 3.574219 8 8s-3.574219 8-8 8zm0 0"/><path d="m80 488h-72c-4.425781 0-8-3.574219-8-8s3.574219-8 8-8h72c4.425781 0 8 3.574219 8 8s-3.574219 8-8 8zm0 0"/><path d="m304.007812 216c-2.046874 0-4.097656-.785156-5.65625-2.335938l-93.726562-93.632812c-13.296875-13.277344-20.617188-30.933594-20.617188-49.71875s7.320313-36.449219 20.617188-49.71875c13.296875-13.273438 30.96875-20.59375 49.765625-20.59375 18.730469 0 36.34375 7.265625 49.617187 20.457031 13.273438-13.191406 30.886719-20.457031 49.625-20.457031 18.792969 0 36.464844 7.3125 49.757813 20.585938 13.289063 13.277343 20.609375 30.925781 20.617187 49.710937 0 18.78125-7.320312 36.445313-20.617187 49.726563l-93.726563 93.640624c-1.558593 1.550782-3.609374 2.335938-5.65625 2.335938zm-49.617187-200c-14.519531 0-28.175781 5.65625-38.453125 15.910156-10.28125 10.257813-15.929688 23.898438-15.929688 38.402344s5.65625 28.144531 15.929688 38.398438l88.070312 87.976562 88.070313-87.976562c10.273437-10.253907 15.929687-23.894532 15.929687-38.40625-.007812-14.503907-5.65625-28.136719-15.929687-38.394532-10.261719-10.253906-23.917969-15.910156-38.445313-15.910156-14.527343 0-28.183593 5.648438-38.457031 15.902344l-5.511719 5.503906c-3.128906 3.121094-8.183593 3.121094-11.3125 0l-5.511718-5.503906c-10.273438-10.246094-23.929688-15.902344-38.449219-15.902344zm0 0"/><path d="m432 359.992188c-44.113281 0-79.992188-35.886719-79.992188-80 0-44.113282 35.878907-79.992188 79.992188-79.992188s80 35.878906 80 79.992188c0 44.113281-35.886719 80-80 80zm0-143.992188c-35.289062 0-63.992188 28.703125-63.992188 63.992188 0 35.289062 28.703126 64 63.992188 64s64-28.710938 64-64c0-35.289063-28.710938-63.992188-64-63.992188zm0 0"/><path d="m432 320c-4.425781 0-8-3.574219-8-8v-64c0-4.414062 3.574219-8 8-8s8 3.585938 8 8v64c0 4.425781-3.574219 8-8 8zm0 0"/><path d="m464 288h-64c-4.425781 0-8-3.574219-8-8s3.574219-8 8-8h64c4.425781 0 8 3.574219 8 8s-3.574219 8-8 8zm0 0"/></svg>