<svg height="512pt" viewBox="0 -52 512 512" width="512pt" xmlns="http://www.w3.org/2000/svg"><path d="m32.238281 32c-4.421875 0-8.039062-3.585938-8.039062-8s3.535156-8 7.953125-8h.085937c4.417969 0 8 3.585938 8 8s-3.582031 8-8 8zm0 0"/><path d="m56.238281 32c-4.421875 0-8.039062-3.585938-8.039062-8s3.535156-8 7.953125-8h.085937c4.417969 0 8 3.585938 8 8s-3.582031 8-8 8zm0 0"/><path d="m80.238281 32c-4.421875 0-8.039062-3.585938-8.039062-8s3.535156-8 7.953125-8h.085937c4.417969 0 8 3.585938 8 8s-3.582031 8-8 8zm0 0"/><path d="m392.144531 408h-384c-4.425781 0-8-3.574219-8-8v-360c0-4.414062 3.574219-8 8-8h384c4.421875 0 8 3.585938 8 8v360c0 4.425781-3.585937 8-8 8zm-376-16h368v-344h-368zm0 0"/><path d="m8 32c-4.425781 0-8-3.585938-8-8 0-13.230469 10.769531-24 24-24 4.425781 0 8 3.585938 8 8s-3.574219 8-8 8c-4.414062 0-8 3.59375-8 8 0 4.414062-3.574219 8-8 8zm0 0"/><path d="m8 48c-4.425781 0-8-3.585938-8-8v-16c0-4.414062 3.574219-8 8-8s8 3.585938 8 8v16c0 4.414062-3.574219 8-8 8zm0 0"/><path d="m392 32c-4.425781 0-8-3.585938-8-8 0-4.40625-3.585938-8-8-8-4.425781 0-8-3.585938-8-8s3.574219-8 8-8c13.230469 0 24 10.769531 24 24 0 4.414062-3.574219 8-8 8zm0 0"/><path d="m392 48c-4.425781 0-8-3.585938-8-8v-16c0-4.414062 3.574219-8 8-8s8 3.585938 8 8v16c0 4.414062-3.574219 8-8 8zm0 0"/><path d="m376 16h-352c-4.425781 0-8-3.585938-8-8s3.574219-8 8-8h352c4.425781 0 8 3.585938 8 8s-3.574219 8-8 8zm0 0"/><path d="m343.929688 160h-288c-4.425782 0-8-3.585938-8-8v-64c0-4.414062 3.574218-8 8-8h288c4.421874 0 8 3.585938 8 8v64c0 4.414062-3.578126 8-8 8zm-280-16h272v-48h-272zm0 0"/><path d="m343.929688 224h-288c-4.425782 0-8-3.574219-8-8v-24c0-4.414062 3.574218-8 8-8h288c4.421874 0 8 3.585938 8 8v24c0 4.425781-3.578126 8-8 8zm-280-16h272v-8h-272zm0 0"/><path d="m207.929688 264h-152c-4.425782 0-8-3.574219-8-8s3.574218-8 8-8h152c4.421874 0 8 3.574219 8 8s-3.578126 8-8 8zm0 0"/><path d="m127.929688 296h-72c-4.425782 0-8-3.574219-8-8s3.574218-8 8-8h72c4.421874 0 8 3.574219 8 8s-3.578126 8-8 8zm0 0"/><path d="m343.929688 296h-184c-4.425782 0-8-3.574219-8-8s3.574218-8 8-8h184c4.421874 0 8 3.574219 8 8s-3.578126 8-8 8zm0 0"/><path d="m175.929688 360h-120c-4.425782 0-8-3.574219-8-8s3.574218-8 8-8h120c4.421874 0 8 3.574219 8 8s-3.578126 8-8 8zm0 0"/><path d="m343.929688 360h-136c-4.425782 0-8-3.574219-8-8s3.574218-8 8-8h136c4.421874 0 8 3.574219 8 8s-3.578126 8-8 8zm0 0"/><path d="m263.929688 328h-208c-4.425782 0-8-3.574219-8-8s3.574218-8 8-8h208c4.421874 0 8 3.574219 8 8s-3.578126 8-8 8zm0 0"/><path d="m343.929688 328h-48c-4.425782 0-8-3.574219-8-8s3.574218-8 8-8h48c4.421874 0 8 3.574219 8 8s-3.578126 8-8 8zm0 0"/><path d="m343.929688 264h-104c-4.425782 0-8-3.574219-8-8s3.574218-8 8-8h104c4.421874 0 8 3.574219 8 8s-3.578126 8-8 8zm0 0"/><path d="m280.070312 128h-160c-4.421874 0-8-3.585938-8-8s3.578126-8 8-8h160c4.425782 0 8 3.585938 8 8s-3.574218 8-8 8zm0 0"/><path d="m480 52c-4.425781 0-8-3.585938-8-8 0-6.617188-5.382812-12-12-12s-12 5.382812-12 12c0 4.414062-3.574219 8-8 8s-8-3.585938-8-8c0-15.441406 12.558594-28 28-28s28 12.558594 28 28c0 4.414062-3.574219 8-8 8zm0 0"/><path d="m440 328c-4.425781 0-8-3.574219-8-8v-276c0-4.414062 3.574219-8 8-8s8 3.585938 8 8v276c0 4.425781-3.574219 8-8 8zm0 0"/><path d="m480 328c-4.425781 0-8-3.574219-8-8v-276c0-4.414062 3.574219-8 8-8s8 3.585938 8 8v276c0 4.425781-3.574219 8-8 8zm0 0"/><path d="m480 328h-40c-4.425781 0-8-3.574219-8-8s3.574219-8 8-8h40c4.425781 0 8 3.574219 8 8s-3.574219 8-8 8zm0 0"/><path d="m480 304h-40c-4.425781 0-8-3.574219-8-8s3.574219-8 8-8h40c4.425781 0 8 3.574219 8 8s-3.574219 8-8 8zm0 0"/><path d="m472 344c-4.425781 0-8-3.574219-8-8v-16c0-4.425781 3.574219-8 8-8s8 3.574219 8 8v16c0 4.425781-3.574219 8-8 8zm0 0"/><path d="m448 344c-4.425781 0-8-3.574219-8-8v-16c0-4.425781 3.574219-8 8-8s8 3.574219 8 8v16c0 4.425781-3.574219 8-8 8zm0 0"/><path d="m480.007812 360c-2.9375 0-5.761718-1.617188-7.167968-4.425781l-8-16c-1.976563-3.949219-.375-8.757813 3.574218-10.734375 3.953126-1.96875 8.753907-.375 10.738282 3.574218l8 16c1.976562 3.953126.375 8.761719-3.578125 10.738282-1.140625.574218-2.367188.847656-3.566407.847656zm0 0"/><path d="m459.992188 392c-1.449219 0-2.914063-.390625-4.230469-1.214844-3.746094-2.335937-4.882813-7.273437-2.539063-11.023437l20-32c2.34375-3.753907 7.265625-4.890625 11.023438-2.539063 3.746094 2.335938 4.882812 7.273438 2.539062 11.023438l-20 32c-1.519531 2.425781-4.128906 3.753906-6.792968 3.753906zm0 0"/><path d="m460.007812 392c-2.664062 0-5.273437-1.328125-6.792968-3.761719l-20-32c-2.34375-3.75-1.199219-8.6875 2.539062-11.023437 3.757813-2.351563 8.6875-1.207032 11.023438 2.539062l20 32c2.34375 3.75 1.199218 8.6875-2.539063 11.023438-1.316406.832031-2.78125 1.222656-4.230469 1.222656zm0 0"/><path d="m439.992188 360c-1.199219 0-2.425782-.273438-3.566407-.839844-3.953125-1.976562-5.554687-6.785156-3.578125-10.734375l8-16c1.984375-3.953125 6.785156-5.546875 10.738282-3.578125 3.949218 1.976563 5.550781 6.785156 3.574218 10.738282l-8 16c-1.40625 2.796874-4.230468 4.414062-7.167968 4.414062zm0 0"/><path d="m504 184c-4.425781 0-8-3.585938-8-8v-112c0-4.414062 3.574219-8 8-8s8 3.585938 8 8v112c0 4.414062-3.574219 8-8 8zm0 0"/><path d="m504 72c-4.425781 0-8-3.585938-8-8v-.007812c-4.425781 0-8-3.578126-8-8 0-4.425782 3.574219-7.992188 8-7.992188 8.824219 0 16 7.175781 16 16 0 4.414062-3.574219 8-8 8zm0 0"/><path d="m480 168h-40c-4.425781 0-8-3.585938-8-8s3.574219-8 8-8h40c4.425781 0 8 3.585938 8 8s-3.574219 8-8 8zm0 0"/><path d="m496 64h-56c-4.425781 0-8-3.585938-8-8s3.574219-8 8-8h56c4.425781 0 8 3.585938 8 8s-3.574219 8-8 8zm0 0"/></svg>