<?xml version="1.0" encoding="UTF-8" standalone="no"?><svg xmlns="http://www.w3.org/2000/svg" xmlns:xlink="http://www.w3.org/1999/xlink" clip-rule="evenodd" stroke-miterlimit="10" viewBox="0 0 965 59"><desc>SVG generated by Keynote</desc><defs></defs><g transform="matrix(1.00, 0.00, -0.00, -1.00, 0.0, 59.0)"><text xml:space="preserve" font-family="MyriadPro-Light,Myriad Pro" font-size="58.0" fill="#FEFFFF" transform="matrix(1.00, 0.00, -0.00, -1.00, 0.3, 15.2)">e</text><text xml:space="preserve" font-family="MyriadPro-Light,Myriad Pro" font-size="58.0" fill="#FEFFFF" transform="matrix(1.00, 0.00, -0.00, -1.00, 28.6, 15.2)">v</text><text xml:space="preserve" font-family="MyriadPro-Light,Myriad Pro" font-size="58.0" fill="#FEFFFF" transform="matrix(1.00, 0.00, -0.00, -1.00, 54.4, 15.2)">e</text><text xml:space="preserve" font-family="MyriadPro-Light,Myriad Pro" font-size="58.0" fill="#FEFFFF" transform="matrix(1.00, 0.00, -0.00, -1.00, 82.6, 15.2)">r</text><text xml:space="preserve" font-family="MyriadPro-Light,Myriad Pro" font-size="58.0" fill="#FEFFFF" transform="matrix(1.00, 0.00, -0.00, -1.00, 101.4, 15.2)">y</text><text xml:space="preserve" font-family="MyriadPro-Light,Myriad Pro" font-size="58.0" fill="#FEFFFF" transform="matrix(1.00, 0.00, -0.00, -1.00, 126.5, 15.2)">d</text><text xml:space="preserve" font-family="MyriadPro-Light,Myriad Pro" font-size="58.0" fill="#FEFFFF" transform="matrix(1.00, 0.00, -0.00, -1.00, 158.1, 15.2)">a</text><text xml:space="preserve" font-family="MyriadPro-Light,Myriad Pro" font-size="58.0" fill="#FEFFFF" transform="matrix(1.00, 0.00, -0.00, -1.00, 184.1, 15.2)">y</text><text xml:space="preserve" font-family="MyriadPro-Light,Myriad Pro" font-size="58.0" fill="#FEFFFF" transform="matrix(1.00, 0.00, -0.00, -1.00, 207.6, 15.2)">.</text><text xml:space="preserve" font-family="MyriadPro-Light,Myriad Pro" font-size="58.0" fill="#FEFFFF" transform="matrix(1.00, 0.00, -0.00, -1.00, 217.7, 15.2)"> </text><text xml:space="preserve" font-family="MyriadPro-Light,Myriad Pro" font-size="58.0" fill="#FEFFFF" transform="matrix(1.00, 0.00, -0.00, -1.00, 230.4, 15.2)">B</text><text xml:space="preserve" font-family="MyriadPro-Light,Myriad Pro" font-size="58.0" fill="#FEFFFF" transform="matrix(1.00, 0.00, -0.00, -1.00, 259.7, 15.2)">u</text><text xml:space="preserve" font-family="MyriadPro-Light,Myriad Pro" font-size="58.0" fill="#FEFFFF" transform="matrix(1.00, 0.00, -0.00, -1.00, 290.5, 15.2)">t</text><text xml:space="preserve" font-family="MyriadPro-Light,Myriad Pro" font-size="58.0" fill="#FEFFFF" transform="matrix(1.00, 0.00, -0.00, -1.00, 308.4, 15.2)"> </text><text xml:space="preserve" font-family="MyriadPro-Light,Myriad Pro" font-size="58.0" fill="#FEFFFF" transform="matrix(1.00, 0.00, -0.00, -1.00, 321.1, 15.2)">f</text><text xml:space="preserve" font-family="MyriadPro-Light,Myriad Pro" font-size="58.0" fill="#FEFFFF" transform="matrix(1.00, 0.00, -0.00, -1.00, 336.3, 15.2)">r</text><text xml:space="preserve" font-family="MyriadPro-Light,Myriad Pro" font-size="58.0" fill="#FEFFFF" transform="matrix(1.00, 0.00, -0.00, -1.00, 352.8, 15.2)">o</text><text xml:space="preserve" font-family="MyriadPro-Light,Myriad Pro" font-size="58.0" fill="#FEFFFF" transform="matrix(1.00, 0.00, -0.00, -1.00, 383.6, 15.2)">m</text><text xml:space="preserve" font-family="MyriadPro-Light,Myriad Pro" font-size="58.0" fill="#FEFFFF" transform="matrix(1.00, 0.00, -0.00, -1.00, 431.1, 15.2)"> </text><text xml:space="preserve" font-family="MyriadPro-Light,Myriad Pro" font-size="58.0" fill="#FEFFFF" transform="matrix(1.00, 0.00, -0.00, -1.00, 443.9, 15.2)">m</text><text xml:space="preserve" font-family="MyriadPro-Light,Myriad Pro" font-size="58.0" fill="#FEFFFF" transform="matrix(1.00, 0.00, -0.00, -1.00, 491.4, 15.2)">a</text><text xml:space="preserve" font-family="MyriadPro-Light,Myriad Pro" font-size="58.0" fill="#FEFFFF" transform="matrix(1.00, 0.00, -0.00, -1.00, 517.7, 15.2)">n</text><text xml:space="preserve" font-family="MyriadPro-Light,Myriad Pro" font-size="58.0" fill="#FEFFFF" transform="matrix(1.00, 0.00, -0.00, -1.00, 548.2, 15.2)">y</text><text xml:space="preserve" font-family="MyriadPro-Light,Myriad Pro" font-size="58.0" fill="#FEFFFF" transform="matrix(1.00, 0.00, -0.00, -1.00, 573.7, 15.2)"> </text><text xml:space="preserve" font-family="MyriadPro-Light,Myriad Pro" font-size="58.0" fill="#FEFFFF" transform="matrix(1.00, 0.00, -0.00, -1.00, 586.4, 15.2)">p</text><text xml:space="preserve" font-family="MyriadPro-Light,Myriad Pro" font-size="58.0" fill="#FEFFFF" transform="matrix(1.00, 0.00, -0.00, -1.00, 618.4, 15.2)">o</text><text xml:space="preserve" font-family="MyriadPro-Light,Myriad Pro" font-size="58.0" fill="#FEFFFF" transform="matrix(1.00, 0.00, -0.00, -1.00, 649.3, 15.2)">i</text><text xml:space="preserve" font-family="MyriadPro-Light,Myriad Pro" font-size="58.0" fill="#FEFFFF" transform="matrix(1.00, 0.00, -0.00, -1.00, 661.4, 15.2)">n</text><text xml:space="preserve" font-family="MyriadPro-Light,Myriad Pro" font-size="58.0" fill="#FEFFFF" transform="matrix(1.00, 0.00, -0.00, -1.00, 692.5, 15.2)">t</text><text xml:space="preserve" font-family="MyriadPro-Light,Myriad Pro" font-size="58.0" fill="#FEFFFF" transform="matrix(1.00, 0.00, -0.00, -1.00, 710.4, 15.2)">s</text><text xml:space="preserve" font-family="MyriadPro-Light,Myriad Pro" font-size="58.0" fill="#FEFFFF" transform="matrix(1.00, 0.00, -0.00, -1.00, 732.1, 15.2)"> </text><text xml:space="preserve" font-family="MyriadPro-Light,Myriad Pro" font-size="58.0" fill="#FEFFFF" transform="matrix(1.00, 0.00, -0.00, -1.00, 744.8, 15.2)">i</text><text xml:space="preserve" font-family="MyriadPro-Light,Myriad Pro" font-size="58.0" fill="#FEFFFF" transform="matrix(1.00, 0.00, -0.00, -1.00, 756.9, 15.2)">t</text><text xml:space="preserve" font-family="MyriadPro-Light,Myriad Pro" font-size="58.0" fill="#FEFFFF" transform="matrix(1.00, 0.00, -0.00, -1.00, 776.3, 15.2)">’</text><text xml:space="preserve" font-family="MyriadPro-Light,Myriad Pro" font-size="58.0" fill="#FEFFFF" transform="matrix(1.00, 0.00, -0.00, -1.00, 783.0, 15.2)">s</text><text xml:space="preserve" font-family="MyriadPro-Light,Myriad Pro" font-size="58.0" fill="#FEFFFF" transform="matrix(1.00, 0.00, -0.00, -1.00, 804.7, 15.2)"> </text><text xml:space="preserve" font-family="MyriadPro-Light,Myriad Pro" font-size="58.0" fill="#FEFFFF" transform="matrix(1.00, 0.00, -0.00, -1.00, 817.4, 15.2)">b</text><text xml:space="preserve" font-family="MyriadPro-Light,Myriad Pro" font-size="58.0" fill="#FEFFFF" transform="matrix(1.00, 0.00, -0.00, -1.00, 849.4, 15.2)">e</text><text xml:space="preserve" font-family="MyriadPro-Light,Myriad Pro" font-size="58.0" fill="#FEFFFF" transform="matrix(1.00, 0.00, -0.00, -1.00, 877.5, 15.2)">t</text><text xml:space="preserve" font-family="MyriadPro-Light,Myriad Pro" font-size="58.0" fill="#FEFFFF" transform="matrix(1.00, 0.00, -0.00, -1.00, 895.4, 15.2)">t</text><text xml:space="preserve" font-family="MyriadPro-Light,Myriad Pro" font-size="58.0" fill="#FEFFFF" transform="matrix(1.00, 0.00, -0.00, -1.00, 913.0, 15.2)">e</text><text xml:space="preserve" font-family="MyriadPro-Light,Myriad Pro" font-size="58.0" fill="#FEFFFF" transform="matrix(1.00, 0.00, -0.00, -1.00, 941.1, 15.2)">r</text><text xml:space="preserve" font-family="MyriadPro-Light,Myriad Pro" font-size="58.0" fill="#FEFFFF" transform="matrix(1.00, 0.00, -0.00, -1.00, 955.6, 15.2)">.</text></g></svg>