<?xml version="1.0" encoding="UTF-8" standalone="no"?><svg xmlns="http://www.w3.org/2000/svg" xmlns:xlink="http://www.w3.org/1999/xlink" clip-rule="evenodd" stroke-miterlimit="10" viewBox="0 0 1920 1080"><desc>SVG generated by Keynote</desc><defs></defs><g transform="matrix(1.00, 0.00, -0.00, -1.00, 0.0, 1080.0)"><path d="M 0.0 1080.0 L 1920.0 1080.0 L 1920.0 0.0 L 0.0 0.0 Z M 0.0 1080.0 " fill="#FEFFFF"></path><text xml:space="preserve" font-family="MyriadPro-Light,Myriad Pro" font-size="100.0" fill="#000000" transform="matrix(1.00, 0.00, -0.00, -1.00, 592.6, 515.0)">W</text><text xml:space="preserve" font-family="MyriadPro-Light,Myriad Pro" font-size="100.0" fill="#000000" transform="matrix(1.00, 0.00, -0.00, -1.00, 674.6, 515.0)">h</text><text xml:space="preserve" font-family="MyriadPro-Light,Myriad Pro" font-size="100.0" fill="#000000" transform="matrix(1.00, 0.00, -0.00, -1.00, 728.2, 515.0)">a</text><text xml:space="preserve" font-family="MyriadPro-Light,Myriad Pro" font-size="100.0" fill="#000000" transform="matrix(1.00, 0.00, -0.00, -1.00, 773.6, 515.0)">t</text><text xml:space="preserve" font-family="MyriadPro-Light,Myriad Pro" font-size="100.0" fill="#000000" transform="matrix(1.00, 0.00, -0.00, -1.00, 804.5, 515.0)"> </text><text xml:space="preserve" font-family="MyriadPro-Light,Myriad Pro" font-size="100.0" fill="#000000" transform="matrix(1.00, 0.00, -0.00, -1.00, 826.4, 515.0)">i</text><text xml:space="preserve" font-family="MyriadPro-Light,Myriad Pro" font-size="100.0" fill="#000000" transform="matrix(1.00, 0.00, -0.00, -1.00, 847.3, 515.0)">s</text><text xml:space="preserve" font-family="MyriadPro-Light,Myriad Pro" font-size="100.0" fill="#000000" transform="matrix(1.00, 0.00, -0.00, -1.00, 884.6, 515.0)"> </text><text xml:space="preserve" font-family="MyriadPro-Light,Myriad Pro" font-size="100.0" fill="#000000" transform="matrix(1.00, 0.00, -0.00, -1.00, 906.5, 515.0)">A</text><text xml:space="preserve" font-family="MyriadPro-Light,Myriad Pro" font-size="100.0" fill="#000000" transform="matrix(1.00, 0.00, -0.00, -1.00, 965.0, 515.0)">r</text><text xml:space="preserve" font-family="MyriadPro-Light,Myriad Pro" font-size="100.0" fill="#000000" transform="matrix(1.00, 0.00, -0.00, -1.00, 993.4, 515.0)">e</text><text xml:space="preserve" font-family="MyriadPro-Light,Myriad Pro" font-size="100.0" fill="#000000" transform="matrix(1.00, 0.00, -0.00, -1.00, 1041.9, 515.0)">n</text><text xml:space="preserve" font-family="MyriadPro-Light,Myriad Pro" font-size="100.0" fill="#000000" transform="matrix(1.00, 0.00, -0.00, -1.00, 1095.5, 515.0)">d</text><text xml:space="preserve" font-family="MyriadPro-Light,Myriad Pro" font-size="100.0" fill="#000000" transform="matrix(1.00, 0.00, -0.00, -1.00, 1149.9, 515.0)">e</text><text xml:space="preserve" font-family="MyriadPro-Light,Myriad Pro" font-size="100.0" fill="#000000" transform="matrix(1.00, 0.00, -0.00, -1.00, 1198.4, 515.0)">l</text><text xml:space="preserve" font-family="MyriadPro-Light,Myriad Pro" font-size="100.0" fill="#000000" transform="matrix(1.00, 0.00, -0.00, -1.00, 1219.6, 515.0)">l</text><text xml:space="preserve" font-family="MyriadPro-Light,Myriad Pro" font-size="100.0" fill="#000000" transform="matrix(1.00, 0.00, -0.00, -1.00, 1240.8, 515.0)">e</text><text xml:space="preserve" font-family="MyriadPro-Light,Myriad Pro" font-size="100.0" fill="#000000" transform="matrix(1.00, 0.00, -0.00, -1.00, 1289.3, 515.0)">?</text><image xlink:href="B0220485BA342790B2FC8D2222F88AE5.png" width="506.00" height="505.00" transform="matrix(0.56, 0.00, -0.00, -0.55, -300.0, 680.0)"></image><image xlink:href="34A782FB3CD3E6DD5F2B1B092F3EAC36.png" width="500.00" height="500.00" transform="matrix(0.59, 0.00, -0.00, -0.58, 1915.0, 686.0)"></image></g></svg>