<?xml version="1.0" encoding="UTF-8" standalone="no"?><svg xmlns="http://www.w3.org/2000/svg" xmlns:xlink="http://www.w3.org/1999/xlink" clip-rule="evenodd" stroke-miterlimit="10" viewBox="0 0 929 43"><desc>SVG generated by Keynote</desc><defs></defs><g transform="matrix(1.00, 0.00, -0.00, -1.00, 0.0, 43.0)"><text xml:space="preserve" font-family="MyriadPro-Light,Myriad Pro" font-size="42.0" fill="#FEFFFF" transform="matrix(1.00, 0.00, -0.00, -1.00, 0.3, 11.9)">t</text><text xml:space="preserve" font-family="MyriadPro-Light,Myriad Pro" font-size="42.0" fill="#FEFFFF" transform="matrix(1.00, 0.00, -0.00, -1.00, 13.3, 11.9)">i</text><text xml:space="preserve" font-family="MyriadPro-Light,Myriad Pro" font-size="42.0" fill="#FEFFFF" transform="matrix(1.00, 0.00, -0.00, -1.00, 22.1, 11.9)">m</text><text xml:space="preserve" font-family="MyriadPro-Light,Myriad Pro" font-size="42.0" fill="#FEFFFF" transform="matrix(1.00, 0.00, -0.00, -1.00, 56.5, 11.9)">e</text><text xml:space="preserve" font-family="MyriadPro-Light,Myriad Pro" font-size="42.0" fill="#FEFFFF" transform="matrix(1.00, 0.00, -0.00, -1.00, 76.4, 11.9)">.</text><text xml:space="preserve" font-family="MyriadPro-Light,Myriad Pro" font-size="42.0" fill="#FEFFFF" transform="matrix(1.00, 0.00, -0.00, -1.00, 83.7, 11.9)"> </text><text xml:space="preserve" font-family="MyriadPro-Light,Myriad Pro" font-size="42.0" fill="#FEFFFF" transform="matrix(1.00, 0.00, -0.00, -1.00, 92.9, 11.9)">H</text><text xml:space="preserve" font-family="MyriadPro-Light,Myriad Pro" font-size="42.0" fill="#FEFFFF" transform="matrix(1.00, 0.00, -0.00, -1.00, 119.4, 11.9)">o</text><text xml:space="preserve" font-family="MyriadPro-Light,Myriad Pro" font-size="42.0" fill="#FEFFFF" transform="matrix(1.00, 0.00, -0.00, -1.00, 141.5, 11.9)">w</text><text xml:space="preserve" font-family="MyriadPro-Light,Myriad Pro" font-size="42.0" fill="#FEFFFF" transform="matrix(1.00, 0.00, -0.00, -1.00, 171.6, 11.9)">e</text><text xml:space="preserve" font-family="MyriadPro-Light,Myriad Pro" font-size="42.0" fill="#FEFFFF" transform="matrix(1.00, 0.00, -0.00, -1.00, 192.1, 11.9)">v</text><text xml:space="preserve" font-family="MyriadPro-Light,Myriad Pro" font-size="42.0" fill="#FEFFFF" transform="matrix(1.00, 0.00, -0.00, -1.00, 210.8, 11.9)">e</text><text xml:space="preserve" font-family="MyriadPro-Light,Myriad Pro" font-size="42.0" fill="#FEFFFF" transform="matrix(1.00, 0.00, -0.00, -1.00, 231.2, 11.9)">r</text><text xml:space="preserve" font-family="MyriadPro-Light,Myriad Pro" font-size="42.0" fill="#FEFFFF" transform="matrix(1.00, 0.00, -0.00, -1.00, 243.5, 11.9)"> </text><text xml:space="preserve" font-family="MyriadPro-Light,Myriad Pro" font-size="42.0" fill="#FEFFFF" transform="matrix(1.00, 0.00, -0.00, -1.00, 252.7, 11.9)">y</text><text xml:space="preserve" font-family="MyriadPro-Light,Myriad Pro" font-size="42.0" fill="#FEFFFF" transform="matrix(1.00, 0.00, -0.00, -1.00, 270.9, 11.9)">o</text><text xml:space="preserve" font-family="MyriadPro-Light,Myriad Pro" font-size="42.0" fill="#FEFFFF" transform="matrix(1.00, 0.00, -0.00, -1.00, 293.3, 11.9)">u</text><text xml:space="preserve" font-family="MyriadPro-Light,Myriad Pro" font-size="42.0" fill="#FEFFFF" transform="matrix(1.00, 0.00, -0.00, -1.00, 315.6, 11.9)"> </text><text xml:space="preserve" font-family="MyriadPro-Light,Myriad Pro" font-size="42.0" fill="#FEFFFF" transform="matrix(1.00, 0.00, -0.00, -1.00, 324.8, 11.9)">m</text><text xml:space="preserve" font-family="MyriadPro-Light,Myriad Pro" font-size="42.0" fill="#FEFFFF" transform="matrix(1.00, 0.00, -0.00, -1.00, 359.2, 11.9)">a</text><text xml:space="preserve" font-family="MyriadPro-Light,Myriad Pro" font-size="42.0" fill="#FEFFFF" transform="matrix(1.00, 0.00, -0.00, -1.00, 378.0, 11.9)">y</text><text xml:space="preserve" font-family="MyriadPro-Light,Myriad Pro" font-size="42.0" fill="#FEFFFF" transform="matrix(1.00, 0.00, -0.00, -1.00, 396.5, 11.9)"> </text><text xml:space="preserve" font-family="MyriadPro-Light,Myriad Pro" font-size="42.0" fill="#FEFFFF" transform="matrix(1.00, 0.00, -0.00, -1.00, 405.7, 11.9)">t</text><text xml:space="preserve" font-family="MyriadPro-Light,Myriad Pro" font-size="42.0" fill="#FEFFFF" transform="matrix(1.00, 0.00, -0.00, -1.00, 418.6, 11.9)">h</text><text xml:space="preserve" font-family="MyriadPro-Light,Myriad Pro" font-size="42.0" fill="#FEFFFF" transform="matrix(1.00, 0.00, -0.00, -1.00, 441.2, 11.9)">e</text><text xml:space="preserve" font-family="MyriadPro-Light,Myriad Pro" font-size="42.0" fill="#FEFFFF" transform="matrix(1.00, 0.00, -0.00, -1.00, 461.5, 11.9)">n</text><text xml:space="preserve" font-family="MyriadPro-Light,Myriad Pro" font-size="42.0" fill="#FEFFFF" transform="matrix(1.00, 0.00, -0.00, -1.00, 484.0, 11.9)"> </text><text xml:space="preserve" font-family="MyriadPro-Light,Myriad Pro" font-size="42.0" fill="#FEFFFF" transform="matrix(1.00, 0.00, -0.00, -1.00, 493.2, 11.9)">e</text><text xml:space="preserve" font-family="MyriadPro-Light,Myriad Pro" font-size="42.0" fill="#FEFFFF" transform="matrix(1.00, 0.00, -0.00, -1.00, 513.6, 11.9)">a</text><text xml:space="preserve" font-family="MyriadPro-Light,Myriad Pro" font-size="42.0" fill="#FEFFFF" transform="matrix(1.00, 0.00, -0.00, -1.00, 532.7, 11.9)">c</text><text xml:space="preserve" font-family="MyriadPro-Light,Myriad Pro" font-size="42.0" fill="#FEFFFF" transform="matrix(1.00, 0.00, -0.00, -1.00, 551.4, 11.9)">h</text><text xml:space="preserve" font-family="MyriadPro-Light,Myriad Pro" font-size="42.0" fill="#FEFFFF" transform="matrix(1.00, 0.00, -0.00, -1.00, 573.9, 11.9)"> </text><text xml:space="preserve" font-family="MyriadPro-Light,Myriad Pro" font-size="42.0" fill="#FEFFFF" transform="matrix(1.00, 0.00, -0.00, -1.00, 583.1, 11.9)">y</text><text xml:space="preserve" font-family="MyriadPro-Light,Myriad Pro" font-size="42.0" fill="#FEFFFF" transform="matrix(1.00, 0.00, -0.00, -1.00, 601.3, 11.9)">e</text><text xml:space="preserve" font-family="MyriadPro-Light,Myriad Pro" font-size="42.0" fill="#FEFFFF" transform="matrix(1.00, 0.00, -0.00, -1.00, 621.7, 11.9)">a</text><text xml:space="preserve" font-family="MyriadPro-Light,Myriad Pro" font-size="42.0" fill="#FEFFFF" transform="matrix(1.00, 0.00, -0.00, -1.00, 640.7, 11.9)">r</text><text xml:space="preserve" font-family="MyriadPro-Light,Myriad Pro" font-size="42.0" fill="#FEFFFF" transform="matrix(1.00, 0.00, -0.00, -1.00, 653.1, 11.9)"> </text><text xml:space="preserve" font-family="MyriadPro-Light,Myriad Pro" font-size="42.0" fill="#FEFFFF" transform="matrix(1.00, 0.00, -0.00, -1.00, 662.3, 11.9)">w</text><text xml:space="preserve" font-family="MyriadPro-Light,Myriad Pro" font-size="42.0" fill="#FEFFFF" transform="matrix(1.00, 0.00, -0.00, -1.00, 692.6, 11.9)">i</text><text xml:space="preserve" font-family="MyriadPro-Light,Myriad Pro" font-size="42.0" fill="#FEFFFF" transform="matrix(1.00, 0.00, -0.00, -1.00, 701.4, 11.9)">l</text><text xml:space="preserve" font-family="MyriadPro-Light,Myriad Pro" font-size="42.0" fill="#FEFFFF" transform="matrix(1.00, 0.00, -0.00, -1.00, 710.3, 11.9)">l</text><text xml:space="preserve" font-family="MyriadPro-Light,Myriad Pro" font-size="42.0" fill="#FEFFFF" transform="matrix(1.00, 0.00, -0.00, -1.00, 719.2, 11.9)"> </text><text xml:space="preserve" font-family="MyriadPro-Light,Myriad Pro" font-size="42.0" fill="#FEFFFF" transform="matrix(1.00, 0.00, -0.00, -1.00, 728.4, 11.9)">b</text><text xml:space="preserve" font-family="MyriadPro-Light,Myriad Pro" font-size="42.0" fill="#FEFFFF" transform="matrix(1.00, 0.00, -0.00, -1.00, 751.6, 11.9)">e</text><text xml:space="preserve" font-family="MyriadPro-Light,Myriad Pro" font-size="42.0" fill="#FEFFFF" transform="matrix(1.00, 0.00, -0.00, -1.00, 772.0, 11.9)"> </text><text xml:space="preserve" font-family="MyriadPro-Light,Myriad Pro" font-size="42.0" fill="#FEFFFF" transform="matrix(1.00, 0.00, -0.00, -1.00, 781.2, 11.9)">3</text><text xml:space="preserve" font-family="MyriadPro-Light,Myriad Pro" font-size="42.0" fill="#FEFFFF" transform="matrix(1.00, 0.00, -0.00, -1.00, 801.7, 11.9)">6</text><text xml:space="preserve" font-family="MyriadPro-Light,Myriad Pro" font-size="42.0" fill="#FEFFFF" transform="matrix(1.00, 0.00, -0.00, -1.00, 822.2, 11.9)">0</text><text xml:space="preserve" font-family="MyriadPro-Light,Myriad Pro" font-size="42.0" fill="#FEFFFF" transform="matrix(1.00, 0.00, -0.00, -1.00, 842.7, 11.9)"> </text><text xml:space="preserve" font-family="MyriadPro-Light,Myriad Pro" font-size="42.0" fill="#FEFFFF" transform="matrix(1.00, 0.00, -0.00, -1.00, 851.9, 11.9)">d</text><text xml:space="preserve" font-family="MyriadPro-Light,Myriad Pro" font-size="42.0" fill="#FEFFFF" transform="matrix(1.00, 0.00, -0.00, -1.00, 874.7, 11.9)">a</text><text xml:space="preserve" font-family="MyriadPro-Light,Myriad Pro" font-size="42.0" fill="#FEFFFF" transform="matrix(1.00, 0.00, -0.00, -1.00, 893.5, 11.9)">y</text><text xml:space="preserve" font-family="MyriadPro-Light,Myriad Pro" font-size="42.0" fill="#FEFFFF" transform="matrix(1.00, 0.00, -0.00, -1.00, 912.0, 11.9)">s</text></g></svg>