<?xml version="1.0" encoding="UTF-8" standalone="no"?><svg xmlns="http://www.w3.org/2000/svg" xmlns:xlink="http://www.w3.org/1999/xlink" clip-rule="evenodd" stroke-miterlimit="10" viewBox="0 0 1052 58"><desc>SVG generated by Keynote</desc><defs></defs><g transform="matrix(1.00, 0.00, -0.00, -1.00, 0.0, 58.0)"><text xml:space="preserve" font-family="MyriadPro-Light,Myriad Pro" font-size="58.0" fill="#FEFFFF" transform="matrix(1.00, 0.00, -0.00, -1.00, -3.5, 14.5)">I</text><text xml:space="preserve" font-family="MyriadPro-Light,Myriad Pro" font-size="58.0" fill="#FEFFFF" transform="matrix(1.00, 0.00, -0.00, -1.00, 9.6, 14.5)">n</text><text xml:space="preserve" font-family="MyriadPro-Light,Myriad Pro" font-size="58.0" fill="#FEFFFF" transform="matrix(1.00, 0.00, -0.00, -1.00, 40.7, 14.5)"> </text><text xml:space="preserve" font-family="MyriadPro-Light,Myriad Pro" font-size="58.0" fill="#FEFFFF" transform="matrix(1.00, 0.00, -0.00, -1.00, 53.4, 14.5)">t</text><text xml:space="preserve" font-family="MyriadPro-Light,Myriad Pro" font-size="58.0" fill="#FEFFFF" transform="matrix(1.00, 0.00, -0.00, -1.00, 71.3, 14.5)">h</text><text xml:space="preserve" font-family="MyriadPro-Light,Myriad Pro" font-size="58.0" fill="#FEFFFF" transform="matrix(1.00, 0.00, -0.00, -1.00, 102.4, 14.5)">e</text><text xml:space="preserve" font-family="MyriadPro-Light,Myriad Pro" font-size="58.0" fill="#FEFFFF" transform="matrix(1.00, 0.00, -0.00, -1.00, 130.5, 14.5)"> </text><text xml:space="preserve" font-family="MyriadPro-Light,Myriad Pro" font-size="58.0" fill="#FEFFFF" transform="matrix(1.00, 0.00, -0.00, -1.00, 143.2, 14.5)">K</text><text xml:space="preserve" font-family="MyriadPro-Light,Myriad Pro" font-size="58.0" fill="#FEFFFF" transform="matrix(1.00, 0.00, -0.00, -1.00, 173.6, 14.5)">a</text><text xml:space="preserve" font-family="MyriadPro-Light,Myriad Pro" font-size="58.0" fill="#FEFFFF" transform="matrix(1.00, 0.00, -0.00, -1.00, 199.9, 14.5)">r</text><text xml:space="preserve" font-family="MyriadPro-Light,Myriad Pro" font-size="58.0" fill="#FEFFFF" transform="matrix(1.00, 0.00, -0.00, -1.00, 217.4, 14.5)">i</text><text xml:space="preserve" font-family="MyriadPro-Light,Myriad Pro" font-size="58.0" fill="#FEFFFF" transform="matrix(1.00, 0.00, -0.00, -1.00, 229.5, 14.5)">o</text><text xml:space="preserve" font-family="MyriadPro-Light,Myriad Pro" font-size="58.0" fill="#FEFFFF" transform="matrix(1.00, 0.00, -0.00, -1.00, 260.4, 14.5)">n</text><text xml:space="preserve" font-family="MyriadPro-Light,Myriad Pro" font-size="58.0" fill="#FEFFFF" transform="matrix(1.00, 0.00, -0.00, -1.00, 291.5, 14.5)"> </text><text xml:space="preserve" font-family="MyriadPro-Light,Myriad Pro" font-size="58.0" fill="#FEFFFF" transform="matrix(1.00, 0.00, -0.00, -1.00, 304.2, 14.5)">s</text><text xml:space="preserve" font-family="MyriadPro-Light,Myriad Pro" font-size="58.0" fill="#FEFFFF" transform="matrix(1.00, 0.00, -0.00, -1.00, 325.8, 14.5)">y</text><text xml:space="preserve" font-family="MyriadPro-Light,Myriad Pro" font-size="58.0" fill="#FEFFFF" transform="matrix(1.00, 0.00, -0.00, -1.00, 351.3, 14.5)">s</text><text xml:space="preserve" font-family="MyriadPro-Light,Myriad Pro" font-size="58.0" fill="#FEFFFF" transform="matrix(1.00, 0.00, -0.00, -1.00, 373.0, 14.5)">t</text><text xml:space="preserve" font-family="MyriadPro-Light,Myriad Pro" font-size="58.0" fill="#FEFFFF" transform="matrix(1.00, 0.00, -0.00, -1.00, 390.5, 14.5)">e</text><text xml:space="preserve" font-family="MyriadPro-Light,Myriad Pro" font-size="58.0" fill="#FEFFFF" transform="matrix(1.00, 0.00, -0.00, -1.00, 418.7, 14.5)">m</text><text xml:space="preserve" font-family="MyriadPro-Light,Myriad Pro" font-size="58.0" fill="#FEFFFF" transform="matrix(1.00, 0.00, -0.00, -1.00, 466.2, 14.5)"> </text><text xml:space="preserve" font-family="MyriadPro-Light,Myriad Pro" font-size="58.0" fill="#FEFFFF" transform="matrix(1.00, 0.00, -0.00, -1.00, 478.9, 14.5)">e</text><text xml:space="preserve" font-family="MyriadPro-Light,Myriad Pro" font-size="58.0" fill="#FEFFFF" transform="matrix(1.00, 0.00, -0.00, -1.00, 507.0, 14.5)">a</text><text xml:space="preserve" font-family="MyriadPro-Light,Myriad Pro" font-size="58.0" fill="#FEFFFF" transform="matrix(1.00, 0.00, -0.00, -1.00, 533.3, 14.5)">c</text><text xml:space="preserve" font-family="MyriadPro-Light,Myriad Pro" font-size="58.0" fill="#FEFFFF" transform="matrix(1.00, 0.00, -0.00, -1.00, 559.2, 14.5)">h</text><text xml:space="preserve" font-family="MyriadPro-Light,Myriad Pro" font-size="58.0" fill="#FEFFFF" transform="matrix(1.00, 0.00, -0.00, -1.00, 590.3, 14.5)"> </text><text xml:space="preserve" font-family="MyriadPro-Light,Myriad Pro" font-size="58.0" fill="#FEFFFF" transform="matrix(1.00, 0.00, -0.00, -1.00, 603.0, 14.5)">m</text><text xml:space="preserve" font-family="MyriadPro-Light,Myriad Pro" font-size="58.0" fill="#FEFFFF" transform="matrix(1.00, 0.00, -0.00, -1.00, 650.5, 14.5)">o</text><text xml:space="preserve" font-family="MyriadPro-Light,Myriad Pro" font-size="58.0" fill="#FEFFFF" transform="matrix(1.00, 0.00, -0.00, -1.00, 681.4, 14.5)">n</text><text xml:space="preserve" font-family="MyriadPro-Light,Myriad Pro" font-size="58.0" fill="#FEFFFF" transform="matrix(1.00, 0.00, -0.00, -1.00, 712.4, 14.5)">t</text><text xml:space="preserve" font-family="MyriadPro-Light,Myriad Pro" font-size="58.0" fill="#FEFFFF" transform="matrix(1.00, 0.00, -0.00, -1.00, 730.4, 14.5)">h</text><text xml:space="preserve" font-family="MyriadPro-Light,Myriad Pro" font-size="58.0" fill="#FEFFFF" transform="matrix(1.00, 0.00, -0.00, -1.00, 761.5, 14.5)"> </text><text xml:space="preserve" font-family="MyriadPro-Light,Myriad Pro" font-size="58.0" fill="#FEFFFF" transform="matrix(1.00, 0.00, -0.00, -1.00, 774.2, 14.5)">i</text><text xml:space="preserve" font-family="MyriadPro-Light,Myriad Pro" font-size="58.0" fill="#FEFFFF" transform="matrix(1.00, 0.00, -0.00, -1.00, 786.3, 14.5)">s</text><text xml:space="preserve" font-family="MyriadPro-Light,Myriad Pro" font-size="58.0" fill="#FEFFFF" transform="matrix(1.00, 0.00, -0.00, -1.00, 807.9, 14.5)"> </text><text xml:space="preserve" font-family="MyriadPro-Light,Myriad Pro" font-size="58.0" fill="#FEFFFF" transform="matrix(1.00, 0.00, -0.00, -1.00, 820.6, 14.5)">e</text><text xml:space="preserve" font-family="MyriadPro-Light,Myriad Pro" font-size="58.0" fill="#FEFFFF" transform="matrix(1.00, 0.00, -0.00, -1.00, 848.7, 14.5)">x</text><text xml:space="preserve" font-family="MyriadPro-Light,Myriad Pro" font-size="58.0" fill="#FEFFFF" transform="matrix(1.00, 0.00, -0.00, -1.00, 873.6, 14.5)">a</text><text xml:space="preserve" font-family="MyriadPro-Light,Myriad Pro" font-size="58.0" fill="#FEFFFF" transform="matrix(1.00, 0.00, -0.00, -1.00, 900.0, 14.5)">c</text><text xml:space="preserve" font-family="MyriadPro-Light,Myriad Pro" font-size="58.0" fill="#FEFFFF" transform="matrix(1.00, 0.00, -0.00, -1.00, 926.5, 14.5)">t</text><text xml:space="preserve" font-family="MyriadPro-Light,Myriad Pro" font-size="58.0" fill="#FEFFFF" transform="matrix(1.00, 0.00, -0.00, -1.00, 944.4, 14.5)">l</text><text xml:space="preserve" font-family="MyriadPro-Light,Myriad Pro" font-size="58.0" fill="#FEFFFF" transform="matrix(1.00, 0.00, -0.00, -1.00, 956.7, 14.5)">y</text><text xml:space="preserve" font-family="MyriadPro-Light,Myriad Pro" font-size="58.0" fill="#FEFFFF" transform="matrix(1.00, 0.00, -0.00, -1.00, 982.2, 14.5)"> </text><text xml:space="preserve" font-family="MyriadPro-Light,Myriad Pro" font-size="58.0" fill="#FEFFFF" transform="matrix(1.00, 0.00, -0.00, -1.00, 994.9, 14.5)">3</text><text xml:space="preserve" font-family="MyriadPro-Light,Myriad Pro" font-size="58.0" fill="#FEFFFF" transform="matrix(1.00, 0.00, -0.00, -1.00, 1023.2, 14.5)">0</text></g></svg>