<?xml version="1.0" encoding="UTF-8" standalone="no"?><svg xmlns="http://www.w3.org/2000/svg" xmlns:xlink="http://www.w3.org/1999/xlink" clip-rule="evenodd" stroke-miterlimit="10" viewBox="0 0 1090 58"><desc>SVG generated by Keynote</desc><defs></defs><g transform="matrix(1.00, 0.00, -0.00, -1.00, 0.0, 58.0)"><text xml:space="preserve" font-family="MyriadPro-Light,Myriad Pro" font-size="58.0" fill="#FEFFFF" transform="matrix(1.00, 0.00, -0.00, -1.00, -2.9, 13.5)">m</text><text xml:space="preserve" font-family="MyriadPro-Light,Myriad Pro" font-size="58.0" fill="#FEFFFF" transform="matrix(1.00, 0.00, -0.00, -1.00, 44.6, 13.5)">o</text><text xml:space="preserve" font-family="MyriadPro-Light,Myriad Pro" font-size="58.0" fill="#FEFFFF" transform="matrix(1.00, 0.00, -0.00, -1.00, 75.4, 13.5)">b</text><text xml:space="preserve" font-family="MyriadPro-Light,Myriad Pro" font-size="58.0" fill="#FEFFFF" transform="matrix(1.00, 0.00, -0.00, -1.00, 107.5, 13.5)">i</text><text xml:space="preserve" font-family="MyriadPro-Light,Myriad Pro" font-size="58.0" fill="#FEFFFF" transform="matrix(1.00, 0.00, -0.00, -1.00, 119.6, 13.5)">l</text><text xml:space="preserve" font-family="MyriadPro-Light,Myriad Pro" font-size="58.0" fill="#FEFFFF" transform="matrix(1.00, 0.00, -0.00, -1.00, 131.9, 13.5)">e</text><text xml:space="preserve" font-family="MyriadPro-Light,Myriad Pro" font-size="58.0" fill="#FEFFFF" transform="matrix(1.00, 0.00, -0.00, -1.00, 160.0, 13.5)"> </text><text xml:space="preserve" font-family="MyriadPro-Light,Myriad Pro" font-size="58.0" fill="#FEFFFF" transform="matrix(1.00, 0.00, -0.00, -1.00, 172.7, 13.5)">a</text><text xml:space="preserve" font-family="MyriadPro-Light,Myriad Pro" font-size="58.0" fill="#FEFFFF" transform="matrix(1.00, 0.00, -0.00, -1.00, 199.0, 13.5)">n</text><text xml:space="preserve" font-family="MyriadPro-Light,Myriad Pro" font-size="58.0" fill="#FEFFFF" transform="matrix(1.00, 0.00, -0.00, -1.00, 230.1, 13.5)">d</text><text xml:space="preserve" font-family="MyriadPro-Light,Myriad Pro" font-size="58.0" fill="#FEFFFF" transform="matrix(1.00, 0.00, -0.00, -1.00, 261.7, 13.5)"> </text><text xml:space="preserve" font-family="MyriadPro-Light,Myriad Pro" font-size="58.0" fill="#FEFFFF" transform="matrix(1.00, 0.00, -0.00, -1.00, 274.4, 13.5)">P</text><text xml:space="preserve" font-family="MyriadPro-Light,Myriad Pro" font-size="58.0" fill="#FEFFFF" transform="matrix(1.00, 0.00, -0.00, -1.00, 302.0, 13.5)">e</text><text xml:space="preserve" font-family="MyriadPro-Light,Myriad Pro" font-size="58.0" fill="#FEFFFF" transform="matrix(1.00, 0.00, -0.00, -1.00, 330.1, 13.5)">b</text><text xml:space="preserve" font-family="MyriadPro-Light,Myriad Pro" font-size="58.0" fill="#FEFFFF" transform="matrix(1.00, 0.00, -0.00, -1.00, 362.1, 13.5)">b</text><text xml:space="preserve" font-family="MyriadPro-Light,Myriad Pro" font-size="58.0" fill="#FEFFFF" transform="matrix(1.00, 0.00, -0.00, -1.00, 394.2, 13.5)">l</text><text xml:space="preserve" font-family="MyriadPro-Light,Myriad Pro" font-size="58.0" fill="#FEFFFF" transform="matrix(1.00, 0.00, -0.00, -1.00, 406.5, 13.5)">e</text><text xml:space="preserve" font-family="MyriadPro-Light,Myriad Pro" font-size="58.0" fill="#FEFFFF" transform="matrix(1.00, 0.00, -0.00, -1.00, 434.6, 13.5)"> </text><text xml:space="preserve" font-family="MyriadPro-Light,Myriad Pro" font-size="58.0" fill="#FEFFFF" transform="matrix(1.00, 0.00, -0.00, -1.00, 447.3, 13.5)">w</text><text xml:space="preserve" font-family="MyriadPro-Light,Myriad Pro" font-size="58.0" fill="#FEFFFF" transform="matrix(1.00, 0.00, -0.00, -1.00, 489.2, 13.5)">a</text><text xml:space="preserve" font-family="MyriadPro-Light,Myriad Pro" font-size="58.0" fill="#FEFFFF" transform="matrix(1.00, 0.00, -0.00, -1.00, 515.5, 13.5)">t</text><text xml:space="preserve" font-family="MyriadPro-Light,Myriad Pro" font-size="58.0" fill="#FEFFFF" transform="matrix(1.00, 0.00, -0.00, -1.00, 533.1, 13.5)">c</text><text xml:space="preserve" font-family="MyriadPro-Light,Myriad Pro" font-size="58.0" fill="#FEFFFF" transform="matrix(1.00, 0.00, -0.00, -1.00, 558.9, 13.5)">h</text><text xml:space="preserve" font-family="MyriadPro-Light,Myriad Pro" font-size="58.0" fill="#FEFFFF" transform="matrix(1.00, 0.00, -0.00, -1.00, 590.0, 13.5)">!</text><text xml:space="preserve" font-family="MyriadPro-Light,Myriad Pro" font-size="58.0" fill="#FEFFFF" transform="matrix(1.00, 0.00, -0.00, -1.00, 602.0, 13.5)"> </text><text xml:space="preserve" font-family="MyriadPro-Light,Myriad Pro" font-size="58.0" fill="#FEFFFF" transform="matrix(1.00, 0.00, -0.00, -1.00, 612.3, 13.5)">T</text><text xml:space="preserve" font-family="MyriadPro-Light,Myriad Pro" font-size="58.0" fill="#FEFFFF" transform="matrix(1.00, 0.00, -0.00, -1.00, 639.0, 13.5)">h</text><text xml:space="preserve" font-family="MyriadPro-Light,Myriad Pro" font-size="58.0" fill="#FEFFFF" transform="matrix(1.00, 0.00, -0.00, -1.00, 670.1, 13.5)">a</text><text xml:space="preserve" font-family="MyriadPro-Light,Myriad Pro" font-size="58.0" fill="#FEFFFF" transform="matrix(1.00, 0.00, -0.00, -1.00, 696.5, 13.5)">n</text><text xml:space="preserve" font-family="MyriadPro-Light,Myriad Pro" font-size="58.0" fill="#FEFFFF" transform="matrix(1.00, 0.00, -0.00, -1.00, 727.5, 13.5)">k</text><text xml:space="preserve" font-family="MyriadPro-Light,Myriad Pro" font-size="58.0" fill="#FEFFFF" transform="matrix(1.00, 0.00, -0.00, -1.00, 752.1, 13.5)">s</text><text xml:space="preserve" font-family="MyriadPro-Light,Myriad Pro" font-size="58.0" fill="#FEFFFF" transform="matrix(1.00, 0.00, -0.00, -1.00, 773.7, 13.5)"> </text><text xml:space="preserve" font-family="MyriadPro-Light,Myriad Pro" font-size="58.0" fill="#FEFFFF" transform="matrix(1.00, 0.00, -0.00, -1.00, 786.4, 13.5)">f</text><text xml:space="preserve" font-family="MyriadPro-Light,Myriad Pro" font-size="58.0" fill="#FEFFFF" transform="matrix(1.00, 0.00, -0.00, -1.00, 800.7, 13.5)">o</text><text xml:space="preserve" font-family="MyriadPro-Light,Myriad Pro" font-size="58.0" fill="#FEFFFF" transform="matrix(1.00, 0.00, -0.00, -1.00, 831.6, 13.5)">r</text><text xml:space="preserve" font-family="MyriadPro-Light,Myriad Pro" font-size="58.0" fill="#FEFFFF" transform="matrix(1.00, 0.00, -0.00, -1.00, 848.7, 13.5)"> </text><text xml:space="preserve" font-family="MyriadPro-Light,Myriad Pro" font-size="58.0" fill="#FEFFFF" transform="matrix(1.00, 0.00, -0.00, -1.00, 861.4, 13.5)">w</text><text xml:space="preserve" font-family="MyriadPro-Light,Myriad Pro" font-size="58.0" fill="#FEFFFF" transform="matrix(1.00, 0.00, -0.00, -1.00, 903.3, 13.5)">a</text><text xml:space="preserve" font-family="MyriadPro-Light,Myriad Pro" font-size="58.0" fill="#FEFFFF" transform="matrix(1.00, 0.00, -0.00, -1.00, 929.6, 13.5)">t</text><text xml:space="preserve" font-family="MyriadPro-Light,Myriad Pro" font-size="58.0" fill="#FEFFFF" transform="matrix(1.00, 0.00, -0.00, -1.00, 947.2, 13.5)">c</text><text xml:space="preserve" font-family="MyriadPro-Light,Myriad Pro" font-size="58.0" fill="#FEFFFF" transform="matrix(1.00, 0.00, -0.00, -1.00, 973.1, 13.5)">h</text><text xml:space="preserve" font-family="MyriadPro-Light,Myriad Pro" font-size="58.0" fill="#FEFFFF" transform="matrix(1.00, 0.00, -0.00, -1.00, 1004.1, 13.5)">i</text><text xml:space="preserve" font-family="MyriadPro-Light,Myriad Pro" font-size="58.0" fill="#FEFFFF" transform="matrix(1.00, 0.00, -0.00, -1.00, 1016.3, 13.5)">n</text><text xml:space="preserve" font-family="MyriadPro-Light,Myriad Pro" font-size="58.0" fill="#FEFFFF" transform="matrix(1.00, 0.00, -0.00, -1.00, 1047.4, 13.5)">g</text><text xml:space="preserve" font-family="MyriadPro-Light,Myriad Pro" font-size="58.0" fill="#FEFFFF" transform="matrix(1.00, 0.00, -0.00, -1.00, 1078.9, 13.5)">!</text></g></svg>