<?xml version="1.0" encoding="UTF-8" standalone="no"?><svg xmlns="http://www.w3.org/2000/svg" xmlns:xlink="http://www.w3.org/1999/xlink" clip-rule="evenodd" stroke-miterlimit="10" viewBox="0 0 1024 768"><desc>SVG generated by Keynote</desc><defs></defs><g transform="matrix(1.00, 0.00, -0.00, -1.00, 0.0, 768.0)"><path d="M 0.0 768.0 L 1024.0 768.0 L 1024.0 0.0 L 0.0 0.0 Z M 0.0 768.0 " fill="#000000"></path><text xml:space="preserve" font-family="Helvetica-Bold,Helvetica" font-weight="bold" font-size="120.0" fill="#FEFFFF" transform="matrix(1.00, 0.00, -0.00, -1.00, 195.0, 339.6)">6</text><text xml:space="preserve" font-family="Helvetica-Bold,Helvetica" font-weight="bold" font-size="120.0" fill="#FEFFFF" transform="matrix(1.00, 0.00, -0.00, -1.00, 261.8, 339.6)">9</text><text xml:space="preserve" font-family="Helvetica-Bold,Helvetica" font-weight="bold" font-size="120.0" fill="#FEFFFF" transform="matrix(1.00, 0.00, -0.00, -1.00, 328.6, 339.6)">4</text><text xml:space="preserve" font-family="Helvetica-Bold,Helvetica" font-weight="bold" font-size="120.0" fill="#FEFFFF" transform="matrix(1.00, 0.00, -0.00, -1.00, 395.3, 339.6)">7</text><text xml:space="preserve" font-family="Helvetica-Bold,Helvetica" font-weight="bold" font-size="120.0" fill="#FEFFFF" transform="matrix(1.00, 0.00, -0.00, -1.00, 462.1, 339.6)">.</text><text xml:space="preserve" font-family="Helvetica-Bold,Helvetica" font-weight="bold" font-size="120.0" fill="#FEFFFF" transform="matrix(1.00, 0.00, -0.00, -1.00, 495.5, 339.6)">1</text><text xml:space="preserve" font-family="Helvetica-Bold,Helvetica" font-weight="bold" font-size="120.0" fill="#FEFFFF" transform="matrix(1.00, 0.00, -0.00, -1.00, 562.2, 339.6)">9</text><text xml:space="preserve" font-family="Helvetica-Bold,Helvetica" font-weight="bold" font-size="120.0" fill="#FEFFFF" transform="matrix(1.00, 0.00, -0.00, -1.00, 629.0, 339.6)">.</text><text xml:space="preserve" font-family="Helvetica-Bold,Helvetica" font-weight="bold" font-size="120.0" fill="#FEFFFF" transform="matrix(1.00, 0.00, -0.00, -1.00, 662.3, 339.6)">0</text><text xml:space="preserve" font-family="Helvetica-Bold,Helvetica" font-weight="bold" font-size="120.0" fill="#FEFFFF" transform="matrix(1.00, 0.00, -0.00, -1.00, 729.1, 339.6)">.</text><text xml:space="preserve" font-family="Helvetica-Bold,Helvetica" font-weight="bold" font-size="120.0" fill="#FEFFFF" transform="matrix(1.00, 0.00, -0.00, -1.00, 762.5, 339.6)">7</text><text xml:space="preserve" font-family="MyriadPro-Light,Myriad Pro" font-size="42.0" fill="#FEFFFF" transform="matrix(1.00, 0.00, -0.00, -1.00, 189.2, -39.3)">A</text><text xml:space="preserve" font-family="MyriadPro-Light,Myriad Pro" font-size="42.0" fill="#FEFFFF" transform="matrix(1.00, 0.00, -0.00, -1.00, 213.8, -39.3)"> </text><text xml:space="preserve" font-family="MyriadPro-Light,Myriad Pro" font-size="42.0" fill="#FEFFFF" transform="matrix(1.00, 0.00, -0.00, -1.00, 223.0, -39.3)">K</text><text xml:space="preserve" font-family="MyriadPro-Light,Myriad Pro" font-size="42.0" fill="#FEFFFF" transform="matrix(1.00, 0.00, -0.00, -1.00, 245.0, -39.3)">a</text><text xml:space="preserve" font-family="MyriadPro-Light,Myriad Pro" font-size="42.0" fill="#FEFFFF" transform="matrix(1.00, 0.00, -0.00, -1.00, 264.0, -39.3)">r</text><text xml:space="preserve" font-family="MyriadPro-Light,Myriad Pro" font-size="42.0" fill="#FEFFFF" transform="matrix(1.00, 0.00, -0.00, -1.00, 276.7, -39.3)">i</text><text xml:space="preserve" font-family="MyriadPro-Light,Myriad Pro" font-size="42.0" fill="#FEFFFF" transform="matrix(1.00, 0.00, -0.00, -1.00, 285.5, -39.3)">o</text><text xml:space="preserve" font-family="MyriadPro-Light,Myriad Pro" font-size="42.0" fill="#FEFFFF" transform="matrix(1.00, 0.00, -0.00, -1.00, 307.8, -39.3)">n</text><text xml:space="preserve" font-family="MyriadPro-Light,Myriad Pro" font-size="42.0" fill="#FEFFFF" transform="matrix(1.00, 0.00, -0.00, -1.00, 330.4, -39.3)"> </text><text xml:space="preserve" font-family="MyriadPro-Light,Myriad Pro" font-size="42.0" fill="#FEFFFF" transform="matrix(1.00, 0.00, -0.00, -1.00, 339.5, -39.3)">t</text><text xml:space="preserve" font-family="MyriadPro-Light,Myriad Pro" font-size="42.0" fill="#FEFFFF" transform="matrix(1.00, 0.00, -0.00, -1.00, 352.5, -39.3)">i</text><text xml:space="preserve" font-family="MyriadPro-Light,Myriad Pro" font-size="42.0" fill="#FEFFFF" transform="matrix(1.00, 0.00, -0.00, -1.00, 361.3, -39.3)">m</text><text xml:space="preserve" font-family="MyriadPro-Light,Myriad Pro" font-size="42.0" fill="#FEFFFF" transform="matrix(1.00, 0.00, -0.00, -1.00, 395.7, -39.3)">e</text><text xml:space="preserve" font-family="MyriadPro-Light,Myriad Pro" font-size="42.0" fill="#FEFFFF" transform="matrix(1.00, 0.00, -0.00, -1.00, 416.1, -39.3)"> </text><text xml:space="preserve" font-family="MyriadPro-Light,Myriad Pro" font-size="42.0" fill="#FEFFFF" transform="matrix(1.00, 0.00, -0.00, -1.00, 425.3, -39.3)">i</text><text xml:space="preserve" font-family="MyriadPro-Light,Myriad Pro" font-size="42.0" fill="#FEFFFF" transform="matrix(1.00, 0.00, -0.00, -1.00, 434.0, -39.3)">s</text><text xml:space="preserve" font-family="MyriadPro-Light,Myriad Pro" font-size="42.0" fill="#FEFFFF" transform="matrix(1.00, 0.00, -0.00, -1.00, 449.7, -39.3)"> </text><text xml:space="preserve" font-family="MyriadPro-Light,Myriad Pro" font-size="42.0" fill="#FEFFFF" transform="matrix(1.00, 0.00, -0.00, -1.00, 458.9, -39.3)">m</text><text xml:space="preserve" font-family="MyriadPro-Light,Myriad Pro" font-size="42.0" fill="#FEFFFF" transform="matrix(1.00, 0.00, -0.00, -1.00, 493.3, -39.3)">a</text><text xml:space="preserve" font-family="MyriadPro-Light,Myriad Pro" font-size="42.0" fill="#FEFFFF" transform="matrix(1.00, 0.00, -0.00, -1.00, 512.4, -39.3)">d</text><text xml:space="preserve" font-family="MyriadPro-Light,Myriad Pro" font-size="42.0" fill="#FEFFFF" transform="matrix(1.00, 0.00, -0.00, -1.00, 535.2, -39.3)">e</text><text xml:space="preserve" font-family="MyriadPro-Light,Myriad Pro" font-size="42.0" fill="#FEFFFF" transform="matrix(1.00, 0.00, -0.00, -1.00, 555.6, -39.3)"> </text><text xml:space="preserve" font-family="MyriadPro-Light,Myriad Pro" font-size="42.0" fill="#FEFFFF" transform="matrix(1.00, 0.00, -0.00, -1.00, 564.8, -39.3)">o</text><text xml:space="preserve" font-family="MyriadPro-Light,Myriad Pro" font-size="42.0" fill="#FEFFFF" transform="matrix(1.00, 0.00, -0.00, -1.00, 587.1, -39.3)">f</text><text xml:space="preserve" font-family="MyriadPro-Light,Myriad Pro" font-size="42.0" fill="#FEFFFF" transform="matrix(1.00, 0.00, -0.00, -1.00, 598.1, -39.3)"> </text><text xml:space="preserve" font-family="MyriadPro-Light,Myriad Pro" font-size="42.0" fill="#FEFFFF" transform="matrix(1.00, 0.00, -0.00, -1.00, 607.3, -39.3)">f</text><text xml:space="preserve" font-family="MyriadPro-Light,Myriad Pro" font-size="42.0" fill="#FEFFFF" transform="matrix(1.00, 0.00, -0.00, -1.00, 617.7, -39.3)">o</text><text xml:space="preserve" font-family="MyriadPro-Light,Myriad Pro" font-size="42.0" fill="#FEFFFF" transform="matrix(1.00, 0.00, -0.00, -1.00, 640.1, -39.3)">u</text><text xml:space="preserve" font-family="MyriadPro-Light,Myriad Pro" font-size="42.0" fill="#FEFFFF" transform="matrix(1.00, 0.00, -0.00, -1.00, 662.4, -39.3)">r</text><text xml:space="preserve" font-family="MyriadPro-Light,Myriad Pro" font-size="42.0" fill="#FEFFFF" transform="matrix(1.00, 0.00, -0.00, -1.00, 674.8, -39.3)"> </text><text xml:space="preserve" font-family="MyriadPro-Light,Myriad Pro" font-size="42.0" fill="#FEFFFF" transform="matrix(1.00, 0.00, -0.00, -1.00, 683.9, -39.3)">n</text><text xml:space="preserve" font-family="MyriadPro-Light,Myriad Pro" font-size="42.0" fill="#FEFFFF" transform="matrix(1.00, 0.00, -0.00, -1.00, 706.5, -39.3)">u</text><text xml:space="preserve" font-family="MyriadPro-Light,Myriad Pro" font-size="42.0" fill="#FEFFFF" transform="matrix(1.00, 0.00, -0.00, -1.00, 728.8, -39.3)">m</text><text xml:space="preserve" font-family="MyriadPro-Light,Myriad Pro" font-size="42.0" fill="#FEFFFF" transform="matrix(1.00, 0.00, -0.00, -1.00, 763.2, -39.3)">b</text><text xml:space="preserve" font-family="MyriadPro-Light,Myriad Pro" font-size="42.0" fill="#FEFFFF" transform="matrix(1.00, 0.00, -0.00, -1.00, 786.3, -39.3)">e</text><text xml:space="preserve" font-family="MyriadPro-Light,Myriad Pro" font-size="42.0" fill="#FEFFFF" transform="matrix(1.00, 0.00, -0.00, -1.00, 806.7, -39.3)">r</text><text xml:space="preserve" font-family="MyriadPro-Light,Myriad Pro" font-size="42.0" fill="#FEFFFF" transform="matrix(1.00, 0.00, -0.00, -1.00, 819.1, -39.3)">s</text></g></svg>