<?xml version="1.0" encoding="UTF-8" standalone="no"?><svg xmlns="http://www.w3.org/2000/svg" xmlns:xlink="http://www.w3.org/1999/xlink" clip-rule="evenodd" stroke-miterlimit="10" viewBox="0 0 891 47"><desc>SVG generated by Keynote</desc><defs></defs><g transform="matrix(1.00, 0.00, -0.00, -1.00, 0.0, 47.0)"><text xml:space="preserve" font-family="MyriadPro-Light,Myriad Pro" font-size="58.0" fill="#FEFFFF" transform="matrix(1.00, 0.00, -0.00, -1.00, -0.7, 3.5)">A</text><text xml:space="preserve" font-family="MyriadPro-Light,Myriad Pro" font-size="58.0" fill="#FEFFFF" transform="matrix(1.00, 0.00, -0.00, -1.00, 33.2, 3.5)"> </text><text xml:space="preserve" font-family="MyriadPro-Light,Myriad Pro" font-size="58.0" fill="#FEFFFF" transform="matrix(1.00, 0.00, -0.00, -1.00, 45.9, 3.5)">K</text><text xml:space="preserve" font-family="MyriadPro-Light,Myriad Pro" font-size="58.0" fill="#FEFFFF" transform="matrix(1.00, 0.00, -0.00, -1.00, 76.2, 3.5)">a</text><text xml:space="preserve" font-family="MyriadPro-Light,Myriad Pro" font-size="58.0" fill="#FEFFFF" transform="matrix(1.00, 0.00, -0.00, -1.00, 102.6, 3.5)">r</text><text xml:space="preserve" font-family="MyriadPro-Light,Myriad Pro" font-size="58.0" fill="#FEFFFF" transform="matrix(1.00, 0.00, -0.00, -1.00, 120.1, 3.5)">i</text><text xml:space="preserve" font-family="MyriadPro-Light,Myriad Pro" font-size="58.0" fill="#FEFFFF" transform="matrix(1.00, 0.00, -0.00, -1.00, 132.2, 3.5)">o</text><text xml:space="preserve" font-family="MyriadPro-Light,Myriad Pro" font-size="58.0" fill="#FEFFFF" transform="matrix(1.00, 0.00, -0.00, -1.00, 163.1, 3.5)">n</text><text xml:space="preserve" font-family="MyriadPro-Light,Myriad Pro" font-size="58.0" fill="#FEFFFF" transform="matrix(1.00, 0.00, -0.00, -1.00, 194.2, 3.5)"> </text><text xml:space="preserve" font-family="MyriadPro-Light,Myriad Pro" font-size="58.0" fill="#FEFFFF" transform="matrix(1.00, 0.00, -0.00, -1.00, 206.9, 3.5)">t</text><text xml:space="preserve" font-family="MyriadPro-Light,Myriad Pro" font-size="58.0" fill="#FEFFFF" transform="matrix(1.00, 0.00, -0.00, -1.00, 224.8, 3.5)">i</text><text xml:space="preserve" font-family="MyriadPro-Light,Myriad Pro" font-size="58.0" fill="#FEFFFF" transform="matrix(1.00, 0.00, -0.00, -1.00, 236.9, 3.5)">m</text><text xml:space="preserve" font-family="MyriadPro-Light,Myriad Pro" font-size="58.0" fill="#FEFFFF" transform="matrix(1.00, 0.00, -0.00, -1.00, 284.4, 3.5)">e</text><text xml:space="preserve" font-family="MyriadPro-Light,Myriad Pro" font-size="58.0" fill="#FEFFFF" transform="matrix(1.00, 0.00, -0.00, -1.00, 312.5, 3.5)"> </text><text xml:space="preserve" font-family="MyriadPro-Light,Myriad Pro" font-size="58.0" fill="#FEFFFF" transform="matrix(1.00, 0.00, -0.00, -1.00, 325.2, 3.5)">i</text><text xml:space="preserve" font-family="MyriadPro-Light,Myriad Pro" font-size="58.0" fill="#FEFFFF" transform="matrix(1.00, 0.00, -0.00, -1.00, 337.4, 3.5)">s</text><text xml:space="preserve" font-family="MyriadPro-Light,Myriad Pro" font-size="58.0" fill="#FEFFFF" transform="matrix(1.00, 0.00, -0.00, -1.00, 359.0, 3.5)"> </text><text xml:space="preserve" font-family="MyriadPro-Light,Myriad Pro" font-size="58.0" fill="#FEFFFF" transform="matrix(1.00, 0.00, -0.00, -1.00, 371.7, 3.5)">m</text><text xml:space="preserve" font-family="MyriadPro-Light,Myriad Pro" font-size="58.0" fill="#FEFFFF" transform="matrix(1.00, 0.00, -0.00, -1.00, 419.2, 3.5)">a</text><text xml:space="preserve" font-family="MyriadPro-Light,Myriad Pro" font-size="58.0" fill="#FEFFFF" transform="matrix(1.00, 0.00, -0.00, -1.00, 445.5, 3.5)">d</text><text xml:space="preserve" font-family="MyriadPro-Light,Myriad Pro" font-size="58.0" fill="#FEFFFF" transform="matrix(1.00, 0.00, -0.00, -1.00, 477.1, 3.5)">e</text><text xml:space="preserve" font-family="MyriadPro-Light,Myriad Pro" font-size="58.0" fill="#FEFFFF" transform="matrix(1.00, 0.00, -0.00, -1.00, 505.2, 3.5)"> </text><text xml:space="preserve" font-family="MyriadPro-Light,Myriad Pro" font-size="58.0" fill="#FEFFFF" transform="matrix(1.00, 0.00, -0.00, -1.00, 517.9, 3.5)">o</text><text xml:space="preserve" font-family="MyriadPro-Light,Myriad Pro" font-size="58.0" fill="#FEFFFF" transform="matrix(1.00, 0.00, -0.00, -1.00, 548.8, 3.5)">f</text><text xml:space="preserve" font-family="MyriadPro-Light,Myriad Pro" font-size="58.0" fill="#FEFFFF" transform="matrix(1.00, 0.00, -0.00, -1.00, 564.0, 3.5)"> </text><text xml:space="preserve" font-family="MyriadPro-Light,Myriad Pro" font-size="58.0" fill="#FEFFFF" transform="matrix(1.00, 0.00, -0.00, -1.00, 576.7, 3.5)">f</text><text xml:space="preserve" font-family="MyriadPro-Light,Myriad Pro" font-size="58.0" fill="#FEFFFF" transform="matrix(1.00, 0.00, -0.00, -1.00, 591.0, 3.5)">o</text><text xml:space="preserve" font-family="MyriadPro-Light,Myriad Pro" font-size="58.0" fill="#FEFFFF" transform="matrix(1.00, 0.00, -0.00, -1.00, 621.8, 3.5)">u</text><text xml:space="preserve" font-family="MyriadPro-Light,Myriad Pro" font-size="58.0" fill="#FEFFFF" transform="matrix(1.00, 0.00, -0.00, -1.00, 652.6, 3.5)">r</text><text xml:space="preserve" font-family="MyriadPro-Light,Myriad Pro" font-size="58.0" fill="#FEFFFF" transform="matrix(1.00, 0.00, -0.00, -1.00, 669.8, 3.5)"> </text><text xml:space="preserve" font-family="MyriadPro-Light,Myriad Pro" font-size="58.0" fill="#FEFFFF" transform="matrix(1.00, 0.00, -0.00, -1.00, 682.5, 3.5)">n</text><text xml:space="preserve" font-family="MyriadPro-Light,Myriad Pro" font-size="58.0" fill="#FEFFFF" transform="matrix(1.00, 0.00, -0.00, -1.00, 713.5, 3.5)">u</text><text xml:space="preserve" font-family="MyriadPro-Light,Myriad Pro" font-size="58.0" fill="#FEFFFF" transform="matrix(1.00, 0.00, -0.00, -1.00, 744.3, 3.5)">m</text><text xml:space="preserve" font-family="MyriadPro-Light,Myriad Pro" font-size="58.0" fill="#FEFFFF" transform="matrix(1.00, 0.00, -0.00, -1.00, 791.8, 3.5)">b</text><text xml:space="preserve" font-family="MyriadPro-Light,Myriad Pro" font-size="58.0" fill="#FEFFFF" transform="matrix(1.00, 0.00, -0.00, -1.00, 823.9, 3.5)">e</text><text xml:space="preserve" font-family="MyriadPro-Light,Myriad Pro" font-size="58.0" fill="#FEFFFF" transform="matrix(1.00, 0.00, -0.00, -1.00, 852.0, 3.5)">r</text><text xml:space="preserve" font-family="MyriadPro-Light,Myriad Pro" font-size="58.0" fill="#FEFFFF" transform="matrix(1.00, 0.00, -0.00, -1.00, 869.1, 3.5)">s</text></g></svg>