<?xml version="1.0" encoding="UTF-8" standalone="no"?><svg xmlns="http://www.w3.org/2000/svg" xmlns:xlink="http://www.w3.org/1999/xlink" clip-rule="evenodd" stroke-miterlimit="10" viewBox="0 0 630 91"><desc>SVG generated by Keynote</desc><defs></defs><g transform="matrix(1.00, 0.00, -0.00, -1.00, 0.0, 91.0)"><text xml:space="preserve" font-family="Helvetica-Bold,Helvetica" font-weight="bold" font-size="120.0" fill="#FEFFFF" transform="matrix(1.00, 0.00, -0.00, -1.00, -2.0, 3.6)">6</text><text xml:space="preserve" font-family="Helvetica-Bold,Helvetica" font-weight="bold" font-size="120.0" fill="#FEFFFF" transform="matrix(1.00, 0.00, -0.00, -1.00, 64.8, 3.6)">9</text><text xml:space="preserve" font-family="Helvetica-Bold,Helvetica" font-weight="bold" font-size="120.0" fill="#FEFFFF" transform="matrix(1.00, 0.00, -0.00, -1.00, 131.6, 3.6)">4</text><text xml:space="preserve" font-family="Helvetica-Bold,Helvetica" font-weight="bold" font-size="120.0" fill="#FEFFFF" transform="matrix(1.00, 0.00, -0.00, -1.00, 198.3, 3.6)">7</text><text xml:space="preserve" font-family="Helvetica-Bold,Helvetica" font-weight="bold" font-size="120.0" fill="#FEFFFF" transform="matrix(1.00, 0.00, -0.00, -1.00, 265.1, 3.6)">.</text><text xml:space="preserve" font-family="Helvetica-Bold,Helvetica" font-weight="bold" font-size="120.0" fill="#FEFFFF" transform="matrix(1.00, 0.00, -0.00, -1.00, 298.5, 3.6)">1</text><text xml:space="preserve" font-family="Helvetica-Bold,Helvetica" font-weight="bold" font-size="120.0" fill="#FEFFFF" transform="matrix(1.00, 0.00, -0.00, -1.00, 365.2, 3.6)">9</text><text xml:space="preserve" font-family="Helvetica-Bold,Helvetica" font-weight="bold" font-size="120.0" fill="#FEFFFF" transform="matrix(1.00, 0.00, -0.00, -1.00, 432.0, 3.6)">.</text><text xml:space="preserve" font-family="Helvetica-Bold,Helvetica" font-weight="bold" font-size="120.0" fill="#FEFFFF" transform="matrix(1.00, 0.00, -0.00, -1.00, 465.3, 3.6)">0</text><text xml:space="preserve" font-family="Helvetica-Bold,Helvetica" font-weight="bold" font-size="120.0" fill="#FEFFFF" transform="matrix(1.00, 0.00, -0.00, -1.00, 532.1, 3.6)">.</text><text xml:space="preserve" font-family="Helvetica-Bold,Helvetica" font-weight="bold" font-size="120.0" fill="#FEFFFF" transform="matrix(1.00, 0.00, -0.00, -1.00, 565.5, 3.6)">7</text></g></svg>