<?xml version="1.0" encoding="UTF-8" standalone="no"?><svg xmlns="http://www.w3.org/2000/svg" xmlns:xlink="http://www.w3.org/1999/xlink" clip-rule="evenodd" stroke-miterlimit="10" viewBox="0 0 1024 768"><desc>SVG generated by Keynote</desc><defs></defs><g transform="matrix(1.00, 0.00, -0.00, -1.00, 0.0, 768.0)"><path d="M 0.0 768.0 L 1024.0 768.0 L 1024.0 0.0 L 0.0 0.0 Z M 0.0 768.0 " fill="#000000"></path><text xml:space="preserve" font-family="Helvetica-Light,Helvetica" font-size="14.0" fill="#FEFFFF" transform="matrix(1.00, 0.00, -0.00, -1.00, 346.1, 54.4)">C</text><text xml:space="preserve" font-family="Helvetica-Light,Helvetica" font-size="14.0" fill="#FEFFFF" transform="matrix(1.00, 0.00, -0.00, -1.00, 356.3, 54.4)">o</text><text xml:space="preserve" font-family="Helvetica-Light,Helvetica" font-size="14.0" fill="#FEFFFF" transform="matrix(1.00, 0.00, -0.00, -1.00, 364.0, 54.4)">p</text><text xml:space="preserve" font-family="Helvetica-Light,Helvetica" font-size="14.0" fill="#FEFFFF" transform="matrix(1.00, 0.00, -0.00, -1.00, 372.6, 54.4)">y</text><text xml:space="preserve" font-family="Helvetica-Light,Helvetica" font-size="14.0" fill="#FEFFFF" transform="matrix(1.00, 0.00, -0.00, -1.00, 379.6, 54.4)">r</text><text xml:space="preserve" font-family="Helvetica-Light,Helvetica" font-size="14.0" fill="#FEFFFF" transform="matrix(1.00, 0.00, -0.00, -1.00, 384.3, 54.4)">i</text><text xml:space="preserve" font-family="Helvetica-Light,Helvetica" font-size="14.0" fill="#FEFFFF" transform="matrix(1.00, 0.00, -0.00, -1.00, 387.4, 54.4)">g</text><text xml:space="preserve" font-family="Helvetica-Light,Helvetica" font-size="14.0" fill="#FEFFFF" transform="matrix(1.00, 0.00, -0.00, -1.00, 395.9, 54.4)">h</text><text xml:space="preserve" font-family="Helvetica-Light,Helvetica" font-size="14.0" fill="#FEFFFF" transform="matrix(1.00, 0.00, -0.00, -1.00, 403.7, 54.4)">t</text><text xml:space="preserve" font-family="Helvetica-Light,Helvetica" font-size="14.0" fill="#FEFFFF" transform="matrix(1.00, 0.00, -0.00, -1.00, 407.6, 54.4)"> </text><text xml:space="preserve" font-family="Helvetica-Light,Helvetica" font-size="14.0" fill="#FEFFFF" transform="matrix(1.00, 0.00, -0.00, -1.00, 411.5, 54.4)">2</text><text xml:space="preserve" font-family="Helvetica-Light,Helvetica" font-size="14.0" fill="#FEFFFF" transform="matrix(1.00, 0.00, -0.00, -1.00, 419.3, 54.4)">0</text><text xml:space="preserve" font-family="Helvetica-Light,Helvetica" font-size="14.0" fill="#FEFFFF" transform="matrix(1.00, 0.00, -0.00, -1.00, 427.1, 54.4)">1</text><text xml:space="preserve" font-family="Helvetica-Light,Helvetica" font-size="14.0" fill="#FEFFFF" transform="matrix(1.00, 0.00, -0.00, -1.00, 434.8, 54.4)">3</text><text xml:space="preserve" font-family="Helvetica-Light,Helvetica" font-size="14.0" fill="#FEFFFF" transform="matrix(1.00, 0.00, -0.00, -1.00, 442.6, 54.4)">-</text><text xml:space="preserve" font-family="Helvetica-Light,Helvetica" font-size="14.0" fill="#FEFFFF" transform="matrix(1.00, 0.00, -0.00, -1.00, 447.3, 54.4)">2</text><text xml:space="preserve" font-family="Helvetica-Light,Helvetica" font-size="14.0" fill="#FEFFFF" transform="matrix(1.00, 0.00, -0.00, -1.00, 455.1, 54.4)">0</text><text xml:space="preserve" font-family="Helvetica-Light,Helvetica" font-size="14.0" fill="#FEFFFF" transform="matrix(1.00, 0.00, -0.00, -1.00, 462.9, 54.4)">1</text><text xml:space="preserve" font-family="Helvetica-Light,Helvetica" font-size="14.0" fill="#FEFFFF" transform="matrix(1.00, 0.00, -0.00, -1.00, 470.6, 54.4)">5</text><text xml:space="preserve" font-family="Helvetica-Light,Helvetica" font-size="14.0" fill="#FEFFFF" transform="matrix(1.00, 0.00, -0.00, -1.00, 478.4, 54.4)"> </text><text xml:space="preserve" font-family="Helvetica-Light,Helvetica" font-size="14.0" fill="#FEFFFF" transform="matrix(1.00, 0.00, -0.00, -1.00, 482.3, 54.4)">P</text><text xml:space="preserve" font-family="Helvetica-Light,Helvetica" font-size="14.0" fill="#FEFFFF" transform="matrix(1.00, 0.00, -0.00, -1.00, 490.9, 54.4)">o</text><text xml:space="preserve" font-family="Helvetica-Light,Helvetica" font-size="14.0" fill="#FEFFFF" transform="matrix(1.00, 0.00, -0.00, -1.00, 498.7, 54.4)">u</text><text xml:space="preserve" font-family="Helvetica-Light,Helvetica" font-size="14.0" fill="#FEFFFF" transform="matrix(1.00, 0.00, -0.00, -1.00, 506.4, 54.4)">y</text><text xml:space="preserve" font-family="Helvetica-Light,Helvetica" font-size="14.0" fill="#FEFFFF" transform="matrix(1.00, 0.00, -0.00, -1.00, 513.4, 54.4)">a</text><text xml:space="preserve" font-family="Helvetica-Light,Helvetica" font-size="14.0" fill="#FEFFFF" transform="matrix(1.00, 0.00, -0.00, -1.00, 521.2, 54.4)"> </text><text xml:space="preserve" font-family="Helvetica-Light,Helvetica" font-size="14.0" fill="#FEFFFF" transform="matrix(1.00, 0.00, -0.00, -1.00, 525.1, 54.4)">K</text><text xml:space="preserve" font-family="Helvetica-Light,Helvetica" font-size="14.0" fill="#FEFFFF" transform="matrix(1.00, 0.00, -0.00, -1.00, 534.4, 54.4)">a</text><text xml:space="preserve" font-family="Helvetica-Light,Helvetica" font-size="14.0" fill="#FEFFFF" transform="matrix(1.00, 0.00, -0.00, -1.00, 542.2, 54.4)">r</text><text xml:space="preserve" font-family="Helvetica-Light,Helvetica" font-size="14.0" fill="#FEFFFF" transform="matrix(1.00, 0.00, -0.00, -1.00, 547.1, 54.4)">y</text><text xml:space="preserve" font-family="Helvetica-Light,Helvetica" font-size="14.0" fill="#FEFFFF" transform="matrix(1.00, 0.00, -0.00, -1.00, 552.9, 54.4)">,</text><text xml:space="preserve" font-family="Helvetica-Light,Helvetica" font-size="14.0" fill="#FEFFFF" transform="matrix(1.00, 0.00, -0.00, -1.00, 556.8, 54.4)"> </text><text xml:space="preserve" font-family="Helvetica-Light,Helvetica" font-size="14.0" fill="#FEFFFF" transform="matrix(1.00, 0.00, -0.00, -1.00, 560.6, 54.4)">A</text><text xml:space="preserve" font-family="Helvetica-Light,Helvetica" font-size="14.0" fill="#FEFFFF" transform="matrix(1.00, 0.00, -0.00, -1.00, 570.0, 54.4)">l</text><text xml:space="preserve" font-family="Helvetica-Light,Helvetica" font-size="14.0" fill="#FEFFFF" transform="matrix(1.00, 0.00, -0.00, -1.00, 573.1, 54.4)">l</text><text xml:space="preserve" font-family="Helvetica-Light,Helvetica" font-size="14.0" fill="#FEFFFF" transform="matrix(1.00, 0.00, -0.00, -1.00, 576.2, 54.4)"> </text><text xml:space="preserve" font-family="Helvetica-Light,Helvetica" font-size="14.0" fill="#FEFFFF" transform="matrix(1.00, 0.00, -0.00, -1.00, 580.1, 54.4)">r</text><text xml:space="preserve" font-family="Helvetica-Light,Helvetica" font-size="14.0" fill="#FEFFFF" transform="matrix(1.00, 0.00, -0.00, -1.00, 584.8, 54.4)">i</text><text xml:space="preserve" font-family="Helvetica-Light,Helvetica" font-size="14.0" fill="#FEFFFF" transform="matrix(1.00, 0.00, -0.00, -1.00, 587.9, 54.4)">g</text><text xml:space="preserve" font-family="Helvetica-Light,Helvetica" font-size="14.0" fill="#FEFFFF" transform="matrix(1.00, 0.00, -0.00, -1.00, 596.4, 54.4)">h</text><text xml:space="preserve" font-family="Helvetica-Light,Helvetica" font-size="14.0" fill="#FEFFFF" transform="matrix(1.00, 0.00, -0.00, -1.00, 604.2, 54.4)">t</text><text xml:space="preserve" font-family="Helvetica-Light,Helvetica" font-size="14.0" fill="#FEFFFF" transform="matrix(1.00, 0.00, -0.00, -1.00, 608.1, 54.4)">s</text><text xml:space="preserve" font-family="Helvetica-Light,Helvetica" font-size="14.0" fill="#FEFFFF" transform="matrix(1.00, 0.00, -0.00, -1.00, 615.1, 54.4)"> </text><text xml:space="preserve" font-family="Helvetica-Light,Helvetica" font-size="14.0" fill="#FEFFFF" transform="matrix(1.00, 0.00, -0.00, -1.00, 619.0, 54.4)">r</text><text xml:space="preserve" font-family="Helvetica-Light,Helvetica" font-size="14.0" fill="#FEFFFF" transform="matrix(1.00, 0.00, -0.00, -1.00, 623.4, 54.4)">e</text><text xml:space="preserve" font-family="Helvetica-Light,Helvetica" font-size="14.0" fill="#FEFFFF" transform="matrix(1.00, 0.00, -0.00, -1.00, 631.2, 54.4)">s</text><text xml:space="preserve" font-family="Helvetica-Light,Helvetica" font-size="14.0" fill="#FEFFFF" transform="matrix(1.00, 0.00, -0.00, -1.00, 638.2, 54.4)">e</text><text xml:space="preserve" font-family="Helvetica-Light,Helvetica" font-size="14.0" fill="#FEFFFF" transform="matrix(1.00, 0.00, -0.00, -1.00, 646.0, 54.4)">r</text><text xml:space="preserve" font-family="Helvetica-Light,Helvetica" font-size="14.0" fill="#FEFFFF" transform="matrix(1.00, 0.00, -0.00, -1.00, 650.6, 54.4)">v</text><text xml:space="preserve" font-family="Helvetica-Light,Helvetica" font-size="14.0" fill="#FEFFFF" transform="matrix(1.00, 0.00, -0.00, -1.00, 657.6, 54.4)">e</text><text xml:space="preserve" font-family="Helvetica-Light,Helvetica" font-size="14.0" fill="#FEFFFF" transform="matrix(1.00, 0.00, -0.00, -1.00, 665.4, 54.4)">d</text><text xml:space="preserve" font-family="Helvetica-Light,Helvetica" font-size="14.0" fill="#FEFFFF" transform="matrix(1.00, 0.00, -0.00, -1.00, 674.0, 54.4)">.</text></g></svg>