<?xml version="1.0" encoding="UTF-8" standalone="no"?><svg xmlns="http://www.w3.org/2000/svg" xmlns:xlink="http://www.w3.org/1999/xlink" clip-rule="evenodd" stroke-miterlimit="10" viewBox="0 0 1024 768"><desc>SVG generated by Keynote</desc><defs></defs><g transform="matrix(1.00, 0.00, -0.00, -1.00, 0.0, 768.0)"><path d="M 0.0 768.0 L 1024.0 768.0 L 1024.0 0.0 L 0.0 0.0 Z M 0.0 768.0 " fill="#000000"></path><text xml:space="preserve" font-family="Helvetica-Light,Helvetica" font-size="60.0" fill="#FEFFFF" transform="matrix(1.00, 0.00, -0.00, -1.00, 286.9, 448.2)">W</text><text xml:space="preserve" font-family="Helvetica-Light,Helvetica" font-size="60.0" fill="#FEFFFF" transform="matrix(1.00, 0.00, -0.00, -1.00, 340.3, 448.2)">h</text><text xml:space="preserve" font-family="Helvetica-Light,Helvetica" font-size="60.0" fill="#FEFFFF" transform="matrix(1.00, 0.00, -0.00, -1.00, 373.6, 448.2)">a</text><text xml:space="preserve" font-family="Helvetica-Light,Helvetica" font-size="60.0" fill="#FEFFFF" transform="matrix(1.00, 0.00, -0.00, -1.00, 407.0, 448.2)">t</text><text xml:space="preserve" font-family="Helvetica-Light,Helvetica" font-size="60.0" fill="#FEFFFF" transform="matrix(1.00, 0.00, -0.00, -1.00, 423.7, 448.2)"> </text><text xml:space="preserve" font-family="Helvetica-Light,Helvetica" font-size="60.0" fill="#FEFFFF" transform="matrix(1.00, 0.00, -0.00, -1.00, 440.4, 448.2)">i</text><text xml:space="preserve" font-family="Helvetica-Light,Helvetica" font-size="60.0" fill="#FEFFFF" transform="matrix(1.00, 0.00, -0.00, -1.00, 453.7, 448.2)">s</text><text xml:space="preserve" font-family="Helvetica-Light,Helvetica" font-size="60.0" fill="#FEFFFF" transform="matrix(1.00, 0.00, -0.00, -1.00, 483.7, 448.2)"> </text><text xml:space="preserve" font-family="Helvetica-Bold,Helvetica" font-weight="bold" font-size="60.0" fill="#FEFFFF" transform="matrix(1.00, 0.00, -0.00, -1.00, 500.4, 448.2)">K</text><text xml:space="preserve" font-family="Helvetica-Bold,Helvetica" font-weight="bold" font-size="60.0" fill="#FEFFFF" transform="matrix(1.00, 0.00, -0.00, -1.00, 543.7, 448.2)">a</text><text xml:space="preserve" font-family="Helvetica-Bold,Helvetica" font-weight="bold" font-size="60.0" fill="#FEFFFF" transform="matrix(1.00, 0.00, -0.00, -1.00, 577.1, 448.2)">r</text><text xml:space="preserve" font-family="Helvetica-Bold,Helvetica" font-weight="bold" font-size="60.0" fill="#FEFFFF" transform="matrix(1.00, 0.00, -0.00, -1.00, 600.4, 448.2)">i</text><text xml:space="preserve" font-family="Helvetica-Bold,Helvetica" font-weight="bold" font-size="60.0" fill="#FEFFFF" transform="matrix(1.00, 0.00, -0.00, -1.00, 617.1, 448.2)">o</text><text xml:space="preserve" font-family="Helvetica-Bold,Helvetica" font-weight="bold" font-size="60.0" fill="#FEFFFF" transform="matrix(1.00, 0.00, -0.00, -1.00, 653.8, 448.2)">n</text><text xml:space="preserve" font-family="Helvetica-Light,Helvetica" font-size="60.0" fill="#FEFFFF" transform="matrix(1.00, 0.00, -0.00, -1.00, 690.4, 448.2)"> </text><text xml:space="preserve" font-family="Helvetica-Light,Helvetica" font-size="60.0" fill="#FEFFFF" transform="matrix(1.00, 0.00, -0.00, -1.00, 707.1, 448.2)">?</text><text xml:space="preserve" font-family="MyriadPro-Light,Myriad Pro" font-size="42.0" fill="#FEFFFF" transform="matrix(1.00, 0.00, -0.00, -1.00, 186.8, 360.0)">I</text><text xml:space="preserve" font-family="MyriadPro-Light,Myriad Pro" font-size="42.0" fill="#FEFFFF" transform="matrix(1.00, 0.00, -0.00, -1.00, 196.6, 360.0)">t</text><text xml:space="preserve" font-family="MyriadPro-Light,Myriad Pro" font-size="42.0" fill="#FEFFFF" transform="matrix(1.00, 0.00, -0.00, -1.00, 210.7, 360.0)">’</text><text xml:space="preserve" font-family="MyriadPro-Light,Myriad Pro" font-size="42.0" fill="#FEFFFF" transform="matrix(1.00, 0.00, -0.00, -1.00, 215.6, 360.0)">s</text><text xml:space="preserve" font-family="MyriadPro-Light,Myriad Pro" font-size="42.0" fill="#FEFFFF" transform="matrix(1.00, 0.00, -0.00, -1.00, 231.2, 360.0)"> </text><text xml:space="preserve" font-family="MyriadPro-Light,Myriad Pro" font-size="42.0" fill="#FEFFFF" transform="matrix(1.00, 0.00, -0.00, -1.00, 240.4, 360.0)">a</text><text xml:space="preserve" font-family="MyriadPro-Light,Myriad Pro" font-size="42.0" fill="#FEFFFF" transform="matrix(1.00, 0.00, -0.00, -1.00, 259.5, 360.0)"> </text><text xml:space="preserve" font-family="MyriadPro-Light,Myriad Pro" font-size="42.0" fill="#FEFFFF" transform="matrix(1.00, 0.00, -0.00, -1.00, 268.7, 360.0)">d</text><text xml:space="preserve" font-family="MyriadPro-Light,Myriad Pro" font-size="42.0" fill="#FEFFFF" transform="matrix(1.00, 0.00, -0.00, -1.00, 291.5, 360.0)">a</text><text xml:space="preserve" font-family="MyriadPro-Light,Myriad Pro" font-size="42.0" fill="#FEFFFF" transform="matrix(1.00, 0.00, -0.00, -1.00, 310.6, 360.0)">t</text><text xml:space="preserve" font-family="MyriadPro-Light,Myriad Pro" font-size="42.0" fill="#FEFFFF" transform="matrix(1.00, 0.00, -0.00, -1.00, 323.3, 360.0)">e</text><text xml:space="preserve" font-family="MyriadPro-Light,Myriad Pro" font-size="42.0" fill="#FEFFFF" transform="matrix(1.00, 0.00, -0.00, -1.00, 343.7, 360.0)"> </text><text xml:space="preserve" font-family="MyriadPro-Light,Myriad Pro" font-size="42.0" fill="#FEFFFF" transform="matrix(1.00, 0.00, -0.00, -1.00, 352.9, 360.0)">t</text><text xml:space="preserve" font-family="MyriadPro-Light,Myriad Pro" font-size="42.0" fill="#FEFFFF" transform="matrix(1.00, 0.00, -0.00, -1.00, 365.9, 360.0)">i</text><text xml:space="preserve" font-family="MyriadPro-Light,Myriad Pro" font-size="42.0" fill="#FEFFFF" transform="matrix(1.00, 0.00, -0.00, -1.00, 374.7, 360.0)">m</text><text xml:space="preserve" font-family="MyriadPro-Light,Myriad Pro" font-size="42.0" fill="#FEFFFF" transform="matrix(1.00, 0.00, -0.00, -1.00, 409.1, 360.0)">e</text><text xml:space="preserve" font-family="MyriadPro-Light,Myriad Pro" font-size="42.0" fill="#FEFFFF" transform="matrix(1.00, 0.00, -0.00, -1.00, 429.4, 360.0)"> </text><text xml:space="preserve" font-family="MyriadPro-Light,Myriad Pro" font-size="42.0" fill="#FEFFFF" transform="matrix(1.00, 0.00, -0.00, -1.00, 438.6, 360.0)">s</text><text xml:space="preserve" font-family="MyriadPro-Light,Myriad Pro" font-size="42.0" fill="#FEFFFF" transform="matrix(1.00, 0.00, -0.00, -1.00, 454.3, 360.0)">y</text><text xml:space="preserve" font-family="MyriadPro-Light,Myriad Pro" font-size="42.0" fill="#FEFFFF" transform="matrix(1.00, 0.00, -0.00, -1.00, 472.8, 360.0)">s</text><text xml:space="preserve" font-family="MyriadPro-Light,Myriad Pro" font-size="42.0" fill="#FEFFFF" transform="matrix(1.00, 0.00, -0.00, -1.00, 488.4, 360.0)">t</text><text xml:space="preserve" font-family="MyriadPro-Light,Myriad Pro" font-size="42.0" fill="#FEFFFF" transform="matrix(1.00, 0.00, -0.00, -1.00, 501.2, 360.0)">e</text><text xml:space="preserve" font-family="MyriadPro-Light,Myriad Pro" font-size="42.0" fill="#FEFFFF" transform="matrix(1.00, 0.00, -0.00, -1.00, 521.5, 360.0)">m</text><text xml:space="preserve" font-family="MyriadPro-Light,Myriad Pro" font-size="42.0" fill="#FEFFFF" transform="matrix(1.00, 0.00, -0.00, -1.00, 555.9, 360.0)"> </text><text xml:space="preserve" font-family="MyriadPro-Light,Myriad Pro" font-size="42.0" fill="#FEFFFF" transform="matrix(1.00, 0.00, -0.00, -1.00, 565.1, 360.0)">l</text><text xml:space="preserve" font-family="MyriadPro-Light,Myriad Pro" font-size="42.0" fill="#FEFFFF" transform="matrix(1.00, 0.00, -0.00, -1.00, 574.0, 360.0)">i</text><text xml:space="preserve" font-family="MyriadPro-Light,Myriad Pro" font-size="42.0" fill="#FEFFFF" transform="matrix(1.00, 0.00, -0.00, -1.00, 582.8, 360.0)">k</text><text xml:space="preserve" font-family="MyriadPro-Light,Myriad Pro" font-size="42.0" fill="#FEFFFF" transform="matrix(1.00, 0.00, -0.00, -1.00, 601.0, 360.0)">e</text><text xml:space="preserve" font-family="MyriadPro-Light,Myriad Pro" font-size="42.0" fill="#FEFFFF" transform="matrix(1.00, 0.00, -0.00, -1.00, 621.4, 360.0)"> </text><text xml:space="preserve" font-family="MyriadPro-Light,Myriad Pro" font-size="42.0" fill="#FEFFFF" transform="matrix(1.00, 0.00, -0.00, -1.00, 630.6, 360.0)">t</text><text xml:space="preserve" font-family="MyriadPro-Light,Myriad Pro" font-size="42.0" fill="#FEFFFF" transform="matrix(1.00, 0.00, -0.00, -1.00, 643.6, 360.0)">h</text><text xml:space="preserve" font-family="MyriadPro-Light,Myriad Pro" font-size="42.0" fill="#FEFFFF" transform="matrix(1.00, 0.00, -0.00, -1.00, 666.1, 360.0)">e</text><text xml:space="preserve" font-family="MyriadPro-Light,Myriad Pro" font-size="42.0" fill="#FEFFFF" transform="matrix(1.00, 0.00, -0.00, -1.00, 686.5, 360.0)"> </text><text xml:space="preserve" font-family="MyriadPro-Light,Myriad Pro" font-size="42.0" fill="#FEFFFF" transform="matrix(1.00, 0.00, -0.00, -1.00, 695.7, 360.0)">G</text><text xml:space="preserve" font-family="MyriadPro-Light,Myriad Pro" font-size="42.0" fill="#FEFFFF" transform="matrix(1.00, 0.00, -0.00, -1.00, 721.9, 360.0)">r</text><text xml:space="preserve" font-family="MyriadPro-Light,Myriad Pro" font-size="42.0" fill="#FEFFFF" transform="matrix(1.00, 0.00, -0.00, -1.00, 733.8, 360.0)">e</text><text xml:space="preserve" font-family="MyriadPro-Light,Myriad Pro" font-size="42.0" fill="#FEFFFF" transform="matrix(1.00, 0.00, -0.00, -1.00, 754.2, 360.0)">g</text><text xml:space="preserve" font-family="MyriadPro-Light,Myriad Pro" font-size="42.0" fill="#FEFFFF" transform="matrix(1.00, 0.00, -0.00, -1.00, 777.0, 360.0)">o</text><text xml:space="preserve" font-family="MyriadPro-Light,Myriad Pro" font-size="42.0" fill="#FEFFFF" transform="matrix(1.00, 0.00, -0.00, -1.00, 799.4, 360.0)">r</text><text xml:space="preserve" font-family="MyriadPro-Light,Myriad Pro" font-size="42.0" fill="#FEFFFF" transform="matrix(1.00, 0.00, -0.00, -1.00, 812.1, 360.0)">i</text><text xml:space="preserve" font-family="MyriadPro-Light,Myriad Pro" font-size="42.0" fill="#FEFFFF" transform="matrix(1.00, 0.00, -0.00, -1.00, 820.8, 360.0)">a</text><text xml:space="preserve" font-family="MyriadPro-Light,Myriad Pro" font-size="42.0" fill="#FEFFFF" transform="matrix(1.00, 0.00, -0.00, -1.00, 839.9, 360.0)">n</text><text xml:space="preserve" font-family="MyriadPro-Light,Myriad Pro" font-size="42.0" fill="#FEFFFF" transform="matrix(1.00, 0.00, -0.00, -1.00, 862.4, 360.0)"> </text><text xml:space="preserve" font-family="MyriadPro-Light,Myriad Pro" font-size="42.0" fill="#FEFFFF" transform="matrix(1.00, 0.00, -0.00, -1.00, 208.0, 309.0)">c</text><text xml:space="preserve" font-family="MyriadPro-Light,Myriad Pro" font-size="42.0" fill="#FEFFFF" transform="matrix(1.00, 0.00, -0.00, -1.00, 226.7, 309.0)">a</text><text xml:space="preserve" font-family="MyriadPro-Light,Myriad Pro" font-size="42.0" fill="#FEFFFF" transform="matrix(1.00, 0.00, -0.00, -1.00, 245.8, 309.0)">l</text><text xml:space="preserve" font-family="MyriadPro-Light,Myriad Pro" font-size="42.0" fill="#FEFFFF" transform="matrix(1.00, 0.00, -0.00, -1.00, 254.7, 309.0)">e</text><text xml:space="preserve" font-family="MyriadPro-Light,Myriad Pro" font-size="42.0" fill="#FEFFFF" transform="matrix(1.00, 0.00, -0.00, -1.00, 275.0, 309.0)">n</text><text xml:space="preserve" font-family="MyriadPro-Light,Myriad Pro" font-size="42.0" fill="#FEFFFF" transform="matrix(1.00, 0.00, -0.00, -1.00, 297.6, 309.0)">d</text><text xml:space="preserve" font-family="MyriadPro-Light,Myriad Pro" font-size="42.0" fill="#FEFFFF" transform="matrix(1.00, 0.00, -0.00, -1.00, 320.4, 309.0)">a</text><text xml:space="preserve" font-family="MyriadPro-Light,Myriad Pro" font-size="42.0" fill="#FEFFFF" transform="matrix(1.00, 0.00, -0.00, -1.00, 339.5, 309.0)">r</text><text xml:space="preserve" font-family="MyriadPro-Light,Myriad Pro" font-size="42.0" fill="#FEFFFF" transform="matrix(1.00, 0.00, -0.00, -1.00, 351.9, 309.0)"> </text><text xml:space="preserve" font-family="MyriadPro-Light,Myriad Pro" font-size="42.0" fill="#FEFFFF" transform="matrix(1.00, 0.00, -0.00, -1.00, 361.1, 309.0)">(</text><text xml:space="preserve" font-family="MyriadPro-Light,Myriad Pro" font-size="42.0" fill="#FEFFFF" transform="matrix(1.00, 0.00, -0.00, -1.00, 372.2, 309.0)"> </text><text xml:space="preserve" font-family="MyriadPro-Light,Myriad Pro" font-size="42.0" fill="#FEFFFF" transform="matrix(1.00, 0.00, -0.00, -1.00, 381.4, 309.0)">C</text><text xml:space="preserve" font-family="MyriadPro-Light,Myriad Pro" font-size="42.0" fill="#FEFFFF" transform="matrix(1.00, 0.00, -0.00, -1.00, 405.3, 309.0)">h</text><text xml:space="preserve" font-family="MyriadPro-Light,Myriad Pro" font-size="42.0" fill="#FEFFFF" transform="matrix(1.00, 0.00, -0.00, -1.00, 427.8, 309.0)">r</text><text xml:space="preserve" font-family="MyriadPro-Light,Myriad Pro" font-size="42.0" fill="#FEFFFF" transform="matrix(1.00, 0.00, -0.00, -1.00, 440.5, 309.0)">i</text><text xml:space="preserve" font-family="MyriadPro-Light,Myriad Pro" font-size="42.0" fill="#FEFFFF" transform="matrix(1.00, 0.00, -0.00, -1.00, 449.3, 309.0)">s</text><text xml:space="preserve" font-family="MyriadPro-Light,Myriad Pro" font-size="42.0" fill="#FEFFFF" transform="matrix(1.00, 0.00, -0.00, -1.00, 465.0, 309.0)">t</text><text xml:space="preserve" font-family="MyriadPro-Light,Myriad Pro" font-size="42.0" fill="#FEFFFF" transform="matrix(1.00, 0.00, -0.00, -1.00, 477.9, 309.0)">i</text><text xml:space="preserve" font-family="MyriadPro-Light,Myriad Pro" font-size="42.0" fill="#FEFFFF" transform="matrix(1.00, 0.00, -0.00, -1.00, 486.7, 309.0)">a</text><text xml:space="preserve" font-family="MyriadPro-Light,Myriad Pro" font-size="42.0" fill="#FEFFFF" transform="matrix(1.00, 0.00, -0.00, -1.00, 505.8, 309.0)">n</text><text xml:space="preserve" font-family="MyriadPro-Light,Myriad Pro" font-size="42.0" fill="#FEFFFF" transform="matrix(1.00, 0.00, -0.00, -1.00, 528.3, 309.0)"> </text><text xml:space="preserve" font-family="MyriadPro-Light,Myriad Pro" font-size="42.0" fill="#FEFFFF" transform="matrix(1.00, 0.00, -0.00, -1.00, 537.5, 309.0)">c</text><text xml:space="preserve" font-family="MyriadPro-Light,Myriad Pro" font-size="42.0" fill="#FEFFFF" transform="matrix(1.00, 0.00, -0.00, -1.00, 556.2, 309.0)">a</text><text xml:space="preserve" font-family="MyriadPro-Light,Myriad Pro" font-size="42.0" fill="#FEFFFF" transform="matrix(1.00, 0.00, -0.00, -1.00, 575.3, 309.0)">l</text><text xml:space="preserve" font-family="MyriadPro-Light,Myriad Pro" font-size="42.0" fill="#FEFFFF" transform="matrix(1.00, 0.00, -0.00, -1.00, 584.2, 309.0)">e</text><text xml:space="preserve" font-family="MyriadPro-Light,Myriad Pro" font-size="42.0" fill="#FEFFFF" transform="matrix(1.00, 0.00, -0.00, -1.00, 604.6, 309.0)">n</text><text xml:space="preserve" font-family="MyriadPro-Light,Myriad Pro" font-size="42.0" fill="#FEFFFF" transform="matrix(1.00, 0.00, -0.00, -1.00, 627.1, 309.0)">d</text><text xml:space="preserve" font-family="MyriadPro-Light,Myriad Pro" font-size="42.0" fill="#FEFFFF" transform="matrix(1.00, 0.00, -0.00, -1.00, 649.9, 309.0)">a</text><text xml:space="preserve" font-family="MyriadPro-Light,Myriad Pro" font-size="42.0" fill="#FEFFFF" transform="matrix(1.00, 0.00, -0.00, -1.00, 669.0, 309.0)">r</text><text xml:space="preserve" font-family="MyriadPro-Light,Myriad Pro" font-size="42.0" fill="#FEFFFF" transform="matrix(1.00, 0.00, -0.00, -1.00, 681.4, 309.0)"> </text><text xml:space="preserve" font-family="MyriadPro-Light,Myriad Pro" font-size="42.0" fill="#FEFFFF" transform="matrix(1.00, 0.00, -0.00, -1.00, 690.6, 309.0)">)</text><text xml:space="preserve" font-family="MyriadPro-Light,Myriad Pro" font-size="42.0" fill="#FEFFFF" transform="matrix(1.00, 0.00, -0.00, -1.00, 701.7, 309.0)"> </text><text xml:space="preserve" font-family="MyriadPro-Light,Myriad Pro" font-size="42.0" fill="#FEFFFF" transform="matrix(1.00, 0.00, -0.00, -1.00, 710.9, 309.0)">y</text><text xml:space="preserve" font-family="MyriadPro-Light,Myriad Pro" font-size="42.0" fill="#FEFFFF" transform="matrix(1.00, 0.00, -0.00, -1.00, 729.1, 309.0)">o</text><text xml:space="preserve" font-family="MyriadPro-Light,Myriad Pro" font-size="42.0" fill="#FEFFFF" transform="matrix(1.00, 0.00, -0.00, -1.00, 751.4, 309.0)">u</text><text xml:space="preserve" font-family="MyriadPro-Light,Myriad Pro" font-size="42.0" fill="#FEFFFF" transform="matrix(1.00, 0.00, -0.00, -1.00, 773.8, 309.0)"> </text><text xml:space="preserve" font-family="MyriadPro-Light,Myriad Pro" font-size="42.0" fill="#FEFFFF" transform="matrix(1.00, 0.00, -0.00, -1.00, 782.9, 309.0)">u</text><text xml:space="preserve" font-family="MyriadPro-Light,Myriad Pro" font-size="42.0" fill="#FEFFFF" transform="matrix(1.00, 0.00, -0.00, -1.00, 805.3, 309.0)">s</text><text xml:space="preserve" font-family="MyriadPro-Light,Myriad Pro" font-size="42.0" fill="#FEFFFF" transform="matrix(1.00, 0.00, -0.00, -1.00, 820.9, 309.0)">e</text><text xml:space="preserve" font-family="MyriadPro-Light,Myriad Pro" font-size="42.0" fill="#FEFFFF" transform="matrix(1.00, 0.00, -0.00, -1.00, 841.3, 309.0)"> </text><text xml:space="preserve" font-family="MyriadPro-Light,Myriad Pro" font-size="42.0" fill="#FEFFFF" transform="matrix(1.00, 0.00, -0.00, -1.00, 175.1, 258.0)">e</text><text xml:space="preserve" font-family="MyriadPro-Light,Myriad Pro" font-size="42.0" fill="#FEFFFF" transform="matrix(1.00, 0.00, -0.00, -1.00, 195.6, 258.0)">v</text><text xml:space="preserve" font-family="MyriadPro-Light,Myriad Pro" font-size="42.0" fill="#FEFFFF" transform="matrix(1.00, 0.00, -0.00, -1.00, 214.3, 258.0)">e</text><text xml:space="preserve" font-family="MyriadPro-Light,Myriad Pro" font-size="42.0" fill="#FEFFFF" transform="matrix(1.00, 0.00, -0.00, -1.00, 234.7, 258.0)">r</text><text xml:space="preserve" font-family="MyriadPro-Light,Myriad Pro" font-size="42.0" fill="#FEFFFF" transform="matrix(1.00, 0.00, -0.00, -1.00, 248.3, 258.0)">y</text><text xml:space="preserve" font-family="MyriadPro-Light,Myriad Pro" font-size="42.0" fill="#FEFFFF" transform="matrix(1.00, 0.00, -0.00, -1.00, 266.5, 258.0)">d</text><text xml:space="preserve" font-family="MyriadPro-Light,Myriad Pro" font-size="42.0" fill="#FEFFFF" transform="matrix(1.00, 0.00, -0.00, -1.00, 289.3, 258.0)">a</text><text xml:space="preserve" font-family="MyriadPro-Light,Myriad Pro" font-size="42.0" fill="#FEFFFF" transform="matrix(1.00, 0.00, -0.00, -1.00, 308.2, 258.0)">y</text><text xml:space="preserve" font-family="MyriadPro-Light,Myriad Pro" font-size="42.0" fill="#FEFFFF" transform="matrix(1.00, 0.00, -0.00, -1.00, 325.2, 258.0)">.</text><text xml:space="preserve" font-family="MyriadPro-Light,Myriad Pro" font-size="42.0" fill="#FEFFFF" transform="matrix(1.00, 0.00, -0.00, -1.00, 332.5, 258.0)"> </text><text xml:space="preserve" font-family="MyriadPro-Light,Myriad Pro" font-size="42.0" fill="#FEFFFF" transform="matrix(1.00, 0.00, -0.00, -1.00, 341.7, 258.0)">B</text><text xml:space="preserve" font-family="MyriadPro-Light,Myriad Pro" font-size="42.0" fill="#FEFFFF" transform="matrix(1.00, 0.00, -0.00, -1.00, 362.9, 258.0)">u</text><text xml:space="preserve" font-family="MyriadPro-Light,Myriad Pro" font-size="42.0" fill="#FEFFFF" transform="matrix(1.00, 0.00, -0.00, -1.00, 385.2, 258.0)">t</text><text xml:space="preserve" font-family="MyriadPro-Light,Myriad Pro" font-size="42.0" fill="#FEFFFF" transform="matrix(1.00, 0.00, -0.00, -1.00, 398.2, 258.0)"> </text><text xml:space="preserve" font-family="MyriadPro-Light,Myriad Pro" font-size="42.0" fill="#FEFFFF" transform="matrix(1.00, 0.00, -0.00, -1.00, 407.4, 258.0)">f</text><text xml:space="preserve" font-family="MyriadPro-Light,Myriad Pro" font-size="42.0" fill="#FEFFFF" transform="matrix(1.00, 0.00, -0.00, -1.00, 418.4, 258.0)">r</text><text xml:space="preserve" font-family="MyriadPro-Light,Myriad Pro" font-size="42.0" fill="#FEFFFF" transform="matrix(1.00, 0.00, -0.00, -1.00, 430.3, 258.0)">o</text><text xml:space="preserve" font-family="MyriadPro-Light,Myriad Pro" font-size="42.0" fill="#FEFFFF" transform="matrix(1.00, 0.00, -0.00, -1.00, 452.7, 258.0)">m</text><text xml:space="preserve" font-family="MyriadPro-Light,Myriad Pro" font-size="42.0" fill="#FEFFFF" transform="matrix(1.00, 0.00, -0.00, -1.00, 487.1, 258.0)"> </text><text xml:space="preserve" font-family="MyriadPro-Light,Myriad Pro" font-size="42.0" fill="#FEFFFF" transform="matrix(1.00, 0.00, -0.00, -1.00, 496.3, 258.0)">m</text><text xml:space="preserve" font-family="MyriadPro-Light,Myriad Pro" font-size="42.0" fill="#FEFFFF" transform="matrix(1.00, 0.00, -0.00, -1.00, 530.7, 258.0)">a</text><text xml:space="preserve" font-family="MyriadPro-Light,Myriad Pro" font-size="42.0" fill="#FEFFFF" transform="matrix(1.00, 0.00, -0.00, -1.00, 549.7, 258.0)">n</text><text xml:space="preserve" font-family="MyriadPro-Light,Myriad Pro" font-size="42.0" fill="#FEFFFF" transform="matrix(1.00, 0.00, -0.00, -1.00, 571.8, 258.0)">y</text><text xml:space="preserve" font-family="MyriadPro-Light,Myriad Pro" font-size="42.0" fill="#FEFFFF" transform="matrix(1.00, 0.00, -0.00, -1.00, 590.3, 258.0)"> </text><text xml:space="preserve" font-family="MyriadPro-Light,Myriad Pro" font-size="42.0" fill="#FEFFFF" transform="matrix(1.00, 0.00, -0.00, -1.00, 599.5, 258.0)">p</text><text xml:space="preserve" font-family="MyriadPro-Light,Myriad Pro" font-size="42.0" fill="#FEFFFF" transform="matrix(1.00, 0.00, -0.00, -1.00, 622.7, 258.0)">o</text><text xml:space="preserve" font-family="MyriadPro-Light,Myriad Pro" font-size="42.0" fill="#FEFFFF" transform="matrix(1.00, 0.00, -0.00, -1.00, 645.0, 258.0)">i</text><text xml:space="preserve" font-family="MyriadPro-Light,Myriad Pro" font-size="42.0" fill="#FEFFFF" transform="matrix(1.00, 0.00, -0.00, -1.00, 653.8, 258.0)">n</text><text xml:space="preserve" font-family="MyriadPro-Light,Myriad Pro" font-size="42.0" fill="#FEFFFF" transform="matrix(1.00, 0.00, -0.00, -1.00, 676.3, 258.0)">t</text><text xml:space="preserve" font-family="MyriadPro-Light,Myriad Pro" font-size="42.0" fill="#FEFFFF" transform="matrix(1.00, 0.00, -0.00, -1.00, 689.3, 258.0)">s</text><text xml:space="preserve" font-family="MyriadPro-Light,Myriad Pro" font-size="42.0" fill="#FEFFFF" transform="matrix(1.00, 0.00, -0.00, -1.00, 705.0, 258.0)"> </text><text xml:space="preserve" font-family="MyriadPro-Light,Myriad Pro" font-size="42.0" fill="#FEFFFF" transform="matrix(1.00, 0.00, -0.00, -1.00, 714.2, 258.0)">i</text><text xml:space="preserve" font-family="MyriadPro-Light,Myriad Pro" font-size="42.0" fill="#FEFFFF" transform="matrix(1.00, 0.00, -0.00, -1.00, 723.0, 258.0)">t</text><text xml:space="preserve" font-family="MyriadPro-Light,Myriad Pro" font-size="42.0" fill="#FEFFFF" transform="matrix(1.00, 0.00, -0.00, -1.00, 737.0, 258.0)">’</text><text xml:space="preserve" font-family="MyriadPro-Light,Myriad Pro" font-size="42.0" fill="#FEFFFF" transform="matrix(1.00, 0.00, -0.00, -1.00, 741.9, 258.0)">s</text><text xml:space="preserve" font-family="MyriadPro-Light,Myriad Pro" font-size="42.0" fill="#FEFFFF" transform="matrix(1.00, 0.00, -0.00, -1.00, 757.6, 258.0)"> </text><text xml:space="preserve" font-family="MyriadPro-Light,Myriad Pro" font-size="42.0" fill="#FEFFFF" transform="matrix(1.00, 0.00, -0.00, -1.00, 766.8, 258.0)">b</text><text xml:space="preserve" font-family="MyriadPro-Light,Myriad Pro" font-size="42.0" fill="#FEFFFF" transform="matrix(1.00, 0.00, -0.00, -1.00, 789.9, 258.0)">e</text><text xml:space="preserve" font-family="MyriadPro-Light,Myriad Pro" font-size="42.0" fill="#FEFFFF" transform="matrix(1.00, 0.00, -0.00, -1.00, 810.3, 258.0)">t</text><text xml:space="preserve" font-family="MyriadPro-Light,Myriad Pro" font-size="42.0" fill="#FEFFFF" transform="matrix(1.00, 0.00, -0.00, -1.00, 823.3, 258.0)">t</text><text xml:space="preserve" font-family="MyriadPro-Light,Myriad Pro" font-size="42.0" fill="#FEFFFF" transform="matrix(1.00, 0.00, -0.00, -1.00, 836.0, 258.0)">e</text><text xml:space="preserve" font-family="MyriadPro-Light,Myriad Pro" font-size="42.0" fill="#FEFFFF" transform="matrix(1.00, 0.00, -0.00, -1.00, 856.4, 258.0)">r</text><text xml:space="preserve" font-family="MyriadPro-Light,Myriad Pro" font-size="42.0" fill="#FEFFFF" transform="matrix(1.00, 0.00, -0.00, -1.00, 866.9, 258.0)">.</text></g></svg>