<?xml version="1.0" encoding="UTF-8" standalone="no"?><svg xmlns="http://www.w3.org/2000/svg" xmlns:xlink="http://www.w3.org/1999/xlink" clip-rule="evenodd" stroke-miterlimit="10" viewBox="0 0 1024 768"><desc>SVG generated by Keynote</desc><defs></defs><g transform="matrix(1.00, 0.00, -0.00, -1.00, 0.0, 768.0)"><path d="M 0.0 768.0 L 1024.0 768.0 L 1024.0 0.0 L 0.0 0.0 Z M 0.0 768.0 " fill="#000000"></path><text xml:space="preserve" font-family="MyriadPro-Light,Myriad Pro" font-size="42.0" fill="#FEFFFF" transform="matrix(1.00, 0.00, -0.00, -1.00, 208.6, 398.7)">K</text><text xml:space="preserve" font-family="MyriadPro-Light,Myriad Pro" font-size="42.0" fill="#FEFFFF" transform="matrix(1.00, 0.00, -0.00, -1.00, 230.6, 398.7)">a</text><text xml:space="preserve" font-family="MyriadPro-Light,Myriad Pro" font-size="42.0" fill="#FEFFFF" transform="matrix(1.00, 0.00, -0.00, -1.00, 249.6, 398.7)">r</text><text xml:space="preserve" font-family="MyriadPro-Light,Myriad Pro" font-size="42.0" fill="#FEFFFF" transform="matrix(1.00, 0.00, -0.00, -1.00, 262.3, 398.7)">i</text><text xml:space="preserve" font-family="MyriadPro-Light,Myriad Pro" font-size="42.0" fill="#FEFFFF" transform="matrix(1.00, 0.00, -0.00, -1.00, 271.1, 398.7)">o</text><text xml:space="preserve" font-family="MyriadPro-Light,Myriad Pro" font-size="42.0" fill="#FEFFFF" transform="matrix(1.00, 0.00, -0.00, -1.00, 293.4, 398.7)">n</text><text xml:space="preserve" font-family="MyriadPro-Light,Myriad Pro" font-size="42.0" fill="#FEFFFF" transform="matrix(1.00, 0.00, -0.00, -1.00, 315.9, 398.7)"> </text><text xml:space="preserve" font-family="MyriadPro-Light,Myriad Pro" font-size="42.0" fill="#FEFFFF" transform="matrix(1.00, 0.00, -0.00, -1.00, 325.1, 398.7)">i</text><text xml:space="preserve" font-family="MyriadPro-Light,Myriad Pro" font-size="42.0" fill="#FEFFFF" transform="matrix(1.00, 0.00, -0.00, -1.00, 333.9, 398.7)">s</text><text xml:space="preserve" font-family="MyriadPro-Light,Myriad Pro" font-size="42.0" fill="#FEFFFF" transform="matrix(1.00, 0.00, -0.00, -1.00, 349.6, 398.7)"> </text><text xml:space="preserve" font-family="MyriadPro-Light,Myriad Pro" font-size="42.0" fill="#FEFFFF" transform="matrix(1.00, 0.00, -0.00, -1.00, 358.8, 398.7)">n</text><text xml:space="preserve" font-family="MyriadPro-Light,Myriad Pro" font-size="42.0" fill="#FEFFFF" transform="matrix(1.00, 0.00, -0.00, -1.00, 381.3, 398.7)">o</text><text xml:space="preserve" font-family="MyriadPro-Light,Myriad Pro" font-size="42.0" fill="#FEFFFF" transform="matrix(1.00, 0.00, -0.00, -1.00, 403.6, 398.7)">t</text><text xml:space="preserve" font-family="MyriadPro-Light,Myriad Pro" font-size="42.0" fill="#FEFFFF" transform="matrix(1.00, 0.00, -0.00, -1.00, 416.6, 398.7)"> </text><text xml:space="preserve" font-family="MyriadPro-Light,Myriad Pro" font-size="42.0" fill="#FEFFFF" transform="matrix(1.00, 0.00, -0.00, -1.00, 425.8, 398.7)">a</text><text xml:space="preserve" font-family="MyriadPro-Light,Myriad Pro" font-size="42.0" fill="#FEFFFF" transform="matrix(1.00, 0.00, -0.00, -1.00, 444.9, 398.7)"> </text><text xml:space="preserve" font-family="MyriadPro-Light,Myriad Pro" font-size="42.0" fill="#FEFFFF" transform="matrix(1.00, 0.00, -0.00, -1.00, 454.1, 398.7)">r</text><text xml:space="preserve" font-family="MyriadPro-Light,Myriad Pro" font-size="42.0" fill="#FEFFFF" transform="matrix(1.00, 0.00, -0.00, -1.00, 466.0, 398.7)">e</text><text xml:space="preserve" font-family="MyriadPro-Light,Myriad Pro" font-size="42.0" fill="#FEFFFF" transform="matrix(1.00, 0.00, -0.00, -1.00, 486.4, 398.7)">p</text><text xml:space="preserve" font-family="MyriadPro-Light,Myriad Pro" font-size="42.0" fill="#FEFFFF" transform="matrix(1.00, 0.00, -0.00, -1.00, 509.6, 398.7)">l</text><text xml:space="preserve" font-family="MyriadPro-Light,Myriad Pro" font-size="42.0" fill="#FEFFFF" transform="matrix(1.00, 0.00, -0.00, -1.00, 518.5, 398.7)">a</text><text xml:space="preserve" font-family="MyriadPro-Light,Myriad Pro" font-size="42.0" fill="#FEFFFF" transform="matrix(1.00, 0.00, -0.00, -1.00, 537.5, 398.7)">c</text><text xml:space="preserve" font-family="MyriadPro-Light,Myriad Pro" font-size="42.0" fill="#FEFFFF" transform="matrix(1.00, 0.00, -0.00, -1.00, 556.3, 398.7)">e</text><text xml:space="preserve" font-family="MyriadPro-Light,Myriad Pro" font-size="42.0" fill="#FEFFFF" transform="matrix(1.00, 0.00, -0.00, -1.00, 576.6, 398.7)">m</text><text xml:space="preserve" font-family="MyriadPro-Light,Myriad Pro" font-size="42.0" fill="#FEFFFF" transform="matrix(1.00, 0.00, -0.00, -1.00, 611.0, 398.7)">e</text><text xml:space="preserve" font-family="MyriadPro-Light,Myriad Pro" font-size="42.0" fill="#FEFFFF" transform="matrix(1.00, 0.00, -0.00, -1.00, 631.4, 398.7)">n</text><text xml:space="preserve" font-family="MyriadPro-Light,Myriad Pro" font-size="42.0" fill="#FEFFFF" transform="matrix(1.00, 0.00, -0.00, -1.00, 653.9, 398.7)">t</text><text xml:space="preserve" font-family="MyriadPro-Light,Myriad Pro" font-size="42.0" fill="#FEFFFF" transform="matrix(1.00, 0.00, -0.00, -1.00, 666.9, 398.7)"> </text><text xml:space="preserve" font-family="MyriadPro-Light,Myriad Pro" font-size="42.0" fill="#FEFFFF" transform="matrix(1.00, 0.00, -0.00, -1.00, 676.1, 398.7)">b</text><text xml:space="preserve" font-family="MyriadPro-Light,Myriad Pro" font-size="42.0" fill="#FEFFFF" transform="matrix(1.00, 0.00, -0.00, -1.00, 699.3, 398.7)">u</text><text xml:space="preserve" font-family="MyriadPro-Light,Myriad Pro" font-size="42.0" fill="#FEFFFF" transform="matrix(1.00, 0.00, -0.00, -1.00, 721.6, 398.7)">t</text><text xml:space="preserve" font-family="MyriadPro-Light,Myriad Pro" font-size="42.0" fill="#FEFFFF" transform="matrix(1.00, 0.00, -0.00, -1.00, 734.6, 398.7)"> </text><text xml:space="preserve" font-family="MyriadPro-Light,Myriad Pro" font-size="42.0" fill="#FEFFFF" transform="matrix(1.00, 0.00, -0.00, -1.00, 743.8, 398.7)">i</text><text xml:space="preserve" font-family="MyriadPro-Light,Myriad Pro" font-size="42.0" fill="#FEFFFF" transform="matrix(1.00, 0.00, -0.00, -1.00, 752.5, 398.7)">t</text><text xml:space="preserve" font-family="MyriadPro-Light,Myriad Pro" font-size="42.0" fill="#FEFFFF" transform="matrix(1.00, 0.00, -0.00, -1.00, 766.6, 398.7)">’</text><text xml:space="preserve" font-family="MyriadPro-Light,Myriad Pro" font-size="42.0" fill="#FEFFFF" transform="matrix(1.00, 0.00, -0.00, -1.00, 771.5, 398.7)">s</text><text xml:space="preserve" font-family="MyriadPro-Light,Myriad Pro" font-size="42.0" fill="#FEFFFF" transform="matrix(1.00, 0.00, -0.00, -1.00, 787.1, 398.7)"> </text><text xml:space="preserve" font-family="MyriadPro-Light,Myriad Pro" font-size="42.0" fill="#FEFFFF" transform="matrix(1.00, 0.00, -0.00, -1.00, 796.3, 398.7)">a</text><text xml:space="preserve" font-family="MyriadPro-Light,Myriad Pro" font-size="42.0" fill="#FEFFFF" transform="matrix(1.00, 0.00, -0.00, -1.00, 815.4, 398.7)"> </text><text xml:space="preserve" font-family="MyriadPro-Light,Myriad Pro" font-size="42.0" fill="#FEFFFF" transform="matrix(1.00, 0.00, -0.00, -1.00, 156.3, 347.7)">p</text><text xml:space="preserve" font-family="MyriadPro-Light,Myriad Pro" font-size="42.0" fill="#FEFFFF" transform="matrix(1.00, 0.00, -0.00, -1.00, 179.5, 347.7)">l</text><text xml:space="preserve" font-family="MyriadPro-Light,Myriad Pro" font-size="42.0" fill="#FEFFFF" transform="matrix(1.00, 0.00, -0.00, -1.00, 188.4, 347.7)">u</text><text xml:space="preserve" font-family="MyriadPro-Light,Myriad Pro" font-size="42.0" fill="#FEFFFF" transform="matrix(1.00, 0.00, -0.00, -1.00, 210.7, 347.7)">g</text><text xml:space="preserve" font-family="MyriadPro-Light,Myriad Pro" font-size="42.0" fill="#FEFFFF" transform="matrix(1.00, 0.00, -0.00, -1.00, 233.5, 347.7)">-</text><text xml:space="preserve" font-family="MyriadPro-Light,Myriad Pro" font-size="42.0" fill="#FEFFFF" transform="matrix(1.00, 0.00, -0.00, -1.00, 246.0, 347.7)">i</text><text xml:space="preserve" font-family="MyriadPro-Light,Myriad Pro" font-size="42.0" fill="#FEFFFF" transform="matrix(1.00, 0.00, -0.00, -1.00, 254.8, 347.7)">n</text><text xml:space="preserve" font-family="MyriadPro-Light,Myriad Pro" font-size="42.0" fill="#FEFFFF" transform="matrix(1.00, 0.00, -0.00, -1.00, 277.3, 347.7)"> </text><text xml:space="preserve" font-family="MyriadPro-Light,Myriad Pro" font-size="42.0" fill="#FEFFFF" transform="matrix(1.00, 0.00, -0.00, -1.00, 286.5, 347.7)">l</text><text xml:space="preserve" font-family="MyriadPro-Light,Myriad Pro" font-size="42.0" fill="#FEFFFF" transform="matrix(1.00, 0.00, -0.00, -1.00, 295.4, 347.7)">i</text><text xml:space="preserve" font-family="MyriadPro-Light,Myriad Pro" font-size="42.0" fill="#FEFFFF" transform="matrix(1.00, 0.00, -0.00, -1.00, 304.2, 347.7)">k</text><text xml:space="preserve" font-family="MyriadPro-Light,Myriad Pro" font-size="42.0" fill="#FEFFFF" transform="matrix(1.00, 0.00, -0.00, -1.00, 322.4, 347.7)">e</text><text xml:space="preserve" font-family="MyriadPro-Light,Myriad Pro" font-size="42.0" fill="#FEFFFF" transform="matrix(1.00, 0.00, -0.00, -1.00, 342.8, 347.7)"> </text><text xml:space="preserve" font-family="MyriadPro-Light,Myriad Pro" font-size="42.0" fill="#FEFFFF" transform="matrix(1.00, 0.00, -0.00, -1.00, 352.0, 347.7)">t</text><text xml:space="preserve" font-family="MyriadPro-Light,Myriad Pro" font-size="42.0" fill="#FEFFFF" transform="matrix(1.00, 0.00, -0.00, -1.00, 364.7, 347.7)">o</text><text xml:space="preserve" font-family="MyriadPro-Light,Myriad Pro" font-size="42.0" fill="#FEFFFF" transform="matrix(1.00, 0.00, -0.00, -1.00, 387.1, 347.7)">o</text><text xml:space="preserve" font-family="MyriadPro-Light,Myriad Pro" font-size="42.0" fill="#FEFFFF" transform="matrix(1.00, 0.00, -0.00, -1.00, 409.4, 347.7)">l</text><text xml:space="preserve" font-family="MyriadPro-Light,Myriad Pro" font-size="42.0" fill="#FEFFFF" transform="matrix(1.00, 0.00, -0.00, -1.00, 418.3, 347.7)"> </text><text xml:space="preserve" font-family="MyriadPro-Light,Myriad Pro" font-size="42.0" fill="#FEFFFF" transform="matrix(1.00, 0.00, -0.00, -1.00, 427.5, 347.7)">f</text><text xml:space="preserve" font-family="MyriadPro-Light,Myriad Pro" font-size="42.0" fill="#FEFFFF" transform="matrix(1.00, 0.00, -0.00, -1.00, 437.9, 347.7)">o</text><text xml:space="preserve" font-family="MyriadPro-Light,Myriad Pro" font-size="42.0" fill="#FEFFFF" transform="matrix(1.00, 0.00, -0.00, -1.00, 460.2, 347.7)">r</text><text xml:space="preserve" font-family="MyriadPro-Light,Myriad Pro" font-size="42.0" fill="#FEFFFF" transform="matrix(1.00, 0.00, -0.00, -1.00, 472.6, 347.7)"> </text><text xml:space="preserve" font-family="MyriadPro-Light,Myriad Pro" font-size="42.0" fill="#FEFFFF" transform="matrix(1.00, 0.00, -0.00, -1.00, 481.8, 347.7)">k</text><text xml:space="preserve" font-family="MyriadPro-Light,Myriad Pro" font-size="42.0" fill="#FEFFFF" transform="matrix(1.00, 0.00, -0.00, -1.00, 500.1, 347.7)">e</text><text xml:space="preserve" font-family="MyriadPro-Light,Myriad Pro" font-size="42.0" fill="#FEFFFF" transform="matrix(1.00, 0.00, -0.00, -1.00, 520.4, 347.7)">e</text><text xml:space="preserve" font-family="MyriadPro-Light,Myriad Pro" font-size="42.0" fill="#FEFFFF" transform="matrix(1.00, 0.00, -0.00, -1.00, 540.8, 347.7)">p</text><text xml:space="preserve" font-family="MyriadPro-Light,Myriad Pro" font-size="42.0" fill="#FEFFFF" transform="matrix(1.00, 0.00, -0.00, -1.00, 564.0, 347.7)">i</text><text xml:space="preserve" font-family="MyriadPro-Light,Myriad Pro" font-size="42.0" fill="#FEFFFF" transform="matrix(1.00, 0.00, -0.00, -1.00, 572.8, 347.7)">n</text><text xml:space="preserve" font-family="MyriadPro-Light,Myriad Pro" font-size="42.0" fill="#FEFFFF" transform="matrix(1.00, 0.00, -0.00, -1.00, 595.3, 347.7)">g</text><text xml:space="preserve" font-family="MyriadPro-Light,Myriad Pro" font-size="42.0" fill="#FEFFFF" transform="matrix(1.00, 0.00, -0.00, -1.00, 618.1, 347.7)"> </text><text xml:space="preserve" font-family="MyriadPro-Light,Myriad Pro" font-size="42.0" fill="#FEFFFF" transform="matrix(1.00, 0.00, -0.00, -1.00, 627.3, 347.7)">t</text><text xml:space="preserve" font-family="MyriadPro-Light,Myriad Pro" font-size="42.0" fill="#FEFFFF" transform="matrix(1.00, 0.00, -0.00, -1.00, 640.3, 347.7)">h</text><text xml:space="preserve" font-family="MyriadPro-Light,Myriad Pro" font-size="42.0" fill="#FEFFFF" transform="matrix(1.00, 0.00, -0.00, -1.00, 662.8, 347.7)">e</text><text xml:space="preserve" font-family="MyriadPro-Light,Myriad Pro" font-size="42.0" fill="#FEFFFF" transform="matrix(1.00, 0.00, -0.00, -1.00, 683.2, 347.7)"> </text><text xml:space="preserve" font-family="MyriadPro-Light,Myriad Pro" font-size="42.0" fill="#FEFFFF" transform="matrix(1.00, 0.00, -0.00, -1.00, 692.4, 347.7)">e</text><text xml:space="preserve" font-family="MyriadPro-Light,Myriad Pro" font-size="42.0" fill="#FEFFFF" transform="matrix(1.00, 0.00, -0.00, -1.00, 712.7, 347.7)">x</text><text xml:space="preserve" font-family="MyriadPro-Light,Myriad Pro" font-size="42.0" fill="#FEFFFF" transform="matrix(1.00, 0.00, -0.00, -1.00, 730.8, 347.7)">a</text><text xml:space="preserve" font-family="MyriadPro-Light,Myriad Pro" font-size="42.0" fill="#FEFFFF" transform="matrix(1.00, 0.00, -0.00, -1.00, 749.8, 347.7)">c</text><text xml:space="preserve" font-family="MyriadPro-Light,Myriad Pro" font-size="42.0" fill="#FEFFFF" transform="matrix(1.00, 0.00, -0.00, -1.00, 769.0, 347.7)">t</text><text xml:space="preserve" font-family="MyriadPro-Light,Myriad Pro" font-size="42.0" fill="#FEFFFF" transform="matrix(1.00, 0.00, -0.00, -1.00, 782.0, 347.7)"> </text><text xml:space="preserve" font-family="MyriadPro-Light,Myriad Pro" font-size="42.0" fill="#FEFFFF" transform="matrix(1.00, 0.00, -0.00, -1.00, 791.2, 347.7)">t</text><text xml:space="preserve" font-family="MyriadPro-Light,Myriad Pro" font-size="42.0" fill="#FEFFFF" transform="matrix(1.00, 0.00, -0.00, -1.00, 804.2, 347.7)">i</text><text xml:space="preserve" font-family="MyriadPro-Light,Myriad Pro" font-size="42.0" fill="#FEFFFF" transform="matrix(1.00, 0.00, -0.00, -1.00, 813.0, 347.7)">m</text><text xml:space="preserve" font-family="MyriadPro-Light,Myriad Pro" font-size="42.0" fill="#FEFFFF" transform="matrix(1.00, 0.00, -0.00, -1.00, 847.3, 347.7)">e</text></g></svg>