<?xml version="1.0" encoding="UTF-8" standalone="no"?><svg xmlns="http://www.w3.org/2000/svg" xmlns:xlink="http://www.w3.org/1999/xlink" clip-rule="evenodd" stroke-miterlimit="10" viewBox="0 0 599 51"><desc>SVG generated by Keynote</desc><defs></defs><g transform="matrix(1.00, 0.00, -0.00, -1.00, 0.0, 51.0)"><text xml:space="preserve" font-family="Helvetica-Light,Helvetica" font-size="50.0" fill="#000000" transform="matrix(1.00, 0.00, -0.00, -1.00, -0.8, 12.5)">m</text><text xml:space="preserve" font-family="Helvetica-Light,Helvetica" font-size="50.0" fill="#000000" transform="matrix(1.00, 0.00, -0.00, -1.00, 40.8, 12.5)">a</text><text xml:space="preserve" font-family="Helvetica-Light,Helvetica" font-size="50.0" fill="#000000" transform="matrix(1.00, 0.00, -0.00, -1.00, 68.6, 12.5)">g</text><text xml:space="preserve" font-family="Helvetica-Light,Helvetica" font-size="50.0" fill="#000000" transform="matrix(1.00, 0.00, -0.00, -1.00, 99.2, 12.5)">n</text><text xml:space="preserve" font-family="Helvetica-Light,Helvetica" font-size="50.0" fill="#000000" transform="matrix(1.00, 0.00, -0.00, -1.00, 127.0, 12.5)">i</text><text xml:space="preserve" font-family="Helvetica-Light,Helvetica" font-size="50.0" fill="#000000" transform="matrix(1.00, 0.00, -0.00, -1.00, 138.1, 12.5)">ï¬</text><text xml:space="preserve" font-family="Helvetica-Light,Helvetica" font-size="50.0" fill="#000000" transform="matrix(1.00, 0.00, -0.00, -1.00, 163.1, 12.5)">c</text><text xml:space="preserve" font-family="Helvetica-Light,Helvetica" font-size="50.0" fill="#000000" transform="matrix(1.00, 0.00, -0.00, -1.00, 190.9, 12.5)">e</text><text xml:space="preserve" font-family="Helvetica-Light,Helvetica" font-size="50.0" fill="#000000" transform="matrix(1.00, 0.00, -0.00, -1.00, 218.7, 12.5)">n</text><text xml:space="preserve" font-family="Helvetica-Light,Helvetica" font-size="50.0" fill="#000000" transform="matrix(1.00, 0.00, -0.00, -1.00, 246.5, 12.5)">t</text><text xml:space="preserve" font-family="Helvetica-Light,Helvetica" font-size="50.0" fill="#000000" transform="matrix(1.00, 0.00, -0.00, -1.00, 260.4, 12.5)"> </text><text xml:space="preserve" font-family="Helvetica-Light,Helvetica" font-size="50.0" fill="#000000" transform="matrix(1.00, 0.00, -0.00, -1.00, 274.3, 12.5)">g</text><text xml:space="preserve" font-family="Helvetica-Light,Helvetica" font-size="50.0" fill="#000000" transform="matrix(1.00, 0.00, -0.00, -1.00, 304.8, 12.5)">r</text><text xml:space="preserve" font-family="Helvetica-Light,Helvetica" font-size="50.0" fill="#000000" transform="matrix(1.00, 0.00, -0.00, -1.00, 321.5, 12.5)">a</text><text xml:space="preserve" font-family="Helvetica-Light,Helvetica" font-size="50.0" fill="#000000" transform="matrix(1.00, 0.00, -0.00, -1.00, 349.3, 12.5)">p</text><text xml:space="preserve" font-family="Helvetica-Light,Helvetica" font-size="50.0" fill="#000000" transform="matrix(1.00, 0.00, -0.00, -1.00, 379.8, 12.5)">h</text><text xml:space="preserve" font-family="Helvetica-Light,Helvetica" font-size="50.0" fill="#000000" transform="matrix(1.00, 0.00, -0.00, -1.00, 407.6, 12.5)">i</text><text xml:space="preserve" font-family="Helvetica-Light,Helvetica" font-size="50.0" fill="#000000" transform="matrix(1.00, 0.00, -0.00, -1.00, 418.7, 12.5)">c</text><text xml:space="preserve" font-family="Helvetica-Light,Helvetica" font-size="50.0" fill="#000000" transform="matrix(1.00, 0.00, -0.00, -1.00, 446.5, 12.5)">s</text><text xml:space="preserve" font-family="Helvetica-Light,Helvetica" font-size="50.0" fill="#000000" transform="matrix(1.00, 0.00, -0.00, -1.00, 471.5, 12.5)"> </text><text xml:space="preserve" font-family="Helvetica-Light,Helvetica" font-size="50.0" fill="#000000" transform="matrix(1.00, 0.00, -0.00, -1.00, 485.4, 12.5)">w</text><text xml:space="preserve" font-family="Helvetica-Light,Helvetica" font-size="50.0" fill="#000000" transform="matrix(1.00, 0.00, -0.00, -1.00, 521.5, 12.5)">h</text><text xml:space="preserve" font-family="Helvetica-Light,Helvetica" font-size="50.0" fill="#000000" transform="matrix(1.00, 0.00, -0.00, -1.00, 549.3, 12.5)">i</text><text xml:space="preserve" font-family="Helvetica-Light,Helvetica" font-size="50.0" fill="#000000" transform="matrix(1.00, 0.00, -0.00, -1.00, 560.4, 12.5)">l</text><text xml:space="preserve" font-family="Helvetica-Light,Helvetica" font-size="50.0" fill="#000000" transform="matrix(1.00, 0.00, -0.00, -1.00, 571.5, 12.5)">e</text></g></svg>