<?xml version="1.0" encoding="UTF-8" standalone="no"?><svg xmlns="http://www.w3.org/2000/svg" xmlns:xlink="http://www.w3.org/1999/xlink" clip-rule="evenodd" stroke-miterlimit="10" viewBox="0 0 1920 1080"><desc>SVG generated by Keynote</desc><defs></defs><g transform="matrix(1.00, 0.00, -0.00, -1.00, 0.0, 1080.0)"><path d="M 0.0 1080.0 L 1920.0 1080.0 L 1920.0 0.0 L 0.0 0.0 Z M 0.0 1080.0 " fill="#000000"></path><text xml:space="preserve" font-family="MyriadPro-Light,Myriad Pro" font-size="58.0" fill="#FEFFFF" transform="matrix(1.00, 0.00, -0.00, -1.00, 506.6, 367.4)">T</text><text xml:space="preserve" font-family="MyriadPro-Light,Myriad Pro" font-size="58.0" fill="#FEFFFF" transform="matrix(1.00, 0.00, -0.00, -1.00, 533.4, 367.4)">h</text><text xml:space="preserve" font-family="MyriadPro-Light,Myriad Pro" font-size="58.0" fill="#FEFFFF" transform="matrix(1.00, 0.00, -0.00, -1.00, 564.5, 367.4)">e</text><text xml:space="preserve" font-family="MyriadPro-Light,Myriad Pro" font-size="58.0" fill="#FEFFFF" transform="matrix(1.00, 0.00, -0.00, -1.00, 592.6, 367.4)"> </text><text xml:space="preserve" font-family="MyriadPro-Light,Myriad Pro" font-size="58.0" fill="#FEFFFF" transform="matrix(1.00, 0.00, -0.00, -1.00, 605.3, 367.4)">a</text><text xml:space="preserve" font-family="MyriadPro-Light,Myriad Pro" font-size="58.0" fill="#FEFFFF" transform="matrix(1.00, 0.00, -0.00, -1.00, 631.3, 367.4)">w</text><text xml:space="preserve" font-family="MyriadPro-Light,Myriad Pro" font-size="58.0" fill="#FEFFFF" transform="matrix(1.00, 0.00, -0.00, -1.00, 672.8, 367.4)">e</text><text xml:space="preserve" font-family="MyriadPro-Light,Myriad Pro" font-size="58.0" fill="#FEFFFF" transform="matrix(1.00, 0.00, -0.00, -1.00, 700.9, 367.4)">s</text><text xml:space="preserve" font-family="MyriadPro-Light,Myriad Pro" font-size="58.0" fill="#FEFFFF" transform="matrix(1.00, 0.00, -0.00, -1.00, 722.5, 367.4)">o</text><text xml:space="preserve" font-family="MyriadPro-Light,Myriad Pro" font-size="58.0" fill="#FEFFFF" transform="matrix(1.00, 0.00, -0.00, -1.00, 753.4, 367.4)">m</text><text xml:space="preserve" font-family="MyriadPro-Light,Myriad Pro" font-size="58.0" fill="#FEFFFF" transform="matrix(1.00, 0.00, -0.00, -1.00, 800.9, 367.4)">e</text><text xml:space="preserve" font-family="MyriadPro-Light,Myriad Pro" font-size="58.0" fill="#FEFFFF" transform="matrix(1.00, 0.00, -0.00, -1.00, 829.0, 367.4)"> </text><text xml:space="preserve" font-family="MyriadPro-Light,Myriad Pro" font-size="58.0" fill="#FEFFFF" transform="matrix(1.00, 0.00, -0.00, -1.00, 841.7, 367.4)">t</text><text xml:space="preserve" font-family="MyriadPro-Light,Myriad Pro" font-size="58.0" fill="#FEFFFF" transform="matrix(1.00, 0.00, -0.00, -1.00, 859.6, 367.4)">h</text><text xml:space="preserve" font-family="MyriadPro-Light,Myriad Pro" font-size="58.0" fill="#FEFFFF" transform="matrix(1.00, 0.00, -0.00, -1.00, 890.7, 367.4)">i</text><text xml:space="preserve" font-family="MyriadPro-Light,Myriad Pro" font-size="58.0" fill="#FEFFFF" transform="matrix(1.00, 0.00, -0.00, -1.00, 902.8, 367.4)">n</text><text xml:space="preserve" font-family="MyriadPro-Light,Myriad Pro" font-size="58.0" fill="#FEFFFF" transform="matrix(1.00, 0.00, -0.00, -1.00, 933.9, 367.4)">g</text><text xml:space="preserve" font-family="MyriadPro-Light,Myriad Pro" font-size="58.0" fill="#FEFFFF" transform="matrix(1.00, 0.00, -0.00, -1.00, 965.5, 367.4)"> </text><text xml:space="preserve" font-family="MyriadPro-Light,Myriad Pro" font-size="58.0" fill="#FEFFFF" transform="matrix(1.00, 0.00, -0.00, -1.00, 978.2, 367.4)">a</text><text xml:space="preserve" font-family="MyriadPro-Light,Myriad Pro" font-size="58.0" fill="#FEFFFF" transform="matrix(1.00, 0.00, -0.00, -1.00, 1004.5, 367.4)">b</text><text xml:space="preserve" font-family="MyriadPro-Light,Myriad Pro" font-size="58.0" fill="#FEFFFF" transform="matrix(1.00, 0.00, -0.00, -1.00, 1036.5, 367.4)">o</text><text xml:space="preserve" font-family="MyriadPro-Light,Myriad Pro" font-size="58.0" fill="#FEFFFF" transform="matrix(1.00, 0.00, -0.00, -1.00, 1067.4, 367.4)">u</text><text xml:space="preserve" font-family="MyriadPro-Light,Myriad Pro" font-size="58.0" fill="#FEFFFF" transform="matrix(1.00, 0.00, -0.00, -1.00, 1098.2, 367.4)">t</text><text xml:space="preserve" font-family="MyriadPro-Light,Myriad Pro" font-size="58.0" fill="#FEFFFF" transform="matrix(1.00, 0.00, -0.00, -1.00, 1116.1, 367.4)"> </text><text xml:space="preserve" font-family="MyriadPro-Light,Myriad Pro" font-size="58.0" fill="#FEFFFF" transform="matrix(1.00, 0.00, -0.00, -1.00, 1128.8, 367.4)">K</text><text xml:space="preserve" font-family="MyriadPro-Light,Myriad Pro" font-size="58.0" fill="#FEFFFF" transform="matrix(1.00, 0.00, -0.00, -1.00, 1159.1, 367.4)">a</text><text xml:space="preserve" font-family="MyriadPro-Light,Myriad Pro" font-size="58.0" fill="#FEFFFF" transform="matrix(1.00, 0.00, -0.00, -1.00, 1185.5, 367.4)">r</text><text xml:space="preserve" font-family="MyriadPro-Light,Myriad Pro" font-size="58.0" fill="#FEFFFF" transform="matrix(1.00, 0.00, -0.00, -1.00, 1203.0, 367.4)">i</text><text xml:space="preserve" font-family="MyriadPro-Light,Myriad Pro" font-size="58.0" fill="#FEFFFF" transform="matrix(1.00, 0.00, -0.00, -1.00, 1215.1, 367.4)">o</text><text xml:space="preserve" font-family="MyriadPro-Light,Myriad Pro" font-size="58.0" fill="#FEFFFF" transform="matrix(1.00, 0.00, -0.00, -1.00, 1246.0, 367.4)">n</text><text xml:space="preserve" font-family="MyriadPro-Light,Myriad Pro" font-size="58.0" fill="#FEFFFF" transform="matrix(1.00, 0.00, -0.00, -1.00, 1277.1, 367.4)"> </text><text xml:space="preserve" font-family="MyriadPro-Light,Myriad Pro" font-size="58.0" fill="#FEFFFF" transform="matrix(1.00, 0.00, -0.00, -1.00, 1289.8, 367.4)">i</text><text xml:space="preserve" font-family="MyriadPro-Light,Myriad Pro" font-size="58.0" fill="#FEFFFF" transform="matrix(1.00, 0.00, -0.00, -1.00, 1301.9, 367.4)">s</text><text xml:space="preserve" font-family="MyriadPro-Light,Myriad Pro" font-size="58.0" fill="#FEFFFF" transform="matrix(1.00, 0.00, -0.00, -1.00, 1323.5, 367.4)"> </text><text xml:space="preserve" font-family="MyriadPro-Light,Myriad Pro" font-size="58.0" fill="#FEFFFF" transform="matrix(1.00, 0.00, -0.00, -1.00, 1336.2, 367.4)">t</text><text xml:space="preserve" font-family="MyriadPro-Light,Myriad Pro" font-size="58.0" fill="#FEFFFF" transform="matrix(1.00, 0.00, -0.00, -1.00, 1354.1, 367.4)">h</text><text xml:space="preserve" font-family="MyriadPro-Light,Myriad Pro" font-size="58.0" fill="#FEFFFF" transform="matrix(1.00, 0.00, -0.00, -1.00, 1385.2, 367.4)">e</text><text xml:space="preserve" font-family="MyriadPro-Light,Myriad Pro" font-size="58.0" fill="#FEFFFF" transform="matrix(1.00, 0.00, -0.00, -1.00, 1413.4, 367.4)"> </text><text xml:space="preserve" font-family="MyriadPro-Light,Myriad Pro" font-size="58.0" fill="#FEFFFF" transform="matrix(1.00, 0.00, -0.00, -1.00, 464.4, 296.4)">n</text><text xml:space="preserve" font-family="MyriadPro-Light,Myriad Pro" font-size="58.0" fill="#FEFFFF" transform="matrix(1.00, 0.00, -0.00, -1.00, 495.5, 296.4)">u</text><text xml:space="preserve" font-family="MyriadPro-Light,Myriad Pro" font-size="58.0" fill="#FEFFFF" transform="matrix(1.00, 0.00, -0.00, -1.00, 526.3, 296.4)">m</text><text xml:space="preserve" font-family="MyriadPro-Light,Myriad Pro" font-size="58.0" fill="#FEFFFF" transform="matrix(1.00, 0.00, -0.00, -1.00, 573.8, 296.4)">b</text><text xml:space="preserve" font-family="MyriadPro-Light,Myriad Pro" font-size="58.0" fill="#FEFFFF" transform="matrix(1.00, 0.00, -0.00, -1.00, 605.8, 296.4)">e</text><text xml:space="preserve" font-family="MyriadPro-Light,Myriad Pro" font-size="58.0" fill="#FEFFFF" transform="matrix(1.00, 0.00, -0.00, -1.00, 634.0, 296.4)">r</text><text xml:space="preserve" font-family="MyriadPro-Light,Myriad Pro" font-size="58.0" fill="#FEFFFF" transform="matrix(1.00, 0.00, -0.00, -1.00, 651.1, 296.4)"> </text><text xml:space="preserve" font-family="MyriadPro-Light,Myriad Pro" font-size="58.0" fill="#FEFFFF" transform="matrix(1.00, 0.00, -0.00, -1.00, 663.8, 296.4)">i</text><text xml:space="preserve" font-family="MyriadPro-Light,Myriad Pro" font-size="58.0" fill="#FEFFFF" transform="matrix(1.00, 0.00, -0.00, -1.00, 675.9, 296.4)">n</text><text xml:space="preserve" font-family="MyriadPro-Light,Myriad Pro" font-size="58.0" fill="#FEFFFF" transform="matrix(1.00, 0.00, -0.00, -1.00, 707.0, 296.4)"> </text><text xml:space="preserve" font-family="MyriadPro-Light,Myriad Pro" font-size="58.0" fill="#FEFFFF" transform="matrix(1.00, 0.00, -0.00, -1.00, 719.7, 296.4)">t</text><text xml:space="preserve" font-family="MyriadPro-Light,Myriad Pro" font-size="58.0" fill="#FEFFFF" transform="matrix(1.00, 0.00, -0.00, -1.00, 737.6, 296.4)">h</text><text xml:space="preserve" font-family="MyriadPro-Light,Myriad Pro" font-size="58.0" fill="#FEFFFF" transform="matrix(1.00, 0.00, -0.00, -1.00, 768.7, 296.4)">e</text><text xml:space="preserve" font-family="MyriadPro-Light,Myriad Pro" font-size="58.0" fill="#FEFFFF" transform="matrix(1.00, 0.00, -0.00, -1.00, 796.8, 296.4)"> </text><text xml:space="preserve" font-family="MyriadPro-Light,Myriad Pro" font-size="58.0" fill="#FEFFFF" transform="matrix(1.00, 0.00, -0.00, -1.00, 809.5, 296.4)">s</text><text xml:space="preserve" font-family="MyriadPro-Light,Myriad Pro" font-size="58.0" fill="#FEFFFF" transform="matrix(1.00, 0.00, -0.00, -1.00, 831.2, 296.4)">t</text><text xml:space="preserve" font-family="MyriadPro-Light,Myriad Pro" font-size="58.0" fill="#FEFFFF" transform="matrix(1.00, 0.00, -0.00, -1.00, 849.1, 296.4)">a</text><text xml:space="preserve" font-family="MyriadPro-Light,Myriad Pro" font-size="58.0" fill="#FEFFFF" transform="matrix(1.00, 0.00, -0.00, -1.00, 875.4, 296.4)">r</text><text xml:space="preserve" font-family="MyriadPro-Light,Myriad Pro" font-size="58.0" fill="#FEFFFF" transform="matrix(1.00, 0.00, -0.00, -1.00, 894.0, 296.4)">t</text><text xml:space="preserve" font-family="MyriadPro-Light,Myriad Pro" font-size="58.0" fill="#FEFFFF" transform="matrix(1.00, 0.00, -0.00, -1.00, 911.9, 296.4)">.</text><text xml:space="preserve" font-family="MyriadPro-Light,Myriad Pro" font-size="58.0" fill="#FEFFFF" transform="matrix(1.00, 0.00, -0.00, -1.00, 922.0, 296.4)"> </text><text xml:space="preserve" font-family="MyriadPro-Light,Myriad Pro" font-size="58.0" fill="#FEFFFF" transform="matrix(1.00, 0.00, -0.00, -1.00, 934.7, 296.4)">I</text><text xml:space="preserve" font-family="MyriadPro-Light,Myriad Pro" font-size="58.0" fill="#FEFFFF" transform="matrix(1.00, 0.00, -0.00, -1.00, 948.3, 296.4)">t</text><text xml:space="preserve" font-family="MyriadPro-Light,Myriad Pro" font-size="58.0" fill="#FEFFFF" transform="matrix(1.00, 0.00, -0.00, -1.00, 966.2, 296.4)"> </text><text xml:space="preserve" font-family="MyriadPro-Light,Myriad Pro" font-size="58.0" fill="#FEFFFF" transform="matrix(1.00, 0.00, -0.00, -1.00, 978.9, 296.4)">r</text><text xml:space="preserve" font-family="MyriadPro-Light,Myriad Pro" font-size="58.0" fill="#FEFFFF" transform="matrix(1.00, 0.00, -0.00, -1.00, 995.4, 296.4)">e</text><text xml:space="preserve" font-family="MyriadPro-Light,Myriad Pro" font-size="58.0" fill="#FEFFFF" transform="matrix(1.00, 0.00, -0.00, -1.00, 1023.5, 296.4)">p</text><text xml:space="preserve" font-family="MyriadPro-Light,Myriad Pro" font-size="58.0" fill="#FEFFFF" transform="matrix(1.00, 0.00, -0.00, -1.00, 1055.5, 296.4)">r</text><text xml:space="preserve" font-family="MyriadPro-Light,Myriad Pro" font-size="58.0" fill="#FEFFFF" transform="matrix(1.00, 0.00, -0.00, -1.00, 1072.0, 296.4)">e</text><text xml:space="preserve" font-family="MyriadPro-Light,Myriad Pro" font-size="58.0" fill="#FEFFFF" transform="matrix(1.00, 0.00, -0.00, -1.00, 1100.1, 296.4)">s</text><text xml:space="preserve" font-family="MyriadPro-Light,Myriad Pro" font-size="58.0" fill="#FEFFFF" transform="matrix(1.00, 0.00, -0.00, -1.00, 1121.7, 296.4)">e</text><text xml:space="preserve" font-family="MyriadPro-Light,Myriad Pro" font-size="58.0" fill="#FEFFFF" transform="matrix(1.00, 0.00, -0.00, -1.00, 1149.9, 296.4)">n</text><text xml:space="preserve" font-family="MyriadPro-Light,Myriad Pro" font-size="58.0" fill="#FEFFFF" transform="matrix(1.00, 0.00, -0.00, -1.00, 1181.0, 296.4)">t</text><text xml:space="preserve" font-family="MyriadPro-Light,Myriad Pro" font-size="58.0" fill="#FEFFFF" transform="matrix(1.00, 0.00, -0.00, -1.00, 1198.9, 296.4)">s</text><text xml:space="preserve" font-family="MyriadPro-Light,Myriad Pro" font-size="58.0" fill="#FEFFFF" transform="matrix(1.00, 0.00, -0.00, -1.00, 1220.5, 296.4)"> </text><text xml:space="preserve" font-family="MyriadPro-Light,Myriad Pro" font-size="58.0" fill="#FEFFFF" transform="matrix(1.00, 0.00, -0.00, -1.00, 1233.2, 296.4)">t</text><text xml:space="preserve" font-family="MyriadPro-Light,Myriad Pro" font-size="58.0" fill="#FEFFFF" transform="matrix(1.00, 0.00, -0.00, -1.00, 1250.8, 296.4)">o</text><text xml:space="preserve" font-family="MyriadPro-Light,Myriad Pro" font-size="58.0" fill="#FEFFFF" transform="matrix(1.00, 0.00, -0.00, -1.00, 1281.6, 296.4)">t</text><text xml:space="preserve" font-family="MyriadPro-Light,Myriad Pro" font-size="58.0" fill="#FEFFFF" transform="matrix(1.00, 0.00, -0.00, -1.00, 1299.6, 296.4)">a</text><text xml:space="preserve" font-family="MyriadPro-Light,Myriad Pro" font-size="58.0" fill="#FEFFFF" transform="matrix(1.00, 0.00, -0.00, -1.00, 1325.9, 296.4)">l</text><text xml:space="preserve" font-family="MyriadPro-Light,Myriad Pro" font-size="58.0" fill="#FEFFFF" transform="matrix(1.00, 0.00, -0.00, -1.00, 1338.2, 296.4)"> </text><text xml:space="preserve" font-family="MyriadPro-Light,Myriad Pro" font-size="58.0" fill="#FEFFFF" transform="matrix(1.00, 0.00, -0.00, -1.00, 1350.9, 296.4)">d</text><text xml:space="preserve" font-family="MyriadPro-Light,Myriad Pro" font-size="58.0" fill="#FEFFFF" transform="matrix(1.00, 0.00, -0.00, -1.00, 1382.4, 296.4)">a</text><text xml:space="preserve" font-family="MyriadPro-Light,Myriad Pro" font-size="58.0" fill="#FEFFFF" transform="matrix(1.00, 0.00, -0.00, -1.00, 1408.4, 296.4)">y</text><text xml:space="preserve" font-family="MyriadPro-Light,Myriad Pro" font-size="58.0" fill="#FEFFFF" transform="matrix(1.00, 0.00, -0.00, -1.00, 1433.9, 296.4)">s</text><text xml:space="preserve" font-family="MyriadPro-Light,Myriad Pro" font-size="58.0" fill="#FEFFFF" transform="matrix(1.00, 0.00, -0.00, -1.00, 1455.6, 296.4)"> </text><text xml:space="preserve" font-family="MyriadPro-Light,Myriad Pro" font-size="58.0" fill="#FEFFFF" transform="matrix(1.00, 0.00, -0.00, -1.00, 410.1, 225.4)">f</text><text xml:space="preserve" font-family="MyriadPro-Light,Myriad Pro" font-size="58.0" fill="#FEFFFF" transform="matrix(1.00, 0.00, -0.00, -1.00, 425.3, 225.4)">r</text><text xml:space="preserve" font-family="MyriadPro-Light,Myriad Pro" font-size="58.0" fill="#FEFFFF" transform="matrix(1.00, 0.00, -0.00, -1.00, 441.8, 225.4)">o</text><text xml:space="preserve" font-family="MyriadPro-Light,Myriad Pro" font-size="58.0" fill="#FEFFFF" transform="matrix(1.00, 0.00, -0.00, -1.00, 472.6, 225.4)">m</text><text xml:space="preserve" font-family="MyriadPro-Light,Myriad Pro" font-size="58.0" fill="#FEFFFF" transform="matrix(1.00, 0.00, -0.00, -1.00, 520.1, 225.4)"> </text><text xml:space="preserve" font-family="MyriadPro-Light,Myriad Pro" font-size="58.0" fill="#FEFFFF" transform="matrix(1.00, 0.00, -0.00, -1.00, 532.8, 225.4)">t</text><text xml:space="preserve" font-family="MyriadPro-Light,Myriad Pro" font-size="58.0" fill="#FEFFFF" transform="matrix(1.00, 0.00, -0.00, -1.00, 550.8, 225.4)">h</text><text xml:space="preserve" font-family="MyriadPro-Light,Myriad Pro" font-size="58.0" fill="#FEFFFF" transform="matrix(1.00, 0.00, -0.00, -1.00, 581.8, 225.4)">e</text><text xml:space="preserve" font-family="MyriadPro-Light,Myriad Pro" font-size="58.0" fill="#FEFFFF" transform="matrix(1.00, 0.00, -0.00, -1.00, 610.0, 225.4)"> </text><text xml:space="preserve" font-family="MyriadPro-Light,Myriad Pro" font-size="58.0" fill="#FEFFFF" transform="matrix(1.00, 0.00, -0.00, -1.00, 622.7, 225.4)">s</text><text xml:space="preserve" font-family="MyriadPro-Light,Myriad Pro" font-size="58.0" fill="#FEFFFF" transform="matrix(1.00, 0.00, -0.00, -1.00, 644.3, 225.4)">t</text><text xml:space="preserve" font-family="MyriadPro-Light,Myriad Pro" font-size="58.0" fill="#FEFFFF" transform="matrix(1.00, 0.00, -0.00, -1.00, 662.2, 225.4)">a</text><text xml:space="preserve" font-family="MyriadPro-Light,Myriad Pro" font-size="58.0" fill="#FEFFFF" transform="matrix(1.00, 0.00, -0.00, -1.00, 688.6, 225.4)">r</text><text xml:space="preserve" font-family="MyriadPro-Light,Myriad Pro" font-size="58.0" fill="#FEFFFF" transform="matrix(1.00, 0.00, -0.00, -1.00, 707.2, 225.4)">t</text><text xml:space="preserve" font-family="MyriadPro-Light,Myriad Pro" font-size="58.0" fill="#FEFFFF" transform="matrix(1.00, 0.00, -0.00, -1.00, 725.1, 225.4)"> </text><text xml:space="preserve" font-family="MyriadPro-Light,Myriad Pro" font-size="58.0" fill="#FEFFFF" transform="matrix(1.00, 0.00, -0.00, -1.00, 737.8, 225.4)">o</text><text xml:space="preserve" font-family="MyriadPro-Light,Myriad Pro" font-size="58.0" fill="#FEFFFF" transform="matrix(1.00, 0.00, -0.00, -1.00, 768.7, 225.4)">f</text><text xml:space="preserve" font-family="MyriadPro-Light,Myriad Pro" font-size="58.0" fill="#FEFFFF" transform="matrix(1.00, 0.00, -0.00, -1.00, 783.9, 225.4)"> </text><text xml:space="preserve" font-family="MyriadPro-Light,Myriad Pro" font-size="58.0" fill="#FEFFFF" transform="matrix(1.00, 0.00, -0.00, -1.00, 796.6, 225.4)">t</text><text xml:space="preserve" font-family="MyriadPro-Light,Myriad Pro" font-size="58.0" fill="#FEFFFF" transform="matrix(1.00, 0.00, -0.00, -1.00, 814.5, 225.4)">h</text><text xml:space="preserve" font-family="MyriadPro-Light,Myriad Pro" font-size="58.0" fill="#FEFFFF" transform="matrix(1.00, 0.00, -0.00, -1.00, 845.6, 225.4)">e</text><text xml:space="preserve" font-family="MyriadPro-Light,Myriad Pro" font-size="58.0" fill="#FEFFFF" transform="matrix(1.00, 0.00, -0.00, -1.00, 873.7, 225.4)"> </text><text xml:space="preserve" font-family="MyriadPro-Light,Myriad Pro" font-size="58.0" fill="#FEFFFF" transform="matrix(1.00, 0.00, -0.00, -1.00, 886.4, 225.4)">K</text><text xml:space="preserve" font-family="MyriadPro-Light,Myriad Pro" font-size="58.0" fill="#FEFFFF" transform="matrix(1.00, 0.00, -0.00, -1.00, 916.7, 225.4)">a</text><text xml:space="preserve" font-family="MyriadPro-Light,Myriad Pro" font-size="58.0" fill="#FEFFFF" transform="matrix(1.00, 0.00, -0.00, -1.00, 943.1, 225.4)">r</text><text xml:space="preserve" font-family="MyriadPro-Light,Myriad Pro" font-size="58.0" fill="#FEFFFF" transform="matrix(1.00, 0.00, -0.00, -1.00, 960.6, 225.4)">i</text><text xml:space="preserve" font-family="MyriadPro-Light,Myriad Pro" font-size="58.0" fill="#FEFFFF" transform="matrix(1.00, 0.00, -0.00, -1.00, 972.7, 225.4)">o</text><text xml:space="preserve" font-family="MyriadPro-Light,Myriad Pro" font-size="58.0" fill="#FEFFFF" transform="matrix(1.00, 0.00, -0.00, -1.00, 1003.6, 225.4)">n</text><text xml:space="preserve" font-family="MyriadPro-Light,Myriad Pro" font-size="58.0" fill="#FEFFFF" transform="matrix(1.00, 0.00, -0.00, -1.00, 1034.6, 225.4)"> </text><text xml:space="preserve" font-family="MyriadPro-Light,Myriad Pro" font-size="58.0" fill="#FEFFFF" transform="matrix(1.00, 0.00, -0.00, -1.00, 1047.3, 225.4)">w</text><text xml:space="preserve" font-family="MyriadPro-Light,Myriad Pro" font-size="58.0" fill="#FEFFFF" transform="matrix(1.00, 0.00, -0.00, -1.00, 1089.2, 225.4)">h</text><text xml:space="preserve" font-family="MyriadPro-Light,Myriad Pro" font-size="58.0" fill="#FEFFFF" transform="matrix(1.00, 0.00, -0.00, -1.00, 1120.3, 225.4)">i</text><text xml:space="preserve" font-family="MyriadPro-Light,Myriad Pro" font-size="58.0" fill="#FEFFFF" transform="matrix(1.00, 0.00, -0.00, -1.00, 1132.4, 225.4)">c</text><text xml:space="preserve" font-family="MyriadPro-Light,Myriad Pro" font-size="58.0" fill="#FEFFFF" transform="matrix(1.00, 0.00, -0.00, -1.00, 1158.3, 225.4)">h</text><text xml:space="preserve" font-family="MyriadPro-Light,Myriad Pro" font-size="58.0" fill="#FEFFFF" transform="matrix(1.00, 0.00, -0.00, -1.00, 1189.4, 225.4)"> </text><text xml:space="preserve" font-family="MyriadPro-Light,Myriad Pro" font-size="58.0" fill="#FEFFFF" transform="matrix(1.00, 0.00, -0.00, -1.00, 1202.1, 225.4)">i</text><text xml:space="preserve" font-family="MyriadPro-Light,Myriad Pro" font-size="58.0" fill="#FEFFFF" transform="matrix(1.00, 0.00, -0.00, -1.00, 1214.2, 225.4)">s</text><text xml:space="preserve" font-family="MyriadPro-Light,Myriad Pro" font-size="58.0" fill="#FEFFFF" transform="matrix(1.00, 0.00, -0.00, -1.00, 1235.8, 225.4)"> </text><text xml:space="preserve" font-family="MyriadPro-Light,Myriad Pro" font-size="58.0" fill="#FEFFFF" transform="matrix(1.00, 0.00, -0.00, -1.00, 1248.5, 225.4)">1</text><text xml:space="preserve" font-family="MyriadPro-Light,Myriad Pro" font-size="58.0" fill="#FEFFFF" transform="matrix(1.00, 0.00, -0.00, -1.00, 1276.9, 225.4)">9</text><text xml:space="preserve" font-family="MyriadPro-Light,Myriad Pro" font-size="58.0" fill="#FEFFFF" transform="matrix(1.00, 0.00, -0.00, -1.00, 1305.2, 225.4)">9</text><text xml:space="preserve" font-family="MyriadPro-Light,Myriad Pro" font-size="58.0" fill="#FEFFFF" transform="matrix(1.00, 0.00, -0.00, -1.00, 1333.5, 225.4)">6</text><text xml:space="preserve" font-family="MyriadPro-Light,Myriad Pro" font-size="58.0" fill="#FEFFFF" transform="matrix(1.00, 0.00, -0.00, -1.00, 1361.8, 225.4)"> </text><text xml:space="preserve" font-family="MyriadPro-Light,Myriad Pro" font-size="58.0" fill="#FEFFFF" transform="matrix(1.00, 0.00, -0.00, -1.00, 1374.5, 225.4)">/</text><text xml:space="preserve" font-family="MyriadPro-Light,Myriad Pro" font-size="58.0" fill="#FEFFFF" transform="matrix(1.00, 0.00, -0.00, -1.00, 1394.8, 225.4)"> </text><text xml:space="preserve" font-family="MyriadPro-Light,Myriad Pro" font-size="58.0" fill="#FEFFFF" transform="matrix(1.00, 0.00, -0.00, -1.00, 1407.5, 225.4)">1</text><text xml:space="preserve" font-family="MyriadPro-Light,Myriad Pro" font-size="58.0" fill="#FEFFFF" transform="matrix(1.00, 0.00, -0.00, -1.00, 1435.8, 225.4)"> </text><text xml:space="preserve" font-family="MyriadPro-Light,Myriad Pro" font-size="58.0" fill="#FEFFFF" transform="matrix(1.00, 0.00, -0.00, -1.00, 1448.5, 225.4)">/</text><text xml:space="preserve" font-family="MyriadPro-Light,Myriad Pro" font-size="58.0" fill="#FEFFFF" transform="matrix(1.00, 0.00, -0.00, -1.00, 1468.9, 225.4)"> </text><text xml:space="preserve" font-family="MyriadPro-Light,Myriad Pro" font-size="58.0" fill="#FEFFFF" transform="matrix(1.00, 0.00, -0.00, -1.00, 1481.6, 225.4)">8</text><text xml:space="preserve" font-family="Helvetica-Bold,Helvetica" font-weight="bold" font-size="354.1" fill="#FEFFFF" transform="matrix(1.00, 0.00, -0.00, -1.00, 544.1, 566.4)">6</text><text xml:space="preserve" font-family="Helvetica-Bold,Helvetica" font-weight="bold" font-size="354.1" fill="#FEFFFF" transform="matrix(1.00, 0.00, -0.00, -1.00, 741.1, 566.4)">9</text><text xml:space="preserve" font-family="Helvetica-Bold,Helvetica" font-weight="bold" font-size="354.1" fill="#FEFFFF" transform="matrix(1.00, 0.00, -0.00, -1.00, 938.1, 566.4)">4</text><text xml:space="preserve" font-family="Helvetica-Bold,Helvetica" font-weight="bold" font-size="354.1" fill="#FEFFFF" transform="matrix(1.00, 0.00, -0.00, -1.00, 1135.1, 566.4)">7</text><text xml:space="preserve" font-family="Helvetica-Bold,Helvetica" font-weight="bold" font-size="354.1" fill="#FEFFFF" transform="matrix(1.00, 0.00, -0.00, -1.00, 1332.0, 566.4)">.</text><text xml:space="preserve" font-family="Helvetica-Bold,Helvetica" font-weight="bold" font-size="354.1" fill="#FEFFFF" transform="matrix(1.00, 0.00, -0.00, -1.00, 1430.5, 566.4)">1</text><text xml:space="preserve" font-family="Helvetica-Bold,Helvetica" font-weight="bold" font-size="354.1" fill="#FEFFFF" transform="matrix(1.00, 0.00, -0.00, -1.00, 1627.5, 566.4)">9</text><text xml:space="preserve" font-family="Helvetica-Bold,Helvetica" font-weight="bold" font-size="354.1" fill="#FEFFFF" transform="matrix(1.00, 0.00, -0.00, -1.00, 1824.4, 566.4)">.</text><text xml:space="preserve" font-family="Helvetica-Bold,Helvetica" font-weight="bold" font-size="354.1" fill="#FEFFFF" transform="matrix(1.00, 0.00, -0.00, -1.00, 1922.9, 566.4)">0</text><text xml:space="preserve" font-family="Helvetica-Bold,Helvetica" font-weight="bold" font-size="354.1" fill="#FEFFFF" transform="matrix(1.00, 0.00, -0.00, -1.00, 2119.9, 566.4)">.</text><text xml:space="preserve" font-family="Helvetica-Bold,Helvetica" font-weight="bold" font-size="354.1" fill="#FEFFFF" transform="matrix(1.00, 0.00, -0.00, -1.00, 2218.3, 566.4)">7</text><g opacity="0.75"><g><clipPath id="clip0x608000cbd160"><path d="M 1352.0 500.0 L 1920.0 500.0 L 1920.0 1002.0 L 1352.0 1002.0 Z M 1352.0 500.0 "></path></clipPath><g clip-path="url(#clip0x608000cbd160)"><path d="M 1353.0 1001.0 L 2077.0 1001.0 L 2077.0 501.0 L 1353.0 501.0 Z M 1353.4 1000.7 " fill="#000000"></path></g></g></g></g></svg>