<?xml version="1.0" encoding="UTF-8" standalone="no"?><svg xmlns="http://www.w3.org/2000/svg" xmlns:xlink="http://www.w3.org/1999/xlink" clip-rule="evenodd" stroke-miterlimit="10" viewBox="0 0 1024 768"><desc>SVG generated by Keynote</desc><defs></defs><g transform="matrix(1.00, 0.00, -0.00, -1.00, 0.0, 768.0)"><path d="M 0.0 768.0 L 1024.0 768.0 L 1024.0 0.0 L 0.0 0.0 Z M 0.0 768.0 " fill="#000000"></path><text xml:space="preserve" font-family="MyriadPro-Light,Myriad Pro" font-size="36.0" fill="#FEFFFF" transform="matrix(1.00, 0.00, -0.00, -1.00, 347.1, 461.1)">T</text><text xml:space="preserve" font-family="MyriadPro-Light,Myriad Pro" font-size="36.0" fill="#FEFFFF" transform="matrix(1.00, 0.00, -0.00, -1.00, 361.4, 461.1)">o</text><text xml:space="preserve" font-family="MyriadPro-Light,Myriad Pro" font-size="36.0" fill="#FEFFFF" transform="matrix(1.00, 0.00, -0.00, -1.00, 380.6, 461.1)"> </text><text xml:space="preserve" font-family="MyriadPro-Light,Myriad Pro" font-size="36.0" fill="#FEFFFF" transform="matrix(1.00, 0.00, -0.00, -1.00, 388.5, 461.1)">c</text><text xml:space="preserve" font-family="MyriadPro-Light,Myriad Pro" font-size="36.0" fill="#FEFFFF" transform="matrix(1.00, 0.00, -0.00, -1.00, 404.5, 461.1)">o</text><text xml:space="preserve" font-family="MyriadPro-Light,Myriad Pro" font-size="36.0" fill="#FEFFFF" transform="matrix(1.00, 0.00, -0.00, -1.00, 423.7, 461.1)">n</text><text xml:space="preserve" font-family="MyriadPro-Light,Myriad Pro" font-size="36.0" fill="#FEFFFF" transform="matrix(1.00, 0.00, -0.00, -1.00, 443.0, 461.1)">t</text><text xml:space="preserve" font-family="MyriadPro-Light,Myriad Pro" font-size="36.0" fill="#FEFFFF" transform="matrix(1.00, 0.00, -0.00, -1.00, 454.1, 461.1)">r</text><text xml:space="preserve" font-family="MyriadPro-Light,Myriad Pro" font-size="36.0" fill="#FEFFFF" transform="matrix(1.00, 0.00, -0.00, -1.00, 464.3, 461.1)">o</text><text xml:space="preserve" font-family="MyriadPro-Light,Myriad Pro" font-size="36.0" fill="#FEFFFF" transform="matrix(1.00, 0.00, -0.00, -1.00, 483.5, 461.1)">l</text><text xml:space="preserve" font-family="MyriadPro-Light,Myriad Pro" font-size="36.0" fill="#FEFFFF" transform="matrix(1.00, 0.00, -0.00, -1.00, 491.1, 461.1)"> </text><text xml:space="preserve" font-family="MyriadPro-Light,Myriad Pro" font-size="36.0" fill="#FEFFFF" transform="matrix(1.00, 0.00, -0.00, -1.00, 499.0, 461.1)">t</text><text xml:space="preserve" font-family="MyriadPro-Light,Myriad Pro" font-size="36.0" fill="#FEFFFF" transform="matrix(1.00, 0.00, -0.00, -1.00, 510.1, 461.1)">h</text><text xml:space="preserve" font-family="MyriadPro-Light,Myriad Pro" font-size="36.0" fill="#FEFFFF" transform="matrix(1.00, 0.00, -0.00, -1.00, 529.4, 461.1)">e</text><text xml:space="preserve" font-family="MyriadPro-Light,Myriad Pro" font-size="36.0" fill="#FEFFFF" transform="matrix(1.00, 0.00, -0.00, -1.00, 546.9, 461.1)"> </text><text xml:space="preserve" font-family="MyriadPro-Light,Myriad Pro" font-size="36.0" fill="#FEFFFF" transform="matrix(1.00, 0.00, -0.00, -1.00, 554.8, 461.1)">k</text><text xml:space="preserve" font-family="MyriadPro-Light,Myriad Pro" font-size="36.0" fill="#FEFFFF" transform="matrix(1.00, 0.00, -0.00, -1.00, 570.4, 461.1)">e</text><text xml:space="preserve" font-family="MyriadPro-Light,Myriad Pro" font-size="36.0" fill="#FEFFFF" transform="matrix(1.00, 0.00, -0.00, -1.00, 588.0, 461.1)">y</text><text xml:space="preserve" font-family="MyriadPro-Light,Myriad Pro" font-size="36.0" fill="#FEFFFF" transform="matrix(1.00, 0.00, -0.00, -1.00, 603.8, 461.1)">n</text><text xml:space="preserve" font-family="MyriadPro-Light,Myriad Pro" font-size="36.0" fill="#FEFFFF" transform="matrix(1.00, 0.00, -0.00, -1.00, 623.1, 461.1)">o</text><text xml:space="preserve" font-family="MyriadPro-Light,Myriad Pro" font-size="36.0" fill="#FEFFFF" transform="matrix(1.00, 0.00, -0.00, -1.00, 642.3, 461.1)">t</text><text xml:space="preserve" font-family="MyriadPro-Light,Myriad Pro" font-size="36.0" fill="#FEFFFF" transform="matrix(1.00, 0.00, -0.00, -1.00, 653.2, 461.1)">e</text><text xml:space="preserve" font-family="MyriadPro-Light,Myriad Pro" font-size="36.0" fill="#FEFFFF" transform="matrix(1.00, 0.00, -0.00, -1.00, 670.7, 461.1)">:</text><text xml:space="preserve" font-family="MyriadPro-Light,Myriad Pro" font-size="36.0" fill="#FEFFFF" transform="matrix(1.00, 0.00, -0.00, -1.00, 676.9, 461.1)"> </text><text xml:space="preserve" font-family="MyriadPro-Light,Myriad Pro" font-size="36.0" fill="#FEFFFF" transform="matrix(1.00, 0.00, -0.00, -1.00, 277.0, 418.1)"> </text><text xml:space="preserve" font-family="MyriadPro-Light,Myriad Pro" font-size="36.0" fill="#FEFFFF" transform="matrix(1.00, 0.00, -0.00, -1.00, 283.1, 418.1)">Y</text><text xml:space="preserve" font-family="MyriadPro-Light,Myriad Pro" font-size="36.0" fill="#FEFFFF" transform="matrix(1.00, 0.00, -0.00, -1.00, 299.1, 418.1)">o</text><text xml:space="preserve" font-family="MyriadPro-Light,Myriad Pro" font-size="36.0" fill="#FEFFFF" transform="matrix(1.00, 0.00, -0.00, -1.00, 318.3, 418.1)">u</text><text xml:space="preserve" font-family="MyriadPro-Light,Myriad Pro" font-size="36.0" fill="#FEFFFF" transform="matrix(1.00, 0.00, -0.00, -1.00, 337.4, 418.1)"> </text><text xml:space="preserve" font-family="MyriadPro-Light,Myriad Pro" font-size="36.0" fill="#FEFFFF" transform="matrix(1.00, 0.00, -0.00, -1.00, 345.3, 418.1)">c</text><text xml:space="preserve" font-family="MyriadPro-Light,Myriad Pro" font-size="36.0" fill="#FEFFFF" transform="matrix(1.00, 0.00, -0.00, -1.00, 361.4, 418.1)">a</text><text xml:space="preserve" font-family="MyriadPro-Light,Myriad Pro" font-size="36.0" fill="#FEFFFF" transform="matrix(1.00, 0.00, -0.00, -1.00, 377.7, 418.1)">n</text><text xml:space="preserve" font-family="MyriadPro-Light,Myriad Pro" font-size="36.0" fill="#FEFFFF" transform="matrix(1.00, 0.00, -0.00, -1.00, 397.0, 418.1)"> </text><text xml:space="preserve" font-family="MyriadPro-Light,Myriad Pro" font-size="36.0" fill="#FEFFFF" transform="matrix(1.00, 0.00, -0.00, -1.00, 404.9, 418.1)">c</text><text xml:space="preserve" font-family="MyriadPro-Light,Myriad Pro" font-size="36.0" fill="#FEFFFF" transform="matrix(1.00, 0.00, -0.00, -1.00, 420.9, 418.1)">l</text><text xml:space="preserve" font-family="MyriadPro-Light,Myriad Pro" font-size="36.0" fill="#FEFFFF" transform="matrix(1.00, 0.00, -0.00, -1.00, 428.6, 418.1)">i</text><text xml:space="preserve" font-family="MyriadPro-Light,Myriad Pro" font-size="36.0" fill="#FEFFFF" transform="matrix(1.00, 0.00, -0.00, -1.00, 436.1, 418.1)">c</text><text xml:space="preserve" font-family="MyriadPro-Light,Myriad Pro" font-size="36.0" fill="#FEFFFF" transform="matrix(1.00, 0.00, -0.00, -1.00, 452.1, 418.1)">k</text><text xml:space="preserve" font-family="MyriadPro-Light,Myriad Pro" font-size="36.0" fill="#FEFFFF" transform="matrix(1.00, 0.00, -0.00, -1.00, 467.4, 418.1)"> </text><text xml:space="preserve" font-family="MyriadPro-Light,Myriad Pro" font-size="36.0" fill="#FEFFFF" transform="matrix(1.00, 0.00, -0.00, -1.00, 475.3, 418.1)">/</text><text xml:space="preserve" font-family="MyriadPro-Light,Myriad Pro" font-size="36.0" fill="#FEFFFF" transform="matrix(1.00, 0.00, -0.00, -1.00, 487.9, 418.1)"> </text><text xml:space="preserve" font-family="MyriadPro-Light,Myriad Pro" font-size="36.0" fill="#FEFFFF" transform="matrix(1.00, 0.00, -0.00, -1.00, 495.8, 418.1)">t</text><text xml:space="preserve" font-family="MyriadPro-Light,Myriad Pro" font-size="36.0" fill="#FEFFFF" transform="matrix(1.00, 0.00, -0.00, -1.00, 506.9, 418.1)">a</text><text xml:space="preserve" font-family="MyriadPro-Light,Myriad Pro" font-size="36.0" fill="#FEFFFF" transform="matrix(1.00, 0.00, -0.00, -1.00, 523.2, 418.1)">p</text><text xml:space="preserve" font-family="MyriadPro-Light,Myriad Pro" font-size="36.0" fill="#FEFFFF" transform="matrix(1.00, 0.00, -0.00, -1.00, 543.1, 418.1)"> </text><text xml:space="preserve" font-family="MyriadPro-Light,Myriad Pro" font-size="36.0" fill="#FEFFFF" transform="matrix(1.00, 0.00, -0.00, -1.00, 551.0, 418.1)">o</text><text xml:space="preserve" font-family="MyriadPro-Light,Myriad Pro" font-size="36.0" fill="#FEFFFF" transform="matrix(1.00, 0.00, -0.00, -1.00, 570.2, 418.1)">n</text><text xml:space="preserve" font-family="MyriadPro-Light,Myriad Pro" font-size="36.0" fill="#FEFFFF" transform="matrix(1.00, 0.00, -0.00, -1.00, 589.5, 418.1)"> </text><text xml:space="preserve" font-family="MyriadPro-Light,Myriad Pro" font-size="36.0" fill="#FEFFFF" transform="matrix(1.00, 0.00, -0.00, -1.00, 597.3, 418.1)">t</text><text xml:space="preserve" font-family="MyriadPro-Light,Myriad Pro" font-size="36.0" fill="#FEFFFF" transform="matrix(1.00, 0.00, -0.00, -1.00, 608.5, 418.1)">h</text><text xml:space="preserve" font-family="MyriadPro-Light,Myriad Pro" font-size="36.0" fill="#FEFFFF" transform="matrix(1.00, 0.00, -0.00, -1.00, 627.8, 418.1)">e</text><text xml:space="preserve" font-family="MyriadPro-Light,Myriad Pro" font-size="36.0" fill="#FEFFFF" transform="matrix(1.00, 0.00, -0.00, -1.00, 645.2, 418.1)"> </text><text xml:space="preserve" font-family="MyriadPro-Light,Myriad Pro" font-size="36.0" fill="#FEFFFF" transform="matrix(1.00, 0.00, -0.00, -1.00, 653.1, 418.1)">s</text><text xml:space="preserve" font-family="MyriadPro-Light,Myriad Pro" font-size="36.0" fill="#FEFFFF" transform="matrix(1.00, 0.00, -0.00, -1.00, 666.5, 418.1)">c</text><text xml:space="preserve" font-family="MyriadPro-Light,Myriad Pro" font-size="36.0" fill="#FEFFFF" transform="matrix(1.00, 0.00, -0.00, -1.00, 682.6, 418.1)">r</text><text xml:space="preserve" font-family="MyriadPro-Light,Myriad Pro" font-size="36.0" fill="#FEFFFF" transform="matrix(1.00, 0.00, -0.00, -1.00, 692.8, 418.1)">e</text><text xml:space="preserve" font-family="MyriadPro-Light,Myriad Pro" font-size="36.0" fill="#FEFFFF" transform="matrix(1.00, 0.00, -0.00, -1.00, 710.3, 418.1)">e</text><text xml:space="preserve" font-family="MyriadPro-Light,Myriad Pro" font-size="36.0" fill="#FEFFFF" transform="matrix(1.00, 0.00, -0.00, -1.00, 727.7, 418.1)">n</text><text xml:space="preserve" font-family="MyriadPro-Light,Myriad Pro" font-size="36.0" fill="#FEFFFF" transform="matrix(1.00, 0.00, -0.00, -1.00, 747.0, 418.1)"> </text><text xml:space="preserve" font-family="MyriadPro-Light,Myriad Pro" font-size="36.0" fill="#FEFFFF" transform="matrix(1.00, 0.00, -0.00, -1.00, 326.4, 375.1)">a</text><text xml:space="preserve" font-family="MyriadPro-Light,Myriad Pro" font-size="36.0" fill="#FEFFFF" transform="matrix(1.00, 0.00, -0.00, -1.00, 342.7, 375.1)">n</text><text xml:space="preserve" font-family="MyriadPro-Light,Myriad Pro" font-size="36.0" fill="#FEFFFF" transform="matrix(1.00, 0.00, -0.00, -1.00, 362.0, 375.1)">d</text><text xml:space="preserve" font-family="MyriadPro-Light,Myriad Pro" font-size="36.0" fill="#FEFFFF" transform="matrix(1.00, 0.00, -0.00, -1.00, 381.6, 375.1)"> </text><text xml:space="preserve" font-family="MyriadPro-Light,Myriad Pro" font-size="36.0" fill="#FEFFFF" transform="matrix(1.00, 0.00, -0.00, -1.00, 389.5, 375.1)">a</text><text xml:space="preserve" font-family="MyriadPro-Light,Myriad Pro" font-size="36.0" fill="#FEFFFF" transform="matrix(1.00, 0.00, -0.00, -1.00, 405.8, 375.1)">l</text><text xml:space="preserve" font-family="MyriadPro-Light,Myriad Pro" font-size="36.0" fill="#FEFFFF" transform="matrix(1.00, 0.00, -0.00, -1.00, 413.5, 375.1)">s</text><text xml:space="preserve" font-family="MyriadPro-Light,Myriad Pro" font-size="36.0" fill="#FEFFFF" transform="matrix(1.00, 0.00, -0.00, -1.00, 426.9, 375.1)">o</text><text xml:space="preserve" font-family="MyriadPro-Light,Myriad Pro" font-size="36.0" fill="#FEFFFF" transform="matrix(1.00, 0.00, -0.00, -1.00, 446.0, 375.1)"> </text><text xml:space="preserve" font-family="MyriadPro-Light,Myriad Pro" font-size="36.0" fill="#FEFFFF" transform="matrix(1.00, 0.00, -0.00, -1.00, 453.9, 375.1)">y</text><text xml:space="preserve" font-family="MyriadPro-Light,Myriad Pro" font-size="36.0" fill="#FEFFFF" transform="matrix(1.00, 0.00, -0.00, -1.00, 469.5, 375.1)">o</text><text xml:space="preserve" font-family="MyriadPro-Light,Myriad Pro" font-size="36.0" fill="#FEFFFF" transform="matrix(1.00, 0.00, -0.00, -1.00, 488.7, 375.1)">u</text><text xml:space="preserve" font-family="MyriadPro-Light,Myriad Pro" font-size="36.0" fill="#FEFFFF" transform="matrix(1.00, 0.00, -0.00, -1.00, 507.8, 375.1)"> </text><text xml:space="preserve" font-family="MyriadPro-Light,Myriad Pro" font-size="36.0" fill="#FEFFFF" transform="matrix(1.00, 0.00, -0.00, -1.00, 515.7, 375.1)">c</text><text xml:space="preserve" font-family="MyriadPro-Light,Myriad Pro" font-size="36.0" fill="#FEFFFF" transform="matrix(1.00, 0.00, -0.00, -1.00, 531.7, 375.1)">a</text><text xml:space="preserve" font-family="MyriadPro-Light,Myriad Pro" font-size="36.0" fill="#FEFFFF" transform="matrix(1.00, 0.00, -0.00, -1.00, 548.1, 375.1)">n</text><text xml:space="preserve" font-family="MyriadPro-Light,Myriad Pro" font-size="36.0" fill="#FEFFFF" transform="matrix(1.00, 0.00, -0.00, -1.00, 567.4, 375.1)"> </text><text xml:space="preserve" font-family="MyriadPro-Light,Myriad Pro" font-size="36.0" fill="#FEFFFF" transform="matrix(1.00, 0.00, -0.00, -1.00, 575.3, 375.1)">u</text><text xml:space="preserve" font-family="MyriadPro-Light,Myriad Pro" font-size="36.0" fill="#FEFFFF" transform="matrix(1.00, 0.00, -0.00, -1.00, 594.4, 375.1)">s</text><text xml:space="preserve" font-family="MyriadPro-Light,Myriad Pro" font-size="36.0" fill="#FEFFFF" transform="matrix(1.00, 0.00, -0.00, -1.00, 607.8, 375.1)">e</text><text xml:space="preserve" font-family="MyriadPro-Light,Myriad Pro" font-size="36.0" fill="#FEFFFF" transform="matrix(1.00, 0.00, -0.00, -1.00, 625.3, 375.1)"> </text><text xml:space="preserve" font-family="MyriadPro-Light,Myriad Pro" font-size="36.0" fill="#FEFFFF" transform="matrix(1.00, 0.00, -0.00, -1.00, 633.1, 375.1)">y</text><text xml:space="preserve" font-family="MyriadPro-Light,Myriad Pro" font-size="36.0" fill="#FEFFFF" transform="matrix(1.00, 0.00, -0.00, -1.00, 648.7, 375.1)">o</text><text xml:space="preserve" font-family="MyriadPro-Light,Myriad Pro" font-size="36.0" fill="#FEFFFF" transform="matrix(1.00, 0.00, -0.00, -1.00, 667.9, 375.1)">u</text><text xml:space="preserve" font-family="MyriadPro-Light,Myriad Pro" font-size="36.0" fill="#FEFFFF" transform="matrix(1.00, 0.00, -0.00, -1.00, 687.0, 375.1)">r</text><text xml:space="preserve" font-family="MyriadPro-Light,Myriad Pro" font-size="36.0" fill="#FEFFFF" transform="matrix(1.00, 0.00, -0.00, -1.00, 697.6, 375.1)"> </text><text xml:space="preserve" font-family="MyriadPro-Light,Myriad Pro" font-size="36.0" fill="#FEFFFF" transform="matrix(1.00, 0.00, -0.00, -1.00, 332.5, 332.1)">s</text><text xml:space="preserve" font-family="MyriadPro-Light,Myriad Pro" font-size="36.0" fill="#FEFFFF" transform="matrix(1.00, 0.00, -0.00, -1.00, 345.9, 332.1)">y</text><text xml:space="preserve" font-family="MyriadPro-Light,Myriad Pro" font-size="36.0" fill="#FEFFFF" transform="matrix(1.00, 0.00, -0.00, -1.00, 361.8, 332.1)">s</text><text xml:space="preserve" font-family="MyriadPro-Light,Myriad Pro" font-size="36.0" fill="#FEFFFF" transform="matrix(1.00, 0.00, -0.00, -1.00, 375.2, 332.1)">t</text><text xml:space="preserve" font-family="MyriadPro-Light,Myriad Pro" font-size="36.0" fill="#FEFFFF" transform="matrix(1.00, 0.00, -0.00, -1.00, 386.1, 332.1)">e</text><text xml:space="preserve" font-family="MyriadPro-Light,Myriad Pro" font-size="36.0" fill="#FEFFFF" transform="matrix(1.00, 0.00, -0.00, -1.00, 403.6, 332.1)">m</text><text xml:space="preserve" font-family="MyriadPro-Light,Myriad Pro" font-size="36.0" fill="#FEFFFF" transform="matrix(1.00, 0.00, -0.00, -1.00, 431.7, 332.1)">’</text><text xml:space="preserve" font-family="MyriadPro-Light,Myriad Pro" font-size="36.0" fill="#FEFFFF" transform="matrix(1.00, 0.00, -0.00, -1.00, 435.9, 332.1)">s</text><text xml:space="preserve" font-family="MyriadPro-Light,Myriad Pro" font-size="36.0" fill="#FEFFFF" transform="matrix(1.00, 0.00, -0.00, -1.00, 449.3, 332.1)"> </text><text xml:space="preserve" font-family="MyriadPro-Light,Myriad Pro" font-size="36.0" fill="#FEFFFF" transform="matrix(1.00, 0.00, -0.00, -1.00, 457.2, 332.1)">s</text><text xml:space="preserve" font-family="MyriadPro-Light,Myriad Pro" font-size="36.0" fill="#FEFFFF" transform="matrix(1.00, 0.00, -0.00, -1.00, 470.6, 332.1)">p</text><text xml:space="preserve" font-family="MyriadPro-Light,Myriad Pro" font-size="36.0" fill="#FEFFFF" transform="matrix(1.00, 0.00, -0.00, -1.00, 490.5, 332.1)">a</text><text xml:space="preserve" font-family="MyriadPro-Light,Myriad Pro" font-size="36.0" fill="#FEFFFF" transform="matrix(1.00, 0.00, -0.00, -1.00, 506.8, 332.1)">c</text><text xml:space="preserve" font-family="MyriadPro-Light,Myriad Pro" font-size="36.0" fill="#FEFFFF" transform="matrix(1.00, 0.00, -0.00, -1.00, 522.9, 332.1)">e</text><text xml:space="preserve" font-family="MyriadPro-Light,Myriad Pro" font-size="36.0" fill="#FEFFFF" transform="matrix(1.00, 0.00, -0.00, -1.00, 540.4, 332.1)"> </text><text xml:space="preserve" font-family="MyriadPro-Light,Myriad Pro" font-size="36.0" fill="#FEFFFF" transform="matrix(1.00, 0.00, -0.00, -1.00, 548.2, 332.1)">k</text><text xml:space="preserve" font-family="MyriadPro-Light,Myriad Pro" font-size="36.0" fill="#FEFFFF" transform="matrix(1.00, 0.00, -0.00, -1.00, 563.9, 332.1)">e</text><text xml:space="preserve" font-family="MyriadPro-Light,Myriad Pro" font-size="36.0" fill="#FEFFFF" transform="matrix(1.00, 0.00, -0.00, -1.00, 581.5, 332.1)">y</text><text xml:space="preserve" font-family="MyriadPro-Light,Myriad Pro" font-size="36.0" fill="#FEFFFF" transform="matrix(1.00, 0.00, -0.00, -1.00, 597.3, 332.1)"> </text><text xml:space="preserve" font-family="MyriadPro-Light,Myriad Pro" font-size="36.0" fill="#FEFFFF" transform="matrix(1.00, 0.00, -0.00, -1.00, 605.2, 332.1)">t</text><text xml:space="preserve" font-family="MyriadPro-Light,Myriad Pro" font-size="36.0" fill="#FEFFFF" transform="matrix(1.00, 0.00, -0.00, -1.00, 616.1, 332.1)">o</text><text xml:space="preserve" font-family="MyriadPro-Light,Myriad Pro" font-size="36.0" fill="#FEFFFF" transform="matrix(1.00, 0.00, -0.00, -1.00, 635.2, 332.1)"> </text><text xml:space="preserve" font-family="MyriadPro-Light,Myriad Pro" font-size="36.0" fill="#FEFFFF" transform="matrix(1.00, 0.00, -0.00, -1.00, 643.1, 332.1)">s</text><text xml:space="preserve" font-family="MyriadPro-Light,Myriad Pro" font-size="36.0" fill="#FEFFFF" transform="matrix(1.00, 0.00, -0.00, -1.00, 656.6, 332.1)">e</text><text xml:space="preserve" font-family="MyriadPro-Light,Myriad Pro" font-size="36.0" fill="#FEFFFF" transform="matrix(1.00, 0.00, -0.00, -1.00, 674.0, 332.1)">e</text><text xml:space="preserve" font-family="MyriadPro-Light,Myriad Pro" font-size="36.0" fill="#FEFFFF" transform="matrix(1.00, 0.00, -0.00, -1.00, 691.5, 332.1)"> </text><text xml:space="preserve" font-family="MyriadPro-Light,Myriad Pro" font-size="36.0" fill="#FEFFFF" transform="matrix(1.00, 0.00, -0.00, -1.00, 408.7, 289.1)">t</text><text xml:space="preserve" font-family="MyriadPro-Light,Myriad Pro" font-size="36.0" fill="#FEFFFF" transform="matrix(1.00, 0.00, -0.00, -1.00, 419.8, 289.1)">h</text><text xml:space="preserve" font-family="MyriadPro-Light,Myriad Pro" font-size="36.0" fill="#FEFFFF" transform="matrix(1.00, 0.00, -0.00, -1.00, 439.1, 289.1)">e</text><text xml:space="preserve" font-family="MyriadPro-Light,Myriad Pro" font-size="36.0" fill="#FEFFFF" transform="matrix(1.00, 0.00, -0.00, -1.00, 456.6, 289.1)"> </text><text xml:space="preserve" font-family="MyriadPro-Light,Myriad Pro" font-size="36.0" fill="#FEFFFF" transform="matrix(1.00, 0.00, -0.00, -1.00, 464.5, 289.1)">n</text><text xml:space="preserve" font-family="MyriadPro-Light,Myriad Pro" font-size="36.0" fill="#FEFFFF" transform="matrix(1.00, 0.00, -0.00, -1.00, 483.8, 289.1)">e</text><text xml:space="preserve" font-family="MyriadPro-Light,Myriad Pro" font-size="36.0" fill="#FEFFFF" transform="matrix(1.00, 0.00, -0.00, -1.00, 501.2, 289.1)">x</text><text xml:space="preserve" font-family="MyriadPro-Light,Myriad Pro" font-size="36.0" fill="#FEFFFF" transform="matrix(1.00, 0.00, -0.00, -1.00, 517.1, 289.1)">t</text><text xml:space="preserve" font-family="MyriadPro-Light,Myriad Pro" font-size="36.0" fill="#FEFFFF" transform="matrix(1.00, 0.00, -0.00, -1.00, 528.3, 289.1)"> </text><text xml:space="preserve" font-family="MyriadPro-Light,Myriad Pro" font-size="36.0" fill="#FEFFFF" transform="matrix(1.00, 0.00, -0.00, -1.00, 536.1, 289.1)">p</text><text xml:space="preserve" font-family="MyriadPro-Light,Myriad Pro" font-size="36.0" fill="#FEFFFF" transform="matrix(1.00, 0.00, -0.00, -1.00, 556.0, 289.1)">a</text><text xml:space="preserve" font-family="MyriadPro-Light,Myriad Pro" font-size="36.0" fill="#FEFFFF" transform="matrix(1.00, 0.00, -0.00, -1.00, 572.4, 289.1)">g</text><text xml:space="preserve" font-family="MyriadPro-Light,Myriad Pro" font-size="36.0" fill="#FEFFFF" transform="matrix(1.00, 0.00, -0.00, -1.00, 591.9, 289.1)">e</text><text xml:space="preserve" font-family="MyriadPro-Light,Myriad Pro" font-size="36.0" fill="#FEFFFF" transform="matrix(1.00, 0.00, -0.00, -1.00, 609.0, 289.1)">.</text><text xml:space="preserve" font-family="MyriadPro-Light,Myriad Pro" font-size="36.0" fill="#FEFFFF" transform="matrix(1.00, 0.00, -0.00, -1.00, 615.3, 289.1)"> </text></g></svg>