<?xml version="1.0" encoding="UTF-8" standalone="no"?><svg xmlns="http://www.w3.org/2000/svg" xmlns:xlink="http://www.w3.org/1999/xlink" clip-rule="evenodd" stroke-miterlimit="10" viewBox="0 0 1920 1080"><desc>SVG generated by Keynote</desc><defs></defs><g transform="matrix(1.00, 0.00, -0.00, -1.00, 0.0, 1080.0)"><path d="M 0.0 1080.0 L 1920.0 1080.0 L 1920.0 0.0 L 0.0 0.0 Z M 0.0 1080.0 " fill="#000000"></path><text xml:space="preserve" font-family="MyriadPro-Light,Myriad Pro" font-size="50.0" fill="#FEFFFF" transform="matrix(1.00, 0.00, -0.00, -1.00, 731.0, 649.0)">T</text><text xml:space="preserve" font-family="MyriadPro-Light,Myriad Pro" font-size="50.0" fill="#FEFFFF" transform="matrix(1.00, 0.00, -0.00, -1.00, 750.9, 649.0)">o</text><text xml:space="preserve" font-family="MyriadPro-Light,Myriad Pro" font-size="50.0" fill="#FEFFFF" transform="matrix(1.00, 0.00, -0.00, -1.00, 777.5, 649.0)"> </text><text xml:space="preserve" font-family="MyriadPro-Light,Myriad Pro" font-size="50.0" fill="#FEFFFF" transform="matrix(1.00, 0.00, -0.00, -1.00, 788.5, 649.0)">c</text><text xml:space="preserve" font-family="MyriadPro-Light,Myriad Pro" font-size="50.0" fill="#FEFFFF" transform="matrix(1.00, 0.00, -0.00, -1.00, 810.8, 649.0)">o</text><text xml:space="preserve" font-family="MyriadPro-Light,Myriad Pro" font-size="50.0" fill="#FEFFFF" transform="matrix(1.00, 0.00, -0.00, -1.00, 837.4, 649.0)">n</text><text xml:space="preserve" font-family="MyriadPro-Light,Myriad Pro" font-size="50.0" fill="#FEFFFF" transform="matrix(1.00, 0.00, -0.00, -1.00, 864.2, 649.0)">t</text><text xml:space="preserve" font-family="MyriadPro-Light,Myriad Pro" font-size="50.0" fill="#FEFFFF" transform="matrix(1.00, 0.00, -0.00, -1.00, 879.6, 649.0)">r</text><text xml:space="preserve" font-family="MyriadPro-Light,Myriad Pro" font-size="50.0" fill="#FEFFFF" transform="matrix(1.00, 0.00, -0.00, -1.00, 893.8, 649.0)">o</text><text xml:space="preserve" font-family="MyriadPro-Light,Myriad Pro" font-size="50.0" fill="#FEFFFF" transform="matrix(1.00, 0.00, -0.00, -1.00, 920.4, 649.0)">l</text><text xml:space="preserve" font-family="MyriadPro-Light,Myriad Pro" font-size="50.0" fill="#FEFFFF" transform="matrix(1.00, 0.00, -0.00, -1.00, 931.0, 649.0)"> </text><text xml:space="preserve" font-family="MyriadPro-Light,Myriad Pro" font-size="50.0" fill="#FEFFFF" transform="matrix(1.00, 0.00, -0.00, -1.00, 942.0, 649.0)">t</text><text xml:space="preserve" font-family="MyriadPro-Light,Myriad Pro" font-size="50.0" fill="#FEFFFF" transform="matrix(1.00, 0.00, -0.00, -1.00, 957.4, 649.0)">h</text><text xml:space="preserve" font-family="MyriadPro-Light,Myriad Pro" font-size="50.0" fill="#FEFFFF" transform="matrix(1.00, 0.00, -0.00, -1.00, 984.2, 649.0)">e</text><text xml:space="preserve" font-family="MyriadPro-Light,Myriad Pro" font-size="50.0" fill="#FEFFFF" transform="matrix(1.00, 0.00, -0.00, -1.00, 1008.5, 649.0)"> </text><text xml:space="preserve" font-family="MyriadPro-Light,Myriad Pro" font-size="50.0" fill="#FEFFFF" transform="matrix(1.00, 0.00, -0.00, -1.00, 1019.4, 649.0)">k</text><text xml:space="preserve" font-family="MyriadPro-Light,Myriad Pro" font-size="50.0" fill="#FEFFFF" transform="matrix(1.00, 0.00, -0.00, -1.00, 1041.1, 649.0)">e</text><text xml:space="preserve" font-family="MyriadPro-Light,Myriad Pro" font-size="50.0" fill="#FEFFFF" transform="matrix(1.00, 0.00, -0.00, -1.00, 1065.6, 649.0)">y</text><text xml:space="preserve" font-family="MyriadPro-Light,Myriad Pro" font-size="50.0" fill="#FEFFFF" transform="matrix(1.00, 0.00, -0.00, -1.00, 1087.6, 649.0)">n</text><text xml:space="preserve" font-family="MyriadPro-Light,Myriad Pro" font-size="50.0" fill="#FEFFFF" transform="matrix(1.00, 0.00, -0.00, -1.00, 1114.4, 649.0)">o</text><text xml:space="preserve" font-family="MyriadPro-Light,Myriad Pro" font-size="50.0" fill="#FEFFFF" transform="matrix(1.00, 0.00, -0.00, -1.00, 1141.0, 649.0)">t</text><text xml:space="preserve" font-family="MyriadPro-Light,Myriad Pro" font-size="50.0" fill="#FEFFFF" transform="matrix(1.00, 0.00, -0.00, -1.00, 1156.1, 649.0)">e</text><text xml:space="preserve" font-family="MyriadPro-Light,Myriad Pro" font-size="50.0" fill="#FEFFFF" transform="matrix(1.00, 0.00, -0.00, -1.00, 1180.4, 649.0)">:</text><text xml:space="preserve" font-family="MyriadPro-Light,Myriad Pro" font-size="50.0" fill="#FEFFFF" transform="matrix(1.00, 0.00, -0.00, -1.00, 1189.1, 649.0)"> </text><text xml:space="preserve" font-family="MyriadPro-Light,Myriad Pro" font-size="50.0" fill="#FEFFFF" transform="matrix(1.00, 0.00, -0.00, -1.00, 633.6, 588.0)"> </text><text xml:space="preserve" font-family="MyriadPro-Light,Myriad Pro" font-size="50.0" fill="#FEFFFF" transform="matrix(1.00, 0.00, -0.00, -1.00, 642.0, 588.0)">Y</text><text xml:space="preserve" font-family="MyriadPro-Light,Myriad Pro" font-size="50.0" fill="#FEFFFF" transform="matrix(1.00, 0.00, -0.00, -1.00, 664.4, 588.0)">o</text><text xml:space="preserve" font-family="MyriadPro-Light,Myriad Pro" font-size="50.0" fill="#FEFFFF" transform="matrix(1.00, 0.00, -0.00, -1.00, 691.0, 588.0)">u</text><text xml:space="preserve" font-family="MyriadPro-Light,Myriad Pro" font-size="50.0" fill="#FEFFFF" transform="matrix(1.00, 0.00, -0.00, -1.00, 717.5, 588.0)"> </text><text xml:space="preserve" font-family="MyriadPro-Light,Myriad Pro" font-size="50.0" fill="#FEFFFF" transform="matrix(1.00, 0.00, -0.00, -1.00, 728.5, 588.0)">c</text><text xml:space="preserve" font-family="MyriadPro-Light,Myriad Pro" font-size="50.0" fill="#FEFFFF" transform="matrix(1.00, 0.00, -0.00, -1.00, 750.8, 588.0)">a</text><text xml:space="preserve" font-family="MyriadPro-Light,Myriad Pro" font-size="50.0" fill="#FEFFFF" transform="matrix(1.00, 0.00, -0.00, -1.00, 773.5, 588.0)">n</text><text xml:space="preserve" font-family="MyriadPro-Light,Myriad Pro" font-size="50.0" fill="#FEFFFF" transform="matrix(1.00, 0.00, -0.00, -1.00, 800.3, 588.0)"> </text><text xml:space="preserve" font-family="MyriadPro-Light,Myriad Pro" font-size="50.0" fill="#FEFFFF" transform="matrix(1.00, 0.00, -0.00, -1.00, 811.2, 588.0)">c</text><text xml:space="preserve" font-family="MyriadPro-Light,Myriad Pro" font-size="50.0" fill="#FEFFFF" transform="matrix(1.00, 0.00, -0.00, -1.00, 833.5, 588.0)">l</text><text xml:space="preserve" font-family="MyriadPro-Light,Myriad Pro" font-size="50.0" fill="#FEFFFF" transform="matrix(1.00, 0.00, -0.00, -1.00, 844.1, 588.0)">i</text><text xml:space="preserve" font-family="MyriadPro-Light,Myriad Pro" font-size="50.0" fill="#FEFFFF" transform="matrix(1.00, 0.00, -0.00, -1.00, 854.6, 588.0)">c</text><text xml:space="preserve" font-family="MyriadPro-Light,Myriad Pro" font-size="50.0" fill="#FEFFFF" transform="matrix(1.00, 0.00, -0.00, -1.00, 876.9, 588.0)">k</text><text xml:space="preserve" font-family="MyriadPro-Light,Myriad Pro" font-size="50.0" fill="#FEFFFF" transform="matrix(1.00, 0.00, -0.00, -1.00, 898.0, 588.0)"> </text><text xml:space="preserve" font-family="MyriadPro-Light,Myriad Pro" font-size="50.0" fill="#FEFFFF" transform="matrix(1.00, 0.00, -0.00, -1.00, 909.0, 588.0)">/</text><text xml:space="preserve" font-family="MyriadPro-Light,Myriad Pro" font-size="50.0" fill="#FEFFFF" transform="matrix(1.00, 0.00, -0.00, -1.00, 926.5, 588.0)"> </text><text xml:space="preserve" font-family="MyriadPro-Light,Myriad Pro" font-size="50.0" fill="#FEFFFF" transform="matrix(1.00, 0.00, -0.00, -1.00, 937.5, 588.0)">t</text><text xml:space="preserve" font-family="MyriadPro-Light,Myriad Pro" font-size="50.0" fill="#FEFFFF" transform="matrix(1.00, 0.00, -0.00, -1.00, 952.9, 588.0)">a</text><text xml:space="preserve" font-family="MyriadPro-Light,Myriad Pro" font-size="50.0" fill="#FEFFFF" transform="matrix(1.00, 0.00, -0.00, -1.00, 975.6, 588.0)">p</text><text xml:space="preserve" font-family="MyriadPro-Light,Myriad Pro" font-size="50.0" fill="#FEFFFF" transform="matrix(1.00, 0.00, -0.00, -1.00, 1003.2, 588.0)"> </text><text xml:space="preserve" font-family="MyriadPro-Light,Myriad Pro" font-size="50.0" fill="#FEFFFF" transform="matrix(1.00, 0.00, -0.00, -1.00, 1014.2, 588.0)">o</text><text xml:space="preserve" font-family="MyriadPro-Light,Myriad Pro" font-size="50.0" fill="#FEFFFF" transform="matrix(1.00, 0.00, -0.00, -1.00, 1040.8, 588.0)">n</text><text xml:space="preserve" font-family="MyriadPro-Light,Myriad Pro" font-size="50.0" fill="#FEFFFF" transform="matrix(1.00, 0.00, -0.00, -1.00, 1067.6, 588.0)"> </text><text xml:space="preserve" font-family="MyriadPro-Light,Myriad Pro" font-size="50.0" fill="#FEFFFF" transform="matrix(1.00, 0.00, -0.00, -1.00, 1078.5, 588.0)">t</text><text xml:space="preserve" font-family="MyriadPro-Light,Myriad Pro" font-size="50.0" fill="#FEFFFF" transform="matrix(1.00, 0.00, -0.00, -1.00, 1094.0, 588.0)">h</text><text xml:space="preserve" font-family="MyriadPro-Light,Myriad Pro" font-size="50.0" fill="#FEFFFF" transform="matrix(1.00, 0.00, -0.00, -1.00, 1120.8, 588.0)">e</text><text xml:space="preserve" font-family="MyriadPro-Light,Myriad Pro" font-size="50.0" fill="#FEFFFF" transform="matrix(1.00, 0.00, -0.00, -1.00, 1145.0, 588.0)"> </text><text xml:space="preserve" font-family="MyriadPro-Light,Myriad Pro" font-size="50.0" fill="#FEFFFF" transform="matrix(1.00, 0.00, -0.00, -1.00, 1156.0, 588.0)">s</text><text xml:space="preserve" font-family="MyriadPro-Light,Myriad Pro" font-size="50.0" fill="#FEFFFF" transform="matrix(1.00, 0.00, -0.00, -1.00, 1174.6, 588.0)">c</text><text xml:space="preserve" font-family="MyriadPro-Light,Myriad Pro" font-size="50.0" fill="#FEFFFF" transform="matrix(1.00, 0.00, -0.00, -1.00, 1196.9, 588.0)">r</text><text xml:space="preserve" font-family="MyriadPro-Light,Myriad Pro" font-size="50.0" fill="#FEFFFF" transform="matrix(1.00, 0.00, -0.00, -1.00, 1211.1, 588.0)">e</text><text xml:space="preserve" font-family="MyriadPro-Light,Myriad Pro" font-size="50.0" fill="#FEFFFF" transform="matrix(1.00, 0.00, -0.00, -1.00, 1235.4, 588.0)">e</text><text xml:space="preserve" font-family="MyriadPro-Light,Myriad Pro" font-size="50.0" fill="#FEFFFF" transform="matrix(1.00, 0.00, -0.00, -1.00, 1259.6, 588.0)">n</text><text xml:space="preserve" font-family="MyriadPro-Light,Myriad Pro" font-size="50.0" fill="#FEFFFF" transform="matrix(1.00, 0.00, -0.00, -1.00, 1286.4, 588.0)"> </text><text xml:space="preserve" font-family="MyriadPro-Light,Myriad Pro" font-size="50.0" fill="#FEFFFF" transform="matrix(1.00, 0.00, -0.00, -1.00, 702.2, 527.0)">a</text><text xml:space="preserve" font-family="MyriadPro-Light,Myriad Pro" font-size="50.0" fill="#FEFFFF" transform="matrix(1.00, 0.00, -0.00, -1.00, 724.9, 527.0)">n</text><text xml:space="preserve" font-family="MyriadPro-Light,Myriad Pro" font-size="50.0" fill="#FEFFFF" transform="matrix(1.00, 0.00, -0.00, -1.00, 751.7, 527.0)">d</text><text xml:space="preserve" font-family="MyriadPro-Light,Myriad Pro" font-size="50.0" fill="#FEFFFF" transform="matrix(1.00, 0.00, -0.00, -1.00, 778.9, 527.0)"> </text><text xml:space="preserve" font-family="MyriadPro-Light,Myriad Pro" font-size="50.0" fill="#FEFFFF" transform="matrix(1.00, 0.00, -0.00, -1.00, 789.9, 527.0)">a</text><text xml:space="preserve" font-family="MyriadPro-Light,Myriad Pro" font-size="50.0" fill="#FEFFFF" transform="matrix(1.00, 0.00, -0.00, -1.00, 812.6, 527.0)">l</text><text xml:space="preserve" font-family="MyriadPro-Light,Myriad Pro" font-size="50.0" fill="#FEFFFF" transform="matrix(1.00, 0.00, -0.00, -1.00, 823.2, 527.0)">s</text><text xml:space="preserve" font-family="MyriadPro-Light,Myriad Pro" font-size="50.0" fill="#FEFFFF" transform="matrix(1.00, 0.00, -0.00, -1.00, 841.8, 527.0)">o</text><text xml:space="preserve" font-family="MyriadPro-Light,Myriad Pro" font-size="50.0" fill="#FEFFFF" transform="matrix(1.00, 0.00, -0.00, -1.00, 868.4, 527.0)"> </text><text xml:space="preserve" font-family="MyriadPro-Light,Myriad Pro" font-size="50.0" fill="#FEFFFF" transform="matrix(1.00, 0.00, -0.00, -1.00, 879.4, 527.0)">y</text><text xml:space="preserve" font-family="MyriadPro-Light,Myriad Pro" font-size="50.0" fill="#FEFFFF" transform="matrix(1.00, 0.00, -0.00, -1.00, 901.0, 527.0)">o</text><text xml:space="preserve" font-family="MyriadPro-Light,Myriad Pro" font-size="50.0" fill="#FEFFFF" transform="matrix(1.00, 0.00, -0.00, -1.00, 927.6, 527.0)">u</text><text xml:space="preserve" font-family="MyriadPro-Light,Myriad Pro" font-size="50.0" fill="#FEFFFF" transform="matrix(1.00, 0.00, -0.00, -1.00, 954.2, 527.0)"> </text><text xml:space="preserve" font-family="MyriadPro-Light,Myriad Pro" font-size="50.0" fill="#FEFFFF" transform="matrix(1.00, 0.00, -0.00, -1.00, 965.1, 527.0)">c</text><text xml:space="preserve" font-family="MyriadPro-Light,Myriad Pro" font-size="50.0" fill="#FEFFFF" transform="matrix(1.00, 0.00, -0.00, -1.00, 987.4, 527.0)">a</text><text xml:space="preserve" font-family="MyriadPro-Light,Myriad Pro" font-size="50.0" fill="#FEFFFF" transform="matrix(1.00, 0.00, -0.00, -1.00, 1010.1, 527.0)">n</text><text xml:space="preserve" font-family="MyriadPro-Light,Myriad Pro" font-size="50.0" fill="#FEFFFF" transform="matrix(1.00, 0.00, -0.00, -1.00, 1036.9, 527.0)"> </text><text xml:space="preserve" font-family="MyriadPro-Light,Myriad Pro" font-size="50.0" fill="#FEFFFF" transform="matrix(1.00, 0.00, -0.00, -1.00, 1047.9, 527.0)">u</text><text xml:space="preserve" font-family="MyriadPro-Light,Myriad Pro" font-size="50.0" fill="#FEFFFF" transform="matrix(1.00, 0.00, -0.00, -1.00, 1074.4, 527.0)">s</text><text xml:space="preserve" font-family="MyriadPro-Light,Myriad Pro" font-size="50.0" fill="#FEFFFF" transform="matrix(1.00, 0.00, -0.00, -1.00, 1093.1, 527.0)">e</text><text xml:space="preserve" font-family="MyriadPro-Light,Myriad Pro" font-size="50.0" fill="#FEFFFF" transform="matrix(1.00, 0.00, -0.00, -1.00, 1117.3, 527.0)"> </text><text xml:space="preserve" font-family="MyriadPro-Light,Myriad Pro" font-size="50.0" fill="#FEFFFF" transform="matrix(1.00, 0.00, -0.00, -1.00, 1128.3, 527.0)">y</text><text xml:space="preserve" font-family="MyriadPro-Light,Myriad Pro" font-size="50.0" fill="#FEFFFF" transform="matrix(1.00, 0.00, -0.00, -1.00, 1149.9, 527.0)">o</text><text xml:space="preserve" font-family="MyriadPro-Light,Myriad Pro" font-size="50.0" fill="#FEFFFF" transform="matrix(1.00, 0.00, -0.00, -1.00, 1176.5, 527.0)">u</text><text xml:space="preserve" font-family="MyriadPro-Light,Myriad Pro" font-size="50.0" fill="#FEFFFF" transform="matrix(1.00, 0.00, -0.00, -1.00, 1203.1, 527.0)">r</text><text xml:space="preserve" font-family="MyriadPro-Light,Myriad Pro" font-size="50.0" fill="#FEFFFF" transform="matrix(1.00, 0.00, -0.00, -1.00, 1217.8, 527.0)"> </text><text xml:space="preserve" font-family="MyriadPro-Light,Myriad Pro" font-size="50.0" fill="#FEFFFF" transform="matrix(1.00, 0.00, -0.00, -1.00, 710.7, 466.0)">s</text><text xml:space="preserve" font-family="MyriadPro-Light,Myriad Pro" font-size="50.0" fill="#FEFFFF" transform="matrix(1.00, 0.00, -0.00, -1.00, 729.4, 466.0)">y</text><text xml:space="preserve" font-family="MyriadPro-Light,Myriad Pro" font-size="50.0" fill="#FEFFFF" transform="matrix(1.00, 0.00, -0.00, -1.00, 751.4, 466.0)">s</text><text xml:space="preserve" font-family="MyriadPro-Light,Myriad Pro" font-size="50.0" fill="#FEFFFF" transform="matrix(1.00, 0.00, -0.00, -1.00, 770.0, 466.0)">t</text><text xml:space="preserve" font-family="MyriadPro-Light,Myriad Pro" font-size="50.0" fill="#FEFFFF" transform="matrix(1.00, 0.00, -0.00, -1.00, 785.2, 466.0)">e</text><text xml:space="preserve" font-family="MyriadPro-Light,Myriad Pro" font-size="50.0" fill="#FEFFFF" transform="matrix(1.00, 0.00, -0.00, -1.00, 809.4, 466.0)">m</text><text xml:space="preserve" font-family="MyriadPro-Light,Myriad Pro" font-size="50.0" fill="#FEFFFF" transform="matrix(1.00, 0.00, -0.00, -1.00, 848.5, 466.0)">’</text><text xml:space="preserve" font-family="MyriadPro-Light,Myriad Pro" font-size="50.0" fill="#FEFFFF" transform="matrix(1.00, 0.00, -0.00, -1.00, 854.3, 466.0)">s</text><text xml:space="preserve" font-family="MyriadPro-Light,Myriad Pro" font-size="50.0" fill="#FEFFFF" transform="matrix(1.00, 0.00, -0.00, -1.00, 872.9, 466.0)"> </text><text xml:space="preserve" font-family="MyriadPro-Light,Myriad Pro" font-size="50.0" fill="#FEFFFF" transform="matrix(1.00, 0.00, -0.00, -1.00, 883.9, 466.0)">s</text><text xml:space="preserve" font-family="MyriadPro-Light,Myriad Pro" font-size="50.0" fill="#FEFFFF" transform="matrix(1.00, 0.00, -0.00, -1.00, 902.5, 466.0)">p</text><text xml:space="preserve" font-family="MyriadPro-Light,Myriad Pro" font-size="50.0" fill="#FEFFFF" transform="matrix(1.00, 0.00, -0.00, -1.00, 930.1, 466.0)">a</text><text xml:space="preserve" font-family="MyriadPro-Light,Myriad Pro" font-size="50.0" fill="#FEFFFF" transform="matrix(1.00, 0.00, -0.00, -1.00, 952.8, 466.0)">c</text><text xml:space="preserve" font-family="MyriadPro-Light,Myriad Pro" font-size="50.0" fill="#FEFFFF" transform="matrix(1.00, 0.00, -0.00, -1.00, 975.1, 466.0)">e</text><text xml:space="preserve" font-family="MyriadPro-Light,Myriad Pro" font-size="50.0" fill="#FEFFFF" transform="matrix(1.00, 0.00, -0.00, -1.00, 999.4, 466.0)"> </text><text xml:space="preserve" font-family="MyriadPro-Light,Myriad Pro" font-size="50.0" fill="#FEFFFF" transform="matrix(1.00, 0.00, -0.00, -1.00, 1010.3, 466.0)">k</text><text xml:space="preserve" font-family="MyriadPro-Light,Myriad Pro" font-size="50.0" fill="#FEFFFF" transform="matrix(1.00, 0.00, -0.00, -1.00, 1032.0, 466.0)">e</text><text xml:space="preserve" font-family="MyriadPro-Light,Myriad Pro" font-size="50.0" fill="#FEFFFF" transform="matrix(1.00, 0.00, -0.00, -1.00, 1056.5, 466.0)">y</text><text xml:space="preserve" font-family="MyriadPro-Light,Myriad Pro" font-size="50.0" fill="#FEFFFF" transform="matrix(1.00, 0.00, -0.00, -1.00, 1078.5, 466.0)"> </text><text xml:space="preserve" font-family="MyriadPro-Light,Myriad Pro" font-size="50.0" fill="#FEFFFF" transform="matrix(1.00, 0.00, -0.00, -1.00, 1089.4, 466.0)">t</text><text xml:space="preserve" font-family="MyriadPro-Light,Myriad Pro" font-size="50.0" fill="#FEFFFF" transform="matrix(1.00, 0.00, -0.00, -1.00, 1104.6, 466.0)">o</text><text xml:space="preserve" font-family="MyriadPro-Light,Myriad Pro" font-size="50.0" fill="#FEFFFF" transform="matrix(1.00, 0.00, -0.00, -1.00, 1131.2, 466.0)"> </text><text xml:space="preserve" font-family="MyriadPro-Light,Myriad Pro" font-size="50.0" fill="#FEFFFF" transform="matrix(1.00, 0.00, -0.00, -1.00, 1142.1, 466.0)">s</text><text xml:space="preserve" font-family="MyriadPro-Light,Myriad Pro" font-size="50.0" fill="#FEFFFF" transform="matrix(1.00, 0.00, -0.00, -1.00, 1160.8, 466.0)">e</text><text xml:space="preserve" font-family="MyriadPro-Light,Myriad Pro" font-size="50.0" fill="#FEFFFF" transform="matrix(1.00, 0.00, -0.00, -1.00, 1185.0, 466.0)">e</text><text xml:space="preserve" font-family="MyriadPro-Light,Myriad Pro" font-size="50.0" fill="#FEFFFF" transform="matrix(1.00, 0.00, -0.00, -1.00, 1209.3, 466.0)"> </text><text xml:space="preserve" font-family="MyriadPro-Light,Myriad Pro" font-size="50.0" fill="#FEFFFF" transform="matrix(1.00, 0.00, -0.00, -1.00, 816.5, 405.0)">t</text><text xml:space="preserve" font-family="MyriadPro-Light,Myriad Pro" font-size="50.0" fill="#FEFFFF" transform="matrix(1.00, 0.00, -0.00, -1.00, 832.0, 405.0)">h</text><text xml:space="preserve" font-family="MyriadPro-Light,Myriad Pro" font-size="50.0" fill="#FEFFFF" transform="matrix(1.00, 0.00, -0.00, -1.00, 858.8, 405.0)">e</text><text xml:space="preserve" font-family="MyriadPro-Light,Myriad Pro" font-size="50.0" fill="#FEFFFF" transform="matrix(1.00, 0.00, -0.00, -1.00, 883.0, 405.0)"> </text><text xml:space="preserve" font-family="MyriadPro-Light,Myriad Pro" font-size="50.0" fill="#FEFFFF" transform="matrix(1.00, 0.00, -0.00, -1.00, 894.0, 405.0)">n</text><text xml:space="preserve" font-family="MyriadPro-Light,Myriad Pro" font-size="50.0" fill="#FEFFFF" transform="matrix(1.00, 0.00, -0.00, -1.00, 920.8, 405.0)">e</text><text xml:space="preserve" font-family="MyriadPro-Light,Myriad Pro" font-size="50.0" fill="#FEFFFF" transform="matrix(1.00, 0.00, -0.00, -1.00, 945.0, 405.0)">x</text><text xml:space="preserve" font-family="MyriadPro-Light,Myriad Pro" font-size="50.0" fill="#FEFFFF" transform="matrix(1.00, 0.00, -0.00, -1.00, 967.1, 405.0)">t</text><text xml:space="preserve" font-family="MyriadPro-Light,Myriad Pro" font-size="50.0" fill="#FEFFFF" transform="matrix(1.00, 0.00, -0.00, -1.00, 982.6, 405.0)"> </text><text xml:space="preserve" font-family="MyriadPro-Light,Myriad Pro" font-size="50.0" fill="#FEFFFF" transform="matrix(1.00, 0.00, -0.00, -1.00, 993.5, 405.0)">p</text><text xml:space="preserve" font-family="MyriadPro-Light,Myriad Pro" font-size="50.0" fill="#FEFFFF" transform="matrix(1.00, 0.00, -0.00, -1.00, 1021.1, 405.0)">a</text><text xml:space="preserve" font-family="MyriadPro-Light,Myriad Pro" font-size="50.0" fill="#FEFFFF" transform="matrix(1.00, 0.00, -0.00, -1.00, 1043.8, 405.0)">g</text><text xml:space="preserve" font-family="MyriadPro-Light,Myriad Pro" font-size="50.0" fill="#FEFFFF" transform="matrix(1.00, 0.00, -0.00, -1.00, 1071.0, 405.0)">e</text><text xml:space="preserve" font-family="MyriadPro-Light,Myriad Pro" font-size="50.0" fill="#FEFFFF" transform="matrix(1.00, 0.00, -0.00, -1.00, 1094.8, 405.0)">.</text><text xml:space="preserve" font-family="MyriadPro-Light,Myriad Pro" font-size="50.0" fill="#FEFFFF" transform="matrix(1.00, 0.00, -0.00, -1.00, 1103.5, 405.0)"> </text><text xml:space="preserve" font-family="Helvetica-Light,Helvetica" font-size="30.0" fill="#FEFFFF" transform="matrix(1.00, 0.00, -0.00, -1.00, 74.3, 916.4)">B</text><text xml:space="preserve" font-family="Helvetica-Light,Helvetica" font-size="30.0" fill="#FEFFFF" transform="matrix(1.00, 0.00, -0.00, -1.00, 94.3, 916.4)">y</text><text xml:space="preserve" font-family="Helvetica-Light,Helvetica" font-size="30.0" fill="#FEFFFF" transform="matrix(1.00, 0.00, -0.00, -1.00, 109.3, 916.4)"> </text><text xml:space="preserve" font-family="Helvetica-Light,Helvetica" font-size="30.0" fill="#FEFFFF" transform="matrix(1.00, 0.00, -0.00, -1.00, 117.6, 916.4)">m</text><text xml:space="preserve" font-family="Helvetica-Light,Helvetica" font-size="30.0" fill="#FEFFFF" transform="matrix(1.00, 0.00, -0.00, -1.00, 142.6, 916.4)">o</text><text xml:space="preserve" font-family="Helvetica-Light,Helvetica" font-size="30.0" fill="#FEFFFF" transform="matrix(1.00, 0.00, -0.00, -1.00, 159.3, 916.4)">v</text><text xml:space="preserve" font-family="Helvetica-Light,Helvetica" font-size="30.0" fill="#FEFFFF" transform="matrix(1.00, 0.00, -0.00, -1.00, 174.3, 916.4)">i</text><text xml:space="preserve" font-family="Helvetica-Light,Helvetica" font-size="30.0" fill="#FEFFFF" transform="matrix(1.00, 0.00, -0.00, -1.00, 181.0, 916.4)">n</text><text xml:space="preserve" font-family="Helvetica-Light,Helvetica" font-size="30.0" fill="#FEFFFF" transform="matrix(1.00, 0.00, -0.00, -1.00, 197.6, 916.4)">g</text><text xml:space="preserve" font-family="Helvetica-Light,Helvetica" font-size="30.0" fill="#FEFFFF" transform="matrix(1.00, 0.00, -0.00, -1.00, 216.0, 916.4)"> </text><text xml:space="preserve" font-family="Helvetica-Light,Helvetica" font-size="30.0" fill="#FEFFFF" transform="matrix(1.00, 0.00, -0.00, -1.00, 224.3, 916.4)">y</text><text xml:space="preserve" font-family="Helvetica-Light,Helvetica" font-size="30.0" fill="#FEFFFF" transform="matrix(1.00, 0.00, -0.00, -1.00, 239.3, 916.4)">o</text><text xml:space="preserve" font-family="Helvetica-Light,Helvetica" font-size="30.0" fill="#FEFFFF" transform="matrix(1.00, 0.00, -0.00, -1.00, 256.0, 916.4)">u</text><text xml:space="preserve" font-family="Helvetica-Light,Helvetica" font-size="30.0" fill="#FEFFFF" transform="matrix(1.00, 0.00, -0.00, -1.00, 272.7, 916.4)">r</text><text xml:space="preserve" font-family="Helvetica-Light,Helvetica" font-size="30.0" fill="#FEFFFF" transform="matrix(1.00, 0.00, -0.00, -1.00, 282.7, 916.4)"> </text><text xml:space="preserve" font-family="Helvetica-Light,Helvetica" font-size="30.0" fill="#FEFFFF" transform="matrix(1.00, 0.00, -0.00, -1.00, 74.3, 880.4)">m</text><text xml:space="preserve" font-family="Helvetica-Light,Helvetica" font-size="30.0" fill="#FEFFFF" transform="matrix(1.00, 0.00, -0.00, -1.00, 99.3, 880.4)">o</text><text xml:space="preserve" font-family="Helvetica-Light,Helvetica" font-size="30.0" fill="#FEFFFF" transform="matrix(1.00, 0.00, -0.00, -1.00, 115.9, 880.4)">u</text><text xml:space="preserve" font-family="Helvetica-Light,Helvetica" font-size="30.0" fill="#FEFFFF" transform="matrix(1.00, 0.00, -0.00, -1.00, 132.6, 880.4)">s</text><text xml:space="preserve" font-family="Helvetica-Light,Helvetica" font-size="30.0" fill="#FEFFFF" transform="matrix(1.00, 0.00, -0.00, -1.00, 147.6, 880.4)">e</text><text xml:space="preserve" font-family="Helvetica-Light,Helvetica" font-size="30.0" fill="#FEFFFF" transform="matrix(1.00, 0.00, -0.00, -1.00, 164.3, 880.4)"> </text><text xml:space="preserve" font-family="Helvetica-Light,Helvetica" font-size="30.0" fill="#FEFFFF" transform="matrix(1.00, 0.00, -0.00, -1.00, 172.6, 880.4)">t</text><text xml:space="preserve" font-family="Helvetica-Light,Helvetica" font-size="30.0" fill="#FEFFFF" transform="matrix(1.00, 0.00, -0.00, -1.00, 181.0, 880.4)">o</text><text xml:space="preserve" font-family="Helvetica-Light,Helvetica" font-size="30.0" fill="#FEFFFF" transform="matrix(1.00, 0.00, -0.00, -1.00, 197.7, 880.4)"> </text><text xml:space="preserve" font-family="Helvetica-Light,Helvetica" font-size="30.0" fill="#FEFFFF" transform="matrix(1.00, 0.00, -0.00, -1.00, 206.0, 880.4)">t</text><text xml:space="preserve" font-family="Helvetica-Light,Helvetica" font-size="30.0" fill="#FEFFFF" transform="matrix(1.00, 0.00, -0.00, -1.00, 214.3, 880.4)">h</text><text xml:space="preserve" font-family="Helvetica-Light,Helvetica" font-size="30.0" fill="#FEFFFF" transform="matrix(1.00, 0.00, -0.00, -1.00, 231.0, 880.4)">e</text><text xml:space="preserve" font-family="Helvetica-Light,Helvetica" font-size="30.0" fill="#FEFFFF" transform="matrix(1.00, 0.00, -0.00, -1.00, 247.7, 880.4)"> </text><text xml:space="preserve" font-family="Helvetica-Light,Helvetica" font-size="30.0" fill="#FEFFFF" transform="matrix(1.00, 0.00, -0.00, -1.00, 256.0, 880.4)">l</text><text xml:space="preserve" font-family="Helvetica-Light,Helvetica" font-size="30.0" fill="#FEFFFF" transform="matrix(1.00, 0.00, -0.00, -1.00, 262.7, 880.4)">e</text><text xml:space="preserve" font-family="Helvetica-Light,Helvetica" font-size="30.0" fill="#FEFFFF" transform="matrix(1.00, 0.00, -0.00, -1.00, 279.4, 880.4)">f</text><text xml:space="preserve" font-family="Helvetica-Light,Helvetica" font-size="30.0" fill="#FEFFFF" transform="matrix(1.00, 0.00, -0.00, -1.00, 287.7, 880.4)">t</text><text xml:space="preserve" font-family="Helvetica-Light,Helvetica" font-size="30.0" fill="#FEFFFF" transform="matrix(1.00, 0.00, -0.00, -1.00, 296.1, 880.4)"> </text><text xml:space="preserve" font-family="Helvetica-Light,Helvetica" font-size="30.0" fill="#FEFFFF" transform="matrix(1.00, 0.00, -0.00, -1.00, 304.4, 880.4)">e</text><text xml:space="preserve" font-family="Helvetica-Light,Helvetica" font-size="30.0" fill="#FEFFFF" transform="matrix(1.00, 0.00, -0.00, -1.00, 321.1, 880.4)">d</text><text xml:space="preserve" font-family="Helvetica-Light,Helvetica" font-size="30.0" fill="#FEFFFF" transform="matrix(1.00, 0.00, -0.00, -1.00, 339.4, 880.4)">g</text><text xml:space="preserve" font-family="Helvetica-Light,Helvetica" font-size="30.0" fill="#FEFFFF" transform="matrix(1.00, 0.00, -0.00, -1.00, 357.7, 880.4)">e</text><text xml:space="preserve" font-family="Helvetica-Light,Helvetica" font-size="30.0" fill="#FEFFFF" transform="matrix(1.00, 0.00, -0.00, -1.00, 374.4, 880.4)"> </text><text xml:space="preserve" font-family="Helvetica-Light,Helvetica" font-size="30.0" fill="#FEFFFF" transform="matrix(1.00, 0.00, -0.00, -1.00, 74.3, 844.4)">y</text><text xml:space="preserve" font-family="Helvetica-Light,Helvetica" font-size="30.0" fill="#FEFFFF" transform="matrix(1.00, 0.00, -0.00, -1.00, 89.3, 844.4)">o</text><text xml:space="preserve" font-family="Helvetica-Light,Helvetica" font-size="30.0" fill="#FEFFFF" transform="matrix(1.00, 0.00, -0.00, -1.00, 106.0, 844.4)">u</text><text xml:space="preserve" font-family="Helvetica-Light,Helvetica" font-size="30.0" fill="#FEFFFF" transform="matrix(1.00, 0.00, -0.00, -1.00, 122.6, 844.4)"> </text><text xml:space="preserve" font-family="Helvetica-Light,Helvetica" font-size="30.0" fill="#FEFFFF" transform="matrix(1.00, 0.00, -0.00, -1.00, 131.0, 844.4)">c</text><text xml:space="preserve" font-family="Helvetica-Light,Helvetica" font-size="30.0" fill="#FEFFFF" transform="matrix(1.00, 0.00, -0.00, -1.00, 147.7, 844.4)">a</text><text xml:space="preserve" font-family="Helvetica-Light,Helvetica" font-size="30.0" fill="#FEFFFF" transform="matrix(1.00, 0.00, -0.00, -1.00, 164.3, 844.4)">n</text><text xml:space="preserve" font-family="Helvetica-Light,Helvetica" font-size="30.0" fill="#FEFFFF" transform="matrix(1.00, 0.00, -0.00, -1.00, 181.0, 844.4)"> </text><text xml:space="preserve" font-family="Helvetica-Light,Helvetica" font-size="30.0" fill="#FEFFFF" transform="matrix(1.00, 0.00, -0.00, -1.00, 189.4, 844.4)">c</text><text xml:space="preserve" font-family="Helvetica-Light,Helvetica" font-size="30.0" fill="#FEFFFF" transform="matrix(1.00, 0.00, -0.00, -1.00, 206.0, 844.4)">h</text><text xml:space="preserve" font-family="Helvetica-Light,Helvetica" font-size="30.0" fill="#FEFFFF" transform="matrix(1.00, 0.00, -0.00, -1.00, 222.7, 844.4)">o</text><text xml:space="preserve" font-family="Helvetica-Light,Helvetica" font-size="30.0" fill="#FEFFFF" transform="matrix(1.00, 0.00, -0.00, -1.00, 239.4, 844.4)">o</text><text xml:space="preserve" font-family="Helvetica-Light,Helvetica" font-size="30.0" fill="#FEFFFF" transform="matrix(1.00, 0.00, -0.00, -1.00, 256.1, 844.4)">s</text><text xml:space="preserve" font-family="Helvetica-Light,Helvetica" font-size="30.0" fill="#FEFFFF" transform="matrix(1.00, 0.00, -0.00, -1.00, 271.1, 844.4)">e</text><text xml:space="preserve" font-family="Helvetica-Light,Helvetica" font-size="30.0" fill="#FEFFFF" transform="matrix(1.00, 0.00, -0.00, -1.00, 287.8, 844.4)"> </text><text xml:space="preserve" font-family="Helvetica-Light,Helvetica" font-size="30.0" fill="#FEFFFF" transform="matrix(1.00, 0.00, -0.00, -1.00, 296.1, 844.4)">t</text><text xml:space="preserve" font-family="Helvetica-Light,Helvetica" font-size="30.0" fill="#FEFFFF" transform="matrix(1.00, 0.00, -0.00, -1.00, 304.4, 844.4)">h</text><text xml:space="preserve" font-family="Helvetica-Light,Helvetica" font-size="30.0" fill="#FEFFFF" transform="matrix(1.00, 0.00, -0.00, -1.00, 321.1, 844.4)">e</text><text xml:space="preserve" font-family="Helvetica-Light,Helvetica" font-size="30.0" fill="#FEFFFF" transform="matrix(1.00, 0.00, -0.00, -1.00, 337.8, 844.4)"> </text><text xml:space="preserve" font-family="Helvetica-Light,Helvetica" font-size="30.0" fill="#FEFFFF" transform="matrix(1.00, 0.00, -0.00, -1.00, 74.3, 808.4)">s</text><text xml:space="preserve" font-family="Helvetica-Light,Helvetica" font-size="30.0" fill="#FEFFFF" transform="matrix(1.00, 0.00, -0.00, -1.00, 89.3, 808.4)">l</text><text xml:space="preserve" font-family="Helvetica-Light,Helvetica" font-size="30.0" fill="#FEFFFF" transform="matrix(1.00, 0.00, -0.00, -1.00, 95.9, 808.4)">i</text><text xml:space="preserve" font-family="Helvetica-Light,Helvetica" font-size="30.0" fill="#FEFFFF" transform="matrix(1.00, 0.00, -0.00, -1.00, 102.6, 808.4)">d</text><text xml:space="preserve" font-family="Helvetica-Light,Helvetica" font-size="30.0" fill="#FEFFFF" transform="matrix(1.00, 0.00, -0.00, -1.00, 120.9, 808.4)">e</text><text xml:space="preserve" font-family="Helvetica-Light,Helvetica" font-size="30.0" fill="#FEFFFF" transform="matrix(1.00, 0.00, -0.00, -1.00, 137.6, 808.4)"> </text><text xml:space="preserve" font-family="Helvetica-Light,Helvetica" font-size="30.0" fill="#FEFFFF" transform="matrix(1.00, 0.00, -0.00, -1.00, 145.9, 808.4)">y</text><text xml:space="preserve" font-family="Helvetica-Light,Helvetica" font-size="30.0" fill="#FEFFFF" transform="matrix(1.00, 0.00, -0.00, -1.00, 160.9, 808.4)">o</text><text xml:space="preserve" font-family="Helvetica-Light,Helvetica" font-size="30.0" fill="#FEFFFF" transform="matrix(1.00, 0.00, -0.00, -1.00, 177.6, 808.4)">u</text><text xml:space="preserve" font-family="Helvetica-Light,Helvetica" font-size="30.0" fill="#FEFFFF" transform="matrix(1.00, 0.00, -0.00, -1.00, 194.3, 808.4)"> </text><text xml:space="preserve" font-family="Helvetica-Light,Helvetica" font-size="30.0" fill="#FEFFFF" transform="matrix(1.00, 0.00, -0.00, -1.00, 202.6, 808.4)">w</text><text xml:space="preserve" font-family="Helvetica-Light,Helvetica" font-size="30.0" fill="#FEFFFF" transform="matrix(1.00, 0.00, -0.00, -1.00, 224.3, 808.4)">a</text><text xml:space="preserve" font-family="Helvetica-Light,Helvetica" font-size="30.0" fill="#FEFFFF" transform="matrix(1.00, 0.00, -0.00, -1.00, 241.0, 808.4)">n</text><text xml:space="preserve" font-family="Helvetica-Light,Helvetica" font-size="30.0" fill="#FEFFFF" transform="matrix(1.00, 0.00, -0.00, -1.00, 257.7, 808.4)">t</text><path d="M -0.5 -0.1 L 322.7 -0.1 L 324.5 -0.1 " fill="none" stroke="#FEFFFE" stroke-width="3.00" transform="matrix(-1.00, 0.00, 0.00, 1.00, 377.5, 971.6)"></path><path d="M 54.5 978.1 L 41.3 971.5 L 54.5 964.9 Z M 54.5 978.1 " fill="#FEFFFE"></path></g></svg>