<?xml version="1.0" encoding="UTF-8" standalone="no"?><svg xmlns="http://www.w3.org/2000/svg" xmlns:xlink="http://www.w3.org/1999/xlink" clip-rule="evenodd" stroke-miterlimit="10" viewBox="0 0 1024 768"><desc>SVG generated by Keynote</desc><defs></defs><g transform="matrix(1.00, 0.00, -0.00, -1.00, 0.0, 768.0)"><path d="M 0.0 768.0 L 1024.0 768.0 L 1024.0 0.0 L 0.0 0.0 Z M 0.0 768.0 " fill="#000000"></path><text xml:space="preserve" font-family="Helvetica-Bold,Helvetica" font-weight="bold" font-size="207.0" fill="#FEFFFF" transform="matrix(1.00, 0.00, -0.00, -1.00, -295.2, 374.1)">6</text><text xml:space="preserve" font-family="Helvetica-Bold,Helvetica" font-weight="bold" font-size="207.0" fill="#FEFFFF" transform="matrix(1.00, 0.00, -0.00, -1.00, -180.0, 374.1)">9</text><text xml:space="preserve" font-family="Helvetica-Bold,Helvetica" font-weight="bold" font-size="207.0" fill="#FEFFFF" transform="matrix(1.00, 0.00, -0.00, -1.00, -64.9, 374.1)">4</text><text xml:space="preserve" font-family="Helvetica-Bold,Helvetica" font-weight="bold" font-size="207.0" fill="#FEFFFF" transform="matrix(1.00, 0.00, -0.00, -1.00, 50.3, 374.1)">7</text><text xml:space="preserve" font-family="Helvetica-Bold,Helvetica" font-weight="bold" font-size="207.0" fill="#FEFFFF" transform="matrix(1.00, 0.00, -0.00, -1.00, 165.5, 374.1)">.</text><text xml:space="preserve" font-family="Helvetica-Bold,Helvetica" font-weight="bold" font-size="207.0" fill="#FEFFFF" transform="matrix(1.00, 0.00, -0.00, -1.00, 223.0, 374.1)">1</text><text xml:space="preserve" font-family="Helvetica-Bold,Helvetica" font-weight="bold" font-size="207.0" fill="#FEFFFF" transform="matrix(1.00, 0.00, -0.00, -1.00, 338.2, 374.1)">9</text><text xml:space="preserve" font-family="Helvetica-Bold,Helvetica" font-weight="bold" font-size="207.0" fill="#FEFFFF" transform="matrix(1.00, 0.00, -0.00, -1.00, 453.3, 374.1)">.</text><text xml:space="preserve" font-family="Helvetica-Bold,Helvetica" font-weight="bold" font-size="207.0" fill="#FEFFFF" transform="matrix(1.00, 0.00, -0.00, -1.00, 510.9, 374.1)">0</text><text xml:space="preserve" font-family="Helvetica-Bold,Helvetica" font-weight="bold" font-size="207.0" fill="#FEFFFF" transform="matrix(1.00, 0.00, -0.00, -1.00, 626.1, 374.1)">.</text><text xml:space="preserve" font-family="Helvetica-Bold,Helvetica" font-weight="bold" font-size="207.0" fill="#FEFFFF" transform="matrix(1.00, 0.00, -0.00, -1.00, 683.6, 374.1)">7</text><text xml:space="preserve" font-family="MyriadPro-Light,Myriad Pro" font-size="42.0" fill="#FEFFFF" transform="matrix(1.00, 0.00, -0.00, -1.00, 130.0, 270.9)">I</text><text xml:space="preserve" font-family="MyriadPro-Light,Myriad Pro" font-size="42.0" fill="#FEFFFF" transform="matrix(1.00, 0.00, -0.00, -1.00, 139.5, 270.9)">n</text><text xml:space="preserve" font-family="MyriadPro-Light,Myriad Pro" font-size="42.0" fill="#FEFFFF" transform="matrix(1.00, 0.00, -0.00, -1.00, 162.0, 270.9)"> </text><text xml:space="preserve" font-family="MyriadPro-Light,Myriad Pro" font-size="42.0" fill="#FEFFFF" transform="matrix(1.00, 0.00, -0.00, -1.00, 171.2, 270.9)">t</text><text xml:space="preserve" font-family="MyriadPro-Light,Myriad Pro" font-size="42.0" fill="#FEFFFF" transform="matrix(1.00, 0.00, -0.00, -1.00, 184.2, 270.9)">h</text><text xml:space="preserve" font-family="MyriadPro-Light,Myriad Pro" font-size="42.0" fill="#FEFFFF" transform="matrix(1.00, 0.00, -0.00, -1.00, 206.7, 270.9)">e</text><text xml:space="preserve" font-family="MyriadPro-Light,Myriad Pro" font-size="42.0" fill="#FEFFFF" transform="matrix(1.00, 0.00, -0.00, -1.00, 227.1, 270.9)"> </text><text xml:space="preserve" font-family="MyriadPro-Light,Myriad Pro" font-size="42.0" fill="#FEFFFF" transform="matrix(1.00, 0.00, -0.00, -1.00, 236.3, 270.9)">K</text><text xml:space="preserve" font-family="MyriadPro-Light,Myriad Pro" font-size="42.0" fill="#FEFFFF" transform="matrix(1.00, 0.00, -0.00, -1.00, 258.2, 270.9)">a</text><text xml:space="preserve" font-family="MyriadPro-Light,Myriad Pro" font-size="42.0" fill="#FEFFFF" transform="matrix(1.00, 0.00, -0.00, -1.00, 277.3, 270.9)">r</text><text xml:space="preserve" font-family="MyriadPro-Light,Myriad Pro" font-size="42.0" fill="#FEFFFF" transform="matrix(1.00, 0.00, -0.00, -1.00, 290.0, 270.9)">i</text><text xml:space="preserve" font-family="MyriadPro-Light,Myriad Pro" font-size="42.0" fill="#FEFFFF" transform="matrix(1.00, 0.00, -0.00, -1.00, 298.8, 270.9)">o</text><text xml:space="preserve" font-family="MyriadPro-Light,Myriad Pro" font-size="42.0" fill="#FEFFFF" transform="matrix(1.00, 0.00, -0.00, -1.00, 321.1, 270.9)">n</text><text xml:space="preserve" font-family="MyriadPro-Light,Myriad Pro" font-size="42.0" fill="#FEFFFF" transform="matrix(1.00, 0.00, -0.00, -1.00, 343.6, 270.9)"> </text><text xml:space="preserve" font-family="MyriadPro-Light,Myriad Pro" font-size="42.0" fill="#FEFFFF" transform="matrix(1.00, 0.00, -0.00, -1.00, 352.8, 270.9)">s</text><text xml:space="preserve" font-family="MyriadPro-Light,Myriad Pro" font-size="42.0" fill="#FEFFFF" transform="matrix(1.00, 0.00, -0.00, -1.00, 368.5, 270.9)">y</text><text xml:space="preserve" font-family="MyriadPro-Light,Myriad Pro" font-size="42.0" fill="#FEFFFF" transform="matrix(1.00, 0.00, -0.00, -1.00, 387.0, 270.9)">s</text><text xml:space="preserve" font-family="MyriadPro-Light,Myriad Pro" font-size="42.0" fill="#FEFFFF" transform="matrix(1.00, 0.00, -0.00, -1.00, 402.6, 270.9)">t</text><text xml:space="preserve" font-family="MyriadPro-Light,Myriad Pro" font-size="42.0" fill="#FEFFFF" transform="matrix(1.00, 0.00, -0.00, -1.00, 415.4, 270.9)">e</text><text xml:space="preserve" font-family="MyriadPro-Light,Myriad Pro" font-size="42.0" fill="#FEFFFF" transform="matrix(1.00, 0.00, -0.00, -1.00, 435.7, 270.9)">m</text><text xml:space="preserve" font-family="MyriadPro-Light,Myriad Pro" font-size="42.0" fill="#FEFFFF" transform="matrix(1.00, 0.00, -0.00, -1.00, 470.1, 270.9)"> </text><text xml:space="preserve" font-family="MyriadPro-Light,Myriad Pro" font-size="42.0" fill="#FEFFFF" transform="matrix(1.00, 0.00, -0.00, -1.00, 479.3, 270.9)">e</text><text xml:space="preserve" font-family="MyriadPro-Light,Myriad Pro" font-size="42.0" fill="#FEFFFF" transform="matrix(1.00, 0.00, -0.00, -1.00, 499.7, 270.9)">a</text><text xml:space="preserve" font-family="MyriadPro-Light,Myriad Pro" font-size="42.0" fill="#FEFFFF" transform="matrix(1.00, 0.00, -0.00, -1.00, 518.8, 270.9)">c</text><text xml:space="preserve" font-family="MyriadPro-Light,Myriad Pro" font-size="42.0" fill="#FEFFFF" transform="matrix(1.00, 0.00, -0.00, -1.00, 537.5, 270.9)">h</text><text xml:space="preserve" font-family="MyriadPro-Light,Myriad Pro" font-size="42.0" fill="#FEFFFF" transform="matrix(1.00, 0.00, -0.00, -1.00, 560.0, 270.9)"> </text><text xml:space="preserve" font-family="MyriadPro-Light,Myriad Pro" font-size="42.0" fill="#FEFFFF" transform="matrix(1.00, 0.00, -0.00, -1.00, 569.2, 270.9)">m</text><text xml:space="preserve" font-family="MyriadPro-Light,Myriad Pro" font-size="42.0" fill="#FEFFFF" transform="matrix(1.00, 0.00, -0.00, -1.00, 603.6, 270.9)">o</text><text xml:space="preserve" font-family="MyriadPro-Light,Myriad Pro" font-size="42.0" fill="#FEFFFF" transform="matrix(1.00, 0.00, -0.00, -1.00, 625.9, 270.9)">n</text><text xml:space="preserve" font-family="MyriadPro-Light,Myriad Pro" font-size="42.0" fill="#FEFFFF" transform="matrix(1.00, 0.00, -0.00, -1.00, 648.5, 270.9)">t</text><text xml:space="preserve" font-family="MyriadPro-Light,Myriad Pro" font-size="42.0" fill="#FEFFFF" transform="matrix(1.00, 0.00, -0.00, -1.00, 661.4, 270.9)">h</text><text xml:space="preserve" font-family="MyriadPro-Light,Myriad Pro" font-size="42.0" fill="#FEFFFF" transform="matrix(1.00, 0.00, -0.00, -1.00, 683.9, 270.9)"> </text><text xml:space="preserve" font-family="MyriadPro-Light,Myriad Pro" font-size="42.0" fill="#FEFFFF" transform="matrix(1.00, 0.00, -0.00, -1.00, 693.1, 270.9)">i</text><text xml:space="preserve" font-family="MyriadPro-Light,Myriad Pro" font-size="42.0" fill="#FEFFFF" transform="matrix(1.00, 0.00, -0.00, -1.00, 701.9, 270.9)">s</text><text xml:space="preserve" font-family="MyriadPro-Light,Myriad Pro" font-size="42.0" fill="#FEFFFF" transform="matrix(1.00, 0.00, -0.00, -1.00, 717.6, 270.9)"> </text><text xml:space="preserve" font-family="MyriadPro-Light,Myriad Pro" font-size="42.0" fill="#FEFFFF" transform="matrix(1.00, 0.00, -0.00, -1.00, 726.8, 270.9)">e</text><text xml:space="preserve" font-family="MyriadPro-Light,Myriad Pro" font-size="42.0" fill="#FEFFFF" transform="matrix(1.00, 0.00, -0.00, -1.00, 747.2, 270.9)">x</text><text xml:space="preserve" font-family="MyriadPro-Light,Myriad Pro" font-size="42.0" fill="#FEFFFF" transform="matrix(1.00, 0.00, -0.00, -1.00, 765.2, 270.9)">a</text><text xml:space="preserve" font-family="MyriadPro-Light,Myriad Pro" font-size="42.0" fill="#FEFFFF" transform="matrix(1.00, 0.00, -0.00, -1.00, 784.2, 270.9)">c</text><text xml:space="preserve" font-family="MyriadPro-Light,Myriad Pro" font-size="42.0" fill="#FEFFFF" transform="matrix(1.00, 0.00, -0.00, -1.00, 803.4, 270.9)">t</text><text xml:space="preserve" font-family="MyriadPro-Light,Myriad Pro" font-size="42.0" fill="#FEFFFF" transform="matrix(1.00, 0.00, -0.00, -1.00, 816.4, 270.9)">l</text><text xml:space="preserve" font-family="MyriadPro-Light,Myriad Pro" font-size="42.0" fill="#FEFFFF" transform="matrix(1.00, 0.00, -0.00, -1.00, 825.3, 270.9)">y</text><text xml:space="preserve" font-family="MyriadPro-Light,Myriad Pro" font-size="42.0" fill="#FEFFFF" transform="matrix(1.00, 0.00, -0.00, -1.00, 843.8, 270.9)"> </text><text xml:space="preserve" font-family="MyriadPro-Light,Myriad Pro" font-size="42.0" fill="#FEFFFF" transform="matrix(1.00, 0.00, -0.00, -1.00, 853.0, 270.9)">3</text><text xml:space="preserve" font-family="MyriadPro-Light,Myriad Pro" font-size="42.0" fill="#FEFFFF" transform="matrix(1.00, 0.00, -0.00, -1.00, 873.5, 270.9)">0</text><text xml:space="preserve" font-family="MyriadPro-Light,Myriad Pro" font-size="42.0" fill="#FEFFFF" transform="matrix(1.00, 0.00, -0.00, -1.00, 894.0, 270.9)"> </text><text xml:space="preserve" font-family="MyriadPro-Light,Myriad Pro" font-size="42.0" fill="#FEFFFF" transform="matrix(1.00, 0.00, -0.00, -1.00, 72.2, 219.9)">d</text><text xml:space="preserve" font-family="MyriadPro-Light,Myriad Pro" font-size="42.0" fill="#FEFFFF" transform="matrix(1.00, 0.00, -0.00, -1.00, 95.0, 219.9)">a</text><text xml:space="preserve" font-family="MyriadPro-Light,Myriad Pro" font-size="42.0" fill="#FEFFFF" transform="matrix(1.00, 0.00, -0.00, -1.00, 113.8, 219.9)">y</text><text xml:space="preserve" font-family="MyriadPro-Light,Myriad Pro" font-size="42.0" fill="#FEFFFF" transform="matrix(1.00, 0.00, -0.00, -1.00, 132.3, 219.9)">s</text><text xml:space="preserve" font-family="MyriadPro-Light,Myriad Pro" font-size="42.0" fill="#FEFFFF" transform="matrix(1.00, 0.00, -0.00, -1.00, 147.5, 219.9)">.</text><text xml:space="preserve" font-family="MyriadPro-Light,Myriad Pro" font-size="42.0" fill="#FEFFFF" transform="matrix(1.00, 0.00, -0.00, -1.00, 154.8, 219.9)"> </text><text xml:space="preserve" font-family="MyriadPro-Light,Myriad Pro" font-size="42.0" fill="#FEFFFF" transform="matrix(1.00, 0.00, -0.00, -1.00, 164.0, 219.9)">B</text><text xml:space="preserve" font-family="MyriadPro-Light,Myriad Pro" font-size="42.0" fill="#FEFFFF" transform="matrix(1.00, 0.00, -0.00, -1.00, 185.2, 219.9)">e</text><text xml:space="preserve" font-family="MyriadPro-Light,Myriad Pro" font-size="42.0" fill="#FEFFFF" transform="matrix(1.00, 0.00, -0.00, -1.00, 205.6, 219.9)">c</text><text xml:space="preserve" font-family="MyriadPro-Light,Myriad Pro" font-size="42.0" fill="#FEFFFF" transform="matrix(1.00, 0.00, -0.00, -1.00, 224.3, 219.9)">a</text><text xml:space="preserve" font-family="MyriadPro-Light,Myriad Pro" font-size="42.0" fill="#FEFFFF" transform="matrix(1.00, 0.00, -0.00, -1.00, 243.4, 219.9)">u</text><text xml:space="preserve" font-family="MyriadPro-Light,Myriad Pro" font-size="42.0" fill="#FEFFFF" transform="matrix(1.00, 0.00, -0.00, -1.00, 265.7, 219.9)">s</text><text xml:space="preserve" font-family="MyriadPro-Light,Myriad Pro" font-size="42.0" fill="#FEFFFF" transform="matrix(1.00, 0.00, -0.00, -1.00, 281.4, 219.9)">e</text><text xml:space="preserve" font-family="MyriadPro-Light,Myriad Pro" font-size="42.0" fill="#FEFFFF" transform="matrix(1.00, 0.00, -0.00, -1.00, 301.7, 219.9)"> </text><text xml:space="preserve" font-family="MyriadPro-Light,Myriad Pro" font-size="42.0" fill="#FEFFFF" transform="matrix(1.00, 0.00, -0.00, -1.00, 310.9, 219.9)">o</text><text xml:space="preserve" font-family="MyriadPro-Light,Myriad Pro" font-size="42.0" fill="#FEFFFF" transform="matrix(1.00, 0.00, -0.00, -1.00, 333.3, 219.9)">f</text><text xml:space="preserve" font-family="MyriadPro-Light,Myriad Pro" font-size="42.0" fill="#FEFFFF" transform="matrix(1.00, 0.00, -0.00, -1.00, 344.3, 219.9)"> </text><text xml:space="preserve" font-family="MyriadPro-Light,Myriad Pro" font-size="42.0" fill="#FEFFFF" transform="matrix(1.00, 0.00, -0.00, -1.00, 353.5, 219.9)">t</text><text xml:space="preserve" font-family="MyriadPro-Light,Myriad Pro" font-size="42.0" fill="#FEFFFF" transform="matrix(1.00, 0.00, -0.00, -1.00, 366.4, 219.9)">h</text><text xml:space="preserve" font-family="MyriadPro-Light,Myriad Pro" font-size="42.0" fill="#FEFFFF" transform="matrix(1.00, 0.00, -0.00, -1.00, 389.0, 219.9)">i</text><text xml:space="preserve" font-family="MyriadPro-Light,Myriad Pro" font-size="42.0" fill="#FEFFFF" transform="matrix(1.00, 0.00, -0.00, -1.00, 397.7, 219.9)">s</text><text xml:space="preserve" font-family="MyriadPro-Light,Myriad Pro" font-size="42.0" fill="#FEFFFF" transform="matrix(1.00, 0.00, -0.00, -1.00, 413.4, 219.9)"> </text><text xml:space="preserve" font-family="MyriadPro-Light,Myriad Pro" font-size="42.0" fill="#FEFFFF" transform="matrix(1.00, 0.00, -0.00, -1.00, 422.6, 219.9)">s</text><text xml:space="preserve" font-family="MyriadPro-Light,Myriad Pro" font-size="42.0" fill="#FEFFFF" transform="matrix(1.00, 0.00, -0.00, -1.00, 438.3, 219.9)">y</text><text xml:space="preserve" font-family="MyriadPro-Light,Myriad Pro" font-size="42.0" fill="#FEFFFF" transform="matrix(1.00, 0.00, -0.00, -1.00, 456.7, 219.9)">s</text><text xml:space="preserve" font-family="MyriadPro-Light,Myriad Pro" font-size="42.0" fill="#FEFFFF" transform="matrix(1.00, 0.00, -0.00, -1.00, 472.4, 219.9)">t</text><text xml:space="preserve" font-family="MyriadPro-Light,Myriad Pro" font-size="42.0" fill="#FEFFFF" transform="matrix(1.00, 0.00, -0.00, -1.00, 485.1, 219.9)">e</text><text xml:space="preserve" font-family="MyriadPro-Light,Myriad Pro" font-size="42.0" fill="#FEFFFF" transform="matrix(1.00, 0.00, -0.00, -1.00, 505.5, 219.9)">m</text><text xml:space="preserve" font-family="MyriadPro-Light,Myriad Pro" font-size="42.0" fill="#FEFFFF" transform="matrix(1.00, 0.00, -0.00, -1.00, 539.9, 219.9)"> </text><text xml:space="preserve" font-family="MyriadPro-Light,Myriad Pro" font-size="42.0" fill="#FEFFFF" transform="matrix(1.00, 0.00, -0.00, -1.00, 549.1, 219.9)">y</text><text xml:space="preserve" font-family="MyriadPro-Light,Myriad Pro" font-size="42.0" fill="#FEFFFF" transform="matrix(1.00, 0.00, -0.00, -1.00, 567.3, 219.9)">o</text><text xml:space="preserve" font-family="MyriadPro-Light,Myriad Pro" font-size="42.0" fill="#FEFFFF" transform="matrix(1.00, 0.00, -0.00, -1.00, 589.6, 219.9)">u</text><text xml:space="preserve" font-family="MyriadPro-Light,Myriad Pro" font-size="42.0" fill="#FEFFFF" transform="matrix(1.00, 0.00, -0.00, -1.00, 611.9, 219.9)"> </text><text xml:space="preserve" font-family="MyriadPro-Light,Myriad Pro" font-size="42.0" fill="#FEFFFF" transform="matrix(1.00, 0.00, -0.00, -1.00, 621.1, 219.9)">a</text><text xml:space="preserve" font-family="MyriadPro-Light,Myriad Pro" font-size="42.0" fill="#FEFFFF" transform="matrix(1.00, 0.00, -0.00, -1.00, 640.2, 219.9)">l</text><text xml:space="preserve" font-family="MyriadPro-Light,Myriad Pro" font-size="42.0" fill="#FEFFFF" transform="matrix(1.00, 0.00, -0.00, -1.00, 649.1, 219.9)">w</text><text xml:space="preserve" font-family="MyriadPro-Light,Myriad Pro" font-size="42.0" fill="#FEFFFF" transform="matrix(1.00, 0.00, -0.00, -1.00, 679.4, 219.9)">a</text><text xml:space="preserve" font-family="MyriadPro-Light,Myriad Pro" font-size="42.0" fill="#FEFFFF" transform="matrix(1.00, 0.00, -0.00, -1.00, 698.2, 219.9)">y</text><text xml:space="preserve" font-family="MyriadPro-Light,Myriad Pro" font-size="42.0" fill="#FEFFFF" transform="matrix(1.00, 0.00, -0.00, -1.00, 716.7, 219.9)">s</text><text xml:space="preserve" font-family="MyriadPro-Light,Myriad Pro" font-size="42.0" fill="#FEFFFF" transform="matrix(1.00, 0.00, -0.00, -1.00, 732.4, 219.9)"> </text><text xml:space="preserve" font-family="MyriadPro-Light,Myriad Pro" font-size="42.0" fill="#FEFFFF" transform="matrix(1.00, 0.00, -0.00, -1.00, 741.6, 219.9)">g</text><text xml:space="preserve" font-family="MyriadPro-Light,Myriad Pro" font-size="42.0" fill="#FEFFFF" transform="matrix(1.00, 0.00, -0.00, -1.00, 764.4, 219.9)">e</text><text xml:space="preserve" font-family="MyriadPro-Light,Myriad Pro" font-size="42.0" fill="#FEFFFF" transform="matrix(1.00, 0.00, -0.00, -1.00, 784.8, 219.9)">t</text><text xml:space="preserve" font-family="MyriadPro-Light,Myriad Pro" font-size="42.0" fill="#FEFFFF" transform="matrix(1.00, 0.00, -0.00, -1.00, 797.8, 219.9)"> </text><text xml:space="preserve" font-family="MyriadPro-Light,Myriad Pro" font-size="42.0" fill="#FEFFFF" transform="matrix(1.00, 0.00, -0.00, -1.00, 807.0, 219.9)">t</text><text xml:space="preserve" font-family="MyriadPro-Light,Myriad Pro" font-size="42.0" fill="#FEFFFF" transform="matrix(1.00, 0.00, -0.00, -1.00, 820.0, 219.9)">h</text><text xml:space="preserve" font-family="MyriadPro-Light,Myriad Pro" font-size="42.0" fill="#FEFFFF" transform="matrix(1.00, 0.00, -0.00, -1.00, 842.5, 219.9)">e</text><text xml:space="preserve" font-family="MyriadPro-Light,Myriad Pro" font-size="42.0" fill="#FEFFFF" transform="matrix(1.00, 0.00, -0.00, -1.00, 862.8, 219.9)"> </text><text xml:space="preserve" font-family="MyriadPro-Light,Myriad Pro" font-size="42.0" fill="#FEFFFF" transform="matrix(1.00, 0.00, -0.00, -1.00, 872.0, 219.9)">r</text><text xml:space="preserve" font-family="MyriadPro-Light,Myriad Pro" font-size="42.0" fill="#FEFFFF" transform="matrix(1.00, 0.00, -0.00, -1.00, 884.7, 219.9)">i</text><text xml:space="preserve" font-family="MyriadPro-Light,Myriad Pro" font-size="42.0" fill="#FEFFFF" transform="matrix(1.00, 0.00, -0.00, -1.00, 893.5, 219.9)">g</text><text xml:space="preserve" font-family="MyriadPro-Light,Myriad Pro" font-size="42.0" fill="#FEFFFF" transform="matrix(1.00, 0.00, -0.00, -1.00, 916.4, 219.9)">h</text><text xml:space="preserve" font-family="MyriadPro-Light,Myriad Pro" font-size="42.0" fill="#FEFFFF" transform="matrix(1.00, 0.00, -0.00, -1.00, 938.9, 219.9)">t</text><text xml:space="preserve" font-family="MyriadPro-Light,Myriad Pro" font-size="42.0" fill="#FEFFFF" transform="matrix(1.00, 0.00, -0.00, -1.00, 951.8, 219.9)"> </text><text xml:space="preserve" font-family="MyriadPro-Light,Myriad Pro" font-size="42.0" fill="#FEFFFF" transform="matrix(1.00, 0.00, -0.00, -1.00, 48.3, 168.9)">t</text><text xml:space="preserve" font-family="MyriadPro-Light,Myriad Pro" font-size="42.0" fill="#FEFFFF" transform="matrix(1.00, 0.00, -0.00, -1.00, 61.3, 168.9)">i</text><text xml:space="preserve" font-family="MyriadPro-Light,Myriad Pro" font-size="42.0" fill="#FEFFFF" transform="matrix(1.00, 0.00, -0.00, -1.00, 70.1, 168.9)">m</text><text xml:space="preserve" font-family="MyriadPro-Light,Myriad Pro" font-size="42.0" fill="#FEFFFF" transform="matrix(1.00, 0.00, -0.00, -1.00, 104.5, 168.9)">e</text><text xml:space="preserve" font-family="MyriadPro-Light,Myriad Pro" font-size="42.0" fill="#FEFFFF" transform="matrix(1.00, 0.00, -0.00, -1.00, 124.4, 168.9)">.</text><text xml:space="preserve" font-family="MyriadPro-Light,Myriad Pro" font-size="42.0" fill="#FEFFFF" transform="matrix(1.00, 0.00, -0.00, -1.00, 131.7, 168.9)"> </text><text xml:space="preserve" font-family="MyriadPro-Light,Myriad Pro" font-size="42.0" fill="#FEFFFF" transform="matrix(1.00, 0.00, -0.00, -1.00, 140.9, 168.9)">H</text><text xml:space="preserve" font-family="MyriadPro-Light,Myriad Pro" font-size="42.0" fill="#FEFFFF" transform="matrix(1.00, 0.00, -0.00, -1.00, 167.4, 168.9)">o</text><text xml:space="preserve" font-family="MyriadPro-Light,Myriad Pro" font-size="42.0" fill="#FEFFFF" transform="matrix(1.00, 0.00, -0.00, -1.00, 189.5, 168.9)">w</text><text xml:space="preserve" font-family="MyriadPro-Light,Myriad Pro" font-size="42.0" fill="#FEFFFF" transform="matrix(1.00, 0.00, -0.00, -1.00, 219.6, 168.9)">e</text><text xml:space="preserve" font-family="MyriadPro-Light,Myriad Pro" font-size="42.0" fill="#FEFFFF" transform="matrix(1.00, 0.00, -0.00, -1.00, 240.1, 168.9)">v</text><text xml:space="preserve" font-family="MyriadPro-Light,Myriad Pro" font-size="42.0" fill="#FEFFFF" transform="matrix(1.00, 0.00, -0.00, -1.00, 258.8, 168.9)">e</text><text xml:space="preserve" font-family="MyriadPro-Light,Myriad Pro" font-size="42.0" fill="#FEFFFF" transform="matrix(1.00, 0.00, -0.00, -1.00, 279.2, 168.9)">r</text><text xml:space="preserve" font-family="MyriadPro-Light,Myriad Pro" font-size="42.0" fill="#FEFFFF" transform="matrix(1.00, 0.00, -0.00, -1.00, 291.5, 168.9)"> </text><text xml:space="preserve" font-family="MyriadPro-Light,Myriad Pro" font-size="42.0" fill="#FEFFFF" transform="matrix(1.00, 0.00, -0.00, -1.00, 300.7, 168.9)">y</text><text xml:space="preserve" font-family="MyriadPro-Light,Myriad Pro" font-size="42.0" fill="#FEFFFF" transform="matrix(1.00, 0.00, -0.00, -1.00, 318.9, 168.9)">o</text><text xml:space="preserve" font-family="MyriadPro-Light,Myriad Pro" font-size="42.0" fill="#FEFFFF" transform="matrix(1.00, 0.00, -0.00, -1.00, 341.3, 168.9)">u</text><text xml:space="preserve" font-family="MyriadPro-Light,Myriad Pro" font-size="42.0" fill="#FEFFFF" transform="matrix(1.00, 0.00, -0.00, -1.00, 363.6, 168.9)"> </text><text xml:space="preserve" font-family="MyriadPro-Light,Myriad Pro" font-size="42.0" fill="#FEFFFF" transform="matrix(1.00, 0.00, -0.00, -1.00, 372.8, 168.9)">m</text><text xml:space="preserve" font-family="MyriadPro-Light,Myriad Pro" font-size="42.0" fill="#FEFFFF" transform="matrix(1.00, 0.00, -0.00, -1.00, 407.2, 168.9)">a</text><text xml:space="preserve" font-family="MyriadPro-Light,Myriad Pro" font-size="42.0" fill="#FEFFFF" transform="matrix(1.00, 0.00, -0.00, -1.00, 426.0, 168.9)">y</text><text xml:space="preserve" font-family="MyriadPro-Light,Myriad Pro" font-size="42.0" fill="#FEFFFF" transform="matrix(1.00, 0.00, -0.00, -1.00, 444.5, 168.9)"> </text><text xml:space="preserve" font-family="MyriadPro-Light,Myriad Pro" font-size="42.0" fill="#FEFFFF" transform="matrix(1.00, 0.00, -0.00, -1.00, 453.7, 168.9)">t</text><text xml:space="preserve" font-family="MyriadPro-Light,Myriad Pro" font-size="42.0" fill="#FEFFFF" transform="matrix(1.00, 0.00, -0.00, -1.00, 466.6, 168.9)">h</text><text xml:space="preserve" font-family="MyriadPro-Light,Myriad Pro" font-size="42.0" fill="#FEFFFF" transform="matrix(1.00, 0.00, -0.00, -1.00, 489.2, 168.9)">e</text><text xml:space="preserve" font-family="MyriadPro-Light,Myriad Pro" font-size="42.0" fill="#FEFFFF" transform="matrix(1.00, 0.00, -0.00, -1.00, 509.5, 168.9)">n</text><text xml:space="preserve" font-family="MyriadPro-Light,Myriad Pro" font-size="42.0" fill="#FEFFFF" transform="matrix(1.00, 0.00, -0.00, -1.00, 532.0, 168.9)"> </text><text xml:space="preserve" font-family="MyriadPro-Light,Myriad Pro" font-size="42.0" fill="#FEFFFF" transform="matrix(1.00, 0.00, -0.00, -1.00, 541.2, 168.9)">e</text><text xml:space="preserve" font-family="MyriadPro-Light,Myriad Pro" font-size="42.0" fill="#FEFFFF" transform="matrix(1.00, 0.00, -0.00, -1.00, 561.6, 168.9)">a</text><text xml:space="preserve" font-family="MyriadPro-Light,Myriad Pro" font-size="42.0" fill="#FEFFFF" transform="matrix(1.00, 0.00, -0.00, -1.00, 580.7, 168.9)">c</text><text xml:space="preserve" font-family="MyriadPro-Light,Myriad Pro" font-size="42.0" fill="#FEFFFF" transform="matrix(1.00, 0.00, -0.00, -1.00, 599.4, 168.9)">h</text><text xml:space="preserve" font-family="MyriadPro-Light,Myriad Pro" font-size="42.0" fill="#FEFFFF" transform="matrix(1.00, 0.00, -0.00, -1.00, 621.9, 168.9)"> </text><text xml:space="preserve" font-family="MyriadPro-Light,Myriad Pro" font-size="42.0" fill="#FEFFFF" transform="matrix(1.00, 0.00, -0.00, -1.00, 631.1, 168.9)">y</text><text xml:space="preserve" font-family="MyriadPro-Light,Myriad Pro" font-size="42.0" fill="#FEFFFF" transform="matrix(1.00, 0.00, -0.00, -1.00, 649.3, 168.9)">e</text><text xml:space="preserve" font-family="MyriadPro-Light,Myriad Pro" font-size="42.0" fill="#FEFFFF" transform="matrix(1.00, 0.00, -0.00, -1.00, 669.7, 168.9)">a</text><text xml:space="preserve" font-family="MyriadPro-Light,Myriad Pro" font-size="42.0" fill="#FEFFFF" transform="matrix(1.00, 0.00, -0.00, -1.00, 688.7, 168.9)">r</text><text xml:space="preserve" font-family="MyriadPro-Light,Myriad Pro" font-size="42.0" fill="#FEFFFF" transform="matrix(1.00, 0.00, -0.00, -1.00, 701.1, 168.9)"> </text><text xml:space="preserve" font-family="MyriadPro-Light,Myriad Pro" font-size="42.0" fill="#FEFFFF" transform="matrix(1.00, 0.00, -0.00, -1.00, 710.3, 168.9)">w</text><text xml:space="preserve" font-family="MyriadPro-Light,Myriad Pro" font-size="42.0" fill="#FEFFFF" transform="matrix(1.00, 0.00, -0.00, -1.00, 740.6, 168.9)">i</text><text xml:space="preserve" font-family="MyriadPro-Light,Myriad Pro" font-size="42.0" fill="#FEFFFF" transform="matrix(1.00, 0.00, -0.00, -1.00, 749.4, 168.9)">l</text><text xml:space="preserve" font-family="MyriadPro-Light,Myriad Pro" font-size="42.0" fill="#FEFFFF" transform="matrix(1.00, 0.00, -0.00, -1.00, 758.3, 168.9)">l</text><text xml:space="preserve" font-family="MyriadPro-Light,Myriad Pro" font-size="42.0" fill="#FEFFFF" transform="matrix(1.00, 0.00, -0.00, -1.00, 767.2, 168.9)"> </text><text xml:space="preserve" font-family="MyriadPro-Light,Myriad Pro" font-size="42.0" fill="#FEFFFF" transform="matrix(1.00, 0.00, -0.00, -1.00, 776.4, 168.9)">b</text><text xml:space="preserve" font-family="MyriadPro-Light,Myriad Pro" font-size="42.0" fill="#FEFFFF" transform="matrix(1.00, 0.00, -0.00, -1.00, 799.6, 168.9)">e</text><text xml:space="preserve" font-family="MyriadPro-Light,Myriad Pro" font-size="42.0" fill="#FEFFFF" transform="matrix(1.00, 0.00, -0.00, -1.00, 820.0, 168.9)"> </text><text xml:space="preserve" font-family="MyriadPro-Light,Myriad Pro" font-size="42.0" fill="#FEFFFF" transform="matrix(1.00, 0.00, -0.00, -1.00, 829.2, 168.9)">3</text><text xml:space="preserve" font-family="MyriadPro-Light,Myriad Pro" font-size="42.0" fill="#FEFFFF" transform="matrix(1.00, 0.00, -0.00, -1.00, 849.7, 168.9)">6</text><text xml:space="preserve" font-family="MyriadPro-Light,Myriad Pro" font-size="42.0" fill="#FEFFFF" transform="matrix(1.00, 0.00, -0.00, -1.00, 870.2, 168.9)">0</text><text xml:space="preserve" font-family="MyriadPro-Light,Myriad Pro" font-size="42.0" fill="#FEFFFF" transform="matrix(1.00, 0.00, -0.00, -1.00, 890.7, 168.9)"> </text><text xml:space="preserve" font-family="MyriadPro-Light,Myriad Pro" font-size="42.0" fill="#FEFFFF" transform="matrix(1.00, 0.00, -0.00, -1.00, 899.9, 168.9)">d</text><text xml:space="preserve" font-family="MyriadPro-Light,Myriad Pro" font-size="42.0" fill="#FEFFFF" transform="matrix(1.00, 0.00, -0.00, -1.00, 922.7, 168.9)">a</text><text xml:space="preserve" font-family="MyriadPro-Light,Myriad Pro" font-size="42.0" fill="#FEFFFF" transform="matrix(1.00, 0.00, -0.00, -1.00, 941.5, 168.9)">y</text><text xml:space="preserve" font-family="MyriadPro-Light,Myriad Pro" font-size="42.0" fill="#FEFFFF" transform="matrix(1.00, 0.00, -0.00, -1.00, 960.0, 168.9)">s</text><text xml:space="preserve" font-family="MyriadPro-Light,Myriad Pro" font-size="42.0" fill="#FEFFFF" transform="matrix(1.00, 0.00, -0.00, -1.00, 975.7, 168.9)"> </text><text xml:space="preserve" font-family="MyriadPro-Light,Myriad Pro" font-size="42.0" fill="#FEFFFF" transform="matrix(1.00, 0.00, -0.00, -1.00, 36.8, 117.9)">a</text><text xml:space="preserve" font-family="MyriadPro-Light,Myriad Pro" font-size="42.0" fill="#FEFFFF" transform="matrix(1.00, 0.00, -0.00, -1.00, 55.9, 117.9)">n</text><text xml:space="preserve" font-family="MyriadPro-Light,Myriad Pro" font-size="42.0" fill="#FEFFFF" transform="matrix(1.00, 0.00, -0.00, -1.00, 78.4, 117.9)">d</text><text xml:space="preserve" font-family="MyriadPro-Light,Myriad Pro" font-size="42.0" fill="#FEFFFF" transform="matrix(1.00, 0.00, -0.00, -1.00, 101.2, 117.9)"> </text><text xml:space="preserve" font-family="MyriadPro-Light,Myriad Pro" font-size="42.0" fill="#FEFFFF" transform="matrix(1.00, 0.00, -0.00, -1.00, 110.4, 117.9)">t</text><text xml:space="preserve" font-family="MyriadPro-Light,Myriad Pro" font-size="42.0" fill="#FEFFFF" transform="matrix(1.00, 0.00, -0.00, -1.00, 123.4, 117.9)">h</text><text xml:space="preserve" font-family="MyriadPro-Light,Myriad Pro" font-size="42.0" fill="#FEFFFF" transform="matrix(1.00, 0.00, -0.00, -1.00, 145.9, 117.9)">i</text><text xml:space="preserve" font-family="MyriadPro-Light,Myriad Pro" font-size="42.0" fill="#FEFFFF" transform="matrix(1.00, 0.00, -0.00, -1.00, 154.7, 117.9)">s</text><text xml:space="preserve" font-family="MyriadPro-Light,Myriad Pro" font-size="42.0" fill="#FEFFFF" transform="matrix(1.00, 0.00, -0.00, -1.00, 170.4, 117.9)"> </text><text xml:space="preserve" font-family="MyriadPro-Light,Myriad Pro" font-size="42.0" fill="#FEFFFF" transform="matrix(1.00, 0.00, -0.00, -1.00, 179.5, 117.9)">i</text><text xml:space="preserve" font-family="MyriadPro-Light,Myriad Pro" font-size="42.0" fill="#FEFFFF" transform="matrix(1.00, 0.00, -0.00, -1.00, 188.3, 117.9)">s</text><text xml:space="preserve" font-family="MyriadPro-Light,Myriad Pro" font-size="42.0" fill="#FEFFFF" transform="matrix(1.00, 0.00, -0.00, -1.00, 204.0, 117.9)"> </text><text xml:space="preserve" font-family="MyriadPro-Light,Myriad Pro" font-size="42.0" fill="#FEFFFF" transform="matrix(1.00, 0.00, -0.00, -1.00, 213.2, 117.9)">t</text><text xml:space="preserve" font-family="MyriadPro-Light,Myriad Pro" font-size="42.0" fill="#FEFFFF" transform="matrix(1.00, 0.00, -0.00, -1.00, 226.2, 117.9)">r</text><text xml:space="preserve" font-family="MyriadPro-Light,Myriad Pro" font-size="42.0" fill="#FEFFFF" transform="matrix(1.00, 0.00, -0.00, -1.00, 238.6, 117.9)">u</text><text xml:space="preserve" font-family="MyriadPro-Light,Myriad Pro" font-size="42.0" fill="#FEFFFF" transform="matrix(1.00, 0.00, -0.00, -1.00, 260.9, 117.9)">e</text><text xml:space="preserve" font-family="MyriadPro-Light,Myriad Pro" font-size="42.0" fill="#FEFFFF" transform="matrix(1.00, 0.00, -0.00, -1.00, 280.8, 117.9)">,</text><text xml:space="preserve" font-family="MyriadPro-Light,Myriad Pro" font-size="42.0" fill="#FEFFFF" transform="matrix(1.00, 0.00, -0.00, -1.00, 288.1, 117.9)"> </text><text xml:space="preserve" font-family="MyriadPro-Light,Myriad Pro" font-size="42.0" fill="#FEFFFF" transform="matrix(1.00, 0.00, -0.00, -1.00, 297.3, 117.9)">B</text><text xml:space="preserve" font-family="MyriadPro-Light,Myriad Pro" font-size="42.0" fill="#FEFFFF" transform="matrix(1.00, 0.00, -0.00, -1.00, 318.5, 117.9)">e</text><text xml:space="preserve" font-family="MyriadPro-Light,Myriad Pro" font-size="42.0" fill="#FEFFFF" transform="matrix(1.00, 0.00, -0.00, -1.00, 338.9, 117.9)">c</text><text xml:space="preserve" font-family="MyriadPro-Light,Myriad Pro" font-size="42.0" fill="#FEFFFF" transform="matrix(1.00, 0.00, -0.00, -1.00, 357.6, 117.9)">a</text><text xml:space="preserve" font-family="MyriadPro-Light,Myriad Pro" font-size="42.0" fill="#FEFFFF" transform="matrix(1.00, 0.00, -0.00, -1.00, 376.7, 117.9)">u</text><text xml:space="preserve" font-family="MyriadPro-Light,Myriad Pro" font-size="42.0" fill="#FEFFFF" transform="matrix(1.00, 0.00, -0.00, -1.00, 399.0, 117.9)">s</text><text xml:space="preserve" font-family="MyriadPro-Light,Myriad Pro" font-size="42.0" fill="#FEFFFF" transform="matrix(1.00, 0.00, -0.00, -1.00, 414.7, 117.9)">e</text><text xml:space="preserve" font-family="MyriadPro-Light,Myriad Pro" font-size="42.0" fill="#FEFFFF" transform="matrix(1.00, 0.00, -0.00, -1.00, 435.0, 117.9)"> </text><text xml:space="preserve" font-family="MyriadPro-Light,Myriad Pro" font-size="42.0" fill="#FEFFFF" transform="matrix(1.00, 0.00, -0.00, -1.00, 444.2, 117.9)">o</text><text xml:space="preserve" font-family="MyriadPro-Light,Myriad Pro" font-size="42.0" fill="#FEFFFF" transform="matrix(1.00, 0.00, -0.00, -1.00, 466.6, 117.9)">f</text><text xml:space="preserve" font-family="MyriadPro-Light,Myriad Pro" font-size="42.0" fill="#FEFFFF" transform="matrix(1.00, 0.00, -0.00, -1.00, 477.6, 117.9)"> </text><text xml:space="preserve" font-family="MyriadPro-Light,Myriad Pro" font-size="42.0" fill="#FEFFFF" transform="matrix(1.00, 0.00, -0.00, -1.00, 486.8, 117.9)">t</text><text xml:space="preserve" font-family="MyriadPro-Light,Myriad Pro" font-size="42.0" fill="#FEFFFF" transform="matrix(1.00, 0.00, -0.00, -1.00, 499.8, 117.9)">h</text><text xml:space="preserve" font-family="MyriadPro-Light,Myriad Pro" font-size="42.0" fill="#FEFFFF" transform="matrix(1.00, 0.00, -0.00, -1.00, 522.3, 117.9)">i</text><text xml:space="preserve" font-family="MyriadPro-Light,Myriad Pro" font-size="42.0" fill="#FEFFFF" transform="matrix(1.00, 0.00, -0.00, -1.00, 531.0, 117.9)">s</text><text xml:space="preserve" font-family="MyriadPro-Light,Myriad Pro" font-size="42.0" fill="#FEFFFF" transform="matrix(1.00, 0.00, -0.00, -1.00, 546.7, 117.9)"> </text><text xml:space="preserve" font-family="MyriadPro-Light,Myriad Pro" font-size="42.0" fill="#FEFFFF" transform="matrix(1.00, 0.00, -0.00, -1.00, 555.9, 117.9)">w</text><text xml:space="preserve" font-family="MyriadPro-Light,Myriad Pro" font-size="42.0" fill="#FEFFFF" transform="matrix(1.00, 0.00, -0.00, -1.00, 585.9, 117.9)">e</text><text xml:space="preserve" font-family="MyriadPro-Light,Myriad Pro" font-size="42.0" fill="#FEFFFF" transform="matrix(1.00, 0.00, -0.00, -1.00, 606.3, 117.9)"> </text><text xml:space="preserve" font-family="MyriadPro-Light,Myriad Pro" font-size="42.0" fill="#FEFFFF" transform="matrix(1.00, 0.00, -0.00, -1.00, 615.5, 117.9)">h</text><text xml:space="preserve" font-family="MyriadPro-Light,Myriad Pro" font-size="42.0" fill="#FEFFFF" transform="matrix(1.00, 0.00, -0.00, -1.00, 638.0, 117.9)">a</text><text xml:space="preserve" font-family="MyriadPro-Light,Myriad Pro" font-size="42.0" fill="#FEFFFF" transform="matrix(1.00, 0.00, -0.00, -1.00, 656.8, 117.9)">v</text><text xml:space="preserve" font-family="MyriadPro-Light,Myriad Pro" font-size="42.0" fill="#FEFFFF" transform="matrix(1.00, 0.00, -0.00, -1.00, 675.5, 117.9)">e</text><text xml:space="preserve" font-family="MyriadPro-Light,Myriad Pro" font-size="42.0" fill="#FEFFFF" transform="matrix(1.00, 0.00, -0.00, -1.00, 695.9, 117.9)"> </text><text xml:space="preserve" font-family="MyriadPro-Light,Myriad Pro" font-size="42.0" fill="#FEFFFF" transform="matrix(1.00, 0.00, -0.00, -1.00, 705.1, 117.9)">a</text><text xml:space="preserve" font-family="MyriadPro-Light,Myriad Pro" font-size="42.0" fill="#FEFFFF" transform="matrix(1.00, 0.00, -0.00, -1.00, 724.2, 117.9)"> </text><text xml:space="preserve" font-family="MyriadPro-Light,Myriad Pro" font-size="42.0" fill="#FEFFFF" transform="matrix(1.00, 0.00, -0.00, -1.00, 729.7, 117.9)">“</text><text xml:space="preserve" font-family="MyriadPro-Light,Myriad Pro" font-size="42.0" fill="#FEFFFF" transform="matrix(1.00, 0.00, -0.00, -1.00, 742.0, 117.9)">P</text><text xml:space="preserve" font-family="MyriadPro-Light,Myriad Pro" font-size="42.0" fill="#FEFFFF" transform="matrix(1.00, 0.00, -0.00, -1.00, 762.2, 117.9)">i</text><text xml:space="preserve" font-family="MyriadPro-Light,Myriad Pro" font-size="42.0" fill="#FEFFFF" transform="matrix(1.00, 0.00, -0.00, -1.00, 771.3, 117.9)">”</text><text xml:space="preserve" font-family="MyriadPro-Light,Myriad Pro" font-size="42.0" fill="#FEFFFF" transform="matrix(1.00, 0.00, -0.00, -1.00, 779.5, 117.9)"> </text><text xml:space="preserve" font-family="MyriadPro-Light,Myriad Pro" font-size="42.0" fill="#FEFFFF" transform="matrix(1.00, 0.00, -0.00, -1.00, 788.7, 117.9)">m</text><text xml:space="preserve" font-family="MyriadPro-Light,Myriad Pro" font-size="42.0" fill="#FEFFFF" transform="matrix(1.00, 0.00, -0.00, -1.00, 823.1, 117.9)">o</text><text xml:space="preserve" font-family="MyriadPro-Light,Myriad Pro" font-size="42.0" fill="#FEFFFF" transform="matrix(1.00, 0.00, -0.00, -1.00, 845.4, 117.9)">n</text><text xml:space="preserve" font-family="MyriadPro-Light,Myriad Pro" font-size="42.0" fill="#FEFFFF" transform="matrix(1.00, 0.00, -0.00, -1.00, 867.9, 117.9)">t</text><text xml:space="preserve" font-family="MyriadPro-Light,Myriad Pro" font-size="42.0" fill="#FEFFFF" transform="matrix(1.00, 0.00, -0.00, -1.00, 880.9, 117.9)">h</text><text xml:space="preserve" font-family="MyriadPro-Light,Myriad Pro" font-size="42.0" fill="#FEFFFF" transform="matrix(1.00, 0.00, -0.00, -1.00, 903.4, 117.9)"> </text><text xml:space="preserve" font-family="MyriadPro-Light,Myriad Pro" font-size="42.0" fill="#FEFFFF" transform="matrix(1.00, 0.00, -0.00, -1.00, 912.6, 117.9)">w</text><text xml:space="preserve" font-family="MyriadPro-Light,Myriad Pro" font-size="42.0" fill="#FEFFFF" transform="matrix(1.00, 0.00, -0.00, -1.00, 942.9, 117.9)">i</text><text xml:space="preserve" font-family="MyriadPro-Light,Myriad Pro" font-size="42.0" fill="#FEFFFF" transform="matrix(1.00, 0.00, -0.00, -1.00, 951.7, 117.9)">t</text><text xml:space="preserve" font-family="MyriadPro-Light,Myriad Pro" font-size="42.0" fill="#FEFFFF" transform="matrix(1.00, 0.00, -0.00, -1.00, 964.7, 117.9)">h</text><text xml:space="preserve" font-family="MyriadPro-Light,Myriad Pro" font-size="42.0" fill="#FEFFFF" transform="matrix(1.00, 0.00, -0.00, -1.00, 987.2, 117.9)"> </text><text xml:space="preserve" font-family="MyriadPro-Light,Myriad Pro" font-size="42.0" fill="#FEFFFF" transform="matrix(1.00, 0.00, -0.00, -1.00, 204.5, 66.9)">6</text><text xml:space="preserve" font-family="MyriadPro-Light,Myriad Pro" font-size="42.0" fill="#FEFFFF" transform="matrix(1.00, 0.00, -0.00, -1.00, 225.0, 66.9)"> </text><text xml:space="preserve" font-family="MyriadPro-Light,Myriad Pro" font-size="42.0" fill="#FEFFFF" transform="matrix(1.00, 0.00, -0.00, -1.00, 234.2, 66.9)">d</text><text xml:space="preserve" font-family="MyriadPro-Light,Myriad Pro" font-size="42.0" fill="#FEFFFF" transform="matrix(1.00, 0.00, -0.00, -1.00, 257.1, 66.9)">a</text><text xml:space="preserve" font-family="MyriadPro-Light,Myriad Pro" font-size="42.0" fill="#FEFFFF" transform="matrix(1.00, 0.00, -0.00, -1.00, 275.9, 66.9)">y</text><text xml:space="preserve" font-family="MyriadPro-Light,Myriad Pro" font-size="42.0" fill="#FEFFFF" transform="matrix(1.00, 0.00, -0.00, -1.00, 294.4, 66.9)">s</text><text xml:space="preserve" font-family="MyriadPro-Light,Myriad Pro" font-size="42.0" fill="#FEFFFF" transform="matrix(1.00, 0.00, -0.00, -1.00, 310.0, 66.9)"> </text><text xml:space="preserve" font-family="MyriadPro-Light,Myriad Pro" font-size="42.0" fill="#FEFFFF" transform="matrix(1.00, 0.00, -0.00, -1.00, 319.2, 66.9)">a</text><text xml:space="preserve" font-family="MyriadPro-Light,Myriad Pro" font-size="42.0" fill="#FEFFFF" transform="matrix(1.00, 0.00, -0.00, -1.00, 338.3, 66.9)">t</text><text xml:space="preserve" font-family="MyriadPro-Light,Myriad Pro" font-size="42.0" fill="#FEFFFF" transform="matrix(1.00, 0.00, -0.00, -1.00, 351.3, 66.9)"> </text><text xml:space="preserve" font-family="MyriadPro-Light,Myriad Pro" font-size="42.0" fill="#FEFFFF" transform="matrix(1.00, 0.00, -0.00, -1.00, 360.5, 66.9)">t</text><text xml:space="preserve" font-family="MyriadPro-Light,Myriad Pro" font-size="42.0" fill="#FEFFFF" transform="matrix(1.00, 0.00, -0.00, -1.00, 373.5, 66.9)">h</text><text xml:space="preserve" font-family="MyriadPro-Light,Myriad Pro" font-size="42.0" fill="#FEFFFF" transform="matrix(1.00, 0.00, -0.00, -1.00, 396.0, 66.9)">e</text><text xml:space="preserve" font-family="MyriadPro-Light,Myriad Pro" font-size="42.0" fill="#FEFFFF" transform="matrix(1.00, 0.00, -0.00, -1.00, 416.3, 66.9)"> </text><text xml:space="preserve" font-family="MyriadPro-Light,Myriad Pro" font-size="42.0" fill="#FEFFFF" transform="matrix(1.00, 0.00, -0.00, -1.00, 425.5, 66.9)">e</text><text xml:space="preserve" font-family="MyriadPro-Light,Myriad Pro" font-size="42.0" fill="#FEFFFF" transform="matrix(1.00, 0.00, -0.00, -1.00, 445.9, 66.9)">n</text><text xml:space="preserve" font-family="MyriadPro-Light,Myriad Pro" font-size="42.0" fill="#FEFFFF" transform="matrix(1.00, 0.00, -0.00, -1.00, 468.4, 66.9)">d</text><text xml:space="preserve" font-family="MyriadPro-Light,Myriad Pro" font-size="42.0" fill="#FEFFFF" transform="matrix(1.00, 0.00, -0.00, -1.00, 491.3, 66.9)"> </text><text xml:space="preserve" font-family="MyriadPro-Light,Myriad Pro" font-size="42.0" fill="#FEFFFF" transform="matrix(1.00, 0.00, -0.00, -1.00, 500.5, 66.9)">o</text><text xml:space="preserve" font-family="MyriadPro-Light,Myriad Pro" font-size="42.0" fill="#FEFFFF" transform="matrix(1.00, 0.00, -0.00, -1.00, 522.8, 66.9)">f</text><text xml:space="preserve" font-family="MyriadPro-Light,Myriad Pro" font-size="42.0" fill="#FEFFFF" transform="matrix(1.00, 0.00, -0.00, -1.00, 533.8, 66.9)"> </text><text xml:space="preserve" font-family="MyriadPro-Light,Myriad Pro" font-size="42.0" fill="#FEFFFF" transform="matrix(1.00, 0.00, -0.00, -1.00, 543.0, 66.9)">e</text><text xml:space="preserve" font-family="MyriadPro-Light,Myriad Pro" font-size="42.0" fill="#FEFFFF" transform="matrix(1.00, 0.00, -0.00, -1.00, 563.4, 66.9)">a</text><text xml:space="preserve" font-family="MyriadPro-Light,Myriad Pro" font-size="42.0" fill="#FEFFFF" transform="matrix(1.00, 0.00, -0.00, -1.00, 582.5, 66.9)">c</text><text xml:space="preserve" font-family="MyriadPro-Light,Myriad Pro" font-size="42.0" fill="#FEFFFF" transform="matrix(1.00, 0.00, -0.00, -1.00, 601.2, 66.9)">h</text><text xml:space="preserve" font-family="MyriadPro-Light,Myriad Pro" font-size="42.0" fill="#FEFFFF" transform="matrix(1.00, 0.00, -0.00, -1.00, 623.7, 66.9)"> </text><text xml:space="preserve" font-family="MyriadPro-Light,Myriad Pro" font-size="42.0" fill="#FEFFFF" transform="matrix(1.00, 0.00, -0.00, -1.00, 632.9, 66.9)">K</text><text xml:space="preserve" font-family="MyriadPro-Light,Myriad Pro" font-size="42.0" fill="#FEFFFF" transform="matrix(1.00, 0.00, -0.00, -1.00, 654.9, 66.9)">a</text><text xml:space="preserve" font-family="MyriadPro-Light,Myriad Pro" font-size="42.0" fill="#FEFFFF" transform="matrix(1.00, 0.00, -0.00, -1.00, 673.9, 66.9)">r</text><text xml:space="preserve" font-family="MyriadPro-Light,Myriad Pro" font-size="42.0" fill="#FEFFFF" transform="matrix(1.00, 0.00, -0.00, -1.00, 686.6, 66.9)">i</text><text xml:space="preserve" font-family="MyriadPro-Light,Myriad Pro" font-size="42.0" fill="#FEFFFF" transform="matrix(1.00, 0.00, -0.00, -1.00, 695.4, 66.9)">o</text><text xml:space="preserve" font-family="MyriadPro-Light,Myriad Pro" font-size="42.0" fill="#FEFFFF" transform="matrix(1.00, 0.00, -0.00, -1.00, 717.7, 66.9)">n</text><text xml:space="preserve" font-family="MyriadPro-Light,Myriad Pro" font-size="42.0" fill="#FEFFFF" transform="matrix(1.00, 0.00, -0.00, -1.00, 740.2, 66.9)"> </text><text xml:space="preserve" font-family="MyriadPro-Light,Myriad Pro" font-size="42.0" fill="#FEFFFF" transform="matrix(1.00, 0.00, -0.00, -1.00, 749.4, 66.9)">y</text><text xml:space="preserve" font-family="MyriadPro-Light,Myriad Pro" font-size="42.0" fill="#FEFFFF" transform="matrix(1.00, 0.00, -0.00, -1.00, 767.6, 66.9)">e</text><text xml:space="preserve" font-family="MyriadPro-Light,Myriad Pro" font-size="42.0" fill="#FEFFFF" transform="matrix(1.00, 0.00, -0.00, -1.00, 788.0, 66.9)">a</text><text xml:space="preserve" font-family="MyriadPro-Light,Myriad Pro" font-size="42.0" fill="#FEFFFF" transform="matrix(1.00, 0.00, -0.00, -1.00, 807.1, 66.9)">r</text></g></svg>