<?xml version="1.0" encoding="UTF-8" standalone="no"?><svg xmlns="http://www.w3.org/2000/svg" xmlns:xlink="http://www.w3.org/1999/xlink" clip-rule="evenodd" stroke-miterlimit="10" viewBox="0 0 732 76"><desc>SVG generated by Keynote</desc><defs></defs><g transform="matrix(1.00, 0.00, -0.00, -1.00, 0.0, 76.0)"><text xml:space="preserve" font-family="MyriadPro-Light,Myriad Pro" font-size="100.0" fill="#000000" transform="matrix(1.00, 0.00, -0.00, -1.00, 0.9, 3.0)">W</text><text xml:space="preserve" font-family="MyriadPro-Light,Myriad Pro" font-size="100.0" fill="#000000" transform="matrix(1.00, 0.00, -0.00, -1.00, 82.9, 3.0)">h</text><text xml:space="preserve" font-family="MyriadPro-Light,Myriad Pro" font-size="100.0" fill="#000000" transform="matrix(1.00, 0.00, -0.00, -1.00, 136.5, 3.0)">a</text><text xml:space="preserve" font-family="MyriadPro-Light,Myriad Pro" font-size="100.0" fill="#000000" transform="matrix(1.00, 0.00, -0.00, -1.00, 181.9, 3.0)">t</text><text xml:space="preserve" font-family="MyriadPro-Light,Myriad Pro" font-size="100.0" fill="#000000" transform="matrix(1.00, 0.00, -0.00, -1.00, 212.8, 3.0)"> </text><text xml:space="preserve" font-family="MyriadPro-Light,Myriad Pro" font-size="100.0" fill="#000000" transform="matrix(1.00, 0.00, -0.00, -1.00, 234.7, 3.0)">i</text><text xml:space="preserve" font-family="MyriadPro-Light,Myriad Pro" font-size="100.0" fill="#000000" transform="matrix(1.00, 0.00, -0.00, -1.00, 255.6, 3.0)">s</text><text xml:space="preserve" font-family="MyriadPro-Light,Myriad Pro" font-size="100.0" fill="#000000" transform="matrix(1.00, 0.00, -0.00, -1.00, 292.9, 3.0)"> </text><text xml:space="preserve" font-family="MyriadPro-Light,Myriad Pro" font-size="100.0" fill="#000000" transform="matrix(1.00, 0.00, -0.00, -1.00, 314.8, 3.0)">A</text><text xml:space="preserve" font-family="MyriadPro-Light,Myriad Pro" font-size="100.0" fill="#000000" transform="matrix(1.00, 0.00, -0.00, -1.00, 373.3, 3.0)">r</text><text xml:space="preserve" font-family="MyriadPro-Light,Myriad Pro" font-size="100.0" fill="#000000" transform="matrix(1.00, 0.00, -0.00, -1.00, 401.7, 3.0)">e</text><text xml:space="preserve" font-family="MyriadPro-Light,Myriad Pro" font-size="100.0" fill="#000000" transform="matrix(1.00, 0.00, -0.00, -1.00, 450.2, 3.0)">n</text><text xml:space="preserve" font-family="MyriadPro-Light,Myriad Pro" font-size="100.0" fill="#000000" transform="matrix(1.00, 0.00, -0.00, -1.00, 503.8, 3.0)">d</text><text xml:space="preserve" font-family="MyriadPro-Light,Myriad Pro" font-size="100.0" fill="#000000" transform="matrix(1.00, 0.00, -0.00, -1.00, 558.2, 3.0)">e</text><text xml:space="preserve" font-family="MyriadPro-Light,Myriad Pro" font-size="100.0" fill="#000000" transform="matrix(1.00, 0.00, -0.00, -1.00, 606.7, 3.0)">l</text><text xml:space="preserve" font-family="MyriadPro-Light,Myriad Pro" font-size="100.0" fill="#000000" transform="matrix(1.00, 0.00, -0.00, -1.00, 627.9, 3.0)">l</text><text xml:space="preserve" font-family="MyriadPro-Light,Myriad Pro" font-size="100.0" fill="#000000" transform="matrix(1.00, 0.00, -0.00, -1.00, 649.1, 3.0)">e</text><text xml:space="preserve" font-family="MyriadPro-Light,Myriad Pro" font-size="100.0" fill="#000000" transform="matrix(1.00, 0.00, -0.00, -1.00, 697.6, 3.0)">?</text></g></svg>